M48
;Layer_Color=9474304
;FILE_FORMAT=2:5
INCH,LZ
;TYPE=PLATED
T01F00S00C0.01181
T02F00S00C0.01299
T03F00S00C0.01400
T04F00S00C0.09843
%
T01
X0029134Y0005217
X0036614Y0008268
Y0011417
X0041732Y0025984
X002874Y0030315
X0020866
X0015748Y0026772
X0015655Y002399
X0011811Y0023228
Y0027097
Y0030709
X001063Y0034646
X0019008Y0048142
X0041732Y0051181
X0065748
X0077165Y0052362
Y0055118
X0085433Y0052362
X008937Y0050821
X0092126Y0051988
X0091827Y0054942
X0091732Y0047697
X0088583Y0046063
X008937Y0040945
X009252
X0091732Y0035787
X0089764Y0033819
X0089693Y0029757
X0091732Y0031496
X0083661Y0031769
Y0035827
X0079921
X0076181
Y0031769
X0076772Y0023228
Y0019685
X0080709
X0085039Y0019291
X0082284Y0014961
X0087402Y0009843
X0092775Y0009456
X0098425Y0017323
X010315Y0015354
X0111417Y0016535
X0115354
X0119276Y0016877
X0124803Y0016142
X0120472Y0005118
X0118098Y0003182
X0115818Y0004802
X0111811Y0005906
X0111417Y0026772
X011811Y0026378
X0120472Y0029921
X0132677Y0025984
X0137402
X0149213Y0022047
X0143847Y0012795
X0139764Y0005512
X0154724Y0003937
X0184252Y0005512
X0187795
X0209055Y0005906
X0206693Y0011811
X0204245Y001439
X020578Y0016535
X0192913Y0031102
X018937Y0035827
X0187402Y0044094
X0188583Y0051968
X0178094Y0055703
X0173727Y0052467
X0174596Y0046389
X0169685Y0046063
X0164567Y005
X0158661Y0047638
X0155512Y0050394
X0146063
X0145276Y0042913
Y0038189
X0155905Y0037008
X0155892Y00397
X0155905Y0034252
X0161417Y0035827
Y004252
X0172441Y003622
X0173228Y0030315
X0176378
X0173228Y0022835
X0166929Y0023228
X0177953Y0044094
X0102362Y004252
Y003937
X0083661Y0041752
Y0044882
X0082677Y0047638
X0076181Y0044882
Y0041732
X0082284Y0028346
X0065748Y0025984
X0215748Y0026378
X0218875Y0015726
X0221619Y0016159
X0224803Y0014785
Y0005335
X0229528Y0003937
X0230683Y0010191
X0237795Y0013386
Y0017717
X0235433Y0024803
X0231496Y0024016
X025Y0022835
X0255643Y0026084
X0262205Y0021654
X0271529Y0023938
X0273622Y0019291
Y0012205
X0273838Y0005118
X0280315
Y0022835
X0285827Y002126
X0294488
X0293701Y0037795
X0296063Y0041732
X0293701Y0047638
X0278346Y0038976
X0274016Y0037795
X0272047Y0041339
X0261024Y003937
X025748
X0261024Y0033465
X0261614Y0047939
X0261599Y0051611
X0257874Y0051575
X0254134Y0051427
X0254125Y00483
X0253937Y0045669
X0245276Y0045669
Y0042913
Y003937
X0239333Y0040315
X023992Y0053363
X0245388Y0051704
X0245294Y0048763
X0228346Y005
X0230639Y0053219
X0215728Y0011269
X0244488Y0004724
X0298819Y0006693
X0322835Y0023297
Y0027097
X0325984Y0038583
X0323228Y0047638
X0317447Y0042493
X0313386Y0037795
X0317717Y0057087
X0323228Y005748
Y0067323
X0326378Y0070866
X0313386Y0077165
Y0087008
Y009685
Y0106693
X0303543
X030271Y0102015
X0293701Y0106693
X0283858
X028027Y0102803
X0274016Y0106693
X0276772Y0113386
X0272835Y011811
X0260236Y0115354
Y0110236
X0256445Y0110512
X0256693Y0101969
X0252933Y01
X0250295
X0240551Y0102362
X0237402
X0232909Y0091732
X0233051Y0088583
X0226772Y0087008
X0228524Y0093736
X0222835Y0097244
Y0104331
Y0111417
X0226772Y0115354
X0230296Y011563
X0230315Y0112992
X0237657Y0117717
X0240295
X0235827Y0122047
X0226797Y0123597
X0220079Y0117546
X0214173Y0122047
X021377Y0111821
X0213779Y0090551
X0217056Y0088673
X0217752Y0077953
X0214992Y007832
X0221654Y0077953
X0220654Y0068685
X0223228Y0064961
X0212598Y0068898
X0234252Y0077165
X0240551Y0086221
X0246457Y0084252
X025Y0085039
X025315
X0254331Y007874
X025Y0075984
X0256311Y0072863
X0260195Y0073639
Y0068898
X0261584Y0060683
X0261614Y0057164
X025413Y005698
X0254134Y0060956
X0253937Y0064173
X024685Y0063386
X0244882Y0065354
X0242126Y0060492
X0244094Y0058434
X0271969Y006622
X0274016Y0077165
X0278346Y0077559
X0282677Y0080315
X0283858Y0087008
X0285827Y0085433
X0294049Y008548
X0293701Y0077165
X0303543
X0295669Y0066535
X0293701Y005748
X0264173Y0077165
Y009685
X0274016
X0264173Y0106693
X026205Y0123633
X0261954Y0126867
X0258268Y0127165
X0254464Y0126819
X0254487Y0123656
X0254724Y0120866
X0254464Y0132955
X0254528Y0136346
X0254442Y0138982
X0256476Y0143858
X0260236Y0143701
Y0147638
X0256466Y0155309
X0243307Y0156299
X0240945Y0158268
Y0153937
X0242913Y0151383
X0240356Y0149646
X024252Y0164996
X0246378Y0162992
X0245276Y016811
X0247638Y0169685
X025Y0171653
X0252362Y0173314
X025Y0177953
X0250394Y0185827
X024685Y0194882
X0240945Y0194874
X0235827Y0184646
X0230315Y0188189
X0222441Y0187795
X0218504
X0215226Y0188029
X0212598Y0187795
X0212992Y019685
X0216535Y0198819
X0221318Y0198014
X0222441Y0207087
X0227559
X0232677
Y0212205
X0227559
X0222441
X0217323Y0207087
X0215826Y0178424
X0213386Y0175197
X0224803Y0175591
X0223228Y0178347
X0231299Y0163941
X023134Y0161239
X0216535Y0136221
X0248031Y0128347
X0262263Y0133144
X0262024Y0136378
X0273327Y0139764
X0277165Y0153543
X0293701Y0146063
X029624Y0141732
X0293701Y0136221
Y0126378
X0296063Y0116535
X0317717
X0323228Y0116535
X0326378Y0112598
X0323228Y0126378
Y0136221
X0318012Y0131201
X0313386Y0146063
X0326378Y0144882
X0315354Y0161417
X0304724Y016063
Y0163681
Y0166732
Y0169783
Y0172835
X0301181Y0172933
Y0169882
Y0166831
Y0163779
Y0160728
X0300394Y0176772
X030315
X0305906
Y0179921
X030315
X0300394
Y019685
X0297638
X0294882
Y0200394
X0297638
X0300394
X030315
Y019685
X0304331Y0209842
X0291339Y0208661
X0288583
X0274803Y0209449
X0272441
X0269685Y0209055
X0272441Y0204331
X0274803
X0287402Y0190551
X0325197Y0191732
Y0194488
X032815
Y0191732
X0331102
Y0194488
X0324803Y0188779
Y0186221
Y0183661
X0322835Y0207087
X0248031Y0212205
X0212205Y0207087
X0188583Y0201575
X0189595Y0192126
X0183465Y0182283
X0179251Y0169999
X0178164Y0167595
X017853Y0164983
X0174016Y0161811
X0175554Y0157381
X017874Y0154331
X0187795
X0188583Y0161417
Y0166535
X0174126Y0169291
X0161811Y0167717
X0160236Y0173228
X0156693
X0160236Y0180709
X0166929Y0185827
X0153543Y0194882
X0154331Y0205118
Y0208661
X0150394
Y0205118
X0146063
Y0208661
X014685Y0200394
X0125619Y0197748
X0127703Y0191682
X0126496Y0188586
X0129134Y0188583
X0131772
X0119242Y0191402
X0106693Y0189764
Y0197638
X0100787
X0098425Y0191339
X0083268Y0190988
X0082677Y0188189
Y0185039
X0076772Y0183465
Y0179134
X0080581Y017222
X0082122Y0167634
X0084118Y0163447
X0087008Y0162205
Y0157874
X0090551Y0156693
X0090158Y0160984
X0091968Y0165068
X0091738Y0151181
X0088189Y0151181
X0083674Y0151548
Y0147987
X0083661Y0142185
Y0138208
X0079921Y0138189
X0076157Y0138207
X0076113Y0142273
X0076135Y0147943
X0076157Y0151504
X0076772Y0159055
X0080709
X0082677Y0154724
X0076772Y0163386
X0066142Y015748
X0059842Y016811
X0065748Y0174838
Y0185433
X0059449Y0183071
X0075754Y0190988
Y0194967
X0079528Y0195276
X0083268Y0195076
Y0200339
Y0204403
X0083071Y0207087
X0075796Y0204403
X0075751Y0200521
X0076772Y0211811
X0065748Y021063
X0084252Y0175197
X0115748Y0178347
X0138976Y0173622
X0142913Y0167717
X0145276Y0160236
X0145634Y0152756
Y0148031
X0155673Y0149344
X0155896Y0146716
X015587Y0144078
X0161024Y0144882
X0161417Y0151969
X0158268Y0157087
X0154839Y0160078
X0164173Y0159449
X016969Y0154729
X017126Y0146063
X0172835Y0140157
X0176772Y0140328
X0172835Y0132283
X0161811Y0126772
X015315Y0134646
X0137402Y0136221
X0132677
X012126Y0138976
X011811Y0135827
X0111417
X0108661Y0139764
X0111417Y0126772
X0115354Y0125984
X0119291
X0124668Y0125201
X0120472Y0112205
X0116543Y0115285
X0112184Y0117112
X0111417Y010815
X0088583Y011063
X0082607Y0111741
Y0114891
X0080315Y0120114
X008064Y0126309
X0076772Y0126378
Y0130709
X0082894Y0135031
X0085433Y0133465
X0088537Y0140536
X0091036Y0141378
X0090945Y0145669
X0088334Y0144512
X0102362Y015
X0102756Y0153543
X0103248Y0126279
X0098425Y0127953
X0092901Y0118511
X0087748
X0086614Y0105118
X0086614Y0098249
X0083635
X0082926Y0101036
X0083659Y0094273
X0085921Y0092619
X0083675Y0088834
Y0084858
X0082739Y0082284
X0080709Y0074803
X0076772Y007441
Y0077165
X0076173Y0085322
Y00888
X0076187Y0094574
X0076212Y0098249
X0076772Y0106299
Y0110236
X0066142Y0104331
X0059758Y0115317
X006063Y0129528
X0066393Y0132426
X0066142Y0079134
X0059842Y0076378
X005927Y0062053
X0073228Y0068898
X0079528Y0067716
X0082319Y0067323
X0081102Y0061811
X0093701Y0079134
X0096929Y0085354
X0106299Y0087402
X0107874Y0081496
X0120079Y0082284
X0128268Y0081594
X0127874Y0085354
X012656Y007874
X0129068Y0077925
X0131496Y0078957
Y0100787
X0146063Y0103957
X0149143Y0107874
X0149606Y0100394
X0150394Y0093701
X0159449Y0097638
X0170079Y0094488
X0179921Y0102362
X0181102Y011811
X0199606Y0116931
X0205502Y011672
X0205385Y0119454
X020554Y0122095
X0206681Y0125419
X0202674Y0125591
X0194095Y0140157
X0190157Y0146063
X0196457Y0177953
X0201181
X0206693Y0178347
X0177953Y0201969
X0157874Y0112992
X014311Y0122244
X013937Y0062992
X0142913Y0058268
X0156114Y0064011
X0159449Y0064173
Y007126
X0177953Y0073228
X0174016Y0080315
X0188808Y0083465
X0188189Y0093307
X0211024Y0088583
X021063Y0065748
X0207874
X0200394Y0067716
X0196063
X0188583Y0056299
X0177165Y0058661
X0177286Y0061329
X0173158Y0059419
X0116142Y006811
X0088583Y0088583
X0079921Y0090945
X0041339Y0079134
Y0104331
X0019291Y0107874
X001063Y0109449
Y0126772
X0019291Y0138189
Y015315
X001063Y0156299
Y0170472
X0019291Y0183465
Y0198031
X002126Y0205906
X0028839Y0206004
X0041732Y021063
Y0185827
X003189Y0173228
X0041563Y0157256
X0041339Y0132283
X0022308Y011678
X0019291Y0093307
X001063Y0079528
Y0066535
X0019291Y0062992
X0022047Y0068898
X001063Y0201575
X0011811Y0205512
Y0209124
X0016142Y0211024
Y0214173
X0011811Y0212924
X0029921Y0224016
X0036614Y0226772
Y0230709
X0059625Y0221558
X0076772Y0215748
X0082677Y0217323
Y0220866
X0087008Y0222047
Y0214173
X0088976Y0228346
X0107874Y0226378
X0111811
X0132283Y0214567
X0140551Y0213779
X0146063Y0220079
Y0223622
X015
Y0220079
X0153937
Y0223622
X0242913Y022874
X0246457
X025
Y0232677
X0246457
X0242913
X0269685Y0233465
X0272441Y0214567
X0274803
X0288583Y0216535
X0291339
Y0212598
X0288583
X0322835Y0212924
T02
X0114764Y0037795
Y004252
X0119488
X0124213
X0128937
Y0037795
X0133661
Y004252
Y0047244
X0128937
X0124213
X0124213Y0051968
X0119488
X0114764
Y0047244
X0119488
X0119488Y0037795
X0124213
X0128937Y0051968
X0133661
X0199409
Y0047244
X0204134
X0208858
X0208858Y0051968
X0204134
Y004252
X0208858
Y0037795
X0204134
X0199409
Y004252
X0213583
Y0047244
X0218307
Y0051968
X0213583
X0218307Y004252
Y0037795
X0213583
X0248819Y0017323
Y0012598
Y0007874
X0253543
Y0012598
Y0017323
X0218307Y0056693
X0213583
X0214323Y0147638
X0214323Y0152362
Y0157087
X0219047
Y0161811
X0214323
X0214323Y0166535
X0219047
Y0152362
Y0147638
X0209598
Y0152362
X0204874
Y0147638
X020015
Y0152362
Y0157087
X0204874
X0209598
X0209598Y0161811
Y0166535
X0204874
X020015
Y0161811
X0204874
X0202362Y0109193
Y0104469
Y0099744
X0197638
Y0104469
Y0109193
X0199409Y0056693
X0204134
X0208858
X0133661
X0128937
X0124213
X0119488
X0114764
X0111811Y0093701
X0107087
Y0098425
X0111811
Y010315
X0107087
X0114764Y0147638
Y0152362
X0119488
X0124213
X0128937
Y0147638
X0133661
Y0152362
Y0157087
X0128937
X0124213
X0124213Y0161811
X0119488
X0114764
Y0166535
X0119488
X0124213
X0128937
X0133661
Y0161811
X0128937
X0119488Y0157087
X0114764
X0119488Y0147638
X0124213
X0112598Y0206713
Y0211437
X0107874
Y0206713
Y0216161
X0112598
T03
X0007357Y0007357
X0011811Y0005512
X0016265Y0007357
X001811Y0011811
X0016265Y0016265
X0011811Y001811
X0007357Y0016265
X0005512Y0011811
X0316535
X031838Y0007357
X0322835Y0005512
X0327289Y0007357
X0329134Y0011811
X0327289Y0016265
X0322835Y001811
X031838Y0016265
X0016265Y0219955
X001811Y022441
X0016265Y0228864
X0011811Y0230709
X0007357Y0228864
X0005512Y022441
X0007357Y0219955
X0011811Y021811
X031838Y0219955
X0322835Y021811
X0327289Y0219955
X0329134Y022441
X0327289Y0228864
X0322835Y0230709
X031838Y0228864
X0316535Y022441
T04
X0011811Y0011811
X0322835
X0011811Y022441
X0322835
M30
