G04*
G04 #@! TF.GenerationSoftware,Altium Limited,Altium Designer,23.9.2 (47)*
G04*
G04 Layer_Color=32896*
%FSLAX25Y25*%
%MOIN*%
G70*
G04*
G04 #@! TF.SameCoordinates,282F133A-872F-418E-B260-DD41B2CE053A*
G04*
G04*
G04 #@! TF.FilePolarity,Positive*
G04*
G01*
G75*
%ADD12C,0.01000*%
%ADD13C,0.00700*%
%ADD15C,0.00787*%
%ADD16C,0.00500*%
%ADD21C,0.00669*%
D12*
X220317Y59854D02*
G03*
X220317Y59854I-100J0D01*
G01*
X226466Y83996D02*
G03*
X226466Y83996I-100J0D01*
G01*
X112167Y35421D02*
G03*
X112167Y35421I-100J0D01*
G01*
X106805Y11280D02*
G03*
X106805Y11280I-100J0D01*
G01*
X222285Y169441D02*
G03*
X222285Y169441I-100J0D01*
G01*
X227254Y193445D02*
G03*
X227254Y193445I-100J0D01*
G01*
X112167Y144870D02*
G03*
X112167Y144870I-100J0D01*
G01*
X106805Y121122D02*
G03*
X106805Y121122I-100J0D01*
G01*
D13*
X278803Y118335D02*
G03*
X278803Y118335I-100J0D01*
G01*
X187071Y45895D02*
G03*
X187071Y45895I-100J0D01*
G01*
X154394Y52194D02*
G03*
X154394Y52194I-100J0D01*
G01*
X187139Y156131D02*
G03*
X187139Y156131I-100J0D01*
G01*
X154000Y162036D02*
G03*
X154000Y162036I-100J0D01*
G01*
X165836Y102500D02*
G03*
X165836Y102500I-100J0D01*
G01*
X25653Y27784D02*
G03*
X25653Y27784I-100J0D01*
G01*
Y211249D02*
G03*
X25653Y211249I-100J0D01*
G01*
X24940Y207649D02*
G03*
X24940Y207649I-100J0D01*
G01*
X35496Y228572D02*
G03*
X35496Y228572I-100J0D01*
G01*
Y232509D02*
G03*
X35496Y232509I-100J0D01*
G01*
X57617Y184027D02*
G03*
X57617Y184027I-100J0D01*
G01*
Y24184D02*
G03*
X57617Y24184I-100J0D01*
G01*
X24546D02*
G03*
X24546Y24184I-100J0D01*
G01*
X35102Y13611D02*
G03*
X35102Y13611I-100J0D01*
G01*
Y9674D02*
G03*
X35102Y9674I-100J0D01*
G01*
X280378Y43139D02*
G03*
X280378Y43139I-100J0D01*
G01*
X58011Y77334D02*
G03*
X58011Y77334I-100J0D01*
G01*
X59192Y130483D02*
G03*
X59192Y130483I-100J0D01*
G01*
X159655Y98300D02*
X160836D01*
X159646Y101700D02*
X160827D01*
X216116Y64764D02*
Y65945D01*
X219317Y64764D02*
Y65945D01*
X220276Y79896D02*
X221457D01*
X220276Y83096D02*
X221457D01*
X112967Y29331D02*
Y30512D01*
X116167Y29331D02*
Y30512D01*
X111614Y15380D02*
X112795D01*
X111614Y12179D02*
X112795D01*
X221285Y174350D02*
Y175531D01*
X218085Y174350D02*
Y175531D01*
X221063Y192545D02*
X222244D01*
X221063Y189345D02*
X222244D01*
X112967Y138779D02*
Y139961D01*
X116167Y138779D02*
Y139961D01*
X111614Y122022D02*
X112795D01*
X111614Y125222D02*
X112795D01*
D15*
X140748Y203346D02*
Y203740D01*
X143504Y203346D02*
Y203740D01*
X159843Y95571D02*
X160630D01*
X159843Y92618D02*
X160630D01*
X52165Y219980D02*
X55709D01*
X52165Y213878D02*
X55709D01*
X51772Y60532D02*
X55315D01*
X51772Y54429D02*
X55315D01*
X243701Y71555D02*
X244488D01*
X243701Y68602D02*
X244488D01*
X135236Y169390D02*
X138779D01*
X135236Y175492D02*
X138779D01*
X106299Y148130D02*
X107087D01*
X106299Y151083D02*
X107087D01*
X313976Y167913D02*
Y168307D01*
X316732Y167913D02*
Y168307D01*
X313681Y180118D02*
Y183661D01*
X307579Y180118D02*
Y183661D01*
X292520Y189075D02*
X293307D01*
X292520Y192028D02*
X293307D01*
X146653Y103740D02*
Y104134D01*
X143898Y103740D02*
Y104134D01*
X252854Y91732D02*
Y92520D01*
X255807Y91732D02*
Y92520D01*
X247342Y91732D02*
Y92520D01*
X250295Y91732D02*
Y92520D01*
X193504Y34154D02*
X197047D01*
X193504Y28051D02*
X197047D01*
X243701Y74508D02*
X244488D01*
X243701Y77461D02*
X244488D01*
X225590Y57382D02*
X226378D01*
X225590Y54429D02*
X226378D01*
X244094Y30807D02*
X244882D01*
X244094Y33760D02*
X244882D01*
X106299Y40059D02*
X107087D01*
X106299Y37106D02*
X107087D01*
X88189Y60335D02*
X88976D01*
X88189Y63287D02*
X88976D01*
X135236Y66043D02*
X138779D01*
X135236Y59941D02*
X138779D01*
X89764Y22146D02*
X90551D01*
X89764Y25098D02*
X90551D01*
X89764Y17815D02*
X90551D01*
X89764Y20768D02*
X90551D01*
X282087Y69784D02*
X285630D01*
X282087Y75886D02*
X285630D01*
X52165Y107579D02*
X55709D01*
X52165Y113681D02*
X55709D01*
X280906Y151870D02*
X284449D01*
X280906Y145768D02*
X284449D01*
X226772Y167224D02*
X227559D01*
X226772Y164272D02*
X227559D01*
X244094Y184153D02*
X244882D01*
X244094Y181201D02*
X244882D01*
X244094Y179429D02*
X244882D01*
X244094Y176476D02*
X244882D01*
X194291Y138287D02*
X197835D01*
X194291Y144390D02*
X197835D01*
X243307Y139272D02*
X244094D01*
X243307Y136319D02*
X244094D01*
X237697Y110236D02*
Y111024D01*
X234744Y110236D02*
Y111024D01*
X243209Y110236D02*
Y111024D01*
X240256Y110236D02*
Y111024D01*
X52165Y160335D02*
X55709D01*
X52165Y166437D02*
X55709D01*
X88976Y133169D02*
X89764D01*
X88976Y136122D02*
X89764D01*
X88976Y128445D02*
X89764D01*
X88976Y131398D02*
X89764D01*
X87795Y169783D02*
X88583D01*
X87795Y172736D02*
X88583D01*
D16*
X274803Y115736D02*
Y117336D01*
X183071Y43295D02*
Y44895D01*
X150393Y49594D02*
Y51194D01*
X183139Y153531D02*
Y155131D01*
X150000Y159437D02*
Y161037D01*
X21653Y25185D02*
Y26785D01*
Y208649D02*
Y210249D01*
X28741Y208648D02*
Y210248D01*
X31496Y225972D02*
Y227572D01*
Y229909D02*
Y231509D01*
X61418Y185026D02*
Y186626D01*
Y25184D02*
Y26784D01*
X28347Y25184D02*
Y26784D01*
X31102Y11012D02*
Y12612D01*
Y7075D02*
Y8675D01*
X276378Y40539D02*
Y42139D01*
X61811Y78333D02*
Y79933D01*
X62992Y131483D02*
Y133083D01*
D21*
X224016Y64665D02*
X227953D01*
X224016Y58169D02*
X227953D01*
X242520Y23524D02*
X246457D01*
X242520Y30020D02*
X246457D01*
X235433Y84744D02*
X239370D01*
X235433Y78248D02*
X239370D01*
X225591Y168799D02*
X229528D01*
X225591Y175295D02*
X229528D01*
X241732Y135531D02*
X245669D01*
X241732Y129035D02*
X245669D01*
X235967Y185091D02*
X239904D01*
X235967Y191587D02*
X239904D01*
X86614Y64075D02*
X90551D01*
X86614Y70571D02*
X90551D01*
X104724Y35925D02*
X108661D01*
X104724Y29429D02*
X108661D01*
X93701Y16634D02*
X97638D01*
X93701Y10138D02*
X97638D01*
X104724Y146949D02*
X108661D01*
X104724Y140453D02*
X108661D01*
X86221Y173524D02*
X90158D01*
X86221Y180020D02*
X90158D01*
X93701Y120768D02*
X97638D01*
X93701Y127264D02*
X97638D01*
X299114Y186221D02*
Y190157D01*
X305610Y186221D02*
Y190157D01*
M02*
