G04*
G04 #@! TF.GenerationSoftware,Altium Limited,Altium Designer,23.9.2 (47)*
G04*
G04 Layer_Physical_Order=4*
G04 Layer_Color=6736896*
%FSLAX25Y25*%
%MOIN*%
G70*
G04*
G04 #@! TF.SameCoordinates,282F133A-872F-418E-B260-DD41B2CE053A*
G04*
G04*
G04 #@! TF.FilePolarity,Positive*
G04*
G01*
G75*
%ADD106C,0.15748*%
%ADD107C,0.02600*%
%ADD108C,0.01968*%
%ADD109C,0.02598*%
%ADD110C,0.01181*%
%ADD111C,0.01299*%
G36*
X268090Y234213D02*
X268425Y233715D01*
Y233214D01*
X268617Y232751D01*
X268971Y232397D01*
X269434Y232205D01*
X269936D01*
X270399Y232397D01*
X270753Y232751D01*
X270945Y233214D01*
Y233713D01*
X270945Y233715D01*
X271280Y234213D01*
X328740D01*
X329124Y234213D01*
X329877Y234064D01*
X330587Y233770D01*
X331225Y233343D01*
X331768Y232800D01*
X332195Y232162D01*
X332489Y231452D01*
X332639Y230699D01*
X332639Y230315D01*
Y195378D01*
X332291Y195247D01*
X332139Y195234D01*
X331816Y195556D01*
X331353Y195748D01*
X330852D01*
X330389Y195556D01*
X330034Y195202D01*
X329876Y194820D01*
X329812Y194808D01*
X329440D01*
X329376Y194820D01*
X329218Y195202D01*
X328863Y195556D01*
X328400Y195748D01*
X327899D01*
X327436Y195556D01*
X327082Y195202D01*
X326923Y194820D01*
X326859Y194808D01*
X326487D01*
X326423Y194820D01*
X326265Y195202D01*
X325910Y195556D01*
X325447Y195748D01*
X324946D01*
X324483Y195556D01*
X324129Y195202D01*
X323937Y194739D01*
Y194238D01*
X324129Y193774D01*
X324483Y193420D01*
X324578Y193381D01*
Y192840D01*
X324483Y192800D01*
X324129Y192446D01*
X323937Y191983D01*
Y191482D01*
X324129Y191019D01*
X324483Y190664D01*
X324785Y190539D01*
X324685Y190039D01*
X324552D01*
X324090Y189848D01*
X323735Y189493D01*
X323543Y189030D01*
Y188529D01*
X323735Y188066D01*
X324006Y187795D01*
X324055Y187500D01*
X324006Y187205D01*
X323735Y186934D01*
X323543Y186471D01*
Y185970D01*
X323735Y185507D01*
X324006Y185236D01*
X324055Y184941D01*
X324006Y184646D01*
X323735Y184375D01*
X323543Y183912D01*
Y183411D01*
X323735Y182948D01*
X324090Y182593D01*
X324552Y182402D01*
X325054D01*
X325517Y182593D01*
X325871Y182948D01*
X326063Y183411D01*
Y183912D01*
X325871Y184375D01*
X325600Y184646D01*
X325552Y184941D01*
X325600Y185236D01*
X325871Y185507D01*
X326063Y185970D01*
Y186471D01*
X325871Y186934D01*
X325600Y187205D01*
X325552Y187500D01*
X325600Y187795D01*
X325871Y188066D01*
X326063Y188529D01*
Y189030D01*
X325871Y189493D01*
X325517Y189848D01*
X325215Y189972D01*
X325315Y190472D01*
X325447D01*
X325910Y190664D01*
X326265Y191019D01*
X326423Y191401D01*
X326487Y191412D01*
X326859D01*
X326923Y191401D01*
X327082Y191019D01*
X327436Y190664D01*
X327899Y190472D01*
X328400D01*
X328863Y190664D01*
X329218Y191019D01*
X329376Y191401D01*
X329440Y191412D01*
X329812D01*
X329876Y191401D01*
X330034Y191019D01*
X330389Y190664D01*
X330852Y190472D01*
X331353D01*
X331816Y190664D01*
X332139Y190987D01*
X332291Y190973D01*
X332639Y190842D01*
X332639Y5906D01*
Y5522D01*
X332489Y4768D01*
X332195Y4059D01*
X331768Y3420D01*
X331225Y2877D01*
X330587Y2451D01*
X329877Y2157D01*
X329124Y2007D01*
X119412D01*
X119253Y2305D01*
X119182Y2507D01*
X119358Y2932D01*
Y3433D01*
X119166Y3896D01*
X118812Y4250D01*
X118348Y4442D01*
X117847D01*
X117517Y4305D01*
X117266Y4446D01*
X117141Y4547D01*
X117078Y4623D01*
Y5053D01*
X116886Y5516D01*
X116532Y5870D01*
X116069Y6062D01*
X115568D01*
X115104Y5870D01*
X114750Y5516D01*
X114558Y5053D01*
Y4552D01*
X114750Y4089D01*
X115104Y3734D01*
X115568Y3542D01*
X116069D01*
X116399Y3679D01*
X116650Y3538D01*
X116775Y3438D01*
X116838Y3361D01*
Y2932D01*
X117014Y2507D01*
X116943Y2305D01*
X116784Y2007D01*
X5522D01*
X4768Y2157D01*
X4059Y2451D01*
X3420Y2877D01*
X2877Y3420D01*
X2451Y4059D01*
X2157Y4768D01*
X2007Y5522D01*
X2007Y5906D01*
X2007Y230315D01*
Y230699D01*
X2157Y231452D01*
X2451Y232162D01*
X2877Y232800D01*
X3420Y233343D01*
X4059Y233770D01*
X4768Y234064D01*
X5522Y234213D01*
X5906Y234213D01*
X268090Y234213D01*
D02*
G37*
%LPC*%
G36*
X36865Y231968D02*
X36364D01*
X35901Y231777D01*
X35546Y231422D01*
X35354Y230959D01*
Y230458D01*
X35546Y229995D01*
X35901Y229641D01*
X36364Y229449D01*
X36865D01*
X37328Y229641D01*
X37682Y229995D01*
X37874Y230458D01*
Y230959D01*
X37682Y231422D01*
X37328Y231777D01*
X36865Y231968D01*
D02*
G37*
G36*
X89227Y229606D02*
X88726D01*
X88263Y229415D01*
X87908Y229060D01*
X87717Y228597D01*
Y228096D01*
X87908Y227633D01*
X88263Y227278D01*
X88726Y227087D01*
X89227D01*
X89690Y227278D01*
X90044Y227633D01*
X90236Y228096D01*
Y228597D01*
X90044Y229060D01*
X89690Y229415D01*
X89227Y229606D01*
D02*
G37*
G36*
X36865Y228031D02*
X36364D01*
X35901Y227840D01*
X35546Y227485D01*
X35354Y227022D01*
Y226521D01*
X35546Y226058D01*
X35901Y225704D01*
X36364Y225512D01*
X36865D01*
X37328Y225704D01*
X37682Y226058D01*
X37874Y226521D01*
Y227022D01*
X37682Y227485D01*
X37328Y227840D01*
X36865Y228031D01*
D02*
G37*
G36*
X112062Y227638D02*
X111560D01*
X111097Y227446D01*
X110743Y227092D01*
X110551Y226628D01*
Y226127D01*
X110743Y225664D01*
X111097Y225310D01*
X111560Y225118D01*
X112062D01*
X112525Y225310D01*
X112879Y225664D01*
X113071Y226127D01*
Y226628D01*
X112879Y227092D01*
X112525Y227446D01*
X112062Y227638D01*
D02*
G37*
G36*
X30172Y225276D02*
X29671D01*
X29208Y225084D01*
X28853Y224729D01*
X28661Y224266D01*
Y223765D01*
X28853Y223302D01*
X29208Y222948D01*
X29671Y222756D01*
X30172D01*
X30635Y222948D01*
X30989Y223302D01*
X31181Y223765D01*
Y224266D01*
X30989Y224729D01*
X30635Y225084D01*
X30172Y225276D01*
D02*
G37*
G36*
X82928Y222126D02*
X82427D01*
X81963Y221934D01*
X81609Y221580D01*
X81417Y221117D01*
Y220616D01*
X81609Y220152D01*
X81963Y219798D01*
X82427Y219606D01*
X82928D01*
X83391Y219798D01*
X83745Y220152D01*
X83937Y220616D01*
Y221117D01*
X83745Y221580D01*
X83391Y221934D01*
X82928Y222126D01*
D02*
G37*
G36*
X291589Y217795D02*
X291088D01*
X290625Y217603D01*
X290270Y217249D01*
X290231Y217154D01*
X289690D01*
X289651Y217249D01*
X289296Y217603D01*
X288833Y217795D01*
X288332D01*
X287869Y217603D01*
X287515Y217249D01*
X287323Y216786D01*
Y216285D01*
X287515Y215822D01*
X287869Y215467D01*
X288332Y215276D01*
X288833D01*
X289296Y215467D01*
X289651Y215822D01*
X289690Y215917D01*
X290231D01*
X290270Y215822D01*
X290625Y215467D01*
X291088Y215276D01*
X291589D01*
X292052Y215467D01*
X292407Y215822D01*
X292598Y216285D01*
Y216786D01*
X292407Y217249D01*
X292052Y217603D01*
X291589Y217795D01*
D02*
G37*
G36*
X323676Y232953D02*
X321993D01*
X320343Y232624D01*
X318788Y231980D01*
X317389Y231046D01*
X316199Y229855D01*
X315264Y228456D01*
X314620Y226901D01*
X314291Y225251D01*
Y223568D01*
X314620Y221918D01*
X315264Y220363D01*
X316199Y218963D01*
X317389Y217773D01*
X318788Y216839D01*
X320343Y216195D01*
X321993Y215866D01*
X323676D01*
X325327Y216195D01*
X326881Y216839D01*
X328281Y217773D01*
X329471Y218963D01*
X330406Y220363D01*
X331050Y221918D01*
X331378Y223568D01*
Y225251D01*
X331050Y226901D01*
X330406Y228456D01*
X329471Y229855D01*
X328281Y231046D01*
X326881Y231980D01*
X325327Y232624D01*
X323676Y232953D01*
D02*
G37*
G36*
X12652D02*
X10970D01*
X9319Y232624D01*
X7764Y231980D01*
X6365Y231046D01*
X5175Y229855D01*
X4240Y228456D01*
X3596Y226901D01*
X3268Y225251D01*
Y223568D01*
X3596Y221918D01*
X4240Y220363D01*
X5175Y218963D01*
X6365Y217773D01*
X7764Y216839D01*
X9319Y216195D01*
X10970Y215866D01*
X12652D01*
X14303Y216195D01*
X15858Y216839D01*
X17257Y217773D01*
X18447Y218963D01*
X19382Y220363D01*
X20026Y221918D01*
X20354Y223568D01*
Y225251D01*
X20026Y226901D01*
X19382Y228456D01*
X18447Y229855D01*
X17257Y231046D01*
X15858Y231980D01*
X14303Y232624D01*
X12652Y232953D01*
D02*
G37*
G36*
X112861Y217480D02*
X112336D01*
X111851Y217280D01*
X111480Y216909D01*
X111279Y216424D01*
Y215899D01*
X111480Y215414D01*
X111851Y215043D01*
X112336Y214843D01*
X112861D01*
X113346Y215043D01*
X113716Y215414D01*
X113917Y215899D01*
Y216424D01*
X113716Y216909D01*
X113346Y217280D01*
X112861Y217480D01*
D02*
G37*
G36*
X108136D02*
X107612D01*
X107127Y217280D01*
X106756Y216909D01*
X106555Y216424D01*
Y215899D01*
X106756Y215414D01*
X107127Y215043D01*
X107612Y214843D01*
X108136D01*
X108621Y215043D01*
X108992Y215414D01*
X109193Y215899D01*
Y216424D01*
X108992Y216909D01*
X108621Y217280D01*
X108136Y217480D01*
D02*
G37*
G36*
X77022Y217008D02*
X76521D01*
X76058Y216816D01*
X75704Y216462D01*
X75512Y215999D01*
Y215497D01*
X75704Y215034D01*
X76058Y214680D01*
X76521Y214488D01*
X77022D01*
X77485Y214680D01*
X77840Y215034D01*
X78031Y215497D01*
Y215999D01*
X77840Y216462D01*
X77485Y216816D01*
X77022Y217008D01*
D02*
G37*
G36*
X291589Y213858D02*
X291088D01*
X290625Y213667D01*
X290270Y213312D01*
X290231Y213217D01*
X289690D01*
X289651Y213312D01*
X289296Y213667D01*
X288833Y213858D01*
X288332D01*
X287869Y213667D01*
X287515Y213312D01*
X287323Y212849D01*
Y212348D01*
X287515Y211885D01*
X287869Y211530D01*
X288332Y211339D01*
X288833D01*
X289296Y211530D01*
X289651Y211885D01*
X289690Y211980D01*
X290231D01*
X290270Y211885D01*
X290625Y211530D01*
X291088Y211339D01*
X291589D01*
X292052Y211530D01*
X292407Y211885D01*
X292598Y212348D01*
Y212849D01*
X292407Y213312D01*
X292052Y213667D01*
X291589Y213858D01*
D02*
G37*
G36*
X16392Y215433D02*
X15891D01*
X15428Y215241D01*
X15074Y214887D01*
X14882Y214424D01*
Y213923D01*
X15074Y213460D01*
X15428Y213105D01*
X15891Y212913D01*
X16392D01*
X16855Y213105D01*
X17210Y213460D01*
X17402Y213923D01*
Y214424D01*
X17210Y214887D01*
X16855Y215241D01*
X16392Y215433D01*
D02*
G37*
G36*
X140802Y215039D02*
X140301D01*
X139838Y214848D01*
X139483Y214493D01*
X139291Y214030D01*
Y213529D01*
X139483Y213066D01*
X139838Y212712D01*
X140301Y212520D01*
X140802D01*
X141265Y212712D01*
X141619Y213066D01*
X141811Y213529D01*
Y214030D01*
X141619Y214493D01*
X141265Y214848D01*
X140802Y215039D01*
D02*
G37*
G36*
X323085Y214183D02*
X322584D01*
X322121Y213992D01*
X321767Y213637D01*
X321575Y213174D01*
Y212673D01*
X321767Y212210D01*
X322121Y211856D01*
X322584Y211664D01*
X323085D01*
X323548Y211856D01*
X323903Y212210D01*
X324095Y212673D01*
Y213174D01*
X323903Y213637D01*
X323548Y213992D01*
X323085Y214183D01*
D02*
G37*
G36*
X12062D02*
X11560D01*
X11097Y213992D01*
X10743Y213637D01*
X10551Y213174D01*
Y212673D01*
X10743Y212210D01*
X11097Y211856D01*
X11560Y211664D01*
X12062D01*
X12525Y211856D01*
X12879Y212210D01*
X13071Y212673D01*
Y213174D01*
X12879Y213637D01*
X12525Y213992D01*
X12062Y214183D01*
D02*
G37*
G36*
X77022Y213071D02*
X76521D01*
X76058Y212879D01*
X75704Y212525D01*
X75512Y212062D01*
Y211560D01*
X75704Y211097D01*
X76058Y210743D01*
X76521Y210551D01*
X77022D01*
X77485Y210743D01*
X77840Y211097D01*
X78031Y211560D01*
Y212062D01*
X77840Y212525D01*
X77485Y212879D01*
X77022Y213071D01*
D02*
G37*
G36*
X112861Y212756D02*
X112336D01*
X111851Y212555D01*
X111480Y212184D01*
X111279Y211699D01*
Y211175D01*
X111480Y210690D01*
X111851Y210319D01*
X112336Y210118D01*
X112861D01*
X113346Y210319D01*
X113716Y210690D01*
X113917Y211175D01*
Y211699D01*
X113716Y212184D01*
X113346Y212555D01*
X112861Y212756D01*
D02*
G37*
G36*
X108136D02*
X107612D01*
X107127Y212555D01*
X106756Y212184D01*
X106555Y211699D01*
Y211175D01*
X106756Y210690D01*
X107127Y210319D01*
X107612Y210118D01*
X108136D01*
X108621Y210319D01*
X108992Y210690D01*
X109193Y211175D01*
Y211699D01*
X108992Y212184D01*
X108621Y212555D01*
X108136Y212756D01*
D02*
G37*
G36*
X65999Y211890D02*
X65497D01*
X65034Y211698D01*
X64680Y211344D01*
X64488Y210880D01*
Y210379D01*
X64680Y209916D01*
X65034Y209562D01*
X65497Y209370D01*
X65999D01*
X66462Y209562D01*
X66816Y209916D01*
X67008Y210379D01*
Y210880D01*
X66816Y211344D01*
X66462Y211698D01*
X65999Y211890D01*
D02*
G37*
G36*
X41983D02*
X41482D01*
X41019Y211698D01*
X40664Y211344D01*
X40472Y210880D01*
Y210379D01*
X40664Y209916D01*
X41019Y209562D01*
X41482Y209370D01*
X41983D01*
X42446Y209562D01*
X42800Y209916D01*
X42992Y210379D01*
Y210880D01*
X42800Y211344D01*
X42446Y211698D01*
X41983Y211890D01*
D02*
G37*
G36*
X291589Y209921D02*
X291088D01*
X290625Y209730D01*
X290270Y209375D01*
X290231Y209280D01*
X289690D01*
X289651Y209375D01*
X289296Y209730D01*
X288833Y209921D01*
X288332D01*
X287869Y209730D01*
X287515Y209375D01*
X287323Y208912D01*
Y208411D01*
X287515Y207948D01*
X287869Y207593D01*
X288332Y207402D01*
X288833D01*
X289296Y207593D01*
X289651Y207948D01*
X289690Y208043D01*
X290231D01*
X290270Y207948D01*
X290625Y207593D01*
X291088Y207402D01*
X291589D01*
X292052Y207593D01*
X292407Y207948D01*
X292598Y208411D01*
Y208912D01*
X292407Y209375D01*
X292052Y209730D01*
X291589Y209921D01*
D02*
G37*
G36*
X269936Y210315D02*
X269434D01*
X268971Y210123D01*
X268617Y209769D01*
X268425Y209306D01*
Y208804D01*
X268617Y208342D01*
X268971Y207987D01*
X269434Y207795D01*
X269936D01*
X270399Y207987D01*
X270753Y208342D01*
X270945Y208804D01*
Y209306D01*
X270753Y209769D01*
X270399Y210123D01*
X269936Y210315D01*
D02*
G37*
G36*
X112861Y208032D02*
X112336D01*
X111851Y207831D01*
X111480Y207460D01*
X111279Y206975D01*
Y206450D01*
X111480Y205965D01*
X111851Y205594D01*
X112336Y205394D01*
X112861D01*
X113346Y205594D01*
X113716Y205965D01*
X113917Y206450D01*
Y206975D01*
X113716Y207460D01*
X113346Y207831D01*
X112861Y208032D01*
D02*
G37*
G36*
X108136D02*
X107612D01*
X107127Y207831D01*
X106756Y207460D01*
X106555Y206975D01*
Y206450D01*
X106756Y205965D01*
X107127Y205594D01*
X107612Y205394D01*
X108136D01*
X108621Y205594D01*
X108992Y205965D01*
X109193Y206450D01*
Y206975D01*
X108992Y207460D01*
X108621Y207831D01*
X108136Y208032D01*
D02*
G37*
G36*
X29089Y207264D02*
X28588D01*
X28125Y207072D01*
X27771Y206718D01*
X27579Y206255D01*
Y205753D01*
X27771Y205290D01*
X28125Y204936D01*
X28588Y204744D01*
X29089D01*
X29552Y204936D01*
X29907Y205290D01*
X30098Y205753D01*
Y206255D01*
X29907Y206718D01*
X29552Y207072D01*
X29089Y207264D01*
D02*
G37*
G36*
X21510Y207165D02*
X21009D01*
X20546Y206974D01*
X20192Y206619D01*
X20000Y206156D01*
Y205655D01*
X20192Y205192D01*
X20546Y204837D01*
X21009Y204646D01*
X21510D01*
X21973Y204837D01*
X22328Y205192D01*
X22520Y205655D01*
Y206156D01*
X22328Y206619D01*
X21973Y206974D01*
X21510Y207165D01*
D02*
G37*
G36*
X83321Y208347D02*
X82820D01*
X82357Y208155D01*
X82003Y207800D01*
X81811Y207337D01*
Y206836D01*
X82003Y206373D01*
X82357Y206019D01*
X82463Y205975D01*
X82508Y205728D01*
X82501Y205418D01*
X82200Y205117D01*
X82008Y204654D01*
Y204152D01*
X82200Y203690D01*
X82554Y203335D01*
X83017Y203143D01*
X83518D01*
X83981Y203335D01*
X84336Y203690D01*
X84527Y204152D01*
Y204654D01*
X84336Y205117D01*
X83981Y205471D01*
X83875Y205515D01*
X83831Y205762D01*
X83838Y206072D01*
X84139Y206373D01*
X84331Y206836D01*
Y207337D01*
X84139Y207800D01*
X83785Y208155D01*
X83321Y208347D01*
D02*
G37*
G36*
X76047Y205663D02*
X75546D01*
X75082Y205471D01*
X74728Y205117D01*
X74536Y204654D01*
Y204152D01*
X74728Y203690D01*
X75082Y203335D01*
X75546Y203143D01*
X76047D01*
X76510Y203335D01*
X76864Y203690D01*
X77056Y204152D01*
Y204654D01*
X76864Y205117D01*
X76510Y205471D01*
X76047Y205663D01*
D02*
G37*
G36*
X303400Y201654D02*
X302899D01*
X302436Y201462D01*
X302082Y201107D01*
X302042Y201012D01*
X301501D01*
X301462Y201107D01*
X301107Y201462D01*
X300644Y201654D01*
X300143D01*
X299680Y201462D01*
X299326Y201107D01*
X299286Y201012D01*
X298745D01*
X298706Y201107D01*
X298351Y201462D01*
X297888Y201654D01*
X297387D01*
X296924Y201462D01*
X296570Y201107D01*
X296531Y201012D01*
X295989D01*
X295950Y201107D01*
X295596Y201462D01*
X295132Y201654D01*
X294631D01*
X294168Y201462D01*
X293814Y201107D01*
X293622Y200644D01*
Y200143D01*
X293814Y199680D01*
X294168Y199326D01*
X294631Y199134D01*
X295132D01*
X295596Y199326D01*
X295950Y199680D01*
X295989Y199775D01*
X296531D01*
X296570Y199680D01*
X296924Y199326D01*
X297387Y199134D01*
X297888D01*
X298351Y199326D01*
X298706Y199680D01*
X298745Y199775D01*
X299286D01*
X299326Y199680D01*
X299680Y199326D01*
X300143Y199134D01*
X300644D01*
X301107Y199326D01*
X301462Y199680D01*
X301501Y199775D01*
X302042D01*
X302082Y199680D01*
X302436Y199326D01*
X302899Y199134D01*
X303400D01*
X303863Y199326D01*
X304218Y199680D01*
X304410Y200143D01*
Y200644D01*
X304218Y201107D01*
X303863Y201462D01*
X303400Y201654D01*
D02*
G37*
G36*
X188833Y202835D02*
X188332D01*
X187869Y202643D01*
X187515Y202288D01*
X187323Y201825D01*
Y201324D01*
X187515Y200861D01*
X187869Y200507D01*
X188332Y200315D01*
X188833D01*
X189296Y200507D01*
X189651Y200861D01*
X189842Y201324D01*
Y201825D01*
X189651Y202288D01*
X189296Y202643D01*
X188833Y202835D01*
D02*
G37*
G36*
X76001Y201781D02*
X75500D01*
X75037Y201589D01*
X74683Y201234D01*
X74491Y200771D01*
Y200270D01*
X74683Y199807D01*
X75037Y199453D01*
X75500Y199261D01*
X76001D01*
X76464Y199453D01*
X76819Y199807D01*
X77011Y200270D01*
Y200771D01*
X76819Y201234D01*
X76464Y201589D01*
X76001Y201781D01*
D02*
G37*
G36*
X147101Y201654D02*
X146600D01*
X146137Y201462D01*
X145782Y201107D01*
X145591Y200644D01*
Y200143D01*
X145782Y199680D01*
X146137Y199326D01*
X146600Y199134D01*
X147101D01*
X147564Y199326D01*
X147918Y199680D01*
X148110Y200143D01*
Y200644D01*
X147918Y201107D01*
X147564Y201462D01*
X147101Y201654D01*
D02*
G37*
G36*
X83518Y201599D02*
X83017D01*
X82554Y201407D01*
X82200Y201053D01*
X82008Y200590D01*
Y200089D01*
X82200Y199626D01*
X82554Y199271D01*
X83017Y199080D01*
X83518D01*
X83981Y199271D01*
X84336Y199626D01*
X84527Y200089D01*
Y200590D01*
X84336Y201053D01*
X83981Y201407D01*
X83518Y201599D01*
D02*
G37*
G36*
X216786Y200079D02*
X216285D01*
X215822Y199887D01*
X215467Y199532D01*
X215276Y199069D01*
Y198568D01*
X215467Y198105D01*
X215822Y197751D01*
X216285Y197559D01*
X216786D01*
X217249Y197751D01*
X217603Y198105D01*
X217795Y198568D01*
Y199069D01*
X217603Y199532D01*
X217249Y199887D01*
X216786Y200079D01*
D02*
G37*
G36*
X303400Y198110D02*
X302899D01*
X302436Y197918D01*
X302082Y197564D01*
X302042Y197469D01*
X301501D01*
X301462Y197564D01*
X301107Y197918D01*
X300644Y198110D01*
X300143D01*
X299680Y197918D01*
X299326Y197564D01*
X299286Y197469D01*
X298745D01*
X298706Y197564D01*
X298351Y197918D01*
X297888Y198110D01*
X297387D01*
X296924Y197918D01*
X296570Y197564D01*
X296531Y197469D01*
X295989D01*
X295950Y197564D01*
X295596Y197918D01*
X295132Y198110D01*
X294631D01*
X294168Y197918D01*
X293814Y197564D01*
X293622Y197101D01*
Y196600D01*
X293814Y196137D01*
X294168Y195782D01*
X294631Y195591D01*
X295132D01*
X295596Y195782D01*
X295950Y196137D01*
X295989Y196232D01*
X296531D01*
X296570Y196137D01*
X296924Y195782D01*
X297387Y195591D01*
X297888D01*
X298351Y195782D01*
X298706Y196137D01*
X298745Y196232D01*
X299286D01*
X299326Y196137D01*
X299680Y195782D01*
X300143Y195591D01*
X300644D01*
X301107Y195782D01*
X301462Y196137D01*
X301501Y196232D01*
X302042D01*
X302082Y196137D01*
X302436Y195782D01*
X302899Y195591D01*
X303400D01*
X303863Y195782D01*
X304218Y196137D01*
X304410Y196600D01*
Y197101D01*
X304218Y197564D01*
X303863Y197918D01*
X303400Y198110D01*
D02*
G37*
G36*
X106944Y198898D02*
X106442D01*
X105979Y198706D01*
X105625Y198351D01*
X105433Y197888D01*
Y197387D01*
X105625Y196924D01*
X105979Y196570D01*
X106442Y196378D01*
X106944D01*
X107406Y196570D01*
X107761Y196924D01*
X107953Y197387D01*
Y197888D01*
X107761Y198351D01*
X107406Y198706D01*
X106944Y198898D01*
D02*
G37*
G36*
X83518Y196335D02*
X83017D01*
X82554Y196143D01*
X82200Y195789D01*
X82008Y195326D01*
Y194825D01*
X82200Y194362D01*
X82554Y194007D01*
X83017Y193816D01*
X83518D01*
X83981Y194007D01*
X84336Y194362D01*
X84527Y194825D01*
Y195326D01*
X84336Y195789D01*
X83981Y196143D01*
X83518Y196335D01*
D02*
G37*
G36*
X76004Y196227D02*
X75503D01*
X75040Y196035D01*
X74686Y195681D01*
X74494Y195218D01*
Y194717D01*
X74686Y194254D01*
X75040Y193899D01*
X75503Y193707D01*
X76004D01*
X76467Y193899D01*
X76822Y194254D01*
X77013Y194717D01*
Y195218D01*
X76822Y195681D01*
X76467Y196035D01*
X76004Y196227D01*
D02*
G37*
G36*
X247101Y196142D02*
X246600D01*
X246137Y195950D01*
X245782Y195596D01*
X245590Y195133D01*
Y194631D01*
X245782Y194168D01*
X246137Y193814D01*
X246600Y193622D01*
X247101D01*
X247564Y193814D01*
X247918Y194168D01*
X248110Y194631D01*
Y195133D01*
X247918Y195596D01*
X247564Y195950D01*
X247101Y196142D01*
D02*
G37*
G36*
X241196Y196134D02*
X240694D01*
X240231Y195942D01*
X239877Y195588D01*
X239685Y195125D01*
Y194624D01*
X239877Y194161D01*
X240231Y193806D01*
X240694Y193615D01*
X241196D01*
X241658Y193806D01*
X242013Y194161D01*
X242205Y194624D01*
Y195125D01*
X242013Y195588D01*
X241658Y195942D01*
X241196Y196134D01*
D02*
G37*
G36*
X189846Y193386D02*
X189345D01*
X188882Y193194D01*
X188527Y192840D01*
X188335Y192377D01*
Y191875D01*
X188527Y191412D01*
X188882Y191058D01*
X189345Y190866D01*
X189846D01*
X190309Y191058D01*
X190663Y191412D01*
X190855Y191875D01*
Y192377D01*
X190663Y192840D01*
X190309Y193194D01*
X189846Y193386D01*
D02*
G37*
G36*
X127953Y192942D02*
X127452D01*
X126989Y192750D01*
X126635Y192396D01*
X126443Y191933D01*
Y191431D01*
X126635Y190968D01*
X126989Y190614D01*
X127452Y190422D01*
X127953D01*
X128417Y190614D01*
X128771Y190968D01*
X128963Y191431D01*
Y191933D01*
X128771Y192396D01*
X128417Y192750D01*
X127953Y192942D01*
D02*
G37*
G36*
X119493Y192662D02*
X118992D01*
X118529Y192470D01*
X118174Y192116D01*
X117982Y191653D01*
Y191151D01*
X118174Y190688D01*
X118529Y190334D01*
X118992Y190142D01*
X119493D01*
X119956Y190334D01*
X120310Y190688D01*
X120502Y191151D01*
Y191653D01*
X120310Y192116D01*
X119956Y192470D01*
X119493Y192662D01*
D02*
G37*
G36*
X98676Y192598D02*
X98175D01*
X97712Y192407D01*
X97357Y192052D01*
X97165Y191589D01*
Y191088D01*
X97357Y190625D01*
X97712Y190270D01*
X98175Y190079D01*
X98676D01*
X99139Y190270D01*
X99493Y190625D01*
X99685Y191088D01*
Y191589D01*
X99493Y192052D01*
X99139Y192407D01*
X98676Y192598D01*
D02*
G37*
G36*
X76004Y192248D02*
X75503D01*
X75040Y192056D01*
X74686Y191702D01*
X74494Y191239D01*
Y190738D01*
X74686Y190275D01*
X75040Y189920D01*
X75503Y189728D01*
X76004D01*
X76467Y189920D01*
X76822Y190275D01*
X77013Y190738D01*
Y191239D01*
X76822Y191702D01*
X76467Y192056D01*
X76004Y192248D01*
D02*
G37*
G36*
X215476Y189288D02*
X214975D01*
X214512Y189097D01*
X214158Y188742D01*
X214134Y188686D01*
X213989Y188631D01*
X213563Y188612D01*
X213312Y188863D01*
X212849Y189055D01*
X212348D01*
X211885Y188863D01*
X211530Y188509D01*
X211339Y188046D01*
Y187545D01*
X211530Y187082D01*
X211885Y186727D01*
X212348Y186535D01*
X212849D01*
X213312Y186727D01*
X213667Y187082D01*
X213690Y187138D01*
X213836Y187193D01*
X214261Y187211D01*
X214512Y186961D01*
X214975Y186769D01*
X215476D01*
X215939Y186961D01*
X216294Y187315D01*
X216486Y187778D01*
Y188279D01*
X216294Y188742D01*
X215939Y189097D01*
X215476Y189288D01*
D02*
G37*
G36*
X106944Y191024D02*
X106442D01*
X105979Y190832D01*
X105625Y190477D01*
X105433Y190014D01*
Y189513D01*
X105625Y189050D01*
X105979Y188696D01*
X106442Y188504D01*
X106944D01*
X107406Y188696D01*
X107761Y189050D01*
X107953Y189513D01*
Y190014D01*
X107761Y190477D01*
X107406Y190832D01*
X106944Y191024D01*
D02*
G37*
G36*
X126747Y189846D02*
X126245D01*
X125782Y189654D01*
X125428Y189300D01*
X125236Y188837D01*
Y188335D01*
X125428Y187872D01*
X125782Y187518D01*
X126245Y187326D01*
X126747D01*
X127210Y187518D01*
X127564Y187872D01*
X128066Y187869D01*
X128420Y187515D01*
X128883Y187323D01*
X129385D01*
X129848Y187515D01*
X130202Y187869D01*
X130704D01*
X131058Y187515D01*
X131521Y187323D01*
X132022D01*
X132485Y187515D01*
X132840Y187869D01*
X133031Y188332D01*
Y188833D01*
X132840Y189296D01*
X132485Y189651D01*
X132022Y189842D01*
X131521D01*
X131058Y189651D01*
X130704Y189296D01*
X130202D01*
X129848Y189651D01*
X129385Y189842D01*
X128883D01*
X128420Y189651D01*
X128066Y189296D01*
X127564Y189300D01*
X127210Y189654D01*
X126747Y189846D01*
D02*
G37*
G36*
X83518Y192248D02*
X83017D01*
X82554Y192056D01*
X82200Y191702D01*
X82008Y191239D01*
Y190738D01*
X82200Y190275D01*
X82525Y189949D01*
X82510Y189757D01*
X82477Y189637D01*
X82406Y189440D01*
X81963Y189257D01*
X81609Y188903D01*
X81417Y188440D01*
Y187938D01*
X81609Y187475D01*
X81963Y187121D01*
X82427Y186929D01*
X82928D01*
X83391Y187121D01*
X83745Y187475D01*
X83937Y187938D01*
Y188440D01*
X83745Y188903D01*
X83419Y189228D01*
X83435Y189420D01*
X83467Y189540D01*
X83539Y189737D01*
X83981Y189920D01*
X84336Y190275D01*
X84527Y190738D01*
Y191239D01*
X84336Y191702D01*
X83981Y192056D01*
X83518Y192248D01*
D02*
G37*
G36*
X218755Y189055D02*
X218253D01*
X217790Y188863D01*
X217436Y188509D01*
X217244Y188046D01*
Y187545D01*
X217436Y187082D01*
X217790Y186727D01*
X218253Y186535D01*
X218755D01*
X219218Y186727D01*
X219572Y187082D01*
X219764Y187545D01*
Y188046D01*
X219572Y188509D01*
X219218Y188863D01*
X218755Y189055D01*
D02*
G37*
G36*
X167180Y187087D02*
X166679D01*
X166216Y186895D01*
X165861Y186540D01*
X165669Y186077D01*
Y185576D01*
X165861Y185113D01*
X166216Y184759D01*
X166679Y184567D01*
X167180D01*
X167643Y184759D01*
X167997Y185113D01*
X168189Y185576D01*
Y186077D01*
X167997Y186540D01*
X167643Y186895D01*
X167180Y187087D01*
D02*
G37*
G36*
X41983D02*
X41482D01*
X41019Y186895D01*
X40664Y186540D01*
X40472Y186077D01*
Y185576D01*
X40664Y185113D01*
X41019Y184759D01*
X41482Y184567D01*
X41983D01*
X42446Y184759D01*
X42800Y185113D01*
X42992Y185576D01*
Y186077D01*
X42800Y186540D01*
X42446Y186895D01*
X41983Y187087D01*
D02*
G37*
G36*
X65999Y186693D02*
X65497D01*
X65034Y186501D01*
X64680Y186147D01*
X64488Y185684D01*
Y185182D01*
X64680Y184719D01*
X65034Y184365D01*
X65497Y184173D01*
X65999D01*
X66462Y184365D01*
X66816Y184719D01*
X67008Y185182D01*
Y185684D01*
X66816Y186147D01*
X66462Y186501D01*
X65999Y186693D01*
D02*
G37*
G36*
X236077Y185906D02*
X235576D01*
X235113Y185714D01*
X234759Y185359D01*
X234567Y184896D01*
Y184395D01*
X234759Y183932D01*
X235113Y183578D01*
X235576Y183386D01*
X236077D01*
X236540Y183578D01*
X236895Y183932D01*
X237087Y184395D01*
Y184896D01*
X236895Y185359D01*
X236540Y185714D01*
X236077Y185906D01*
D02*
G37*
G36*
X77022Y184724D02*
X76521D01*
X76058Y184533D01*
X75704Y184178D01*
X75512Y183715D01*
Y183214D01*
X75704Y182751D01*
X76058Y182396D01*
X76521Y182205D01*
X77022D01*
X77485Y182396D01*
X77840Y182751D01*
X78031Y183214D01*
Y183715D01*
X77840Y184178D01*
X77485Y184533D01*
X77022Y184724D01*
D02*
G37*
G36*
X59699Y184331D02*
X59198D01*
X58735Y184139D01*
X58381Y183784D01*
X58189Y183321D01*
Y182820D01*
X58381Y182357D01*
X58735Y182003D01*
X59198Y181811D01*
X59699D01*
X60163Y182003D01*
X60517Y182357D01*
X60709Y182820D01*
Y183321D01*
X60517Y183784D01*
X60163Y184139D01*
X59699Y184331D01*
D02*
G37*
G36*
X160487Y181968D02*
X159986D01*
X159523Y181777D01*
X159168Y181422D01*
X158976Y180959D01*
Y180458D01*
X159168Y179995D01*
X159523Y179641D01*
X159986Y179449D01*
X160487D01*
X160950Y179641D01*
X161304Y179995D01*
X161496Y180458D01*
Y180959D01*
X161304Y181422D01*
X160950Y181777D01*
X160487Y181968D01*
D02*
G37*
G36*
X77022Y180394D02*
X76521D01*
X76058Y180202D01*
X75704Y179848D01*
X75512Y179385D01*
Y178883D01*
X75704Y178420D01*
X76058Y178066D01*
X76521Y177874D01*
X77022D01*
X77485Y178066D01*
X77840Y178420D01*
X78031Y178883D01*
Y179385D01*
X77840Y179848D01*
X77485Y180202D01*
X77022Y180394D01*
D02*
G37*
G36*
X216076Y179684D02*
X215575D01*
X215112Y179492D01*
X214757Y179138D01*
X214566Y178675D01*
Y178173D01*
X214757Y177710D01*
X215112Y177356D01*
X215575Y177164D01*
X216076D01*
X216539Y177356D01*
X216894Y177710D01*
X217085Y178173D01*
Y178675D01*
X216894Y179138D01*
X216539Y179492D01*
X216076Y179684D01*
D02*
G37*
G36*
X223479Y179606D02*
X222978D01*
X222515Y179414D01*
X222160Y179060D01*
X221969Y178597D01*
Y178096D01*
X222160Y177633D01*
X222515Y177278D01*
X222978Y177087D01*
X223479D01*
X223942Y177278D01*
X224296Y177633D01*
X224488Y178096D01*
Y178597D01*
X224296Y179060D01*
X223942Y179414D01*
X223479Y179606D01*
D02*
G37*
G36*
X206943D02*
X206442D01*
X205979Y179414D01*
X205625Y179060D01*
X205433Y178597D01*
Y178096D01*
X205625Y177633D01*
X205979Y177278D01*
X206442Y177087D01*
X206943D01*
X207407Y177278D01*
X207761Y177633D01*
X207953Y178096D01*
Y178597D01*
X207761Y179060D01*
X207407Y179414D01*
X206943Y179606D01*
D02*
G37*
G36*
X115999D02*
X115497D01*
X115034Y179414D01*
X114680Y179060D01*
X114488Y178597D01*
Y178096D01*
X114680Y177633D01*
X115034Y177278D01*
X115497Y177087D01*
X115999D01*
X116462Y177278D01*
X116816Y177633D01*
X117008Y178096D01*
Y178597D01*
X116816Y179060D01*
X116462Y179414D01*
X115999Y179606D01*
D02*
G37*
G36*
X201432Y179213D02*
X200931D01*
X200467Y179021D01*
X200113Y178666D01*
X199921Y178203D01*
Y177702D01*
X200113Y177239D01*
X200467Y176885D01*
X200931Y176693D01*
X201432D01*
X201895Y176885D01*
X202249Y177239D01*
X202441Y177702D01*
Y178203D01*
X202249Y178666D01*
X201895Y179021D01*
X201432Y179213D01*
D02*
G37*
G36*
X196707D02*
X196206D01*
X195743Y179021D01*
X195389Y178666D01*
X195197Y178203D01*
Y177702D01*
X195389Y177239D01*
X195743Y176885D01*
X196206Y176693D01*
X196707D01*
X197170Y176885D01*
X197525Y177239D01*
X197716Y177702D01*
Y178203D01*
X197525Y178666D01*
X197170Y179021D01*
X196707Y179213D01*
D02*
G37*
G36*
X225054Y176850D02*
X224553D01*
X224090Y176659D01*
X223735Y176304D01*
X223543Y175841D01*
Y175340D01*
X223735Y174877D01*
X224090Y174522D01*
X224553Y174331D01*
X225054D01*
X225517Y174522D01*
X225871Y174877D01*
X226063Y175340D01*
Y175841D01*
X225871Y176304D01*
X225517Y176659D01*
X225054Y176850D01*
D02*
G37*
G36*
X213636Y176457D02*
X213135D01*
X212672Y176265D01*
X212318Y175910D01*
X212126Y175447D01*
Y174946D01*
X212318Y174483D01*
X212672Y174129D01*
X213135Y173937D01*
X213636D01*
X214100Y174129D01*
X214454Y174483D01*
X214646Y174946D01*
Y175447D01*
X214454Y175910D01*
X214100Y176265D01*
X213636Y176457D01*
D02*
G37*
G36*
X84503D02*
X84001D01*
X83538Y176265D01*
X83184Y175910D01*
X82992Y175447D01*
Y174946D01*
X83184Y174483D01*
X83538Y174129D01*
X84001Y173937D01*
X84503D01*
X84966Y174129D01*
X85320Y174483D01*
X85512Y174946D01*
Y175447D01*
X85320Y175910D01*
X84966Y176265D01*
X84503Y176457D01*
D02*
G37*
G36*
X65999Y176098D02*
X65497D01*
X65034Y175906D01*
X64680Y175552D01*
X64488Y175089D01*
Y174588D01*
X64680Y174125D01*
X65034Y173770D01*
X65497Y173578D01*
X65999D01*
X66462Y173770D01*
X66816Y174125D01*
X67008Y174588D01*
Y175089D01*
X66816Y175552D01*
X66462Y175906D01*
X65999Y176098D01*
D02*
G37*
G36*
X252613Y174574D02*
X252112D01*
X251649Y174382D01*
X251294Y174028D01*
X251102Y173565D01*
Y173064D01*
X251119Y173023D01*
X250751Y172750D01*
X250701Y172727D01*
X250251Y172913D01*
X249749D01*
X249286Y172722D01*
X248932Y172367D01*
X248740Y171904D01*
Y171403D01*
X248932Y170940D01*
X249286Y170586D01*
X249749Y170394D01*
X250251D01*
X250714Y170586D01*
X251068Y170940D01*
X251260Y171403D01*
Y171904D01*
X251243Y171945D01*
X251611Y172218D01*
X251661Y172241D01*
X252112Y172055D01*
X252613D01*
X253076Y172246D01*
X253430Y172601D01*
X253622Y173064D01*
Y173565D01*
X253430Y174028D01*
X253076Y174382D01*
X252613Y174574D01*
D02*
G37*
G36*
X139227Y174882D02*
X138726D01*
X138263Y174690D01*
X137908Y174336D01*
X137716Y173873D01*
Y173372D01*
X137908Y172908D01*
X138263Y172554D01*
X138726Y172362D01*
X139227D01*
X139690Y172554D01*
X140044Y172908D01*
X140236Y173372D01*
Y173873D01*
X140044Y174336D01*
X139690Y174690D01*
X139227Y174882D01*
D02*
G37*
G36*
X156944Y174488D02*
X156442D01*
X155979Y174296D01*
X155625Y173942D01*
X155433Y173479D01*
Y172978D01*
X155625Y172515D01*
X155979Y172160D01*
X156442Y171968D01*
X156944D01*
X157406Y172160D01*
X157761Y172515D01*
X157953Y172978D01*
Y173479D01*
X157761Y173942D01*
X157406Y174296D01*
X156944Y174488D01*
D02*
G37*
G36*
X32140D02*
X31639D01*
X31176Y174296D01*
X30822Y173942D01*
X30630Y173479D01*
Y172978D01*
X30822Y172515D01*
X31176Y172160D01*
X31639Y171968D01*
X32140D01*
X32603Y172160D01*
X32958Y172515D01*
X33150Y172978D01*
Y173479D01*
X32958Y173942D01*
X32603Y174296D01*
X32140Y174488D01*
D02*
G37*
G36*
X301432Y174193D02*
X300931D01*
X300467Y174001D01*
X300113Y173647D01*
X299921Y173184D01*
Y172682D01*
X300113Y172219D01*
X300467Y171865D01*
X300931Y171673D01*
X301432D01*
X301895Y171865D01*
X302249Y172219D01*
X302441Y172682D01*
Y173184D01*
X302249Y173647D01*
X301895Y174001D01*
X301432Y174193D01*
D02*
G37*
G36*
X304975Y174094D02*
X304474D01*
X304011Y173903D01*
X303656Y173548D01*
X303465Y173085D01*
Y172584D01*
X303656Y172121D01*
X304011Y171767D01*
X304474Y171575D01*
X304975D01*
X305438Y171767D01*
X305792Y172121D01*
X305984Y172584D01*
Y173085D01*
X305792Y173548D01*
X305438Y173903D01*
X304975Y174094D01*
D02*
G37*
G36*
X80832Y173479D02*
X80331D01*
X79868Y173288D01*
X79513Y172933D01*
X79321Y172470D01*
Y171969D01*
X79513Y171506D01*
X79868Y171152D01*
X80331Y170960D01*
X80832D01*
X81295Y171152D01*
X81649Y171506D01*
X81841Y171969D01*
Y172470D01*
X81649Y172933D01*
X81295Y173288D01*
X80832Y173479D01*
D02*
G37*
G36*
X247888Y170945D02*
X247387D01*
X246924Y170753D01*
X246570Y170399D01*
X246378Y169936D01*
Y169497D01*
X246167Y169324D01*
X245933Y169202D01*
X245526Y169370D01*
X245025D01*
X244562Y169178D01*
X244208Y168824D01*
X244016Y168361D01*
Y167860D01*
X244208Y167397D01*
X244562Y167042D01*
X245025Y166850D01*
X245526D01*
X245989Y167042D01*
X246344Y167397D01*
X246535Y167860D01*
Y168299D01*
X246746Y168471D01*
X246980Y168594D01*
X247387Y168425D01*
X247888D01*
X248351Y168617D01*
X248706Y168971D01*
X248898Y169434D01*
Y169936D01*
X248706Y170399D01*
X248351Y170753D01*
X247888Y170945D01*
D02*
G37*
G36*
X301432Y171142D02*
X300931D01*
X300467Y170950D01*
X300113Y170596D01*
X299921Y170133D01*
Y169631D01*
X300113Y169168D01*
X300467Y168814D01*
X300931Y168622D01*
X301432D01*
X301895Y168814D01*
X302249Y169168D01*
X302441Y169631D01*
Y170133D01*
X302249Y170596D01*
X301895Y170950D01*
X301432Y171142D01*
D02*
G37*
G36*
X304975Y171043D02*
X304474D01*
X304011Y170852D01*
X303656Y170497D01*
X303465Y170034D01*
Y169533D01*
X303656Y169070D01*
X304011Y168715D01*
X304474Y168524D01*
X304975D01*
X305438Y168715D01*
X305792Y169070D01*
X305984Y169533D01*
Y170034D01*
X305792Y170497D01*
X305438Y170852D01*
X304975Y171043D01*
D02*
G37*
G36*
X174376Y170551D02*
X173875D01*
X173412Y170359D01*
X173057Y170005D01*
X172866Y169542D01*
Y169041D01*
X173057Y168578D01*
X173412Y168223D01*
X173875Y168032D01*
X174376D01*
X174839Y168223D01*
X175194Y168578D01*
X175385Y169041D01*
Y169542D01*
X175194Y170005D01*
X174839Y170359D01*
X174376Y170551D01*
D02*
G37*
G36*
X162062Y168976D02*
X161560D01*
X161097Y168785D01*
X160743Y168430D01*
X160551Y167967D01*
Y167466D01*
X160743Y167003D01*
X161097Y166648D01*
X161560Y166457D01*
X162062D01*
X162525Y166648D01*
X162879Y167003D01*
X163071Y167466D01*
Y167967D01*
X162879Y168430D01*
X162525Y168785D01*
X162062Y168976D01*
D02*
G37*
G36*
X143164D02*
X142663D01*
X142200Y168785D01*
X141845Y168430D01*
X141654Y167967D01*
Y167466D01*
X141845Y167003D01*
X142200Y166648D01*
X142663Y166457D01*
X143164D01*
X143627Y166648D01*
X143981Y167003D01*
X144173Y167466D01*
Y167967D01*
X143981Y168430D01*
X143627Y168785D01*
X143164Y168976D01*
D02*
G37*
G36*
X82373Y168894D02*
X81872D01*
X81409Y168702D01*
X81054Y168348D01*
X80862Y167885D01*
Y167384D01*
X81054Y166921D01*
X81409Y166566D01*
X81872Y166375D01*
X82373D01*
X82836Y166566D01*
X83190Y166921D01*
X83382Y167384D01*
Y167885D01*
X83190Y168348D01*
X82836Y168702D01*
X82373Y168894D01*
D02*
G37*
G36*
X301432Y168091D02*
X300931D01*
X300467Y167899D01*
X300113Y167544D01*
X299921Y167081D01*
Y166580D01*
X300113Y166117D01*
X300467Y165763D01*
X300931Y165571D01*
X301432D01*
X301895Y165763D01*
X302249Y166117D01*
X302441Y166580D01*
Y167081D01*
X302249Y167544D01*
X301895Y167899D01*
X301432Y168091D01*
D02*
G37*
G36*
X304975Y167992D02*
X304474D01*
X304011Y167800D01*
X303656Y167446D01*
X303465Y166983D01*
Y166482D01*
X303656Y166019D01*
X304011Y165664D01*
X304474Y165472D01*
X304975D01*
X305438Y165664D01*
X305792Y166019D01*
X305984Y166482D01*
Y166983D01*
X305792Y167446D01*
X305438Y167800D01*
X304975Y167992D01*
D02*
G37*
G36*
X188833Y167795D02*
X188332D01*
X187869Y167604D01*
X187515Y167249D01*
X187323Y166786D01*
Y166285D01*
X187515Y165822D01*
X187869Y165467D01*
X188332Y165276D01*
X188833D01*
X189296Y165467D01*
X189651Y165822D01*
X189842Y166285D01*
Y166786D01*
X189651Y167249D01*
X189296Y167604D01*
X188833Y167795D01*
D02*
G37*
G36*
X92219Y166327D02*
X91717D01*
X91254Y166136D01*
X90900Y165781D01*
X90708Y165318D01*
Y164817D01*
X90900Y164354D01*
X91254Y163999D01*
X91717Y163808D01*
X92219D01*
X92681Y163999D01*
X93036Y164354D01*
X93228Y164817D01*
Y165318D01*
X93036Y165781D01*
X92681Y166136D01*
X92219Y166327D01*
D02*
G37*
G36*
X242770Y166255D02*
X242269D01*
X241806Y166064D01*
X241452Y165709D01*
X241260Y165246D01*
Y164745D01*
X241452Y164282D01*
X241806Y163928D01*
X242269Y163736D01*
X242770D01*
X243233Y163928D01*
X243588Y164282D01*
X243779Y164745D01*
Y165246D01*
X243588Y165709D01*
X243233Y166064D01*
X242770Y166255D01*
D02*
G37*
G36*
X179501Y171259D02*
X179000D01*
X178537Y171067D01*
X178182Y170712D01*
X177991Y170249D01*
Y169748D01*
X178153Y169355D01*
X178034Y169049D01*
X177913Y168855D01*
X177450Y168663D01*
X177095Y168309D01*
X176904Y167846D01*
Y167345D01*
X177095Y166882D01*
X177450Y166527D01*
X177584Y166472D01*
X177608Y166428D01*
X177663Y165898D01*
X177462Y165697D01*
X177270Y165234D01*
Y164733D01*
X177462Y164270D01*
X177817Y163915D01*
X178280Y163723D01*
X178781D01*
X179244Y163915D01*
X179598Y164270D01*
X179790Y164733D01*
Y165234D01*
X179598Y165697D01*
X179244Y166051D01*
X179110Y166107D01*
X179086Y166150D01*
X179031Y166681D01*
X179232Y166882D01*
X179423Y167345D01*
Y167846D01*
X179261Y168239D01*
X179379Y168545D01*
X179501Y168739D01*
X179964Y168931D01*
X180318Y169285D01*
X180510Y169748D01*
Y170249D01*
X180318Y170712D01*
X179964Y171067D01*
X179501Y171259D01*
D02*
G37*
G36*
X301432Y165039D02*
X300931D01*
X300467Y164848D01*
X300113Y164493D01*
X299921Y164030D01*
Y163529D01*
X300113Y163066D01*
X300467Y162712D01*
X300931Y162520D01*
X301432D01*
X301895Y162712D01*
X302249Y163066D01*
X302441Y163529D01*
Y164030D01*
X302249Y164493D01*
X301895Y164848D01*
X301432Y165039D01*
D02*
G37*
G36*
X304975Y164941D02*
X304474D01*
X304011Y164749D01*
X303656Y164395D01*
X303465Y163932D01*
Y163431D01*
X303656Y162968D01*
X304011Y162613D01*
X304474Y162421D01*
X304975D01*
X305438Y162613D01*
X305792Y162968D01*
X305984Y163431D01*
Y163932D01*
X305792Y164395D01*
X305438Y164749D01*
X304975Y164941D01*
D02*
G37*
G36*
X77022Y164646D02*
X76521D01*
X76058Y164454D01*
X75704Y164100D01*
X75512Y163636D01*
Y163135D01*
X75704Y162672D01*
X76058Y162318D01*
X76521Y162126D01*
X77022D01*
X77485Y162318D01*
X77840Y162672D01*
X78031Y163135D01*
Y163636D01*
X77840Y164100D01*
X77485Y164454D01*
X77022Y164646D01*
D02*
G37*
G36*
X87258Y163465D02*
X86757D01*
X86294Y163273D01*
X85940Y162918D01*
X85748Y162455D01*
Y161954D01*
X85940Y161491D01*
X86294Y161137D01*
X86757Y160945D01*
X87258D01*
X87722Y161137D01*
X88076Y161491D01*
X88268Y161954D01*
Y162455D01*
X88076Y162918D01*
X87722Y163273D01*
X87258Y163465D01*
D02*
G37*
G36*
X174266Y163071D02*
X173765D01*
X173302Y162879D01*
X172948Y162525D01*
X172756Y162062D01*
Y161560D01*
X172948Y161097D01*
X173302Y160743D01*
X173765Y160551D01*
X174266D01*
X174729Y160743D01*
X175084Y161097D01*
X175276Y161560D01*
Y162062D01*
X175084Y162525D01*
X174729Y162879D01*
X174266Y163071D01*
D02*
G37*
G36*
X315605Y162677D02*
X315104D01*
X314641Y162485D01*
X314286Y162131D01*
X314094Y161668D01*
Y161167D01*
X314286Y160704D01*
X314641Y160349D01*
X315104Y160158D01*
X315605D01*
X316068Y160349D01*
X316422Y160704D01*
X316614Y161167D01*
Y161668D01*
X316422Y162131D01*
X316068Y162485D01*
X315605Y162677D01*
D02*
G37*
G36*
X188833D02*
X188332D01*
X187869Y162485D01*
X187515Y162131D01*
X187323Y161668D01*
Y161167D01*
X187515Y160704D01*
X187869Y160349D01*
X188332Y160158D01*
X188833D01*
X189296Y160349D01*
X189651Y160704D01*
X189842Y161167D01*
Y161668D01*
X189651Y162131D01*
X189296Y162485D01*
X188833Y162677D01*
D02*
G37*
G36*
X231550Y165201D02*
X231049D01*
X230586Y165009D01*
X230231Y164654D01*
X230040Y164191D01*
Y163690D01*
X230231Y163227D01*
X230586Y162873D01*
X230636Y162852D01*
Y162311D01*
X230627Y162307D01*
X230272Y161953D01*
X230080Y161490D01*
Y160988D01*
X230272Y160526D01*
X230627Y160171D01*
X231090Y159979D01*
X231591D01*
X232054Y160171D01*
X232408Y160526D01*
X232600Y160988D01*
Y161490D01*
X232408Y161953D01*
X232054Y162307D01*
X232004Y162328D01*
Y162869D01*
X232013Y162873D01*
X232367Y163227D01*
X232559Y163690D01*
Y164191D01*
X232367Y164654D01*
X232013Y165009D01*
X231550Y165201D01*
D02*
G37*
G36*
X90408Y162244D02*
X89907D01*
X89444Y162052D01*
X89089Y161698D01*
X88898Y161235D01*
Y160734D01*
X89089Y160271D01*
X89444Y159916D01*
X89907Y159724D01*
X90408D01*
X90871Y159916D01*
X91225Y160271D01*
X91417Y160734D01*
Y161235D01*
X91225Y161698D01*
X90871Y162052D01*
X90408Y162244D01*
D02*
G37*
G36*
X301432Y161988D02*
X300931D01*
X300467Y161796D01*
X300113Y161442D01*
X299921Y160979D01*
Y160478D01*
X300113Y160015D01*
X300467Y159660D01*
X300931Y159468D01*
X301432D01*
X301895Y159660D01*
X302249Y160015D01*
X302441Y160478D01*
Y160979D01*
X302249Y161442D01*
X301895Y161796D01*
X301432Y161988D01*
D02*
G37*
G36*
X304975Y161890D02*
X304474D01*
X304011Y161698D01*
X303656Y161344D01*
X303465Y160880D01*
Y160379D01*
X303656Y159916D01*
X304011Y159562D01*
X304474Y159370D01*
X304975D01*
X305438Y159562D01*
X305792Y159916D01*
X305984Y160379D01*
Y160880D01*
X305792Y161344D01*
X305438Y161698D01*
X304975Y161890D01*
D02*
G37*
G36*
X145526Y161496D02*
X145025D01*
X144562Y161304D01*
X144208Y160950D01*
X144016Y160487D01*
Y159986D01*
X144208Y159523D01*
X144562Y159168D01*
X145025Y158976D01*
X145526D01*
X145989Y159168D01*
X146344Y159523D01*
X146535Y159986D01*
Y160487D01*
X146344Y160950D01*
X145989Y161304D01*
X145526Y161496D01*
D02*
G37*
G36*
X155089Y161338D02*
X154588D01*
X154125Y161146D01*
X153770Y160792D01*
X153579Y160329D01*
Y159827D01*
X153770Y159364D01*
X154125Y159010D01*
X154588Y158818D01*
X155089D01*
X155552Y159010D01*
X155907Y159364D01*
X156098Y159827D01*
Y160329D01*
X155907Y160792D01*
X155552Y161146D01*
X155089Y161338D01*
D02*
G37*
G36*
X77022Y160315D02*
X76521D01*
X76058Y160123D01*
X75704Y159769D01*
X75512Y159306D01*
Y158805D01*
X75704Y158342D01*
X76058Y157987D01*
X76521Y157795D01*
X77022D01*
X77485Y157987D01*
X77840Y158342D01*
X78031Y158805D01*
Y159306D01*
X77840Y159769D01*
X77485Y160123D01*
X77022Y160315D01*
D02*
G37*
G36*
X241196Y159528D02*
X240694D01*
X240231Y159336D01*
X239877Y158981D01*
X239685Y158518D01*
Y158017D01*
X239877Y157554D01*
X240231Y157200D01*
X240694Y157008D01*
X241196D01*
X241658Y157200D01*
X242013Y157554D01*
X242205Y158017D01*
Y158518D01*
X242013Y158981D01*
X241658Y159336D01*
X241196Y159528D01*
D02*
G37*
G36*
X87258Y159134D02*
X86757D01*
X86294Y158942D01*
X85940Y158588D01*
X85748Y158125D01*
Y157623D01*
X85940Y157160D01*
X86294Y156806D01*
X86757Y156614D01*
X87258D01*
X87722Y156806D01*
X88076Y157160D01*
X88268Y157623D01*
Y158125D01*
X88076Y158588D01*
X87722Y158942D01*
X87258Y159134D01*
D02*
G37*
G36*
X66392Y158740D02*
X65891D01*
X65428Y158548D01*
X65074Y158194D01*
X64882Y157731D01*
Y157230D01*
X65074Y156767D01*
X65428Y156412D01*
X65891Y156220D01*
X66392D01*
X66855Y156412D01*
X67210Y156767D01*
X67402Y157230D01*
Y157731D01*
X67210Y158194D01*
X66855Y158548D01*
X66392Y158740D01*
D02*
G37*
G36*
X175805Y158640D02*
X175303D01*
X174840Y158449D01*
X174486Y158094D01*
X174294Y157631D01*
Y157130D01*
X174486Y156667D01*
X174840Y156313D01*
X175303Y156121D01*
X175805D01*
X176268Y156313D01*
X176622Y156667D01*
X176814Y157130D01*
Y157631D01*
X176622Y158094D01*
X176268Y158449D01*
X175805Y158640D01*
D02*
G37*
G36*
X41813Y158516D02*
X41312D01*
X40849Y158324D01*
X40495Y157970D01*
X40303Y157507D01*
Y157006D01*
X40495Y156543D01*
X40849Y156188D01*
X41312Y155996D01*
X41813D01*
X42276Y156188D01*
X42631Y156543D01*
X42823Y157006D01*
Y157507D01*
X42631Y157970D01*
X42276Y158324D01*
X41813Y158516D01*
D02*
G37*
G36*
X158518Y158346D02*
X158017D01*
X157554Y158155D01*
X157200Y157800D01*
X157008Y157337D01*
Y156836D01*
X157200Y156373D01*
X157554Y156019D01*
X158017Y155827D01*
X158518D01*
X158981Y156019D01*
X159336Y156373D01*
X159528Y156836D01*
Y157337D01*
X159336Y157800D01*
X158981Y158155D01*
X158518Y158346D01*
D02*
G37*
G36*
X90802Y157953D02*
X90301D01*
X89837Y157761D01*
X89483Y157406D01*
X89291Y156944D01*
Y156442D01*
X89483Y155979D01*
X89837Y155625D01*
X90301Y155433D01*
X90802D01*
X91265Y155625D01*
X91619Y155979D01*
X91811Y156442D01*
Y156944D01*
X91619Y157406D01*
X91265Y157761D01*
X90802Y157953D01*
D02*
G37*
G36*
X243558Y157559D02*
X243057D01*
X242593Y157367D01*
X242239Y157013D01*
X242047Y156550D01*
Y156049D01*
X242239Y155586D01*
X242593Y155231D01*
X243057Y155039D01*
X243558D01*
X244021Y155231D01*
X244375Y155586D01*
X244567Y156049D01*
Y156550D01*
X244375Y157013D01*
X244021Y157367D01*
X243558Y157559D01*
D02*
G37*
G36*
X256717Y156569D02*
X256216D01*
X255752Y156377D01*
X255398Y156023D01*
X255206Y155560D01*
Y155059D01*
X255398Y154596D01*
X255752Y154241D01*
X256216Y154050D01*
X256717D01*
X257180Y154241D01*
X257534Y154596D01*
X257726Y155059D01*
Y155560D01*
X257534Y156023D01*
X257180Y156377D01*
X256717Y156569D01*
D02*
G37*
G36*
X82928Y155984D02*
X82427D01*
X81963Y155792D01*
X81609Y155438D01*
X81417Y154975D01*
Y154474D01*
X81609Y154011D01*
X81963Y153656D01*
X82427Y153465D01*
X82928D01*
X83391Y153656D01*
X83745Y154011D01*
X83937Y154474D01*
Y154975D01*
X83745Y155438D01*
X83391Y155792D01*
X82928Y155984D01*
D02*
G37*
G36*
X188046Y155591D02*
X187545D01*
X187082Y155399D01*
X186727Y155044D01*
X186535Y154581D01*
Y154080D01*
X186727Y153617D01*
X187082Y153263D01*
X187545Y153071D01*
X188046D01*
X188509Y153263D01*
X188863Y153617D01*
X189055Y154080D01*
Y154581D01*
X188863Y155044D01*
X188509Y155399D01*
X188046Y155591D01*
D02*
G37*
G36*
X178991D02*
X178490D01*
X178026Y155399D01*
X177672Y155044D01*
X177480Y154581D01*
Y154080D01*
X177672Y153617D01*
X178026Y153263D01*
X178490Y153071D01*
X178991D01*
X179454Y153263D01*
X179808Y153617D01*
X180000Y154080D01*
Y154581D01*
X179808Y155044D01*
X179454Y155399D01*
X178991Y155591D01*
D02*
G37*
G36*
X241196Y155197D02*
X240694D01*
X240231Y155005D01*
X239877Y154651D01*
X239685Y154188D01*
Y153686D01*
X239877Y153223D01*
X240231Y152869D01*
X240694Y152677D01*
X241196D01*
X241658Y152869D01*
X242013Y153223D01*
X242205Y153686D01*
Y154188D01*
X242013Y154651D01*
X241658Y155005D01*
X241196Y155197D01*
D02*
G37*
G36*
X103006Y154803D02*
X102505D01*
X102042Y154611D01*
X101688Y154257D01*
X101496Y153794D01*
Y153293D01*
X101688Y152830D01*
X102042Y152475D01*
X102505Y152284D01*
X103006D01*
X103470Y152475D01*
X103824Y152830D01*
X104016Y153293D01*
Y153794D01*
X103824Y154257D01*
X103470Y154611D01*
X103006Y154803D01*
D02*
G37*
G36*
X145885Y154016D02*
X145384D01*
X144921Y153824D01*
X144566Y153470D01*
X144374Y153006D01*
Y152505D01*
X144566Y152042D01*
X144921Y151688D01*
X145384Y151496D01*
X145885D01*
X146348Y151688D01*
X146702Y152042D01*
X146894Y152505D01*
Y153006D01*
X146702Y153470D01*
X146348Y153824D01*
X145885Y154016D01*
D02*
G37*
G36*
X161668Y153228D02*
X161167D01*
X160704Y153036D01*
X160349Y152682D01*
X160158Y152219D01*
Y151718D01*
X160349Y151255D01*
X160704Y150900D01*
X161167Y150709D01*
X161668D01*
X162131Y150900D01*
X162485Y151255D01*
X162677Y151718D01*
Y152219D01*
X162485Y152682D01*
X162131Y153036D01*
X161668Y153228D01*
D02*
G37*
G36*
X83925Y152808D02*
X83424D01*
X82960Y152616D01*
X82606Y152262D01*
X82414Y151799D01*
Y151297D01*
X82606Y150834D01*
X82960Y150480D01*
X83424Y150288D01*
X83925D01*
X84388Y150480D01*
X84742Y150834D01*
X84934Y151297D01*
Y151799D01*
X84742Y152262D01*
X84388Y152616D01*
X83925Y152808D01*
D02*
G37*
G36*
X76408Y152764D02*
X75906D01*
X75443Y152572D01*
X75089Y152218D01*
X74897Y151755D01*
Y151253D01*
X75089Y150790D01*
X75443Y150436D01*
X75906Y150244D01*
X76408D01*
X76871Y150436D01*
X77225Y150790D01*
X77417Y151253D01*
Y151755D01*
X77225Y152218D01*
X76871Y152572D01*
X76408Y152764D01*
D02*
G37*
G36*
X243164Y152643D02*
X242663D01*
X242200Y152452D01*
X241845Y152097D01*
X241653Y151634D01*
Y151133D01*
X241845Y150670D01*
X242200Y150315D01*
X242663Y150124D01*
X243164D01*
X243627Y150315D01*
X243981Y150670D01*
X244173Y151133D01*
Y151634D01*
X243981Y152097D01*
X243627Y152452D01*
X243164Y152643D01*
D02*
G37*
G36*
X91989Y152441D02*
X91487D01*
X91024Y152249D01*
X90670Y151895D01*
X90478Y151432D01*
Y150931D01*
X90670Y150468D01*
X91024Y150113D01*
X91487Y149922D01*
X91989D01*
X92452Y150113D01*
X92806Y150468D01*
X92998Y150931D01*
Y151432D01*
X92806Y151895D01*
X92452Y152249D01*
X91989Y152441D01*
D02*
G37*
G36*
X102613Y151260D02*
X102112D01*
X101649Y151068D01*
X101294Y150714D01*
X101102Y150251D01*
Y149749D01*
X101294Y149286D01*
X101649Y148932D01*
X102112Y148740D01*
X102613D01*
X103076Y148932D01*
X103430Y149286D01*
X103622Y149749D01*
Y150251D01*
X103430Y150714D01*
X103076Y151068D01*
X102613Y151260D01*
D02*
G37*
G36*
X240606Y150906D02*
X240105D01*
X239642Y150714D01*
X239288Y150359D01*
X239096Y149896D01*
Y149395D01*
X239288Y148932D01*
X239642Y148578D01*
X240105Y148386D01*
X240606D01*
X241069Y148578D01*
X241424Y148932D01*
X241616Y149395D01*
Y149896D01*
X241424Y150359D01*
X241069Y150714D01*
X240606Y150906D01*
D02*
G37*
G36*
X145885Y149291D02*
X145384D01*
X144921Y149100D01*
X144566Y148745D01*
X144374Y148282D01*
Y147781D01*
X144566Y147318D01*
X144921Y146964D01*
X145384Y146772D01*
X145885D01*
X146348Y146964D01*
X146702Y147318D01*
X146894Y147781D01*
Y148282D01*
X146702Y148745D01*
X146348Y149100D01*
X145885Y149291D01*
D02*
G37*
G36*
X83925Y149247D02*
X83424D01*
X82960Y149055D01*
X82606Y148701D01*
X82414Y148238D01*
Y147737D01*
X82606Y147274D01*
X82960Y146919D01*
X83424Y146728D01*
X83925D01*
X84388Y146919D01*
X84742Y147274D01*
X84934Y147737D01*
Y148238D01*
X84742Y148701D01*
X84388Y149055D01*
X83925Y149247D01*
D02*
G37*
G36*
X76386Y149203D02*
X75884D01*
X75421Y149011D01*
X75067Y148657D01*
X74875Y148194D01*
Y147693D01*
X75067Y147230D01*
X75421Y146875D01*
X75884Y146684D01*
X76386D01*
X76849Y146875D01*
X77203Y147230D01*
X77395Y147693D01*
Y148194D01*
X77203Y148657D01*
X76849Y149011D01*
X76386Y149203D01*
D02*
G37*
G36*
X260487Y148898D02*
X259986D01*
X259523Y148706D01*
X259168Y148351D01*
X258976Y147888D01*
Y147387D01*
X259168Y146924D01*
X259523Y146570D01*
X259986Y146378D01*
X260487D01*
X260950Y146570D01*
X261304Y146924D01*
X261496Y147387D01*
Y147888D01*
X261304Y148351D01*
X260950Y148706D01*
X260487Y148898D01*
D02*
G37*
G36*
X91195Y146929D02*
X90694D01*
X90231Y146737D01*
X89877Y146383D01*
X89685Y145920D01*
Y145650D01*
X89185Y145443D01*
X89048Y145580D01*
X88585Y145772D01*
X88083D01*
X87621Y145580D01*
X87266Y145226D01*
X87074Y144763D01*
Y144261D01*
X87266Y143798D01*
X87621Y143444D01*
X88083Y143252D01*
X88585D01*
X89048Y143444D01*
X89402Y143798D01*
X89594Y144261D01*
Y144531D01*
X90094Y144739D01*
X90231Y144601D01*
X90694Y144409D01*
X91195D01*
X91659Y144601D01*
X92013Y144956D01*
X92205Y145419D01*
Y145920D01*
X92013Y146383D01*
X91659Y146737D01*
X91195Y146929D01*
D02*
G37*
G36*
X190408Y147323D02*
X189907D01*
X189444Y147131D01*
X189089Y146777D01*
X188898Y146314D01*
Y145812D01*
X189089Y145349D01*
X189444Y144995D01*
X189907Y144803D01*
X190408D01*
X190871Y144995D01*
X191226Y145349D01*
X191417Y145812D01*
Y146314D01*
X191226Y146777D01*
X190871Y147131D01*
X190408Y147323D01*
D02*
G37*
G36*
X171510D02*
X171009D01*
X170546Y147131D01*
X170192Y146777D01*
X170000Y146314D01*
Y145812D01*
X170192Y145349D01*
X170546Y144995D01*
X171009Y144803D01*
X171510D01*
X171974Y144995D01*
X172328Y145349D01*
X172520Y145812D01*
Y146314D01*
X172328Y146777D01*
X171974Y147131D01*
X171510Y147323D01*
D02*
G37*
G36*
X161274Y146142D02*
X160773D01*
X160310Y145950D01*
X159956Y145596D01*
X159764Y145133D01*
Y144631D01*
X159956Y144168D01*
X160310Y143814D01*
X160773Y143622D01*
X161274D01*
X161737Y143814D01*
X162092Y144168D01*
X162284Y144631D01*
Y145133D01*
X162092Y145596D01*
X161737Y145950D01*
X161274Y146142D01*
D02*
G37*
G36*
X155924Y150604D02*
X155423D01*
X154960Y150412D01*
X154605Y150058D01*
X154413Y149595D01*
Y149094D01*
X154605Y148631D01*
X154960Y148276D01*
X155012Y148255D01*
X155067Y148104D01*
X155082Y147684D01*
X154828Y147430D01*
X154636Y146967D01*
Y146466D01*
X154828Y146002D01*
X155147Y145684D01*
X155165Y145300D01*
X155157Y145146D01*
X154802Y144792D01*
X154611Y144329D01*
Y143828D01*
X154802Y143365D01*
X155157Y143010D01*
X155620Y142819D01*
X156121D01*
X156584Y143010D01*
X156938Y143365D01*
X157130Y143828D01*
Y144329D01*
X156938Y144792D01*
X156619Y145111D01*
X156602Y145494D01*
X156609Y145648D01*
X156964Y146002D01*
X157156Y146466D01*
Y146967D01*
X156964Y147430D01*
X156609Y147784D01*
X156557Y147806D01*
X156502Y147957D01*
X156487Y148376D01*
X156741Y148631D01*
X156933Y149094D01*
Y149595D01*
X156741Y150058D01*
X156387Y150412D01*
X155924Y150604D01*
D02*
G37*
G36*
X260487Y144961D02*
X259986D01*
X259523Y144769D01*
X259168Y144414D01*
X258976Y143951D01*
Y143450D01*
X259168Y142987D01*
X259523Y142633D01*
X259986Y142441D01*
X260487D01*
X260950Y142633D01*
X261304Y142987D01*
X261496Y143450D01*
Y143951D01*
X261304Y144414D01*
X260950Y144769D01*
X260487Y144961D01*
D02*
G37*
G36*
X91287Y142638D02*
X90785D01*
X90323Y142446D01*
X89968Y142092D01*
X89822Y141739D01*
X89459Y141596D01*
X89276Y141577D01*
X89250Y141604D01*
X88787Y141795D01*
X88286D01*
X87823Y141604D01*
X87468Y141249D01*
X87277Y140786D01*
Y140285D01*
X87468Y139822D01*
X87823Y139468D01*
X88286Y139276D01*
X88787D01*
X89250Y139468D01*
X89605Y139822D01*
X89751Y140175D01*
X90114Y140317D01*
X90296Y140336D01*
X90323Y140310D01*
X90785Y140118D01*
X91287D01*
X91750Y140310D01*
X92104Y140664D01*
X92296Y141127D01*
Y141629D01*
X92104Y142092D01*
X91750Y142446D01*
X91287Y142638D01*
D02*
G37*
G36*
X76364Y143533D02*
X75862D01*
X75400Y143341D01*
X75045Y142986D01*
X74853Y142523D01*
Y142022D01*
X75045Y141559D01*
X75400Y141205D01*
X75862Y141013D01*
X76364D01*
X76827Y141205D01*
X77181Y141559D01*
X77373Y142022D01*
Y142523D01*
X77181Y142986D01*
X76827Y143341D01*
X76364Y143533D01*
D02*
G37*
G36*
X83912Y143445D02*
X83411D01*
X82948Y143253D01*
X82593Y142898D01*
X82402Y142435D01*
Y141934D01*
X82593Y141471D01*
X82948Y141117D01*
X83411Y140925D01*
X83912D01*
X84375Y141117D01*
X84729Y141471D01*
X84921Y141934D01*
Y142435D01*
X84729Y142898D01*
X84375Y143253D01*
X83912Y143445D01*
D02*
G37*
G36*
X296491Y142992D02*
X295990D01*
X295527Y142800D01*
X295172Y142446D01*
X294980Y141983D01*
Y141482D01*
X295172Y141019D01*
X295527Y140664D01*
X295990Y140472D01*
X296491D01*
X296954Y140664D01*
X297308Y141019D01*
X297500Y141482D01*
Y141983D01*
X297308Y142446D01*
X296954Y142800D01*
X296491Y142992D01*
D02*
G37*
G36*
X177022Y141588D02*
X176521D01*
X176058Y141396D01*
X175704Y141042D01*
X175512Y140579D01*
Y140077D01*
X175704Y139614D01*
X176058Y139260D01*
X176521Y139068D01*
X177022D01*
X177485Y139260D01*
X177840Y139614D01*
X178032Y140077D01*
Y140579D01*
X177840Y141042D01*
X177485Y141396D01*
X177022Y141588D01*
D02*
G37*
G36*
X194345Y141417D02*
X193844D01*
X193381Y141226D01*
X193026Y140871D01*
X192835Y140408D01*
Y139907D01*
X193026Y139444D01*
X193381Y139089D01*
X193844Y138898D01*
X194345D01*
X194808Y139089D01*
X195162Y139444D01*
X195354Y139907D01*
Y140408D01*
X195162Y140871D01*
X194808Y141226D01*
X194345Y141417D01*
D02*
G37*
G36*
X273577Y141024D02*
X273076D01*
X272613Y140832D01*
X272259Y140477D01*
X272067Y140014D01*
Y139513D01*
X272259Y139050D01*
X272613Y138696D01*
X273076Y138504D01*
X273577D01*
X274040Y138696D01*
X274395Y139050D01*
X274587Y139513D01*
Y140014D01*
X274395Y140477D01*
X274040Y140832D01*
X273577Y141024D01*
D02*
G37*
G36*
X108912D02*
X108411D01*
X107948Y140832D01*
X107593Y140477D01*
X107402Y140014D01*
Y139513D01*
X107593Y139050D01*
X107948Y138696D01*
X108411Y138504D01*
X108912D01*
X109375Y138696D01*
X109730Y139050D01*
X109921Y139513D01*
Y140014D01*
X109730Y140477D01*
X109375Y140832D01*
X108912Y141024D01*
D02*
G37*
G36*
X121510Y140236D02*
X121009D01*
X120546Y140044D01*
X120192Y139690D01*
X120000Y139227D01*
Y138726D01*
X120192Y138263D01*
X120546Y137908D01*
X121009Y137716D01*
X121510D01*
X121974Y137908D01*
X122328Y138263D01*
X122520Y138726D01*
Y139227D01*
X122328Y139690D01*
X121974Y140044D01*
X121510Y140236D01*
D02*
G37*
G36*
X83912Y139468D02*
X83411D01*
X82948Y139276D01*
X82593Y138922D01*
X82402Y138459D01*
Y137958D01*
X82593Y137495D01*
X82948Y137140D01*
X83411Y136949D01*
X83912D01*
X84375Y137140D01*
X84729Y137495D01*
X84921Y137958D01*
Y138459D01*
X84729Y138922D01*
X84375Y139276D01*
X83912Y139468D01*
D02*
G37*
G36*
X76408Y139466D02*
X75906D01*
X75443Y139275D01*
X75089Y138920D01*
X74897Y138457D01*
Y137956D01*
X75089Y137493D01*
X75443Y137138D01*
X75906Y136947D01*
X76408D01*
X76871Y137138D01*
X77225Y137493D01*
X77417Y137956D01*
Y138457D01*
X77225Y138920D01*
X76871Y139275D01*
X76408Y139466D01*
D02*
G37*
G36*
X262275Y137638D02*
X261774D01*
X261311Y137446D01*
X260956Y137091D01*
X260765Y136628D01*
Y136127D01*
X260956Y135664D01*
X261311Y135310D01*
X261774Y135118D01*
X262275D01*
X262738Y135310D01*
X263092Y135664D01*
X263284Y136127D01*
Y136628D01*
X263092Y137091D01*
X262738Y137446D01*
X262275Y137638D01*
D02*
G37*
G36*
X254693Y140242D02*
X254192D01*
X253729Y140050D01*
X253374Y139696D01*
X253182Y139233D01*
Y138732D01*
X253374Y138269D01*
X253729Y137914D01*
X253767Y137688D01*
X253760Y137360D01*
X253460Y137060D01*
X253268Y136597D01*
Y136095D01*
X253460Y135632D01*
X253814Y135278D01*
X254277Y135086D01*
X254778D01*
X255241Y135278D01*
X255596Y135632D01*
X255787Y136095D01*
Y136597D01*
X255596Y137060D01*
X255241Y137414D01*
X255203Y137640D01*
X255210Y137968D01*
X255510Y138269D01*
X255702Y138732D01*
Y139233D01*
X255510Y139696D01*
X255156Y140050D01*
X254693Y140242D01*
D02*
G37*
G36*
X216786Y137480D02*
X216285D01*
X215822Y137288D01*
X215467Y136934D01*
X215276Y136471D01*
Y135970D01*
X215467Y135507D01*
X215822Y135152D01*
X216285Y134961D01*
X216786D01*
X217249Y135152D01*
X217603Y135507D01*
X217795Y135970D01*
Y136471D01*
X217603Y136934D01*
X217249Y137288D01*
X216786Y137480D01*
D02*
G37*
G36*
X137652D02*
X137151D01*
X136688Y137288D01*
X136334Y136934D01*
X136142Y136471D01*
Y135970D01*
X136334Y135507D01*
X136688Y135152D01*
X137151Y134961D01*
X137652D01*
X138115Y135152D01*
X138470Y135507D01*
X138661Y135970D01*
Y136471D01*
X138470Y136934D01*
X138115Y137288D01*
X137652Y137480D01*
D02*
G37*
G36*
X132928D02*
X132427D01*
X131964Y137288D01*
X131609Y136934D01*
X131417Y136471D01*
Y135970D01*
X131609Y135507D01*
X131964Y135152D01*
X132427Y134961D01*
X132928D01*
X133391Y135152D01*
X133745Y135507D01*
X133937Y135970D01*
Y136471D01*
X133745Y136934D01*
X133391Y137288D01*
X132928Y137480D01*
D02*
G37*
G36*
X118361Y137087D02*
X117860D01*
X117397Y136895D01*
X117042Y136540D01*
X116850Y136077D01*
Y135576D01*
X117042Y135113D01*
X117397Y134759D01*
X117860Y134567D01*
X118361D01*
X118824Y134759D01*
X119178Y135113D01*
X119370Y135576D01*
Y136077D01*
X119178Y136540D01*
X118824Y136895D01*
X118361Y137087D01*
D02*
G37*
G36*
X111668D02*
X111167D01*
X110704Y136895D01*
X110349Y136540D01*
X110158Y136077D01*
Y135576D01*
X110349Y135113D01*
X110704Y134759D01*
X111167Y134567D01*
X111668D01*
X112131Y134759D01*
X112485Y135113D01*
X112677Y135576D01*
Y136077D01*
X112485Y136540D01*
X112131Y136895D01*
X111668Y137087D01*
D02*
G37*
G36*
X83144Y136291D02*
X82643D01*
X82180Y136099D01*
X81826Y135745D01*
X81634Y135282D01*
Y134780D01*
X81826Y134317D01*
X82180Y133963D01*
X82643Y133771D01*
X83144D01*
X83607Y133963D01*
X83962Y134317D01*
X84153Y134780D01*
Y135282D01*
X83962Y135745D01*
X83607Y136099D01*
X83144Y136291D01*
D02*
G37*
G36*
X262513Y134404D02*
X262012D01*
X261549Y134212D01*
X261194Y133857D01*
X261003Y133394D01*
Y132893D01*
X261194Y132430D01*
X261549Y132076D01*
X262012Y131884D01*
X262513D01*
X262976Y132076D01*
X263331Y132430D01*
X263522Y132893D01*
Y133394D01*
X263331Y133857D01*
X262976Y134212D01*
X262513Y134404D01*
D02*
G37*
G36*
X254714Y134214D02*
X254213D01*
X253750Y134023D01*
X253396Y133668D01*
X253204Y133205D01*
Y132704D01*
X253396Y132241D01*
X253750Y131886D01*
X254213Y131695D01*
X254714D01*
X255177Y131886D01*
X255532Y132241D01*
X255724Y132704D01*
Y133205D01*
X255532Y133668D01*
X255177Y134023D01*
X254714Y134214D01*
D02*
G37*
G36*
X66644Y133685D02*
X66143D01*
X65680Y133494D01*
X65325Y133139D01*
X65134Y132676D01*
Y132175D01*
X65325Y131712D01*
X65680Y131358D01*
X66143Y131166D01*
X66644D01*
X67107Y131358D01*
X67461Y131712D01*
X67653Y132175D01*
Y132676D01*
X67461Y133139D01*
X67107Y133494D01*
X66644Y133685D01*
D02*
G37*
G36*
X173085Y133543D02*
X172584D01*
X172121Y133352D01*
X171767Y132997D01*
X171575Y132534D01*
Y132033D01*
X171767Y131570D01*
X172121Y131215D01*
X172584Y131024D01*
X173085D01*
X173548Y131215D01*
X173903Y131570D01*
X174094Y132033D01*
Y132534D01*
X173903Y132997D01*
X173548Y133352D01*
X173085Y133543D01*
D02*
G37*
G36*
X41589D02*
X41088D01*
X40625Y133352D01*
X40271Y132997D01*
X40079Y132534D01*
Y132033D01*
X40271Y131570D01*
X40625Y131215D01*
X41088Y131024D01*
X41589D01*
X42052Y131215D01*
X42407Y131570D01*
X42598Y132033D01*
Y132534D01*
X42407Y132997D01*
X42052Y133352D01*
X41589Y133543D01*
D02*
G37*
G36*
X77022Y131968D02*
X76521D01*
X76058Y131777D01*
X75704Y131422D01*
X75512Y130959D01*
Y130458D01*
X75704Y129995D01*
X76058Y129641D01*
X76521Y129449D01*
X77022D01*
X77485Y129641D01*
X77840Y129995D01*
X78031Y130458D01*
Y130959D01*
X77840Y131422D01*
X77485Y131777D01*
X77022Y131968D01*
D02*
G37*
G36*
X60881Y130787D02*
X60379D01*
X59916Y130596D01*
X59562Y130241D01*
X59370Y129778D01*
Y129277D01*
X59562Y128814D01*
X59916Y128460D01*
X60379Y128268D01*
X60881D01*
X61344Y128460D01*
X61698Y128814D01*
X61890Y129277D01*
Y129778D01*
X61698Y130241D01*
X61344Y130596D01*
X60881Y130787D01*
D02*
G37*
G36*
X248282Y129606D02*
X247781D01*
X247318Y129414D01*
X246964Y129060D01*
X246772Y128597D01*
Y128096D01*
X246964Y127633D01*
X247318Y127278D01*
X247781Y127087D01*
X248282D01*
X248745Y127278D01*
X249099Y127633D01*
X249291Y128096D01*
Y128597D01*
X249099Y129060D01*
X248745Y129414D01*
X248282Y129606D01*
D02*
G37*
G36*
X98676Y129213D02*
X98175D01*
X97712Y129021D01*
X97357Y128666D01*
X97165Y128203D01*
Y127702D01*
X97357Y127239D01*
X97712Y126885D01*
X98175Y126693D01*
X98676D01*
X99139Y126885D01*
X99493Y127239D01*
X99685Y127702D01*
Y128203D01*
X99493Y128666D01*
X99139Y129021D01*
X98676Y129213D01*
D02*
G37*
G36*
X262205Y128127D02*
X261704D01*
X261241Y127935D01*
X260886Y127580D01*
X260695Y127117D01*
Y126616D01*
X260886Y126153D01*
X261241Y125799D01*
X261704Y125607D01*
X262205D01*
X262668Y125799D01*
X263022Y126153D01*
X263214Y126616D01*
Y127117D01*
X263022Y127580D01*
X262668Y127935D01*
X262205Y128127D01*
D02*
G37*
G36*
X254714Y128079D02*
X254213D01*
X253750Y127887D01*
X253396Y127533D01*
X253204Y127070D01*
Y126569D01*
X253396Y126106D01*
X253750Y125751D01*
X254213Y125559D01*
X254714D01*
X255177Y125751D01*
X255532Y126106D01*
X255724Y126569D01*
Y127070D01*
X255532Y127533D01*
X255177Y127887D01*
X254714Y128079D01*
D02*
G37*
G36*
X162062Y128032D02*
X161560D01*
X161097Y127840D01*
X160743Y127485D01*
X160551Y127022D01*
Y126521D01*
X160743Y126058D01*
X161097Y125704D01*
X161560Y125512D01*
X162062D01*
X162525Y125704D01*
X162879Y126058D01*
X163071Y126521D01*
Y127022D01*
X162879Y127485D01*
X162525Y127840D01*
X162062Y128032D01*
D02*
G37*
G36*
X77022Y127638D02*
X76521D01*
X76058Y127446D01*
X75704Y127092D01*
X75512Y126628D01*
Y126127D01*
X75704Y125664D01*
X76058Y125310D01*
X76521Y125118D01*
X77022D01*
X77485Y125310D01*
X77840Y125664D01*
X78031Y126127D01*
Y126628D01*
X77840Y127092D01*
X77485Y127446D01*
X77022Y127638D01*
D02*
G37*
G36*
X119542Y127244D02*
X119041D01*
X118578Y127052D01*
X118223Y126698D01*
X118032Y126235D01*
Y125734D01*
X118223Y125271D01*
X118578Y124916D01*
X119041Y124724D01*
X119542D01*
X120005Y124916D01*
X120359Y125271D01*
X120551Y125734D01*
Y126235D01*
X120359Y126698D01*
X120005Y127052D01*
X119542Y127244D01*
D02*
G37*
G36*
X115605D02*
X115104D01*
X114641Y127052D01*
X114286Y126698D01*
X114094Y126235D01*
Y125734D01*
X114286Y125271D01*
X114641Y124916D01*
X115104Y124724D01*
X115605D01*
X116068Y124916D01*
X116422Y125271D01*
X116614Y125734D01*
Y126235D01*
X116422Y126698D01*
X116068Y127052D01*
X115605Y127244D01*
D02*
G37*
G36*
X202924Y126850D02*
X202423D01*
X201960Y126659D01*
X201606Y126304D01*
X201414Y125841D01*
Y125340D01*
X201606Y124877D01*
X201960Y124522D01*
X202423Y124331D01*
X202924D01*
X203387Y124522D01*
X203742Y124877D01*
X203934Y125340D01*
Y125841D01*
X203742Y126304D01*
X203387Y126659D01*
X202924Y126850D01*
D02*
G37*
G36*
X206931Y126679D02*
X206430D01*
X205967Y126487D01*
X205613Y126133D01*
X205421Y125670D01*
Y125168D01*
X205613Y124705D01*
X205967Y124351D01*
X206430Y124159D01*
X206931D01*
X207394Y124351D01*
X207749Y124705D01*
X207941Y125168D01*
Y125670D01*
X207749Y126133D01*
X207394Y126487D01*
X206931Y126679D01*
D02*
G37*
G36*
X124918Y126461D02*
X124417D01*
X123954Y126269D01*
X123600Y125915D01*
X123408Y125451D01*
Y124950D01*
X123600Y124487D01*
X123954Y124133D01*
X124417Y123941D01*
X124918D01*
X125381Y124133D01*
X125736Y124487D01*
X125927Y124950D01*
Y125451D01*
X125736Y125915D01*
X125381Y126269D01*
X124918Y126461D01*
D02*
G37*
G36*
X262300Y124892D02*
X261799D01*
X261336Y124701D01*
X260982Y124346D01*
X260790Y123883D01*
Y123382D01*
X260982Y122919D01*
X261336Y122565D01*
X261799Y122373D01*
X262300D01*
X262763Y122565D01*
X263118Y122919D01*
X263309Y123382D01*
Y123883D01*
X263118Y124346D01*
X262763Y124701D01*
X262300Y124892D01*
D02*
G37*
G36*
X227047Y124857D02*
X226546D01*
X226083Y124665D01*
X225729Y124311D01*
X225537Y123848D01*
Y123346D01*
X225729Y122883D01*
X226083Y122529D01*
X226546Y122337D01*
X227047D01*
X227510Y122529D01*
X227865Y122883D01*
X228057Y123346D01*
Y123848D01*
X227865Y124311D01*
X227510Y124665D01*
X227047Y124857D01*
D02*
G37*
G36*
X143361Y123504D02*
X142860D01*
X142397Y123312D01*
X142042Y122958D01*
X141850Y122495D01*
Y121994D01*
X142042Y121530D01*
X142397Y121176D01*
X142860Y120984D01*
X143361D01*
X143824Y121176D01*
X144178Y121530D01*
X144370Y121994D01*
Y122495D01*
X144178Y122958D01*
X143824Y123312D01*
X143361Y123504D01*
D02*
G37*
G36*
X236077Y123307D02*
X235576D01*
X235113Y123115D01*
X234759Y122761D01*
X234567Y122298D01*
Y121797D01*
X234759Y121334D01*
X235113Y120979D01*
X235576Y120787D01*
X236077D01*
X236540Y120979D01*
X236895Y121334D01*
X237087Y121797D01*
Y122298D01*
X236895Y122761D01*
X236540Y123115D01*
X236077Y123307D01*
D02*
G37*
G36*
X214424D02*
X213923D01*
X213460Y123115D01*
X213105Y122761D01*
X212913Y122298D01*
Y121797D01*
X213105Y121334D01*
X213460Y120979D01*
X213923Y120787D01*
X214424D01*
X214887Y120979D01*
X215241Y121334D01*
X215433Y121797D01*
Y122298D01*
X215241Y122761D01*
X214887Y123115D01*
X214424Y123307D01*
D02*
G37*
G36*
X254738Y124916D02*
X254237D01*
X253774Y124724D01*
X253419Y124370D01*
X253228Y123907D01*
Y123406D01*
X253419Y122943D01*
X253774Y122588D01*
X254029Y122483D01*
Y121942D01*
X254011Y121934D01*
X253656Y121580D01*
X253465Y121117D01*
Y120615D01*
X253656Y120152D01*
X254011Y119798D01*
X254474Y119606D01*
X254975D01*
X255438Y119798D01*
X255792Y120152D01*
X255984Y120615D01*
Y121117D01*
X255792Y121580D01*
X255438Y121934D01*
X255183Y122040D01*
Y122581D01*
X255201Y122588D01*
X255556Y122943D01*
X255747Y123406D01*
Y123907D01*
X255556Y124370D01*
X255201Y124724D01*
X254738Y124916D01*
D02*
G37*
G36*
X80566Y121374D02*
X80064D01*
X79601Y121182D01*
X79247Y120827D01*
X79055Y120364D01*
Y119863D01*
X79247Y119400D01*
X79601Y119046D01*
X80064Y118854D01*
X80566D01*
X81029Y119046D01*
X81383Y119400D01*
X81575Y119863D01*
Y120364D01*
X81383Y120827D01*
X81029Y121182D01*
X80566Y121374D01*
D02*
G37*
G36*
X240546Y118976D02*
X240045D01*
X239582Y118785D01*
X239227Y118430D01*
X238725D01*
X238371Y118785D01*
X237908Y118976D01*
X237407D01*
X236944Y118785D01*
X236589Y118430D01*
X236398Y117967D01*
Y117466D01*
X236589Y117003D01*
X236944Y116648D01*
X237407Y116457D01*
X237908D01*
X238371Y116648D01*
X238725Y117003D01*
X239227D01*
X239582Y116648D01*
X240045Y116457D01*
X240546D01*
X241009Y116648D01*
X241363Y117003D01*
X241555Y117466D01*
Y117967D01*
X241363Y118430D01*
X241009Y118785D01*
X240546Y118976D01*
D02*
G37*
G36*
X205791Y123355D02*
X205290D01*
X204827Y123163D01*
X204472Y122809D01*
X204280Y122346D01*
Y121845D01*
X204472Y121382D01*
X204756Y121098D01*
X204756Y120739D01*
X204706Y120536D01*
X204671Y120522D01*
X204317Y120168D01*
X204125Y119704D01*
Y119203D01*
X204317Y118740D01*
X204671Y118386D01*
X205134Y118194D01*
X205635D01*
X206098Y118386D01*
X206453Y118740D01*
X206645Y119203D01*
Y119704D01*
X206453Y120168D01*
X206169Y120451D01*
X206169Y120810D01*
X206219Y121013D01*
X206254Y121027D01*
X206608Y121382D01*
X206800Y121845D01*
Y122346D01*
X206608Y122809D01*
X206254Y123163D01*
X205791Y123355D01*
D02*
G37*
G36*
X93152Y119771D02*
X92651D01*
X92188Y119580D01*
X91833Y119225D01*
X91641Y118762D01*
Y118261D01*
X91833Y117798D01*
X92188Y117443D01*
X92651Y117252D01*
X93152D01*
X93615Y117443D01*
X93969Y117798D01*
X94161Y118261D01*
Y118762D01*
X93969Y119225D01*
X93615Y119580D01*
X93152Y119771D01*
D02*
G37*
G36*
X87999D02*
X87498D01*
X87034Y119580D01*
X86680Y119225D01*
X86488Y118762D01*
Y118261D01*
X86680Y117798D01*
X87034Y117443D01*
X87498Y117252D01*
X87999D01*
X88462Y117443D01*
X88816Y117798D01*
X89008Y118261D01*
Y118762D01*
X88816Y119225D01*
X88462Y119580D01*
X87999Y119771D01*
D02*
G37*
G36*
X273085Y119370D02*
X272584D01*
X272121Y119178D01*
X271767Y118824D01*
X271575Y118361D01*
Y117860D01*
X271767Y117397D01*
X272121Y117042D01*
X272584Y116850D01*
X273085D01*
X273548Y117042D01*
X273903Y117397D01*
X274095Y117860D01*
Y118361D01*
X273903Y118824D01*
X273548Y119178D01*
X273085Y119370D01*
D02*
G37*
G36*
X220329Y118806D02*
X219828D01*
X219365Y118614D01*
X219011Y118260D01*
X218819Y117797D01*
Y117296D01*
X219011Y116832D01*
X219365Y116478D01*
X219828Y116286D01*
X220329D01*
X220792Y116478D01*
X221147Y116832D01*
X221339Y117296D01*
Y117797D01*
X221147Y118260D01*
X220792Y118614D01*
X220329Y118806D01*
D02*
G37*
G36*
X199857Y118191D02*
X199356D01*
X198893Y117999D01*
X198538Y117645D01*
X198346Y117182D01*
Y116681D01*
X198538Y116218D01*
X198893Y115864D01*
X199356Y115672D01*
X199857D01*
X200320Y115864D01*
X200674Y116218D01*
X200866Y116681D01*
Y117182D01*
X200674Y117645D01*
X200320Y117999D01*
X199857Y118191D01*
D02*
G37*
G36*
X22558Y118040D02*
X22057D01*
X21594Y117848D01*
X21240Y117493D01*
X21048Y117030D01*
Y116529D01*
X21240Y116066D01*
X21594Y115712D01*
X22057Y115520D01*
X22558D01*
X23021Y115712D01*
X23376Y116066D01*
X23568Y116529D01*
Y117030D01*
X23376Y117493D01*
X23021Y117848D01*
X22558Y118040D01*
D02*
G37*
G36*
X296314Y117795D02*
X295812D01*
X295349Y117604D01*
X294995Y117249D01*
X294803Y116786D01*
Y116285D01*
X294995Y115822D01*
X295349Y115467D01*
X295812Y115276D01*
X296314D01*
X296777Y115467D01*
X297131Y115822D01*
X297323Y116285D01*
Y116786D01*
X297131Y117249D01*
X296777Y117604D01*
X296314Y117795D01*
D02*
G37*
G36*
X230546Y116890D02*
X230045D01*
X229582Y116698D01*
X229227Y116343D01*
X229036Y115880D01*
Y115379D01*
X229227Y114916D01*
X229582Y114562D01*
X230045Y114370D01*
X230546D01*
X231009Y114562D01*
X231364Y114916D01*
X231555Y115379D01*
Y115880D01*
X231364Y116343D01*
X231009Y116698D01*
X230546Y116890D01*
D02*
G37*
G36*
X260487Y116614D02*
X259986D01*
X259523Y116422D01*
X259168Y116068D01*
X258976Y115605D01*
Y115104D01*
X259168Y114641D01*
X259523Y114286D01*
X259986Y114094D01*
X260487D01*
X260950Y114286D01*
X261304Y114641D01*
X261496Y115104D01*
Y115605D01*
X261304Y116068D01*
X260950Y116422D01*
X260487Y116614D01*
D02*
G37*
G36*
X227022D02*
X226521D01*
X226058Y116422D01*
X225704Y116068D01*
X225512Y115605D01*
Y115104D01*
X225704Y114641D01*
X226058Y114286D01*
X226521Y114094D01*
X227022D01*
X227485Y114286D01*
X227840Y114641D01*
X228031Y115104D01*
Y115605D01*
X227840Y116068D01*
X227485Y116422D01*
X227022Y116614D01*
D02*
G37*
G36*
X116794Y116545D02*
X116293D01*
X115830Y116353D01*
X115475Y115998D01*
X115284Y115535D01*
Y115034D01*
X115475Y114571D01*
X115830Y114217D01*
X116293Y114025D01*
X116794D01*
X117257Y114217D01*
X117611Y114571D01*
X117803Y115034D01*
Y115535D01*
X117611Y115998D01*
X117257Y116353D01*
X116794Y116545D01*
D02*
G37*
G36*
X82858Y116151D02*
X82357D01*
X81894Y115959D01*
X81539Y115604D01*
X81348Y115141D01*
Y114640D01*
X81539Y114177D01*
X81894Y113823D01*
X82357Y113631D01*
X82858D01*
X83321Y113823D01*
X83675Y114177D01*
X83867Y114640D01*
Y115141D01*
X83675Y115604D01*
X83321Y115959D01*
X82858Y116151D01*
D02*
G37*
G36*
X277022Y114646D02*
X276521D01*
X276058Y114454D01*
X275704Y114100D01*
X275512Y113636D01*
Y113135D01*
X275704Y112672D01*
X276058Y112318D01*
X276521Y112126D01*
X277022D01*
X277485Y112318D01*
X277840Y112672D01*
X278031Y113135D01*
Y113636D01*
X277840Y114100D01*
X277485Y114454D01*
X277022Y114646D01*
D02*
G37*
G36*
X158125Y114252D02*
X157623D01*
X157160Y114060D01*
X156806Y113706D01*
X156614Y113243D01*
Y112741D01*
X156806Y112278D01*
X157160Y111924D01*
X157623Y111732D01*
X158125D01*
X158588Y111924D01*
X158942Y112278D01*
X159134Y112741D01*
Y113243D01*
X158942Y113706D01*
X158588Y114060D01*
X158125Y114252D01*
D02*
G37*
G36*
X88833Y111890D02*
X88332D01*
X87869Y111698D01*
X87515Y111344D01*
X87323Y110880D01*
Y110379D01*
X87515Y109916D01*
X87869Y109562D01*
X88332Y109370D01*
X88833D01*
X89296Y109562D01*
X89651Y109916D01*
X89842Y110379D01*
Y110880D01*
X89651Y111344D01*
X89296Y111698D01*
X88833Y111890D01*
D02*
G37*
G36*
X260487Y111496D02*
X259986D01*
X259523Y111304D01*
X259168Y110950D01*
X258976Y110487D01*
Y109986D01*
X259168Y109523D01*
X259523Y109168D01*
X259986Y108976D01*
X260487D01*
X260950Y109168D01*
X261304Y109523D01*
X261496Y109986D01*
Y110487D01*
X261304Y110950D01*
X260950Y111304D01*
X260487Y111496D01*
D02*
G37*
G36*
X77022D02*
X76521D01*
X76058Y111304D01*
X75704Y110950D01*
X75512Y110487D01*
Y109986D01*
X75704Y109523D01*
X76058Y109168D01*
X76521Y108976D01*
X77022D01*
X77485Y109168D01*
X77840Y109523D01*
X78031Y109986D01*
Y110487D01*
X77840Y110950D01*
X77485Y111304D01*
X77022Y111496D01*
D02*
G37*
G36*
X202625Y110512D02*
X202100D01*
X201615Y110311D01*
X201244Y109940D01*
X201043Y109455D01*
Y108931D01*
X201244Y108446D01*
X201615Y108075D01*
X202100Y107874D01*
X202625D01*
X203109Y108075D01*
X203480Y108446D01*
X203681Y108931D01*
Y109455D01*
X203480Y109940D01*
X203109Y110311D01*
X202625Y110512D01*
D02*
G37*
G36*
X197900D02*
X197376D01*
X196891Y110311D01*
X196520Y109940D01*
X196319Y109455D01*
Y108931D01*
X196520Y108446D01*
X196891Y108075D01*
X197376Y107874D01*
X197900D01*
X198385Y108075D01*
X198756Y108446D01*
X198957Y108931D01*
Y109455D01*
X198756Y109940D01*
X198385Y110311D01*
X197900Y110512D01*
D02*
G37*
G36*
X111668Y109409D02*
X111167D01*
X110704Y109218D01*
X110349Y108863D01*
X110158Y108400D01*
Y107899D01*
X110349Y107436D01*
X110704Y107082D01*
X111167Y106890D01*
X111668D01*
X112131Y107082D01*
X112485Y107436D01*
X112677Y107899D01*
Y108400D01*
X112485Y108863D01*
X112131Y109218D01*
X111668Y109409D01*
D02*
G37*
G36*
X77022Y107559D02*
X76521D01*
X76058Y107367D01*
X75704Y107013D01*
X75512Y106550D01*
Y106049D01*
X75704Y105586D01*
X76058Y105231D01*
X76521Y105039D01*
X77022D01*
X77485Y105231D01*
X77840Y105586D01*
X78031Y106049D01*
Y106550D01*
X77840Y107013D01*
X77485Y107367D01*
X77022Y107559D01*
D02*
G37*
G36*
X202625Y105787D02*
X202100D01*
X201615Y105587D01*
X201244Y105216D01*
X201043Y104731D01*
Y104206D01*
X201244Y103721D01*
X201615Y103350D01*
X202100Y103150D01*
X202625D01*
X203109Y103350D01*
X203480Y103721D01*
X203681Y104206D01*
Y104731D01*
X203480Y105216D01*
X203109Y105587D01*
X202625Y105787D01*
D02*
G37*
G36*
X197900D02*
X197376D01*
X196891Y105587D01*
X196520Y105216D01*
X196319Y104731D01*
Y104206D01*
X196520Y103721D01*
X196891Y103350D01*
X197376Y103150D01*
X197900D01*
X198385Y103350D01*
X198756Y103721D01*
X198957Y104206D01*
Y104731D01*
X198756Y105216D01*
X198385Y105587D01*
X197900Y105787D01*
D02*
G37*
G36*
X66392Y105591D02*
X65891D01*
X65428Y105399D01*
X65074Y105044D01*
X64882Y104581D01*
Y104080D01*
X65074Y103617D01*
X65428Y103263D01*
X65891Y103071D01*
X66392D01*
X66855Y103263D01*
X67210Y103617D01*
X67402Y104080D01*
Y104581D01*
X67210Y105044D01*
X66855Y105399D01*
X66392Y105591D01*
D02*
G37*
G36*
X41589D02*
X41088D01*
X40625Y105399D01*
X40271Y105044D01*
X40079Y104581D01*
Y104080D01*
X40271Y103617D01*
X40625Y103263D01*
X41088Y103071D01*
X41589D01*
X42052Y103263D01*
X42407Y103617D01*
X42598Y104080D01*
Y104581D01*
X42407Y105044D01*
X42052Y105399D01*
X41589Y105591D01*
D02*
G37*
G36*
X146314Y105217D02*
X145812D01*
X145349Y105025D01*
X144995Y104670D01*
X144803Y104207D01*
Y103706D01*
X144995Y103243D01*
X145349Y102889D01*
X145812Y102697D01*
X146314D01*
X146777Y102889D01*
X147131Y103243D01*
X147323Y103706D01*
Y104207D01*
X147131Y104670D01*
X146777Y105025D01*
X146314Y105217D01*
D02*
G37*
G36*
X112073Y104469D02*
X111549D01*
X111064Y104268D01*
X110693Y103897D01*
X110492Y103412D01*
Y102887D01*
X110693Y102402D01*
X111064Y102032D01*
X111549Y101831D01*
X112073D01*
X112558Y102032D01*
X112929Y102402D01*
X113130Y102887D01*
Y103412D01*
X112929Y103897D01*
X112558Y104268D01*
X112073Y104469D01*
D02*
G37*
G36*
X107349D02*
X106824D01*
X106340Y104268D01*
X105968Y103897D01*
X105768Y103412D01*
Y102887D01*
X105968Y102402D01*
X106340Y102032D01*
X106824Y101831D01*
X107349D01*
X107834Y102032D01*
X108205Y102402D01*
X108405Y102887D01*
Y103412D01*
X108205Y103897D01*
X107834Y104268D01*
X107349Y104469D01*
D02*
G37*
G36*
X280520Y104063D02*
X280019D01*
X279556Y103871D01*
X279202Y103517D01*
X279010Y103053D01*
Y102552D01*
X279202Y102089D01*
X279556Y101735D01*
X280019Y101543D01*
X280520D01*
X280983Y101735D01*
X281337Y102089D01*
X281529Y102552D01*
Y103053D01*
X281337Y103517D01*
X280983Y103871D01*
X280520Y104063D01*
D02*
G37*
G36*
X240802Y103622D02*
X240301D01*
X239838Y103430D01*
X239483Y103076D01*
X239291Y102613D01*
Y102112D01*
X239483Y101649D01*
X239838Y101294D01*
X240301Y101102D01*
X240802D01*
X241265Y101294D01*
X241619Y101649D01*
X241811Y102112D01*
Y102613D01*
X241619Y103076D01*
X241265Y103430D01*
X240802Y103622D01*
D02*
G37*
G36*
X237652D02*
X237151D01*
X236688Y103430D01*
X236333Y103076D01*
X236142Y102613D01*
Y102112D01*
X236333Y101649D01*
X236688Y101294D01*
X237151Y101102D01*
X237652D01*
X238115Y101294D01*
X238470Y101649D01*
X238661Y102112D01*
Y102613D01*
X238470Y103076D01*
X238115Y103430D01*
X237652Y103622D01*
D02*
G37*
G36*
X302961Y103275D02*
X302460D01*
X301997Y103084D01*
X301642Y102729D01*
X301451Y102266D01*
Y101765D01*
X301642Y101302D01*
X301997Y100947D01*
X302460Y100756D01*
X302961D01*
X303424Y100947D01*
X303779Y101302D01*
X303970Y101765D01*
Y102266D01*
X303779Y102729D01*
X303424Y103084D01*
X302961Y103275D01*
D02*
G37*
G36*
X253184Y101260D02*
X252682D01*
X252219Y101068D01*
X251865Y100714D01*
X251363D01*
X251009Y101068D01*
X250546Y101260D01*
X250045D01*
X249582Y101068D01*
X249227Y100714D01*
X249035Y100251D01*
Y99749D01*
X249227Y99286D01*
X249582Y98932D01*
X250045Y98740D01*
X250546D01*
X251009Y98932D01*
X251363Y99286D01*
X251865D01*
X252219Y98932D01*
X252682Y98740D01*
X253184D01*
X253647Y98932D01*
X254001Y99286D01*
X254193Y99749D01*
Y100251D01*
X254001Y100714D01*
X253647Y101068D01*
X253184Y101260D01*
D02*
G37*
G36*
X256943Y103228D02*
X256442D01*
X255979Y103036D01*
X255625Y102682D01*
X255433Y102219D01*
Y101718D01*
X255625Y101255D01*
X255979Y100900D01*
X256442Y100709D01*
X256943D01*
X257407Y100900D01*
X257761Y101255D01*
X257953Y101718D01*
Y102219D01*
X257761Y102682D01*
X257407Y103036D01*
X256943Y103228D01*
D02*
G37*
G36*
X149857Y101654D02*
X149356D01*
X148893Y101462D01*
X148538Y101107D01*
X148346Y100644D01*
Y100143D01*
X148538Y99680D01*
X148893Y99326D01*
X149356Y99134D01*
X149857D01*
X150320Y99326D01*
X150674Y99680D01*
X150866Y100143D01*
Y100644D01*
X150674Y101107D01*
X150320Y101462D01*
X149857Y101654D01*
D02*
G37*
G36*
X202625Y101063D02*
X202100D01*
X201615Y100862D01*
X201244Y100491D01*
X201043Y100006D01*
Y99482D01*
X201244Y98997D01*
X201615Y98626D01*
X202100Y98425D01*
X202625D01*
X203109Y98626D01*
X203480Y98997D01*
X203681Y99482D01*
Y100006D01*
X203480Y100491D01*
X203109Y100862D01*
X202625Y101063D01*
D02*
G37*
G36*
X197900D02*
X197376D01*
X196891Y100862D01*
X196520Y100491D01*
X196319Y100006D01*
Y99482D01*
X196520Y98997D01*
X196891Y98626D01*
X197376Y98425D01*
X197900D01*
X198385Y98626D01*
X198756Y98997D01*
X198957Y99482D01*
Y100006D01*
X198756Y100491D01*
X198385Y100862D01*
X197900Y101063D01*
D02*
G37*
G36*
X112073Y99744D02*
X111549D01*
X111064Y99543D01*
X110693Y99172D01*
X110492Y98687D01*
Y98163D01*
X110693Y97678D01*
X111064Y97307D01*
X111549Y97106D01*
X112073D01*
X112558Y97307D01*
X112929Y97678D01*
X113130Y98163D01*
Y98687D01*
X112929Y99172D01*
X112558Y99543D01*
X112073Y99744D01*
D02*
G37*
G36*
X107349D02*
X106824D01*
X106340Y99543D01*
X105968Y99172D01*
X105768Y98687D01*
Y98163D01*
X105968Y97678D01*
X106340Y97307D01*
X106824Y97106D01*
X107349D01*
X107834Y97307D01*
X108205Y97678D01*
X108405Y98163D01*
Y98687D01*
X108205Y99172D01*
X107834Y99543D01*
X107349Y99744D01*
D02*
G37*
G36*
X83177Y102296D02*
X82675D01*
X82212Y102104D01*
X81858Y101750D01*
X81666Y101287D01*
Y100786D01*
X81858Y100323D01*
X82212Y99968D01*
X82675Y99776D01*
X82728D01*
X82859Y99464D01*
X82881Y99276D01*
X82567Y98963D01*
X82375Y98500D01*
Y97998D01*
X82567Y97535D01*
X82921Y97181D01*
X83385Y96989D01*
X83886D01*
X84349Y97181D01*
X84703Y97535D01*
X84895Y97998D01*
Y98500D01*
X84703Y98963D01*
X84349Y99317D01*
X83886Y99509D01*
X83834D01*
X83702Y99821D01*
X83680Y100009D01*
X83994Y100323D01*
X84186Y100786D01*
Y101287D01*
X83994Y101750D01*
X83640Y102104D01*
X83177Y102296D01*
D02*
G37*
G36*
X76462Y99509D02*
X75961D01*
X75498Y99317D01*
X75144Y98963D01*
X74952Y98500D01*
Y97998D01*
X75144Y97535D01*
X75498Y97181D01*
X75961Y96989D01*
X76462D01*
X76925Y97181D01*
X77280Y97535D01*
X77472Y97998D01*
Y98500D01*
X77280Y98963D01*
X76925Y99317D01*
X76462Y99509D01*
D02*
G37*
G36*
X159699Y98898D02*
X159198D01*
X158735Y98706D01*
X158381Y98351D01*
X158189Y97888D01*
Y97387D01*
X158381Y96924D01*
X158735Y96570D01*
X159198Y96378D01*
X159699D01*
X160162Y96570D01*
X160517Y96924D01*
X160709Y97387D01*
Y97888D01*
X160517Y98351D01*
X160162Y98706D01*
X159699Y98898D01*
D02*
G37*
G36*
X76438Y95834D02*
X75937D01*
X75474Y95642D01*
X75119Y95287D01*
X74928Y94824D01*
Y94323D01*
X75119Y93860D01*
X75474Y93506D01*
X75937Y93314D01*
X76438D01*
X76901Y93506D01*
X77255Y93860D01*
X77447Y94323D01*
Y94824D01*
X77255Y95287D01*
X76901Y95642D01*
X76438Y95834D01*
D02*
G37*
G36*
X170329Y95748D02*
X169828D01*
X169365Y95556D01*
X169011Y95202D01*
X168819Y94739D01*
Y94238D01*
X169011Y93774D01*
X169365Y93420D01*
X169828Y93228D01*
X170329D01*
X170792Y93420D01*
X171147Y93774D01*
X171339Y94238D01*
Y94739D01*
X171147Y95202D01*
X170792Y95556D01*
X170329Y95748D01*
D02*
G37*
G36*
X228775Y94996D02*
X228273D01*
X227810Y94804D01*
X227456Y94450D01*
X227264Y93986D01*
Y93485D01*
X227456Y93022D01*
X227810Y92668D01*
X228273Y92476D01*
X228775D01*
X229238Y92668D01*
X229592Y93022D01*
X229784Y93485D01*
Y93986D01*
X229592Y94450D01*
X229238Y94804D01*
X228775Y94996D01*
D02*
G37*
G36*
X112073Y95020D02*
X111549D01*
X111064Y94819D01*
X110693Y94448D01*
X110492Y93963D01*
Y93438D01*
X110693Y92954D01*
X111064Y92583D01*
X111549Y92382D01*
X112073D01*
X112558Y92583D01*
X112929Y92954D01*
X113130Y93438D01*
Y93963D01*
X112929Y94448D01*
X112558Y94819D01*
X112073Y95020D01*
D02*
G37*
G36*
X107349D02*
X106824D01*
X106340Y94819D01*
X105968Y94448D01*
X105768Y93963D01*
Y93438D01*
X105968Y92954D01*
X106340Y92583D01*
X106824Y92382D01*
X107349D01*
X107834Y92583D01*
X108205Y92954D01*
X108405Y93438D01*
Y93963D01*
X108205Y94448D01*
X107834Y94819D01*
X107349Y95020D01*
D02*
G37*
G36*
X188440Y94567D02*
X187938D01*
X187475Y94375D01*
X187121Y94021D01*
X186929Y93558D01*
Y93056D01*
X187121Y92593D01*
X187475Y92239D01*
X187938Y92047D01*
X188440D01*
X188903Y92239D01*
X189257Y92593D01*
X189449Y93056D01*
Y93558D01*
X189257Y94021D01*
X188903Y94375D01*
X188440Y94567D01*
D02*
G37*
G36*
X83910Y95533D02*
X83409D01*
X82946Y95341D01*
X82591Y94986D01*
X82400Y94523D01*
Y94022D01*
X82591Y93559D01*
X82946Y93205D01*
X83409Y93013D01*
X83910D01*
X84235Y93147D01*
X84523Y92959D01*
X84627Y92869D01*
X84661Y92824D01*
Y92369D01*
X84853Y91905D01*
X85207Y91551D01*
X85670Y91359D01*
X86171D01*
X86634Y91551D01*
X86989Y91905D01*
X87181Y92369D01*
Y92870D01*
X86989Y93333D01*
X86634Y93687D01*
X86171Y93879D01*
X85670D01*
X85346Y93744D01*
X85057Y93932D01*
X84953Y94023D01*
X84919Y94068D01*
Y94523D01*
X84728Y94986D01*
X84373Y95341D01*
X83910Y95533D01*
D02*
G37*
G36*
X233159Y92992D02*
X232658D01*
X232195Y92800D01*
X231840Y92446D01*
X231649Y91983D01*
Y91482D01*
X231840Y91019D01*
X232195Y90664D01*
X232658Y90472D01*
X233159D01*
X233622Y90664D01*
X233977Y91019D01*
X234168Y91482D01*
Y91983D01*
X233977Y92446D01*
X233622Y92800D01*
X233159Y92992D01*
D02*
G37*
G36*
X214030Y91811D02*
X213529D01*
X213066Y91619D01*
X212712Y91265D01*
X212520Y90802D01*
Y90301D01*
X212712Y89837D01*
X213066Y89483D01*
X213529Y89291D01*
X214030D01*
X214493Y89483D01*
X214848Y89837D01*
X215039Y90301D01*
Y90802D01*
X214848Y91265D01*
X214493Y91619D01*
X214030Y91811D01*
D02*
G37*
G36*
X83925Y90094D02*
X83424D01*
X82961Y89902D01*
X82607Y89548D01*
X82415Y89085D01*
Y88583D01*
X82607Y88121D01*
X82961Y87766D01*
X83424Y87574D01*
X83925D01*
X84389Y87766D01*
X84743Y88121D01*
X84935Y88583D01*
Y89085D01*
X84743Y89548D01*
X84389Y89902D01*
X83925Y90094D01*
D02*
G37*
G36*
X76423Y90060D02*
X75922D01*
X75459Y89868D01*
X75104Y89514D01*
X74913Y89051D01*
Y88549D01*
X75104Y88086D01*
X75459Y87732D01*
X75922Y87540D01*
X76423D01*
X76886Y87732D01*
X77241Y88086D01*
X77432Y88549D01*
Y89051D01*
X77241Y89514D01*
X76886Y89868D01*
X76423Y90060D01*
D02*
G37*
G36*
X217306Y89932D02*
X216805D01*
X216342Y89741D01*
X215987Y89386D01*
X215796Y88923D01*
Y88422D01*
X215987Y87959D01*
X216342Y87604D01*
X216805Y87413D01*
X217306D01*
X217769Y87604D01*
X218124Y87959D01*
X218315Y88422D01*
Y88923D01*
X218124Y89386D01*
X217769Y89741D01*
X217306Y89932D01*
D02*
G37*
G36*
X233302Y89842D02*
X232801D01*
X232337Y89651D01*
X231983Y89296D01*
X231791Y88833D01*
Y88332D01*
X231983Y87869D01*
X232337Y87515D01*
X232801Y87323D01*
X233302D01*
X233765Y87515D01*
X234119Y87869D01*
X234311Y88332D01*
Y88833D01*
X234119Y89296D01*
X233765Y89651D01*
X233302Y89842D01*
D02*
G37*
G36*
X106550Y88661D02*
X106049D01*
X105586Y88470D01*
X105231Y88115D01*
X105039Y87652D01*
Y87151D01*
X105231Y86688D01*
X105586Y86334D01*
X106049Y86142D01*
X106550D01*
X107013Y86334D01*
X107367Y86688D01*
X107559Y87151D01*
Y87652D01*
X107367Y88115D01*
X107013Y88470D01*
X106550Y88661D01*
D02*
G37*
G36*
X240802Y87480D02*
X240301D01*
X239838Y87288D01*
X239483Y86934D01*
X239291Y86471D01*
Y85970D01*
X239483Y85507D01*
X239838Y85152D01*
X240301Y84961D01*
X240802D01*
X241265Y85152D01*
X241619Y85507D01*
X241811Y85970D01*
Y86471D01*
X241619Y86934D01*
X241265Y87288D01*
X240802Y87480D01*
D02*
G37*
G36*
X294300Y86740D02*
X293798D01*
X293335Y86548D01*
X292981Y86194D01*
X292789Y85731D01*
Y85229D01*
X292981Y84766D01*
X293335Y84412D01*
X293798Y84220D01*
X294300D01*
X294763Y84412D01*
X295117Y84766D01*
X295309Y85229D01*
Y85731D01*
X295117Y86194D01*
X294763Y86548D01*
X294300Y86740D01*
D02*
G37*
G36*
X76423Y86581D02*
X75922D01*
X75459Y86390D01*
X75104Y86035D01*
X74913Y85572D01*
Y85071D01*
X75104Y84608D01*
X75459Y84254D01*
X75922Y84062D01*
X76423D01*
X76886Y84254D01*
X77241Y84608D01*
X77432Y85071D01*
Y85572D01*
X77241Y86035D01*
X76886Y86390D01*
X76423Y86581D01*
D02*
G37*
G36*
X253400Y86299D02*
X252899D01*
X252436Y86107D01*
X252082Y85753D01*
X251890Y85290D01*
Y84789D01*
X252082Y84326D01*
X252436Y83971D01*
X252899Y83780D01*
X253400D01*
X253863Y83971D01*
X254218Y84326D01*
X254410Y84789D01*
Y85290D01*
X254218Y85753D01*
X253863Y86107D01*
X253400Y86299D01*
D02*
G37*
G36*
X250251D02*
X249749D01*
X249286Y86107D01*
X248932Y85753D01*
X248740Y85290D01*
Y84789D01*
X248932Y84326D01*
X249286Y83971D01*
X249749Y83780D01*
X250251D01*
X250714Y83971D01*
X251068Y84326D01*
X251260Y84789D01*
Y85290D01*
X251068Y85753D01*
X250714Y86107D01*
X250251Y86299D01*
D02*
G37*
G36*
X246707Y85512D02*
X246206D01*
X245743Y85320D01*
X245389Y84966D01*
X245197Y84503D01*
Y84001D01*
X245389Y83538D01*
X245743Y83184D01*
X246206Y82992D01*
X246707D01*
X247170Y83184D01*
X247525Y83538D01*
X247716Y84001D01*
Y84503D01*
X247525Y84966D01*
X247170Y85320D01*
X246707Y85512D01*
D02*
G37*
G36*
X189058Y84724D02*
X188557D01*
X188094Y84533D01*
X187740Y84178D01*
X187548Y83715D01*
Y83214D01*
X187740Y82751D01*
X188094Y82397D01*
X188557Y82205D01*
X189058D01*
X189522Y82397D01*
X189876Y82751D01*
X190068Y83214D01*
Y83715D01*
X189876Y84178D01*
X189522Y84533D01*
X189058Y84724D01*
D02*
G37*
G36*
X120329Y83543D02*
X119828D01*
X119365Y83351D01*
X119011Y82997D01*
X118819Y82534D01*
Y82033D01*
X119011Y81570D01*
X119365Y81215D01*
X119828Y81024D01*
X120329D01*
X120792Y81215D01*
X121147Y81570D01*
X121339Y82033D01*
Y82534D01*
X121147Y82997D01*
X120792Y83351D01*
X120329Y83543D01*
D02*
G37*
G36*
X83925Y86118D02*
X83424D01*
X82961Y85926D01*
X82607Y85571D01*
X82415Y85108D01*
Y84607D01*
X82607Y84144D01*
X82708Y84043D01*
X82500Y83543D01*
X82488D01*
X82025Y83351D01*
X81671Y82997D01*
X81479Y82534D01*
Y82033D01*
X81671Y81570D01*
X82025Y81215D01*
X82488Y81024D01*
X82989D01*
X83452Y81215D01*
X83807Y81570D01*
X83999Y82033D01*
Y82534D01*
X83807Y82997D01*
X83706Y83098D01*
X83913Y83598D01*
X83925D01*
X84389Y83790D01*
X84743Y84144D01*
X84935Y84607D01*
Y85108D01*
X84743Y85571D01*
X84389Y85926D01*
X83925Y86118D01*
D02*
G37*
G36*
X128519Y82854D02*
X128018D01*
X127555Y82662D01*
X127200Y82307D01*
X127008Y81845D01*
Y81343D01*
X127200Y80880D01*
X127555Y80526D01*
X128018Y80334D01*
X128519D01*
X128982Y80526D01*
X129336Y80880D01*
X129528Y81343D01*
Y81845D01*
X129336Y82307D01*
X128982Y82662D01*
X128519Y82854D01*
D02*
G37*
G36*
X108125Y82756D02*
X107623D01*
X107160Y82564D01*
X106806Y82210D01*
X106614Y81747D01*
Y81245D01*
X106806Y80782D01*
X107160Y80428D01*
X107623Y80236D01*
X108125D01*
X108588Y80428D01*
X108942Y80782D01*
X109134Y81245D01*
Y81747D01*
X108942Y82210D01*
X108588Y82564D01*
X108125Y82756D01*
D02*
G37*
G36*
X282928Y81575D02*
X282427D01*
X281963Y81383D01*
X281609Y81029D01*
X281417Y80566D01*
Y80064D01*
X281609Y79601D01*
X281963Y79247D01*
X282427Y79055D01*
X282928D01*
X283391Y79247D01*
X283745Y79601D01*
X283937Y80064D01*
Y80566D01*
X283745Y81029D01*
X283391Y81383D01*
X282928Y81575D01*
D02*
G37*
G36*
X174266D02*
X173765D01*
X173302Y81383D01*
X172948Y81029D01*
X172756Y80566D01*
Y80064D01*
X172948Y79601D01*
X173302Y79247D01*
X173765Y79055D01*
X174266D01*
X174729Y79247D01*
X175084Y79601D01*
X175276Y80064D01*
Y80566D01*
X175084Y81029D01*
X174729Y81383D01*
X174266Y81575D01*
D02*
G37*
G36*
X131747Y80216D02*
X131246D01*
X130782Y80025D01*
X130428Y79670D01*
X130236Y79207D01*
X130100Y79143D01*
X129736Y79012D01*
X129319Y79185D01*
X128818D01*
X128355Y78993D01*
X128320Y78958D01*
X128152Y78969D01*
X127769Y79114D01*
X127628Y79454D01*
X127273Y79808D01*
X126810Y80000D01*
X126309D01*
X125846Y79808D01*
X125492Y79454D01*
X125300Y78991D01*
Y78490D01*
X125492Y78026D01*
X125846Y77672D01*
X126309Y77480D01*
X126810D01*
X127273Y77672D01*
X127309Y77707D01*
X127476Y77696D01*
X127860Y77551D01*
X128000Y77211D01*
X128355Y76857D01*
X128818Y76665D01*
X129319D01*
X129782Y76857D01*
X130137Y77211D01*
X130328Y77674D01*
X130464Y77739D01*
X130828Y77870D01*
X131246Y77697D01*
X131747D01*
X132210Y77889D01*
X132564Y78243D01*
X132756Y78706D01*
Y79207D01*
X132564Y79670D01*
X132210Y80025D01*
X131747Y80216D01*
D02*
G37*
G36*
X93951Y80394D02*
X93450D01*
X92987Y80202D01*
X92633Y79848D01*
X92441Y79384D01*
Y78883D01*
X92633Y78420D01*
X92987Y78066D01*
X93450Y77874D01*
X93951D01*
X94414Y78066D01*
X94769Y78420D01*
X94961Y78883D01*
Y79384D01*
X94769Y79848D01*
X94414Y80202D01*
X93951Y80394D01*
D02*
G37*
G36*
X66392D02*
X65891D01*
X65428Y80202D01*
X65074Y79848D01*
X64882Y79384D01*
Y78883D01*
X65074Y78420D01*
X65428Y78066D01*
X65891Y77874D01*
X66392D01*
X66855Y78066D01*
X67210Y78420D01*
X67402Y78883D01*
Y79384D01*
X67210Y79848D01*
X66855Y80202D01*
X66392Y80394D01*
D02*
G37*
G36*
X41589D02*
X41088D01*
X40625Y80202D01*
X40271Y79848D01*
X40079Y79384D01*
Y78883D01*
X40271Y78420D01*
X40625Y78066D01*
X41088Y77874D01*
X41589D01*
X42052Y78066D01*
X42407Y78420D01*
X42598Y78883D01*
Y79384D01*
X42407Y79848D01*
X42052Y80202D01*
X41589Y80394D01*
D02*
G37*
G36*
X254581Y80000D02*
X254080D01*
X253617Y79808D01*
X253263Y79454D01*
X253071Y78991D01*
Y78490D01*
X253263Y78026D01*
X253617Y77672D01*
X254080Y77480D01*
X254581D01*
X255044Y77672D01*
X255399Y78026D01*
X255591Y78490D01*
Y78991D01*
X255399Y79454D01*
X255044Y79808D01*
X254581Y80000D01*
D02*
G37*
G36*
X215242Y79580D02*
X214741D01*
X214278Y79388D01*
X213924Y79034D01*
X213732Y78571D01*
Y78070D01*
X213924Y77607D01*
X214278Y77252D01*
X214741Y77061D01*
X215242D01*
X215705Y77252D01*
X216030Y77577D01*
X216251Y77575D01*
X216566Y77523D01*
X216684Y77239D01*
X217038Y76885D01*
X217501Y76693D01*
X218002D01*
X218465Y76885D01*
X218820Y77239D01*
X219011Y77702D01*
Y78203D01*
X218820Y78666D01*
X218465Y79021D01*
X218002Y79213D01*
X217501D01*
X217038Y79021D01*
X216713Y78696D01*
X216492Y78698D01*
X216177Y78750D01*
X216060Y79034D01*
X215705Y79388D01*
X215242Y79580D01*
D02*
G37*
G36*
X60093Y77638D02*
X59592D01*
X59129Y77446D01*
X58775Y77092D01*
X58583Y76629D01*
Y76127D01*
X58775Y75664D01*
X59129Y75310D01*
X59592Y75118D01*
X60093D01*
X60556Y75310D01*
X60911Y75664D01*
X61102Y76127D01*
Y76629D01*
X60911Y77092D01*
X60556Y77446D01*
X60093Y77638D01*
D02*
G37*
G36*
X77022Y78425D02*
X76521D01*
X76058Y78233D01*
X75704Y77879D01*
X75512Y77416D01*
Y76915D01*
X75704Y76452D01*
X76058Y76097D01*
X76153Y76058D01*
Y75517D01*
X76058Y75477D01*
X75704Y75123D01*
X75512Y74660D01*
Y74159D01*
X75704Y73696D01*
X76058Y73341D01*
X76521Y73150D01*
X77022D01*
X77485Y73341D01*
X77840Y73696D01*
X78031Y74159D01*
Y74660D01*
X77840Y75123D01*
X77485Y75477D01*
X77390Y75517D01*
Y76058D01*
X77485Y76097D01*
X77840Y76452D01*
X78031Y76915D01*
Y77416D01*
X77840Y77879D01*
X77485Y78233D01*
X77022Y78425D01*
D02*
G37*
G36*
X260445Y74898D02*
X259944D01*
X259481Y74707D01*
X259127Y74352D01*
X258935Y73889D01*
Y73388D01*
X259127Y72925D01*
X259481Y72571D01*
X259944Y72379D01*
X260445D01*
X260909Y72571D01*
X261263Y72925D01*
X261455Y73388D01*
Y73889D01*
X261263Y74352D01*
X260909Y74707D01*
X260445Y74898D01*
D02*
G37*
G36*
X159699Y72520D02*
X159198D01*
X158735Y72328D01*
X158381Y71974D01*
X158189Y71510D01*
Y71009D01*
X158381Y70546D01*
X158735Y70192D01*
X159198Y70000D01*
X159699D01*
X160162Y70192D01*
X160517Y70546D01*
X160709Y71009D01*
Y71510D01*
X160517Y71974D01*
X160162Y72328D01*
X159699Y72520D01*
D02*
G37*
G36*
X260445Y70157D02*
X259944D01*
X259481Y69966D01*
X259127Y69611D01*
X258935Y69148D01*
Y68647D01*
X259127Y68184D01*
X259481Y67830D01*
X259944Y67638D01*
X260445D01*
X260909Y67830D01*
X261263Y68184D01*
X261455Y68647D01*
Y69148D01*
X261263Y69611D01*
X260909Y69966D01*
X260445Y70157D01*
D02*
G37*
G36*
X212849D02*
X212348D01*
X211885Y69966D01*
X211530Y69611D01*
X211339Y69148D01*
Y68647D01*
X211530Y68184D01*
X211885Y67830D01*
X212348Y67638D01*
X212849D01*
X213312Y67830D01*
X213667Y68184D01*
X213858Y68647D01*
Y69148D01*
X213667Y69611D01*
X213312Y69966D01*
X212849Y70157D01*
D02*
G37*
G36*
X73479D02*
X72978D01*
X72515Y69966D01*
X72160Y69611D01*
X71969Y69148D01*
Y68647D01*
X72160Y68184D01*
X72515Y67830D01*
X72978Y67638D01*
X73479D01*
X73942Y67830D01*
X74296Y68184D01*
X74488Y68647D01*
Y69148D01*
X74296Y69611D01*
X73942Y69966D01*
X73479Y70157D01*
D02*
G37*
G36*
X22298D02*
X21797D01*
X21334Y69966D01*
X20979Y69611D01*
X20787Y69148D01*
Y68647D01*
X20979Y68184D01*
X21334Y67830D01*
X21797Y67638D01*
X22298D01*
X22761Y67830D01*
X23115Y68184D01*
X23307Y68647D01*
Y69148D01*
X23115Y69611D01*
X22761Y69966D01*
X22298Y70157D01*
D02*
G37*
G36*
X220904Y69945D02*
X220403D01*
X219940Y69753D01*
X219586Y69399D01*
X219394Y68936D01*
Y68435D01*
X219586Y67971D01*
X219940Y67617D01*
X220403Y67425D01*
X220904D01*
X221367Y67617D01*
X221722Y67971D01*
X221914Y68435D01*
Y68936D01*
X221722Y69399D01*
X221367Y69753D01*
X220904Y69945D01*
D02*
G37*
G36*
X116392Y69370D02*
X115891D01*
X115428Y69178D01*
X115074Y68824D01*
X114882Y68361D01*
Y67860D01*
X115074Y67397D01*
X115428Y67042D01*
X115891Y66850D01*
X116392D01*
X116855Y67042D01*
X117210Y67397D01*
X117402Y67860D01*
Y68361D01*
X117210Y68824D01*
X116855Y69178D01*
X116392Y69370D01*
D02*
G37*
G36*
X200644Y68976D02*
X200143D01*
X199680Y68785D01*
X199326Y68430D01*
X199134Y67967D01*
Y67466D01*
X199326Y67003D01*
X199680Y66649D01*
X200143Y66457D01*
X200644D01*
X201107Y66649D01*
X201462Y67003D01*
X201654Y67466D01*
Y67967D01*
X201462Y68430D01*
X201107Y68785D01*
X200644Y68976D01*
D02*
G37*
G36*
X196314D02*
X195812D01*
X195349Y68785D01*
X194995Y68430D01*
X194803Y67967D01*
Y67466D01*
X194995Y67003D01*
X195349Y66649D01*
X195812Y66457D01*
X196314D01*
X196777Y66649D01*
X197131Y67003D01*
X197323Y67466D01*
Y67967D01*
X197131Y68430D01*
X196777Y68785D01*
X196314Y68976D01*
D02*
G37*
G36*
X210880Y67008D02*
X210379D01*
X209916Y66816D01*
X209562Y66462D01*
X209523Y66367D01*
X208981D01*
X208942Y66462D01*
X208588Y66816D01*
X208125Y67008D01*
X207623D01*
X207160Y66816D01*
X206806Y66462D01*
X206614Y65999D01*
Y65497D01*
X206806Y65034D01*
X207160Y64680D01*
X207623Y64488D01*
X208125D01*
X208588Y64680D01*
X208942Y65034D01*
X208981Y65129D01*
X209523D01*
X209562Y65034D01*
X209916Y64680D01*
X210379Y64488D01*
X210880D01*
X211344Y64680D01*
X211698Y65034D01*
X211890Y65497D01*
Y65999D01*
X211698Y66462D01*
X211344Y66816D01*
X210880Y67008D01*
D02*
G37*
G36*
X79778Y68976D02*
X79277D01*
X78814Y68785D01*
X78460Y68430D01*
X78268Y67967D01*
Y67466D01*
X78460Y67003D01*
X78814Y66649D01*
X79277Y66457D01*
X79778D01*
X80241Y66649D01*
X80590Y66997D01*
X80623Y67002D01*
X81112Y66943D01*
X81251Y66609D01*
X81605Y66255D01*
X82068Y66063D01*
X82569D01*
X83032Y66255D01*
X83386Y66609D01*
X83578Y67072D01*
Y67573D01*
X83386Y68037D01*
X83032Y68391D01*
X82569Y68583D01*
X82068D01*
X81605Y68391D01*
X81256Y68042D01*
X81223Y68037D01*
X80734Y68096D01*
X80596Y68430D01*
X80241Y68785D01*
X79778Y68976D01*
D02*
G37*
G36*
X295920Y67795D02*
X295419D01*
X294956Y67603D01*
X294601Y67249D01*
X294409Y66786D01*
Y66285D01*
X294601Y65822D01*
X294956Y65467D01*
X295419Y65276D01*
X295920D01*
X296383Y65467D01*
X296737Y65822D01*
X296929Y66285D01*
Y66786D01*
X296737Y67249D01*
X296383Y67603D01*
X295920Y67795D01*
D02*
G37*
G36*
X272219Y67480D02*
X271718D01*
X271255Y67289D01*
X270901Y66934D01*
X270709Y66471D01*
Y65970D01*
X270901Y65507D01*
X271255Y65152D01*
X271718Y64961D01*
X272219D01*
X272682Y65152D01*
X273037Y65507D01*
X273228Y65970D01*
Y66471D01*
X273037Y66934D01*
X272682Y67289D01*
X272219Y67480D01*
D02*
G37*
G36*
X223479Y66220D02*
X222978D01*
X222515Y66029D01*
X222160Y65674D01*
X221969Y65211D01*
Y64710D01*
X222160Y64247D01*
X222515Y63893D01*
X222978Y63701D01*
X223479D01*
X223942Y63893D01*
X224296Y64247D01*
X224488Y64710D01*
Y65211D01*
X224296Y65674D01*
X223942Y66029D01*
X223479Y66220D01*
D02*
G37*
G36*
X254188Y65433D02*
X253686D01*
X253223Y65241D01*
X252869Y64887D01*
X252677Y64424D01*
Y63923D01*
X252869Y63460D01*
X253223Y63105D01*
X253686Y62913D01*
X254188D01*
X254651Y63105D01*
X255005Y63460D01*
X255197Y63923D01*
Y64424D01*
X255005Y64887D01*
X254651Y65241D01*
X254188Y65433D01*
D02*
G37*
G36*
X156365Y65271D02*
X155863D01*
X155400Y65079D01*
X155046Y64725D01*
X154854Y64262D01*
Y63761D01*
X155046Y63298D01*
X155400Y62943D01*
X155863Y62752D01*
X156365D01*
X156827Y62943D01*
X157182Y63298D01*
X157374Y63761D01*
Y64262D01*
X157182Y64725D01*
X156827Y65079D01*
X156365Y65271D01*
D02*
G37*
G36*
X245132Y66614D02*
X244631D01*
X244168Y66422D01*
X243814Y66068D01*
X243622Y65605D01*
Y65104D01*
X243814Y64641D01*
X244168Y64286D01*
X244631Y64095D01*
X245132D01*
X245261Y64148D01*
X245644Y63765D01*
X245590Y63636D01*
Y63135D01*
X245782Y62672D01*
X246137Y62318D01*
X246600Y62126D01*
X247101D01*
X247564Y62318D01*
X247918Y62672D01*
X248110Y63135D01*
Y63636D01*
X247918Y64100D01*
X247564Y64454D01*
X247101Y64646D01*
X246600D01*
X246471Y64592D01*
X246088Y64975D01*
X246142Y65104D01*
Y65605D01*
X245950Y66068D01*
X245596Y66422D01*
X245132Y66614D01*
D02*
G37*
G36*
X139621Y64252D02*
X139120D01*
X138656Y64060D01*
X138302Y63706D01*
X138110Y63243D01*
Y62742D01*
X138302Y62278D01*
X138656Y61924D01*
X139120Y61732D01*
X139621D01*
X140084Y61924D01*
X140438Y62278D01*
X140630Y62742D01*
Y63243D01*
X140438Y63706D01*
X140084Y64060D01*
X139621Y64252D01*
D02*
G37*
G36*
X81353Y63071D02*
X80852D01*
X80389Y62879D01*
X80034Y62525D01*
X79843Y62062D01*
Y61560D01*
X80034Y61097D01*
X80389Y60743D01*
X80852Y60551D01*
X81353D01*
X81816Y60743D01*
X82170Y61097D01*
X82362Y61560D01*
Y62062D01*
X82170Y62525D01*
X81816Y62879D01*
X81353Y63071D01*
D02*
G37*
G36*
X254384Y62216D02*
X253883D01*
X253420Y62024D01*
X253065Y61670D01*
X252874Y61207D01*
Y60706D01*
X253065Y60242D01*
X253420Y59888D01*
X253883Y59696D01*
X254384D01*
X254847Y59888D01*
X255202Y60242D01*
X255393Y60706D01*
Y61207D01*
X255202Y61670D01*
X254847Y62024D01*
X254384Y62216D01*
D02*
G37*
G36*
X261835Y61943D02*
X261333D01*
X260870Y61751D01*
X260516Y61397D01*
X260324Y60934D01*
Y60432D01*
X260516Y59969D01*
X260870Y59615D01*
X261333Y59423D01*
X261835D01*
X262298Y59615D01*
X262652Y59969D01*
X262844Y60432D01*
Y60934D01*
X262652Y61397D01*
X262298Y61751D01*
X261835Y61943D01*
D02*
G37*
G36*
X173409Y60679D02*
X172908D01*
X172445Y60488D01*
X172090Y60133D01*
X171898Y59670D01*
Y59169D01*
X172090Y58706D01*
X172445Y58351D01*
X172908Y58160D01*
X173409D01*
X173872Y58351D01*
X174226Y58706D01*
X174418Y59169D01*
Y59670D01*
X174226Y60133D01*
X173872Y60488D01*
X173409Y60679D01*
D02*
G37*
G36*
X177537Y62589D02*
X177035D01*
X176572Y62397D01*
X176218Y62043D01*
X176026Y61580D01*
Y61079D01*
X176218Y60616D01*
X176530Y60303D01*
X176540Y60034D01*
X176501Y59750D01*
X176452Y59729D01*
X176097Y59375D01*
X175906Y58912D01*
Y58411D01*
X176097Y57948D01*
X176452Y57593D01*
X176915Y57402D01*
X177416D01*
X177879Y57593D01*
X178233Y57948D01*
X178425Y58411D01*
Y58912D01*
X178233Y59375D01*
X177921Y59687D01*
X177911Y59957D01*
X177951Y60241D01*
X178000Y60261D01*
X178354Y60616D01*
X178546Y61079D01*
Y61580D01*
X178354Y62043D01*
X178000Y62397D01*
X177537Y62589D01*
D02*
G37*
G36*
X242377Y61752D02*
X241875D01*
X241412Y61560D01*
X241058Y61206D01*
X240866Y60743D01*
Y60242D01*
X241058Y59778D01*
X241412Y59424D01*
X241875Y59232D01*
X242377D01*
X242550Y59304D01*
X242933Y58921D01*
X242835Y58685D01*
Y58184D01*
X243026Y57721D01*
X243381Y57366D01*
X243844Y57175D01*
X244345D01*
X244808Y57366D01*
X245163Y57721D01*
X245354Y58184D01*
Y58685D01*
X245163Y59148D01*
X244808Y59503D01*
X244345Y59694D01*
X243844D01*
X243671Y59623D01*
X243288Y60005D01*
X243386Y60242D01*
Y60743D01*
X243194Y61206D01*
X242840Y61560D01*
X242377Y61752D01*
D02*
G37*
G36*
X143164Y59528D02*
X142663D01*
X142200Y59336D01*
X141845Y58981D01*
X141654Y58518D01*
Y58017D01*
X141845Y57554D01*
X142200Y57200D01*
X142663Y57008D01*
X143164D01*
X143627Y57200D01*
X143981Y57554D01*
X144173Y58017D01*
Y58518D01*
X143981Y58981D01*
X143627Y59336D01*
X143164Y59528D01*
D02*
G37*
G36*
X261865Y58424D02*
X261364D01*
X260901Y58232D01*
X260546Y57878D01*
X260355Y57415D01*
Y56914D01*
X260546Y56451D01*
X260901Y56096D01*
X261364Y55905D01*
X261865D01*
X262328Y56096D01*
X262683Y56451D01*
X262874Y56914D01*
Y57415D01*
X262683Y57878D01*
X262328Y58232D01*
X261865Y58424D01*
D02*
G37*
G36*
X254381Y58240D02*
X253880D01*
X253417Y58048D01*
X253062Y57693D01*
X252871Y57230D01*
Y56729D01*
X253062Y56266D01*
X253417Y55912D01*
X253880Y55720D01*
X254381D01*
X254844Y55912D01*
X255198Y56266D01*
X255390Y56729D01*
Y57230D01*
X255198Y57693D01*
X254844Y58048D01*
X254381Y58240D01*
D02*
G37*
G36*
X188833Y57559D02*
X188332D01*
X187869Y57367D01*
X187515Y57013D01*
X187323Y56550D01*
Y56049D01*
X187515Y55586D01*
X187869Y55231D01*
X188332Y55039D01*
X188833D01*
X189296Y55231D01*
X189651Y55586D01*
X189842Y56049D01*
Y56550D01*
X189651Y57013D01*
X189296Y57367D01*
X188833Y57559D01*
D02*
G37*
G36*
X178345Y56963D02*
X177844D01*
X177381Y56771D01*
X177026Y56417D01*
X176834Y55954D01*
Y55453D01*
X177026Y54989D01*
X177381Y54635D01*
X177844Y54443D01*
X178345D01*
X178808Y54635D01*
X179162Y54989D01*
X179354Y55453D01*
Y55954D01*
X179162Y56417D01*
X178808Y56771D01*
X178345Y56963D01*
D02*
G37*
G36*
X240171Y54623D02*
X239670D01*
X239207Y54431D01*
X238853Y54077D01*
X238661Y53614D01*
Y53113D01*
X238853Y52650D01*
X239207Y52295D01*
X239670Y52104D01*
X240171D01*
X240634Y52295D01*
X240988Y52650D01*
X241180Y53113D01*
Y53614D01*
X240988Y54077D01*
X240634Y54431D01*
X240171Y54623D01*
D02*
G37*
G36*
X230890Y54479D02*
X230388D01*
X229925Y54287D01*
X229571Y53933D01*
X229379Y53470D01*
Y52969D01*
X229571Y52505D01*
X229925Y52151D01*
X230388Y51959D01*
X230890D01*
X231353Y52151D01*
X231707Y52505D01*
X231899Y52969D01*
Y53470D01*
X231707Y53933D01*
X231353Y54287D01*
X230890Y54479D01*
D02*
G37*
G36*
X92078Y56202D02*
X91577D01*
X91114Y56010D01*
X90759Y55655D01*
X90567Y55192D01*
Y54691D01*
X90759Y54228D01*
X91114Y53874D01*
X91577Y53682D01*
X91616D01*
X91716Y53182D01*
X91412Y53056D01*
X91058Y52702D01*
X90866Y52239D01*
Y51738D01*
X90438Y51534D01*
X90084Y51889D01*
X89621Y52080D01*
X89119D01*
X88656Y51889D01*
X88302Y51534D01*
X88110Y51071D01*
Y50570D01*
X88302Y50107D01*
X88656Y49753D01*
X89119Y49561D01*
X89621D01*
X90084Y49753D01*
X90438Y50107D01*
X90630Y50570D01*
Y51071D01*
X91058Y51275D01*
X91412Y50920D01*
X91875Y50728D01*
X92377D01*
X92840Y50920D01*
X93194Y51275D01*
X93386Y51738D01*
Y52239D01*
X93194Y52702D01*
X92840Y53056D01*
X92377Y53248D01*
X92337D01*
X92238Y53748D01*
X92541Y53874D01*
X92895Y54228D01*
X93087Y54691D01*
Y55192D01*
X92895Y55655D01*
X92541Y56010D01*
X92078Y56202D01*
D02*
G37*
G36*
X173978Y53727D02*
X173476D01*
X173013Y53535D01*
X172659Y53181D01*
X172467Y52718D01*
Y52217D01*
X172659Y51753D01*
X173013Y51399D01*
X173476Y51207D01*
X173978D01*
X174441Y51399D01*
X174795Y51753D01*
X174987Y52217D01*
Y52718D01*
X174795Y53181D01*
X174441Y53535D01*
X173978Y53727D01*
D02*
G37*
G36*
X77416Y56378D02*
X76915D01*
X76452Y56186D01*
X76097Y55832D01*
X75906Y55369D01*
Y54868D01*
X76097Y54404D01*
X76452Y54050D01*
X76547Y54011D01*
Y53470D01*
X76452Y53430D01*
X76097Y53076D01*
X75906Y52613D01*
Y52112D01*
X76097Y51649D01*
X76452Y51294D01*
X76915Y51102D01*
X77416D01*
X77879Y51294D01*
X78233Y51649D01*
X78425Y52112D01*
Y52613D01*
X78233Y53076D01*
X77879Y53430D01*
X77784Y53470D01*
Y54011D01*
X77879Y54050D01*
X78233Y54404D01*
X78425Y54868D01*
Y55369D01*
X78233Y55832D01*
X77879Y56186D01*
X77416Y56378D01*
D02*
G37*
G36*
X188833Y53228D02*
X188332D01*
X187869Y53036D01*
X187515Y52682D01*
X187323Y52219D01*
Y51718D01*
X187515Y51255D01*
X187869Y50901D01*
X188332Y50709D01*
X188833D01*
X189296Y50901D01*
X189651Y51255D01*
X189842Y51718D01*
Y52219D01*
X189651Y52682D01*
X189296Y53036D01*
X188833Y53228D01*
D02*
G37*
G36*
X261850Y52871D02*
X261349D01*
X260886Y52679D01*
X260531Y52325D01*
X260339Y51862D01*
Y51360D01*
X260531Y50897D01*
X260886Y50543D01*
X261349Y50351D01*
X261850D01*
X262313Y50543D01*
X262667Y50897D01*
X262859Y51360D01*
Y51862D01*
X262667Y52325D01*
X262313Y52679D01*
X261850Y52871D01*
D02*
G37*
G36*
X254384Y52687D02*
X253883D01*
X253420Y52495D01*
X253065Y52141D01*
X252874Y51678D01*
Y51177D01*
X253065Y50714D01*
X253420Y50359D01*
X253883Y50168D01*
X254384D01*
X254847Y50359D01*
X255202Y50714D01*
X255393Y51177D01*
Y51678D01*
X255202Y52141D01*
X254847Y52495D01*
X254384Y52687D01*
D02*
G37*
G36*
X65999Y52441D02*
X65497D01*
X65034Y52249D01*
X64680Y51895D01*
X64488Y51432D01*
Y50931D01*
X64680Y50467D01*
X65034Y50113D01*
X65497Y49921D01*
X65999D01*
X66462Y50113D01*
X66816Y50467D01*
X67008Y50931D01*
Y51432D01*
X66816Y51895D01*
X66462Y52249D01*
X65999Y52441D01*
D02*
G37*
G36*
X41983D02*
X41482D01*
X41019Y52249D01*
X40664Y51895D01*
X40472Y51432D01*
Y50931D01*
X40664Y50467D01*
X41019Y50113D01*
X41482Y49921D01*
X41983D01*
X42446Y50113D01*
X42800Y50467D01*
X42992Y50931D01*
Y51432D01*
X42800Y51895D01*
X42446Y52249D01*
X41983Y52441D01*
D02*
G37*
G36*
X155762Y51653D02*
X155261D01*
X154798Y51462D01*
X154444Y51107D01*
X154252Y50644D01*
Y50143D01*
X154444Y49680D01*
X154798Y49326D01*
X155261Y49134D01*
X155762D01*
X156226Y49326D01*
X156580Y49680D01*
X156772Y50143D01*
Y50644D01*
X156580Y51107D01*
X156226Y51462D01*
X155762Y51653D01*
D02*
G37*
G36*
X146314D02*
X145812D01*
X145349Y51462D01*
X144995Y51107D01*
X144803Y50644D01*
Y50143D01*
X144995Y49680D01*
X145349Y49326D01*
X145812Y49134D01*
X146314D01*
X146777Y49326D01*
X147131Y49680D01*
X147323Y50143D01*
Y50644D01*
X147131Y51107D01*
X146777Y51462D01*
X146314Y51653D01*
D02*
G37*
G36*
X228597Y51260D02*
X228096D01*
X227633Y51068D01*
X227278Y50714D01*
X227087Y50251D01*
Y49749D01*
X227278Y49286D01*
X227633Y48932D01*
X228096Y48740D01*
X228597D01*
X229060Y48932D01*
X229415Y49286D01*
X229606Y49749D01*
Y50251D01*
X229415Y50714D01*
X229060Y51068D01*
X228597Y51260D01*
D02*
G37*
G36*
X245544Y50022D02*
X245043D01*
X244580Y49831D01*
X244226Y49476D01*
X244034Y49013D01*
Y48512D01*
X244226Y48049D01*
X244580Y47695D01*
X245043Y47503D01*
X245544D01*
X246007Y47695D01*
X246362Y48049D01*
X246553Y48512D01*
Y49013D01*
X246362Y49476D01*
X246007Y49831D01*
X245544Y50022D01*
D02*
G37*
G36*
X261865Y49199D02*
X261364D01*
X260901Y49007D01*
X260546Y48653D01*
X260355Y48190D01*
Y47689D01*
X260546Y47226D01*
X260901Y46871D01*
X261364Y46679D01*
X261865D01*
X262328Y46871D01*
X262683Y47226D01*
X262874Y47689D01*
Y48190D01*
X262683Y48653D01*
X262328Y49007D01*
X261865Y49199D01*
D02*
G37*
G36*
X91983Y48957D02*
X91482D01*
X91019Y48765D01*
X90664Y48410D01*
X90472Y47947D01*
Y47446D01*
X90664Y46983D01*
X91019Y46629D01*
X91482Y46437D01*
X91983D01*
X92446Y46629D01*
X92800Y46983D01*
X92992Y47446D01*
Y47947D01*
X92800Y48410D01*
X92446Y48765D01*
X91983Y48957D01*
D02*
G37*
G36*
X158912Y48898D02*
X158411D01*
X157948Y48706D01*
X157593Y48351D01*
X157402Y47888D01*
Y47387D01*
X157593Y46924D01*
X157948Y46570D01*
X158411Y46378D01*
X158912D01*
X159375Y46570D01*
X159730Y46924D01*
X159921Y47387D01*
Y47888D01*
X159730Y48351D01*
X159375Y48706D01*
X158912Y48898D01*
D02*
G37*
G36*
X174847Y47649D02*
X174345D01*
X173882Y47457D01*
X173528Y47103D01*
X173336Y46640D01*
Y46138D01*
X173528Y45675D01*
X173882Y45321D01*
X174345Y45129D01*
X174847D01*
X175310Y45321D01*
X175664Y45675D01*
X175856Y46138D01*
Y46640D01*
X175664Y47103D01*
X175310Y47457D01*
X174847Y47649D01*
D02*
G37*
G36*
X88833Y47323D02*
X88332D01*
X87869Y47131D01*
X87515Y46777D01*
X87323Y46314D01*
Y45812D01*
X87515Y45349D01*
X87869Y44995D01*
X88332Y44803D01*
X88833D01*
X89296Y44995D01*
X89651Y45349D01*
X89842Y45812D01*
Y46314D01*
X89651Y46777D01*
X89296Y47131D01*
X88833Y47323D01*
D02*
G37*
G36*
X254375Y49560D02*
X253874D01*
X253411Y49368D01*
X253057Y49014D01*
X252865Y48551D01*
Y48050D01*
X253057Y47587D01*
X253324Y47320D01*
X253315Y46923D01*
X253261Y46753D01*
X253223Y46737D01*
X252869Y46383D01*
X252677Y45920D01*
Y45419D01*
X252869Y44956D01*
X253223Y44601D01*
X253686Y44409D01*
X254188D01*
X254651Y44601D01*
X255005Y44956D01*
X255197Y45419D01*
Y45920D01*
X255005Y46383D01*
X254738Y46650D01*
X254747Y47047D01*
X254800Y47216D01*
X254838Y47232D01*
X255193Y47587D01*
X255385Y48050D01*
Y48551D01*
X255193Y49014D01*
X254838Y49368D01*
X254375Y49560D01*
D02*
G37*
G36*
X82928Y48898D02*
X82427D01*
X81963Y48706D01*
X81609Y48351D01*
X81417Y47888D01*
Y47387D01*
X81609Y46924D01*
X81963Y46570D01*
X82427Y46378D01*
X82723D01*
X82806Y46218D01*
X82876Y45878D01*
X82593Y45595D01*
X82402Y45132D01*
Y44631D01*
X82593Y44168D01*
X82948Y43814D01*
X83411Y43622D01*
X83912D01*
X84375Y43814D01*
X84729Y44168D01*
X84921Y44631D01*
Y45132D01*
X84729Y45595D01*
X84375Y45950D01*
X83912Y46142D01*
X83616D01*
X83532Y46301D01*
X83463Y46642D01*
X83745Y46924D01*
X83937Y47387D01*
Y47888D01*
X83745Y48351D01*
X83391Y48706D01*
X82928Y48898D01*
D02*
G37*
G36*
X76432Y46142D02*
X75931D01*
X75467Y45950D01*
X75113Y45595D01*
X74921Y45132D01*
Y44631D01*
X75113Y44168D01*
X75467Y43814D01*
X75931Y43622D01*
X76432D01*
X76895Y43814D01*
X77249Y44168D01*
X77441Y44631D01*
Y45132D01*
X77249Y45595D01*
X76895Y45950D01*
X76432Y46142D01*
D02*
G37*
G36*
X187652Y45354D02*
X187151D01*
X186688Y45162D01*
X186334Y44808D01*
X186142Y44345D01*
Y43844D01*
X186334Y43381D01*
X186688Y43026D01*
X187151Y42835D01*
X187652D01*
X188115Y43026D01*
X188470Y43381D01*
X188661Y43844D01*
Y44345D01*
X188470Y44808D01*
X188115Y45162D01*
X187652Y45354D01*
D02*
G37*
G36*
X178203D02*
X177702D01*
X177239Y45162D01*
X176885Y44808D01*
X176693Y44345D01*
Y43844D01*
X176885Y43381D01*
X177239Y43026D01*
X177702Y42835D01*
X178203D01*
X178666Y43026D01*
X179021Y43381D01*
X179213Y43844D01*
Y44345D01*
X179021Y44808D01*
X178666Y45162D01*
X178203Y45354D01*
D02*
G37*
G36*
X245526Y46929D02*
X245025D01*
X244562Y46737D01*
X244208Y46383D01*
X244016Y45920D01*
Y45419D01*
X244208Y44956D01*
X244562Y44601D01*
X244657Y44562D01*
Y44021D01*
X244562Y43981D01*
X244208Y43627D01*
X244016Y43164D01*
Y42663D01*
X244208Y42200D01*
X244562Y41845D01*
X245025Y41654D01*
X245526D01*
X245989Y41845D01*
X246344Y42200D01*
X246535Y42663D01*
Y43164D01*
X246344Y43627D01*
X245989Y43981D01*
X245894Y44021D01*
Y44562D01*
X245989Y44601D01*
X246344Y44956D01*
X246535Y45419D01*
Y45920D01*
X246344Y46383D01*
X245989Y46737D01*
X245526Y46929D01*
D02*
G37*
G36*
X145526Y44173D02*
X145025D01*
X144562Y43981D01*
X144208Y43627D01*
X144016Y43164D01*
Y42663D01*
X144208Y42200D01*
X144562Y41845D01*
X145025Y41654D01*
X145526D01*
X145989Y41845D01*
X146344Y42200D01*
X146535Y42663D01*
Y43164D01*
X146344Y43627D01*
X145989Y43981D01*
X145526Y44173D01*
D02*
G37*
G36*
X161668Y43780D02*
X161167D01*
X160704Y43588D01*
X160349Y43233D01*
X160158Y42770D01*
Y42269D01*
X160349Y41806D01*
X160704Y41452D01*
X161167Y41260D01*
X161668D01*
X162131Y41452D01*
X162485Y41806D01*
X162677Y42269D01*
Y42770D01*
X162485Y43233D01*
X162131Y43588D01*
X161668Y43780D01*
D02*
G37*
G36*
X102613D02*
X102112D01*
X101649Y43588D01*
X101294Y43233D01*
X101102Y42770D01*
Y42269D01*
X101294Y41806D01*
X101649Y41452D01*
X102112Y41260D01*
X102613D01*
X103076Y41452D01*
X103430Y41806D01*
X103622Y42269D01*
Y42770D01*
X103430Y43233D01*
X103076Y43588D01*
X102613Y43780D01*
D02*
G37*
G36*
X83912Y43012D02*
X83411D01*
X82948Y42820D01*
X82593Y42466D01*
X82402Y42003D01*
Y41501D01*
X82593Y41038D01*
X82948Y40684D01*
X83411Y40492D01*
X83912D01*
X84375Y40684D01*
X84729Y41038D01*
X84921Y41501D01*
Y42003D01*
X84729Y42466D01*
X84375Y42820D01*
X83912Y43012D01*
D02*
G37*
G36*
X296314Y42992D02*
X295812D01*
X295349Y42800D01*
X294995Y42446D01*
X294803Y41983D01*
Y41482D01*
X294995Y41019D01*
X295349Y40664D01*
X295812Y40472D01*
X296314D01*
X296777Y40664D01*
X297131Y41019D01*
X297323Y41482D01*
Y41983D01*
X297131Y42446D01*
X296777Y42800D01*
X296314Y42992D01*
D02*
G37*
G36*
X76432D02*
X75931D01*
X75467Y42800D01*
X75113Y42446D01*
X74921Y41983D01*
Y41482D01*
X75113Y41019D01*
X75467Y40664D01*
X75931Y40472D01*
X76432D01*
X76895Y40664D01*
X77249Y41019D01*
X77441Y41482D01*
Y41983D01*
X77249Y42446D01*
X76895Y42800D01*
X76432Y42992D01*
D02*
G37*
G36*
X272298Y42598D02*
X271797D01*
X271334Y42407D01*
X270979Y42052D01*
X270787Y41589D01*
Y41088D01*
X270979Y40625D01*
X271334Y40271D01*
X271797Y40079D01*
X272298D01*
X272761Y40271D01*
X273115Y40625D01*
X273307Y41088D01*
Y41589D01*
X273115Y42052D01*
X272761Y42407D01*
X272298Y42598D01*
D02*
G37*
G36*
X92770Y42205D02*
X92269D01*
X91806Y42013D01*
X91452Y41658D01*
X91260Y41195D01*
Y40694D01*
X91452Y40231D01*
X91806Y39877D01*
X92269Y39685D01*
X92770D01*
X93233Y39877D01*
X93588Y40231D01*
X93779Y40694D01*
Y41195D01*
X93588Y41658D01*
X93233Y42013D01*
X92770Y42205D01*
D02*
G37*
G36*
X239583Y41575D02*
X239082D01*
X238619Y41383D01*
X238264Y41029D01*
X238073Y40566D01*
Y40064D01*
X238264Y39601D01*
X238619Y39247D01*
X239082Y39055D01*
X239583D01*
X240046Y39247D01*
X240401Y39601D01*
X240592Y40064D01*
Y40566D01*
X240401Y41029D01*
X240046Y41383D01*
X239583Y41575D01*
D02*
G37*
G36*
X261274Y40630D02*
X260773D01*
X260310Y40438D01*
X259956Y40084D01*
X259764Y39621D01*
Y39119D01*
X259956Y38656D01*
X260310Y38302D01*
X260773Y38110D01*
X261274D01*
X261737Y38302D01*
X262092Y38656D01*
X262283Y39119D01*
Y39621D01*
X262092Y40084D01*
X261737Y40438D01*
X261274Y40630D01*
D02*
G37*
G36*
X245526D02*
X245025D01*
X244562Y40438D01*
X244208Y40084D01*
X244016Y39621D01*
Y39119D01*
X244208Y38656D01*
X244562Y38302D01*
X245025Y38110D01*
X245526D01*
X245989Y38302D01*
X246344Y38656D01*
X246535Y39119D01*
Y39621D01*
X246344Y40084D01*
X245989Y40438D01*
X245526Y40630D01*
D02*
G37*
G36*
X102613D02*
X102112D01*
X101649Y40438D01*
X101294Y40084D01*
X101102Y39621D01*
Y39119D01*
X101294Y38656D01*
X101649Y38302D01*
X102112Y38110D01*
X102613D01*
X103076Y38302D01*
X103430Y38656D01*
X103622Y39119D01*
Y39621D01*
X103430Y40084D01*
X103076Y40438D01*
X102613Y40630D01*
D02*
G37*
G36*
X278597Y40236D02*
X278096D01*
X277633Y40044D01*
X277278Y39690D01*
X277087Y39227D01*
Y38726D01*
X277278Y38263D01*
X277633Y37908D01*
X278096Y37716D01*
X278597D01*
X279060Y37908D01*
X279415Y38263D01*
X279606Y38726D01*
Y39227D01*
X279415Y39690D01*
X279060Y40044D01*
X278597Y40236D01*
D02*
G37*
G36*
X145526Y39449D02*
X145025D01*
X144562Y39257D01*
X144208Y38903D01*
X144016Y38440D01*
Y37938D01*
X144208Y37475D01*
X144562Y37121D01*
X145025Y36929D01*
X145526D01*
X145989Y37121D01*
X146344Y37475D01*
X146535Y37938D01*
Y38440D01*
X146344Y38903D01*
X145989Y39257D01*
X145526Y39449D01*
D02*
G37*
G36*
X91983Y37047D02*
X91482D01*
X91019Y36855D01*
X90664Y36501D01*
X90472Y36038D01*
Y35537D01*
X90526Y35408D01*
X90143Y35025D01*
X90014Y35079D01*
X89513D01*
X89050Y34887D01*
X88696Y34532D01*
X88504Y34069D01*
Y33568D01*
X88696Y33105D01*
X89050Y32751D01*
X89513Y32559D01*
X90014D01*
X90477Y32751D01*
X90832Y33105D01*
X91024Y33568D01*
Y34069D01*
X90970Y34198D01*
X91353Y34581D01*
X91482Y34528D01*
X91983D01*
X92446Y34719D01*
X92800Y35074D01*
X92992Y35537D01*
Y36038D01*
X92800Y36501D01*
X92446Y36855D01*
X91983Y37047D01*
D02*
G37*
G36*
X172692Y37480D02*
X172190D01*
X171727Y37288D01*
X171373Y36934D01*
X171181Y36471D01*
Y35970D01*
X171373Y35507D01*
X171727Y35152D01*
X172190Y34961D01*
X172692D01*
X173155Y35152D01*
X173509Y35507D01*
X173701Y35970D01*
Y36471D01*
X173509Y36934D01*
X173155Y37288D01*
X172692Y37480D01*
D02*
G37*
G36*
X189621Y37087D02*
X189120D01*
X188656Y36895D01*
X188302Y36540D01*
X188110Y36077D01*
Y35576D01*
X188302Y35113D01*
X188656Y34759D01*
X189120Y34567D01*
X189621D01*
X190084Y34759D01*
X190438Y35113D01*
X190630Y35576D01*
Y36077D01*
X190438Y36540D01*
X190084Y36895D01*
X189621Y37087D01*
D02*
G37*
G36*
X161668D02*
X161167D01*
X160704Y36895D01*
X160349Y36540D01*
X160158Y36077D01*
Y35576D01*
X160349Y35113D01*
X160704Y34759D01*
X161167Y34567D01*
X161668D01*
X162131Y34759D01*
X162485Y35113D01*
X162677Y35576D01*
Y36077D01*
X162485Y36540D01*
X162131Y36895D01*
X161668Y37087D01*
D02*
G37*
G36*
X83912D02*
X83411D01*
X82948Y36895D01*
X82593Y36540D01*
X82402Y36077D01*
Y35576D01*
X82593Y35113D01*
X82948Y34759D01*
X83411Y34567D01*
X83912D01*
X84375Y34759D01*
X84729Y35113D01*
X84921Y35576D01*
Y36077D01*
X84729Y36540D01*
X84375Y36895D01*
X83912Y37087D01*
D02*
G37*
G36*
X76432D02*
X75931D01*
X75467Y36895D01*
X75113Y36540D01*
X74921Y36077D01*
Y35576D01*
X75113Y35113D01*
X75467Y34759D01*
X75931Y34567D01*
X76432D01*
X76895Y34759D01*
X77249Y35113D01*
X77441Y35576D01*
Y36077D01*
X77249Y36540D01*
X76895Y36895D01*
X76432Y37087D01*
D02*
G37*
G36*
X156143Y40960D02*
X155641D01*
X155178Y40768D01*
X154824Y40413D01*
X154632Y39950D01*
Y39449D01*
X154824Y38986D01*
X155178Y38632D01*
X155203Y38622D01*
Y38080D01*
X155192Y38076D01*
X154838Y37721D01*
X154646Y37258D01*
Y36757D01*
X154838Y36294D01*
X155192Y35940D01*
X155287Y35901D01*
Y35359D01*
X155192Y35320D01*
X154838Y34966D01*
X154646Y34503D01*
Y34001D01*
X154838Y33538D01*
X155192Y33184D01*
X155655Y32992D01*
X156156D01*
X156619Y33184D01*
X156974Y33538D01*
X157165Y34001D01*
Y34503D01*
X156974Y34966D01*
X156619Y35320D01*
X156524Y35359D01*
Y35901D01*
X156619Y35940D01*
X156974Y36294D01*
X157165Y36757D01*
Y37258D01*
X156974Y37721D01*
X156619Y38076D01*
X156595Y38086D01*
Y38627D01*
X156606Y38632D01*
X156960Y38986D01*
X157152Y39449D01*
Y39950D01*
X156960Y40413D01*
X156606Y40768D01*
X156143Y40960D01*
D02*
G37*
G36*
X261274Y34724D02*
X260773D01*
X260310Y34533D01*
X259956Y34178D01*
X259764Y33715D01*
Y33214D01*
X259956Y32751D01*
X260310Y32397D01*
X260773Y32205D01*
X261274D01*
X261737Y32397D01*
X262092Y32751D01*
X262283Y33214D01*
Y33715D01*
X262092Y34178D01*
X261737Y34533D01*
X261274Y34724D01*
D02*
G37*
G36*
X91983Y32756D02*
X91482D01*
X91019Y32564D01*
X90664Y32210D01*
X90472Y31747D01*
Y31338D01*
X90229Y31092D01*
X90043Y30975D01*
X89943Y31016D01*
X89442D01*
X88979Y30825D01*
X88625Y30470D01*
X88433Y30007D01*
Y29506D01*
X88625Y29043D01*
X88979Y28688D01*
X89442Y28497D01*
X89943D01*
X90406Y28688D01*
X90761Y29043D01*
X90952Y29506D01*
Y29914D01*
X91196Y30160D01*
X91382Y30278D01*
X91482Y30236D01*
X91983D01*
X92446Y30428D01*
X92800Y30782D01*
X92992Y31245D01*
Y31747D01*
X92800Y32210D01*
X92446Y32564D01*
X91983Y32756D01*
D02*
G37*
G36*
X83912Y33029D02*
X83411D01*
X82948Y32837D01*
X82593Y32483D01*
X82402Y32020D01*
Y31519D01*
X82593Y31056D01*
X82948Y30701D01*
X83411Y30509D01*
X83912D01*
X84375Y30701D01*
X84729Y31056D01*
X84921Y31519D01*
Y32020D01*
X84729Y32483D01*
X84375Y32837D01*
X83912Y33029D01*
D02*
G37*
G36*
X76432D02*
X75931D01*
X75467Y32837D01*
X75113Y32483D01*
X74921Y32020D01*
Y31519D01*
X75113Y31056D01*
X75467Y30701D01*
X75931Y30509D01*
X76432D01*
X76895Y30701D01*
X77249Y31056D01*
X77441Y31519D01*
Y32020D01*
X77249Y32483D01*
X76895Y32837D01*
X76432Y33029D01*
D02*
G37*
G36*
X193164Y32362D02*
X192663D01*
X192200Y32170D01*
X191845Y31816D01*
X191654Y31353D01*
Y30852D01*
X191845Y30389D01*
X192200Y30034D01*
X192663Y29842D01*
X193164D01*
X193627Y30034D01*
X193981Y30389D01*
X194173Y30852D01*
Y31353D01*
X193981Y31816D01*
X193627Y32170D01*
X193164Y32362D01*
D02*
G37*
G36*
X176628Y31575D02*
X176127D01*
X175664Y31383D01*
X175310Y31029D01*
X175118Y30566D01*
Y30064D01*
X175310Y29601D01*
X175664Y29247D01*
X176127Y29055D01*
X176628D01*
X177092Y29247D01*
X177446Y29601D01*
X177638Y30064D01*
Y30566D01*
X177446Y31029D01*
X177092Y31383D01*
X176628Y31575D01*
D02*
G37*
G36*
X28991D02*
X28490D01*
X28027Y31383D01*
X27672Y31029D01*
X27480Y30566D01*
Y30064D01*
X27672Y29601D01*
X28027Y29247D01*
X28490Y29055D01*
X28991D01*
X29454Y29247D01*
X29808Y29601D01*
X30000Y30064D01*
Y30566D01*
X29808Y31029D01*
X29454Y31383D01*
X28991Y31575D01*
D02*
G37*
G36*
X21117D02*
X20616D01*
X20153Y31383D01*
X19798Y31029D01*
X19606Y30566D01*
Y30064D01*
X19798Y29601D01*
X20153Y29247D01*
X20616Y29055D01*
X21117D01*
X21580Y29247D01*
X21934Y29601D01*
X22126Y30064D01*
Y30566D01*
X21934Y31029D01*
X21580Y31383D01*
X21117Y31575D01*
D02*
G37*
G36*
X120723Y31181D02*
X120222D01*
X119759Y30989D01*
X119404Y30635D01*
X119213Y30172D01*
Y29671D01*
X119404Y29208D01*
X119759Y28853D01*
X120222Y28661D01*
X120723D01*
X121186Y28853D01*
X121540Y29208D01*
X121732Y29671D01*
Y30172D01*
X121540Y30635D01*
X121186Y30989D01*
X120723Y31181D01*
D02*
G37*
G36*
X82534Y29606D02*
X82033D01*
X81570Y29414D01*
X81215Y29060D01*
X81024Y28597D01*
Y28096D01*
X81215Y27633D01*
X81570Y27278D01*
X82033Y27087D01*
X82534D01*
X82997Y27278D01*
X83351Y27633D01*
X83543Y28096D01*
Y28597D01*
X83351Y29060D01*
X82997Y29414D01*
X82534Y29606D01*
D02*
G37*
G36*
X111668Y28032D02*
X111167D01*
X110704Y27840D01*
X110349Y27485D01*
X110158Y27022D01*
Y26521D01*
X110349Y26058D01*
X110704Y25704D01*
X111167Y25512D01*
X111668D01*
X112131Y25704D01*
X112485Y26058D01*
X112677Y26521D01*
Y27022D01*
X112485Y27485D01*
X112131Y27840D01*
X111668Y28032D01*
D02*
G37*
G36*
X215999Y27638D02*
X215497D01*
X215034Y27446D01*
X214680Y27092D01*
X214488Y26629D01*
Y26127D01*
X214680Y25664D01*
X215034Y25310D01*
X215497Y25118D01*
X215999D01*
X216462Y25310D01*
X216816Y25664D01*
X217008Y26127D01*
Y26629D01*
X216816Y27092D01*
X216462Y27446D01*
X215999Y27638D01*
D02*
G37*
G36*
X118361D02*
X117860D01*
X117397Y27446D01*
X117042Y27092D01*
X116850Y26629D01*
Y26127D01*
X117042Y25664D01*
X117397Y25310D01*
X117860Y25118D01*
X118361D01*
X118824Y25310D01*
X119178Y25664D01*
X119370Y26127D01*
Y26629D01*
X119178Y27092D01*
X118824Y27446D01*
X118361Y27638D01*
D02*
G37*
G36*
X255893Y27343D02*
X255392D01*
X254929Y27152D01*
X254574Y26797D01*
X254383Y26334D01*
Y25833D01*
X254574Y25370D01*
X254929Y25016D01*
X255392Y24824D01*
X255893D01*
X256356Y25016D01*
X256711Y25370D01*
X256902Y25833D01*
Y26334D01*
X256711Y26797D01*
X256356Y27152D01*
X255893Y27343D01*
D02*
G37*
G36*
X137652Y27244D02*
X137151D01*
X136688Y27052D01*
X136334Y26698D01*
X136142Y26235D01*
Y25734D01*
X136334Y25271D01*
X136688Y24916D01*
X137151Y24724D01*
X137652D01*
X138115Y24916D01*
X138470Y25271D01*
X138661Y25734D01*
Y26235D01*
X138470Y26698D01*
X138115Y27052D01*
X137652Y27244D01*
D02*
G37*
G36*
X132928D02*
X132427D01*
X131964Y27052D01*
X131609Y26698D01*
X131417Y26235D01*
Y25734D01*
X131609Y25271D01*
X131964Y24916D01*
X132427Y24724D01*
X132928D01*
X133391Y24916D01*
X133745Y25271D01*
X133937Y25734D01*
Y26235D01*
X133745Y26698D01*
X133391Y27052D01*
X132928Y27244D01*
D02*
G37*
G36*
X65999D02*
X65497D01*
X65034Y27052D01*
X64680Y26698D01*
X64488Y26235D01*
Y25734D01*
X64680Y25271D01*
X65034Y24916D01*
X65497Y24724D01*
X65999D01*
X66462Y24916D01*
X66816Y25271D01*
X67008Y25734D01*
Y26235D01*
X66816Y26698D01*
X66462Y27052D01*
X65999Y27244D01*
D02*
G37*
G36*
X41983D02*
X41482D01*
X41019Y27052D01*
X40664Y26698D01*
X40472Y26235D01*
Y25734D01*
X40664Y25271D01*
X41019Y24916D01*
X41482Y24724D01*
X41983D01*
X42446Y24916D01*
X42800Y25271D01*
X42992Y25734D01*
Y26235D01*
X42800Y26698D01*
X42446Y27052D01*
X41983Y27244D01*
D02*
G37*
G36*
X231747Y25276D02*
X231245D01*
X230782Y25084D01*
X230428Y24729D01*
X230236Y24266D01*
Y23765D01*
X230428Y23302D01*
X230782Y22948D01*
X231245Y22756D01*
X231747D01*
X232210Y22948D01*
X232564Y23302D01*
X232756Y23765D01*
Y24266D01*
X232564Y24729D01*
X232210Y25084D01*
X231747Y25276D01*
D02*
G37*
G36*
X15906Y25249D02*
X15405D01*
X14942Y25058D01*
X14587Y24703D01*
X14396Y24240D01*
Y23739D01*
X14587Y23276D01*
X14942Y22922D01*
X15405Y22730D01*
X15906D01*
X16369Y22922D01*
X16723Y23276D01*
X16915Y23739D01*
Y24240D01*
X16723Y24703D01*
X16369Y25058D01*
X15906Y25249D01*
D02*
G37*
G36*
X271779Y25198D02*
X271278D01*
X270815Y25006D01*
X270461Y24652D01*
X270269Y24189D01*
Y23687D01*
X270461Y23224D01*
X270815Y22870D01*
X271278Y22678D01*
X271779D01*
X272242Y22870D01*
X272597Y23224D01*
X272789Y23687D01*
Y24189D01*
X272597Y24652D01*
X272242Y25006D01*
X271779Y25198D01*
D02*
G37*
G36*
X323085Y24557D02*
X322584D01*
X322121Y24365D01*
X321767Y24011D01*
X321575Y23548D01*
Y23046D01*
X321767Y22583D01*
X322121Y22229D01*
X322584Y22037D01*
X323085D01*
X323548Y22229D01*
X323903Y22583D01*
X324095Y23046D01*
Y23548D01*
X323903Y24011D01*
X323548Y24365D01*
X323085Y24557D01*
D02*
G37*
G36*
X167180Y24488D02*
X166679D01*
X166216Y24296D01*
X165861Y23942D01*
X165669Y23479D01*
Y22978D01*
X165861Y22515D01*
X166216Y22160D01*
X166679Y21969D01*
X167180D01*
X167643Y22160D01*
X167997Y22515D01*
X168189Y22978D01*
Y23479D01*
X167997Y23942D01*
X167643Y24296D01*
X167180Y24488D01*
D02*
G37*
G36*
X77022D02*
X76521D01*
X76058Y24296D01*
X75704Y23942D01*
X75512Y23479D01*
Y22978D01*
X75704Y22515D01*
X76058Y22160D01*
X76521Y21969D01*
X77022D01*
X77485Y22160D01*
X77840Y22515D01*
X78031Y22978D01*
Y23479D01*
X77840Y23942D01*
X77485Y24296D01*
X77022Y24488D01*
D02*
G37*
G36*
X12062D02*
X11560D01*
X11097Y24296D01*
X10743Y23942D01*
X10551Y23479D01*
Y22978D01*
X10743Y22515D01*
X11097Y22160D01*
X11560Y21969D01*
X12062D01*
X12525Y22160D01*
X12879Y22515D01*
X13071Y22978D01*
Y23479D01*
X12879Y23942D01*
X12525Y24296D01*
X12062Y24488D01*
D02*
G37*
G36*
X280566Y24094D02*
X280064D01*
X279601Y23903D01*
X279247Y23548D01*
X279055Y23085D01*
Y22584D01*
X279247Y22121D01*
X279601Y21767D01*
X280064Y21575D01*
X280566D01*
X281029Y21767D01*
X281383Y22121D01*
X281575Y22584D01*
Y23085D01*
X281383Y23548D01*
X281029Y23903D01*
X280566Y24094D01*
D02*
G37*
G36*
X250251D02*
X249749D01*
X249286Y23903D01*
X248932Y23548D01*
X248740Y23085D01*
Y22584D01*
X248932Y22121D01*
X249286Y21767D01*
X249749Y21575D01*
X250251D01*
X250714Y21767D01*
X251068Y22121D01*
X251260Y22584D01*
Y23085D01*
X251068Y23548D01*
X250714Y23903D01*
X250251Y24094D01*
D02*
G37*
G36*
X173479D02*
X172978D01*
X172515Y23903D01*
X172160Y23548D01*
X171968Y23085D01*
Y22584D01*
X172160Y22121D01*
X172515Y21767D01*
X172978Y21575D01*
X173479D01*
X173942Y21767D01*
X174296Y22121D01*
X174488Y22584D01*
Y23085D01*
X174296Y23548D01*
X173942Y23903D01*
X173479Y24094D01*
D02*
G37*
G36*
X294739Y22520D02*
X294238D01*
X293775Y22328D01*
X293420Y21973D01*
X293228Y21510D01*
Y21009D01*
X293420Y20546D01*
X293775Y20192D01*
X294238Y20000D01*
X294739D01*
X295202Y20192D01*
X295556Y20546D01*
X295748Y21009D01*
Y21510D01*
X295556Y21973D01*
X295202Y22328D01*
X294739Y22520D01*
D02*
G37*
G36*
X77022Y20945D02*
X76521D01*
X76058Y20753D01*
X75704Y20399D01*
X75512Y19936D01*
Y19434D01*
X75704Y18971D01*
X76058Y18617D01*
X76521Y18425D01*
X77022D01*
X77485Y18617D01*
X77840Y18971D01*
X78031Y19434D01*
Y19936D01*
X77840Y20399D01*
X77485Y20753D01*
X77022Y20945D01*
D02*
G37*
G36*
X221869Y17419D02*
X221368D01*
X220905Y17228D01*
X220550Y16873D01*
X220428Y16577D01*
X220191Y16510D01*
X219912Y16487D01*
X219892Y16491D01*
X219589Y16794D01*
X219126Y16986D01*
X218625D01*
X218162Y16794D01*
X217807Y16439D01*
X217616Y15976D01*
Y15475D01*
X217807Y15012D01*
X218162Y14658D01*
X218625Y14466D01*
X219126D01*
X219589Y14658D01*
X219943Y15012D01*
X220066Y15308D01*
X220303Y15375D01*
X220582Y15398D01*
X220602Y15394D01*
X220905Y15091D01*
X221368Y14900D01*
X221869D01*
X222332Y15091D01*
X222687Y15446D01*
X222878Y15909D01*
Y16410D01*
X222687Y16873D01*
X222332Y17228D01*
X221869Y17419D01*
D02*
G37*
G36*
X238046Y18976D02*
X237545D01*
X237082Y18785D01*
X236727Y18430D01*
X236535Y17967D01*
Y17466D01*
X236727Y17003D01*
X237082Y16648D01*
X237545Y16457D01*
X238046D01*
X238509Y16648D01*
X238863Y17003D01*
X239055Y17466D01*
Y17967D01*
X238863Y18430D01*
X238509Y18785D01*
X238046Y18976D01*
D02*
G37*
G36*
X98676Y18583D02*
X98175D01*
X97712Y18391D01*
X97357Y18036D01*
X97165Y17573D01*
Y17072D01*
X97357Y16609D01*
X97712Y16255D01*
X98175Y16063D01*
X98676D01*
X99139Y16255D01*
X99493Y16609D01*
X99685Y17072D01*
Y17573D01*
X99493Y18036D01*
X99139Y18391D01*
X98676Y18583D01*
D02*
G37*
G36*
X253806Y18642D02*
X253281D01*
X252796Y18441D01*
X252425Y18070D01*
X252224Y17585D01*
Y17061D01*
X252425Y16576D01*
X252796Y16205D01*
X253281Y16004D01*
X253806D01*
X254290Y16205D01*
X254661Y16576D01*
X254862Y17061D01*
Y17585D01*
X254661Y18070D01*
X254290Y18441D01*
X253806Y18642D01*
D02*
G37*
G36*
X249081D02*
X248557D01*
X248072Y18441D01*
X247701Y18070D01*
X247500Y17585D01*
Y17061D01*
X247701Y16576D01*
X248072Y16205D01*
X248557Y16004D01*
X249081D01*
X249566Y16205D01*
X249937Y16576D01*
X250138Y17061D01*
Y17585D01*
X249937Y18070D01*
X249566Y18441D01*
X249081Y18642D01*
D02*
G37*
G36*
X119527Y18137D02*
X119026D01*
X118563Y17945D01*
X118208Y17590D01*
X118017Y17127D01*
Y16626D01*
X118208Y16163D01*
X118563Y15809D01*
X119026Y15617D01*
X119527D01*
X119990Y15809D01*
X120344Y16163D01*
X120536Y16626D01*
Y17127D01*
X120344Y17590D01*
X119990Y17945D01*
X119527Y18137D01*
D02*
G37*
G36*
X115605Y17795D02*
X115104D01*
X114641Y17604D01*
X114286Y17249D01*
X114094Y16786D01*
Y16285D01*
X114286Y15822D01*
X114641Y15467D01*
X115104Y15276D01*
X115605D01*
X116068Y15467D01*
X116422Y15822D01*
X116614Y16285D01*
Y16786D01*
X116422Y17249D01*
X116068Y17604D01*
X115605Y17795D01*
D02*
G37*
G36*
X125054Y17402D02*
X124553D01*
X124090Y17210D01*
X123735Y16855D01*
X123543Y16392D01*
Y15891D01*
X123735Y15428D01*
X124090Y15074D01*
X124553Y14882D01*
X125054D01*
X125517Y15074D01*
X125871Y15428D01*
X126063Y15891D01*
Y16392D01*
X125871Y16855D01*
X125517Y17210D01*
X125054Y17402D01*
D02*
G37*
G36*
X82534Y16220D02*
X82033D01*
X81570Y16029D01*
X81215Y15674D01*
X81024Y15211D01*
Y14710D01*
X81215Y14247D01*
X81570Y13893D01*
X82033Y13701D01*
X82534D01*
X82997Y13893D01*
X83351Y14247D01*
X83543Y14710D01*
Y15211D01*
X83351Y15674D01*
X82997Y16029D01*
X82534Y16220D01*
D02*
G37*
G36*
X225054Y16045D02*
X224553D01*
X224090Y15853D01*
X223735Y15498D01*
X223543Y15035D01*
Y14534D01*
X223735Y14071D01*
X224090Y13717D01*
X224553Y13525D01*
X225054D01*
X225517Y13717D01*
X225871Y14071D01*
X226063Y14534D01*
Y15035D01*
X225871Y15498D01*
X225517Y15853D01*
X225054Y16045D01*
D02*
G37*
G36*
X206031Y17795D02*
X205529D01*
X205066Y17604D01*
X204712Y17249D01*
X204520Y16786D01*
Y16285D01*
X204592Y16112D01*
X204591Y16107D01*
X204242Y15650D01*
X203994D01*
X203531Y15458D01*
X203177Y15104D01*
X202985Y14641D01*
Y14140D01*
X203177Y13677D01*
X203531Y13322D01*
X203994Y13131D01*
X204495D01*
X204958Y13322D01*
X205313Y13677D01*
X205505Y14140D01*
Y14641D01*
X205433Y14814D01*
X205434Y14818D01*
X205783Y15276D01*
X206031D01*
X206494Y15467D01*
X206848Y15822D01*
X207040Y16285D01*
Y16786D01*
X206848Y17249D01*
X206494Y17604D01*
X206031Y17795D01*
D02*
G37*
G36*
X238046Y14646D02*
X237545D01*
X237082Y14454D01*
X236727Y14099D01*
X236535Y13636D01*
Y13135D01*
X236727Y12672D01*
X237082Y12318D01*
X237545Y12126D01*
X238046D01*
X238509Y12318D01*
X238863Y12672D01*
X239055Y13135D01*
Y13636D01*
X238863Y14099D01*
X238509Y14454D01*
X238046Y14646D01*
D02*
G37*
G36*
X144097Y14054D02*
X143596D01*
X143133Y13863D01*
X142779Y13508D01*
X142587Y13045D01*
Y12544D01*
X142779Y12081D01*
X143133Y11727D01*
X143596Y11535D01*
X144097D01*
X144560Y11727D01*
X144915Y12081D01*
X145107Y12544D01*
Y13045D01*
X144915Y13508D01*
X144560Y13863D01*
X144097Y14054D01*
D02*
G37*
G36*
X253806Y13917D02*
X253281D01*
X252796Y13716D01*
X252425Y13345D01*
X252224Y12861D01*
Y12336D01*
X252425Y11851D01*
X252796Y11480D01*
X253281Y11280D01*
X253806D01*
X254290Y11480D01*
X254661Y11851D01*
X254862Y12336D01*
Y12861D01*
X254661Y13345D01*
X254290Y13716D01*
X253806Y13917D01*
D02*
G37*
G36*
X249081D02*
X248557D01*
X248072Y13716D01*
X247701Y13345D01*
X247500Y12861D01*
Y12336D01*
X247701Y11851D01*
X248072Y11480D01*
X248557Y11280D01*
X249081D01*
X249566Y11480D01*
X249937Y11851D01*
X250138Y12336D01*
Y12861D01*
X249937Y13345D01*
X249566Y13716D01*
X249081Y13917D01*
D02*
G37*
G36*
X206943Y13071D02*
X206442D01*
X205979Y12879D01*
X205625Y12525D01*
X205433Y12062D01*
Y11560D01*
X205625Y11097D01*
X205979Y10743D01*
X206442Y10551D01*
X206943D01*
X207407Y10743D01*
X207761Y11097D01*
X207953Y11560D01*
Y12062D01*
X207761Y12525D01*
X207407Y12879D01*
X206943Y13071D01*
D02*
G37*
G36*
X36865Y12677D02*
X36364D01*
X35901Y12485D01*
X35546Y12131D01*
X35354Y11668D01*
Y11167D01*
X35546Y10704D01*
X35901Y10349D01*
X36364Y10158D01*
X36865D01*
X37328Y10349D01*
X37682Y10704D01*
X37874Y11167D01*
Y11668D01*
X37682Y12131D01*
X37328Y12485D01*
X36865Y12677D01*
D02*
G37*
G36*
X215979Y12529D02*
X215478D01*
X215015Y12337D01*
X214660Y11983D01*
X214469Y11520D01*
Y11019D01*
X214660Y10556D01*
X215015Y10201D01*
X215478Y10009D01*
X215979D01*
X216442Y10201D01*
X216796Y10556D01*
X216988Y11019D01*
Y11520D01*
X216796Y11983D01*
X216442Y12337D01*
X215979Y12529D01*
D02*
G37*
G36*
X87652Y11102D02*
X87151D01*
X86688Y10911D01*
X86334Y10556D01*
X86142Y10093D01*
Y9592D01*
X86334Y9129D01*
X86688Y8775D01*
X87151Y8583D01*
X87652D01*
X88115Y8775D01*
X88470Y9129D01*
X88661Y9592D01*
Y10093D01*
X88470Y10556D01*
X88115Y10911D01*
X87652Y11102D01*
D02*
G37*
G36*
X93026Y10716D02*
X92525D01*
X92062Y10524D01*
X91707Y10170D01*
X91515Y9707D01*
Y9206D01*
X91707Y8743D01*
X92062Y8388D01*
X92525Y8196D01*
X93026D01*
X93489Y8388D01*
X93843Y8743D01*
X94035Y9206D01*
Y9707D01*
X93843Y10170D01*
X93489Y10524D01*
X93026Y10716D01*
D02*
G37*
G36*
X36865Y9528D02*
X36364D01*
X35901Y9336D01*
X35546Y8981D01*
X35354Y8518D01*
Y8017D01*
X35546Y7554D01*
X35901Y7200D01*
X36364Y7008D01*
X36865D01*
X37328Y7200D01*
X37682Y7554D01*
X37874Y8017D01*
Y8518D01*
X37682Y8981D01*
X37328Y9336D01*
X36865Y9528D01*
D02*
G37*
G36*
X253806Y9193D02*
X253281D01*
X252796Y8992D01*
X252425Y8621D01*
X252224Y8136D01*
Y7612D01*
X252425Y7127D01*
X252796Y6756D01*
X253281Y6555D01*
X253806D01*
X254290Y6756D01*
X254661Y7127D01*
X254862Y7612D01*
Y8136D01*
X254661Y8621D01*
X254290Y8992D01*
X253806Y9193D01*
D02*
G37*
G36*
X249081D02*
X248557D01*
X248072Y8992D01*
X247701Y8621D01*
X247500Y8136D01*
Y7612D01*
X247701Y7127D01*
X248072Y6756D01*
X248557Y6555D01*
X249081D01*
X249566Y6756D01*
X249937Y7127D01*
X250138Y7612D01*
Y8136D01*
X249937Y8621D01*
X249566Y8992D01*
X249081Y9193D01*
D02*
G37*
G36*
X299069Y7953D02*
X298568D01*
X298105Y7761D01*
X297751Y7407D01*
X297559Y6944D01*
Y6442D01*
X297751Y5979D01*
X298105Y5625D01*
X298568Y5433D01*
X299069D01*
X299533Y5625D01*
X299887Y5979D01*
X300079Y6442D01*
Y6944D01*
X299887Y7407D01*
X299533Y7761D01*
X299069Y7953D01*
D02*
G37*
G36*
X188046Y6772D02*
X187545D01*
X187082Y6580D01*
X186727Y6225D01*
X186535Y5762D01*
Y5261D01*
X186727Y4798D01*
X187082Y4444D01*
X187545Y4252D01*
X188046D01*
X188509Y4444D01*
X188863Y4798D01*
X189055Y5261D01*
Y5762D01*
X188863Y6225D01*
X188509Y6580D01*
X188046Y6772D01*
D02*
G37*
G36*
X140014D02*
X139513D01*
X139050Y6580D01*
X138696Y6225D01*
X138504Y5762D01*
Y5261D01*
X138696Y4798D01*
X139050Y4444D01*
X139513Y4252D01*
X140014D01*
X140477Y4444D01*
X140832Y4798D01*
X141024Y5261D01*
Y5762D01*
X140832Y6225D01*
X140477Y6580D01*
X140014Y6772D01*
D02*
G37*
G36*
X225054Y6594D02*
X224553D01*
X224090Y6403D01*
X223735Y6048D01*
X223543Y5585D01*
Y5084D01*
X223735Y4621D01*
X224090Y4267D01*
X224553Y4075D01*
X225054D01*
X225517Y4267D01*
X225871Y4621D01*
X226063Y5084D01*
Y5585D01*
X225871Y6048D01*
X225517Y6403D01*
X225054Y6594D01*
D02*
G37*
G36*
X29384Y6476D02*
X28883D01*
X28420Y6285D01*
X28066Y5930D01*
X27874Y5467D01*
Y4966D01*
X28066Y4503D01*
X28420Y4149D01*
X28883Y3957D01*
X29384D01*
X29847Y4149D01*
X30202Y4503D01*
X30394Y4966D01*
Y5467D01*
X30202Y5930D01*
X29847Y6285D01*
X29384Y6476D01*
D02*
G37*
G36*
X280566Y6378D02*
X280064D01*
X279601Y6186D01*
X279247Y5832D01*
X279055Y5369D01*
Y4868D01*
X279247Y4405D01*
X279601Y4050D01*
X280064Y3858D01*
X280566D01*
X281029Y4050D01*
X281383Y4405D01*
X281575Y4868D01*
Y5369D01*
X281383Y5832D01*
X281029Y6186D01*
X280566Y6378D01*
D02*
G37*
G36*
X244739Y5984D02*
X244238D01*
X243775Y5793D01*
X243420Y5438D01*
X243228Y4975D01*
Y4474D01*
X243420Y4011D01*
X243775Y3656D01*
X244238Y3465D01*
X244739D01*
X245202Y3656D01*
X245556Y4011D01*
X245748Y4474D01*
Y4975D01*
X245556Y5438D01*
X245202Y5793D01*
X244739Y5984D01*
D02*
G37*
G36*
X323676Y20354D02*
X321993D01*
X320343Y20026D01*
X318788Y19382D01*
X317389Y18447D01*
X316199Y17257D01*
X315264Y15858D01*
X314620Y14303D01*
X314291Y12652D01*
Y10970D01*
X314620Y9319D01*
X315264Y7764D01*
X316199Y6365D01*
X317389Y5175D01*
X318788Y4240D01*
X320343Y3596D01*
X321993Y3268D01*
X323676D01*
X325327Y3596D01*
X326881Y4240D01*
X328281Y5175D01*
X329471Y6365D01*
X330406Y7764D01*
X331050Y9319D01*
X331378Y10970D01*
Y12652D01*
X331050Y14303D01*
X330406Y15858D01*
X329471Y17257D01*
X328281Y18447D01*
X326881Y19382D01*
X325327Y20026D01*
X323676Y20354D01*
D02*
G37*
G36*
X12652D02*
X10970D01*
X9319Y20026D01*
X7764Y19382D01*
X6365Y18447D01*
X5175Y17257D01*
X4240Y15858D01*
X3596Y14303D01*
X3268Y12652D01*
Y10970D01*
X3596Y9319D01*
X4240Y7764D01*
X5175Y6365D01*
X6365Y5175D01*
X7764Y4240D01*
X9319Y3596D01*
X10970Y3268D01*
X12652D01*
X14303Y3596D01*
X15858Y4240D01*
X17257Y5175D01*
X18447Y6365D01*
X19382Y7764D01*
X20026Y9319D01*
X20354Y10970D01*
Y12652D01*
X20026Y14303D01*
X19382Y15858D01*
X18447Y17257D01*
X17257Y18447D01*
X15858Y19382D01*
X14303Y20026D01*
X12652Y20354D01*
D02*
G37*
%LPD*%
D106*
X322835Y11811D02*
D03*
X11811D02*
D03*
Y224410D02*
D03*
X322835D02*
D03*
D107*
X16265Y228864D02*
D03*
X18110Y224410D02*
D03*
X11811Y230709D02*
D03*
X5512Y224410D02*
D03*
X11811Y218110D02*
D03*
X7357Y228864D02*
D03*
Y219955D02*
D03*
X16265D02*
D03*
X327289D02*
D03*
X318380D02*
D03*
Y228864D02*
D03*
X322835Y218110D02*
D03*
X316535Y224410D02*
D03*
X322835Y230709D02*
D03*
X329134Y224410D02*
D03*
X327289Y228864D02*
D03*
Y7357D02*
D03*
X318380D02*
D03*
Y16265D02*
D03*
X322835Y5512D02*
D03*
X316535Y11811D02*
D03*
X322835Y18110D02*
D03*
X329134Y11811D02*
D03*
X327289Y16265D02*
D03*
X16265Y7357D02*
D03*
X7357D02*
D03*
Y16265D02*
D03*
X11811Y5512D02*
D03*
X5512Y11811D02*
D03*
X11811Y18110D02*
D03*
X18110Y11811D02*
D03*
X16265Y16265D02*
D03*
D108*
X250000Y75984D02*
D03*
X250394Y185827D02*
D03*
X250000Y177953D02*
D03*
X89370Y40945D02*
D03*
X272441Y209449D02*
D03*
Y204331D02*
D03*
X274803D02*
D03*
Y209449D02*
D03*
Y214567D02*
D03*
X272441D02*
D03*
X250000Y228740D02*
D03*
X246457D02*
D03*
X242913D02*
D03*
X250000Y232677D02*
D03*
X246457D02*
D03*
X242913D02*
D03*
X154331Y205118D02*
D03*
Y208661D02*
D03*
X150394Y205118D02*
D03*
Y208661D02*
D03*
X146063Y205118D02*
D03*
Y208661D02*
D03*
X153937Y220079D02*
D03*
X150000D02*
D03*
X146063D02*
D03*
X153937Y223622D02*
D03*
X150000D02*
D03*
X146063D02*
D03*
X317447Y42493D02*
D03*
X317717Y57087D02*
D03*
Y116535D02*
D03*
X318012Y131201D02*
D03*
X322835Y27097D02*
D03*
X325984Y38583D02*
D03*
X326378Y70866D02*
D03*
Y112598D02*
D03*
Y144882D02*
D03*
X285827Y21260D02*
D03*
X273838Y5118D02*
D03*
X273622Y12205D02*
D03*
Y19291D02*
D03*
X323228Y136221D02*
D03*
Y126378D02*
D03*
Y116535D02*
D03*
Y67323D02*
D03*
Y57480D02*
D03*
Y47638D02*
D03*
X313386Y146063D02*
D03*
Y106693D02*
D03*
Y96850D02*
D03*
Y87008D02*
D03*
Y77165D02*
D03*
Y37795D02*
D03*
X303543Y106693D02*
D03*
Y77165D02*
D03*
X293701Y146063D02*
D03*
Y136221D02*
D03*
Y126378D02*
D03*
Y106693D02*
D03*
Y77165D02*
D03*
Y57480D02*
D03*
Y47638D02*
D03*
Y37795D02*
D03*
X283858Y106693D02*
D03*
Y87008D02*
D03*
X274016Y106693D02*
D03*
Y96850D02*
D03*
Y77165D02*
D03*
Y37795D02*
D03*
X264173Y106693D02*
D03*
Y96850D02*
D03*
Y77165D02*
D03*
X262205Y21654D02*
D03*
X245388Y51704D02*
D03*
X257480Y39370D02*
D03*
X257874Y51575D02*
D03*
X256311Y72863D02*
D03*
X278346Y77559D02*
D03*
X285827Y85433D02*
D03*
X277165Y153543D02*
D03*
X256445Y110512D02*
D03*
X258268Y127165D02*
D03*
X256476Y143858D02*
D03*
X305906Y176772D02*
D03*
X300394D02*
D03*
X303150D02*
D03*
Y179921D02*
D03*
X300394D02*
D03*
X305906D02*
D03*
X287402Y190551D02*
D03*
X322835Y207087D02*
D03*
X304331Y209842D02*
D03*
X246378Y162992D02*
D03*
X248031Y212205D02*
D03*
X232677D02*
D03*
Y207087D02*
D03*
X227559Y212205D02*
D03*
Y207087D02*
D03*
X222441Y212205D02*
D03*
Y207087D02*
D03*
X217323D02*
D03*
X212205D02*
D03*
X222441Y187795D02*
D03*
X230315Y188189D02*
D03*
X221318Y198014D02*
D03*
X212992Y196850D02*
D03*
X230315Y112992D02*
D03*
X221654Y77953D02*
D03*
X234252Y77165D02*
D03*
X226772Y87008D02*
D03*
X211024Y88583D02*
D03*
X222835Y97244D02*
D03*
Y104331D02*
D03*
X213770Y111821D02*
D03*
X222835Y111417D02*
D03*
X205502Y116720D02*
D03*
X181102Y118110D02*
D03*
X235433Y24803D02*
D03*
X230683Y10191D02*
D03*
X229528Y3937D02*
D03*
X209055Y5906D02*
D03*
X184252Y5512D02*
D03*
X177953Y73228D02*
D03*
X173228Y30315D02*
D03*
X149213Y22047D02*
D03*
X154724Y3937D02*
D03*
X164567Y50000D02*
D03*
X169685Y46063D02*
D03*
X159449Y64173D02*
D03*
X150394Y93701D02*
D03*
X149143Y107874D02*
D03*
X153150Y134646D02*
D03*
X177953Y201969D02*
D03*
X183465Y182283D02*
D03*
X172835Y140157D02*
D03*
X169690Y154729D02*
D03*
X164173Y159449D02*
D03*
X160236Y173228D02*
D03*
X179921Y102362D02*
D03*
X120472Y112205D02*
D03*
X112184Y117112D02*
D03*
X111417Y126772D02*
D03*
X103248Y126279D02*
D03*
X131496Y100787D02*
D03*
X127874Y85354D02*
D03*
X153543Y194882D02*
D03*
X125619Y197748D02*
D03*
X132283Y214567D02*
D03*
X100787Y197638D02*
D03*
X107874Y226378D02*
D03*
X87008Y222047D02*
D03*
Y214173D02*
D03*
X85433Y133465D02*
D03*
X84118Y163447D02*
D03*
X82677Y185039D02*
D03*
X79528Y195276D02*
D03*
X82677Y217323D02*
D03*
X16142Y211024D02*
D03*
X10630Y201575D02*
D03*
X11811Y205512D02*
D03*
Y30709D02*
D03*
X10630Y34646D02*
D03*
X11811Y209124D02*
D03*
X10630Y170472D02*
D03*
Y156299D02*
D03*
Y126772D02*
D03*
Y109449D02*
D03*
Y79528D02*
D03*
Y66535D02*
D03*
X19291Y198031D02*
D03*
Y183465D02*
D03*
Y153150D02*
D03*
Y138189D02*
D03*
Y107874D02*
D03*
Y62992D02*
D03*
Y93307D02*
D03*
X19008Y48142D02*
D03*
X59625Y221558D02*
D03*
X59842Y168110D02*
D03*
X80709Y159055D02*
D03*
X88189Y151181D02*
D03*
X79921Y138189D02*
D03*
X80640Y126309D02*
D03*
X82607Y111741D02*
D03*
X80709Y74803D02*
D03*
X59758Y115317D02*
D03*
X79921Y90945D02*
D03*
X86614Y98249D02*
D03*
X86614Y105118D02*
D03*
X88583Y88583D02*
D03*
X96929Y85354D02*
D03*
X85039Y19291D02*
D03*
X59270Y62053D02*
D03*
X85433Y52362D02*
D03*
X79921Y35827D02*
D03*
X80709Y19685D02*
D03*
X11811Y27097D02*
D03*
X15748Y26772D02*
D03*
X120472Y5118D02*
D03*
X103150Y15354D02*
D03*
X111811Y5906D02*
D03*
X111417Y16535D02*
D03*
D109*
X114764Y51968D02*
D03*
Y56693D02*
D03*
X119488Y51968D02*
D03*
X119488Y56693D02*
D03*
X114764Y42520D02*
D03*
Y37795D02*
D03*
X119488Y42520D02*
D03*
X119488Y37795D02*
D03*
X128937Y42520D02*
D03*
Y37795D02*
D03*
X133661Y42520D02*
D03*
Y37795D02*
D03*
Y51968D02*
D03*
Y56693D02*
D03*
X128937Y51968D02*
D03*
Y56693D02*
D03*
X124213D02*
D03*
Y51968D02*
D03*
Y37795D02*
D03*
Y42520D02*
D03*
X114764Y47244D02*
D03*
X119488D02*
D03*
X133661D02*
D03*
X124213D02*
D03*
X128937D02*
D03*
X204134D02*
D03*
X208858D02*
D03*
X199409D02*
D03*
X213583D02*
D03*
X218307D02*
D03*
X208858Y51968D02*
D03*
Y56693D02*
D03*
Y42520D02*
D03*
Y37795D02*
D03*
X204134D02*
D03*
Y42520D02*
D03*
X199409Y37795D02*
D03*
Y42520D02*
D03*
Y56693D02*
D03*
Y51968D02*
D03*
X204134Y56693D02*
D03*
Y51968D02*
D03*
X213583Y56693D02*
D03*
X213583Y51968D02*
D03*
X218307Y56693D02*
D03*
Y51968D02*
D03*
X213583Y37795D02*
D03*
X213583Y42520D02*
D03*
X218307Y37795D02*
D03*
Y42520D02*
D03*
X204874Y157087D02*
D03*
X209598D02*
D03*
X200150D02*
D03*
X214323D02*
D03*
X219047D02*
D03*
X209598Y161811D02*
D03*
Y166535D02*
D03*
Y152362D02*
D03*
Y147638D02*
D03*
X204874D02*
D03*
Y152362D02*
D03*
X200150Y147638D02*
D03*
Y152362D02*
D03*
Y166535D02*
D03*
Y161811D02*
D03*
X204874Y166535D02*
D03*
Y161811D02*
D03*
X214323Y166535D02*
D03*
X214323Y161811D02*
D03*
X219047Y166535D02*
D03*
Y161811D02*
D03*
X214323Y147638D02*
D03*
X214323Y152362D02*
D03*
X219047Y147638D02*
D03*
Y152362D02*
D03*
X114764Y161811D02*
D03*
Y166535D02*
D03*
X119488Y161811D02*
D03*
X119488Y166535D02*
D03*
X114764Y152362D02*
D03*
Y147638D02*
D03*
X119488Y152362D02*
D03*
X119488Y147638D02*
D03*
X128937Y152362D02*
D03*
Y147638D02*
D03*
X133661Y152362D02*
D03*
Y147638D02*
D03*
Y161811D02*
D03*
Y166535D02*
D03*
X128937Y161811D02*
D03*
Y166535D02*
D03*
X124213D02*
D03*
Y161811D02*
D03*
Y147638D02*
D03*
Y152362D02*
D03*
X114764Y157087D02*
D03*
X119488D02*
D03*
X133661D02*
D03*
X124213D02*
D03*
X128937D02*
D03*
D110*
X82122Y167634D02*
D03*
X324803Y183661D02*
D03*
Y186221D02*
D03*
Y188779D02*
D03*
X325197Y191732D02*
D03*
Y194488D02*
D03*
X328150D02*
D03*
Y191732D02*
D03*
X331102D02*
D03*
Y194488D02*
D03*
X76772Y159055D02*
D03*
X179251Y169999D02*
D03*
X174126Y169291D02*
D03*
X83268Y195076D02*
D03*
Y190988D02*
D03*
X76772Y183465D02*
D03*
X89693Y29757D02*
D03*
X83661Y41752D02*
D03*
X245294Y48763D02*
D03*
X254442Y138982D02*
D03*
X254528Y136346D02*
D03*
X291339Y208661D02*
D03*
Y212598D02*
D03*
X245276Y168110D02*
D03*
X247638Y169685D02*
D03*
X230296Y115630D02*
D03*
X213779Y90551D02*
D03*
X233051Y88583D02*
D03*
X232909Y91732D02*
D03*
X228524Y93736D02*
D03*
X237402Y102362D02*
D03*
X240551Y86221D02*
D03*
X205385Y119454D02*
D03*
X205540Y122095D02*
D03*
X255643Y26084D02*
D03*
X271529Y23938D02*
D03*
X76772Y179134D02*
D03*
X16142Y214173D02*
D03*
X83635Y98249D02*
D03*
X92520Y40945D02*
D03*
X83661Y35827D02*
D03*
X81102Y61811D02*
D03*
X82677Y47638D02*
D03*
X83661Y44882D02*
D03*
X77165Y52362D02*
D03*
Y55118D02*
D03*
X76181Y44882D02*
D03*
X15655Y23990D02*
D03*
X98425Y191339D02*
D03*
X85921Y92619D02*
D03*
X91738Y151181D02*
D03*
X80581Y172220D02*
D03*
X239333Y40315D02*
D03*
X272047Y41339D02*
D03*
X271969Y66220D02*
D03*
X272835Y118110D02*
D03*
X273327Y139764D02*
D03*
X248031Y128347D02*
D03*
X76173Y88800D02*
D03*
X83675Y88834D02*
D03*
X91732Y47697D02*
D03*
X92126Y51988D02*
D03*
X89370Y50821D02*
D03*
X76187Y94574D02*
D03*
X83659Y94273D02*
D03*
X88583Y46063D02*
D03*
X83675Y84858D02*
D03*
X82894Y135031D02*
D03*
X41563Y157256D02*
D03*
X41339Y132283D02*
D03*
X82677Y220866D02*
D03*
X83071Y207087D02*
D03*
X82677Y188189D02*
D03*
Y154724D02*
D03*
X80315Y120114D02*
D03*
X82607Y114891D02*
D03*
X82926Y101036D02*
D03*
X82739Y82284D02*
D03*
X79528Y67716D02*
D03*
X82319Y67323D02*
D03*
X254331Y78740D02*
D03*
X253937Y64173D02*
D03*
X256466Y155309D02*
D03*
X254487Y123656D02*
D03*
X254724Y120866D02*
D03*
X252933Y100000D02*
D03*
X250295D02*
D03*
X256693Y101969D02*
D03*
X276772Y113386D02*
D03*
X254125Y48300D02*
D03*
X253937Y45669D02*
D03*
X242126Y60492D02*
D03*
X260236Y115354D02*
D03*
X262050Y123633D02*
D03*
X260236Y110236D02*
D03*
X261954Y126867D02*
D03*
X237657Y117717D02*
D03*
X242913Y151383D02*
D03*
X254464Y132955D02*
D03*
X262263Y133144D02*
D03*
X252362Y173314D02*
D03*
X254464Y126819D02*
D03*
X250000Y171653D02*
D03*
X260236Y143701D02*
D03*
Y147638D02*
D03*
X262024Y136378D02*
D03*
X243307Y156299D02*
D03*
X223228Y178347D02*
D03*
X224803Y175591D02*
D03*
X240945Y158268D02*
D03*
X235827Y122047D02*
D03*
X240356Y149646D02*
D03*
X240945Y153937D02*
D03*
X242520Y164996D02*
D03*
X240295Y117717D02*
D03*
X245276Y39370D02*
D03*
Y42913D02*
D03*
Y45669D02*
D03*
X244882Y65354D02*
D03*
X246850Y63386D02*
D03*
X244094Y58434D02*
D03*
X261024Y39370D02*
D03*
Y33465D02*
D03*
X260195Y73639D02*
D03*
Y68898D02*
D03*
X261614Y57164D02*
D03*
X261584Y60683D02*
D03*
X254134Y60956D02*
D03*
X254130Y56980D02*
D03*
X254134Y51427D02*
D03*
X261599Y51611D02*
D03*
X261614Y47939D02*
D03*
X239920Y53363D02*
D03*
X246457Y84252D02*
D03*
X253150Y85039D02*
D03*
X240551Y102362D02*
D03*
X230639Y53219D02*
D03*
X250000Y85039D02*
D03*
X228346Y50000D02*
D03*
X250000Y22835D02*
D03*
X296063Y41732D02*
D03*
X295669Y66535D02*
D03*
X278346Y38976D02*
D03*
X83268Y200339D02*
D03*
X75754Y190988D02*
D03*
Y194967D02*
D03*
X91968Y165068D02*
D03*
X90158Y160984D02*
D03*
X87008Y157874D02*
D03*
X90551Y156693D02*
D03*
X87008Y162205D02*
D03*
X76772Y211811D02*
D03*
X75751Y200521D02*
D03*
X75796Y204403D02*
D03*
X83268D02*
D03*
X83661Y138208D02*
D03*
X88334Y144512D02*
D03*
X76113Y142273D02*
D03*
X83661Y142185D02*
D03*
X83674Y147987D02*
D03*
X76157Y151504D02*
D03*
X83674Y151548D02*
D03*
X91036Y141378D02*
D03*
X88537Y140536D02*
D03*
X90945Y145669D02*
D03*
X76772Y130709D02*
D03*
X76157Y138207D02*
D03*
X76135Y147943D02*
D03*
X76772Y215748D02*
D03*
Y163386D02*
D03*
Y126378D02*
D03*
X66142Y157480D02*
D03*
X66393Y132426D02*
D03*
X84252Y175197D02*
D03*
X59449Y183071D02*
D03*
X102362Y150000D02*
D03*
X102756Y153543D02*
D03*
X28839Y206004D02*
D03*
X31890Y173228D02*
D03*
X65748Y174838D02*
D03*
X106693Y189764D02*
D03*
X115748Y178347D02*
D03*
X126496Y188586D02*
D03*
X187795Y154331D02*
D03*
X129134Y188583D02*
D03*
X131772D02*
D03*
X138976Y173622D02*
D03*
X154839Y160078D02*
D03*
X145634Y148031D02*
D03*
X155673Y149344D02*
D03*
X155896Y146716D02*
D03*
X155870Y144078D02*
D03*
X132677Y136221D02*
D03*
X124803Y16142D02*
D03*
X124668Y125201D02*
D03*
X146063Y103957D02*
D03*
X21260Y205906D02*
D03*
X22308Y116780D02*
D03*
X119291Y125984D02*
D03*
X118110Y135827D02*
D03*
X115354Y125984D02*
D03*
X111417Y135827D02*
D03*
X91827Y54942D02*
D03*
X76173Y85322D02*
D03*
X102362Y42520D02*
D03*
X76212Y98249D02*
D03*
X76772Y77165D02*
D03*
Y74410D02*
D03*
Y106299D02*
D03*
X93701Y79134D02*
D03*
X76772Y110236D02*
D03*
X66142Y104331D02*
D03*
X59842Y76378D02*
D03*
X89764Y33819D02*
D03*
X82284Y14961D02*
D03*
Y28346D02*
D03*
X76772Y23228D02*
D03*
X83661Y31769D02*
D03*
X91732Y31496D02*
D03*
X76181Y35827D02*
D03*
Y31769D02*
D03*
X76772Y19685D02*
D03*
X91732Y35787D02*
D03*
X76181Y41732D02*
D03*
X65748Y51181D02*
D03*
Y25984D02*
D03*
X161811Y126772D02*
D03*
X166929Y185827D02*
D03*
X322835Y212924D02*
D03*
Y23297D02*
D03*
X29134Y5217D02*
D03*
X36614Y230709D02*
D03*
Y226772D02*
D03*
X11811Y23228D02*
D03*
Y212924D02*
D03*
X155512Y50394D02*
D03*
X177953Y44094D02*
D03*
X174596Y46389D02*
D03*
X175554Y157381D02*
D03*
X178740Y154331D02*
D03*
X145276Y160236D02*
D03*
X158268Y157087D02*
D03*
X143847Y12795D02*
D03*
X140551Y213779D02*
D03*
X146850Y200394D02*
D03*
X160236Y180709D02*
D03*
X188189Y93307D02*
D03*
X217056Y88673D02*
D03*
X108661Y139764D02*
D03*
X41732Y210630D02*
D03*
Y185827D02*
D03*
X298819Y6693D02*
D03*
X280315Y22835D02*
D03*
X282677Y80315D02*
D03*
X226797Y123597D02*
D03*
X159449Y71260D02*
D03*
X156114Y64011D02*
D03*
X304724Y172835D02*
D03*
X301181Y172933D02*
D03*
Y163779D02*
D03*
Y166831D02*
D03*
Y160728D02*
D03*
Y169882D02*
D03*
X304724Y169783D02*
D03*
Y160630D02*
D03*
Y166732D02*
D03*
Y163681D02*
D03*
X303150Y200394D02*
D03*
X92775Y9456D02*
D03*
X176378Y30315D02*
D03*
X172835Y132283D02*
D03*
X206681Y125419D02*
D03*
X205780Y16535D02*
D03*
X204245Y14390D02*
D03*
X220654Y68685D02*
D03*
X115818Y4802D02*
D03*
X118098Y3182D02*
D03*
X280315Y5118D02*
D03*
X244488Y4724D02*
D03*
X166929Y23228D02*
D03*
X174016Y80315D02*
D03*
X137402Y136221D02*
D03*
X210630Y65748D02*
D03*
X29921Y224016D02*
D03*
X145634Y152756D02*
D03*
X88583Y110630D02*
D03*
X88976Y228346D02*
D03*
X189370Y35827D02*
D03*
X192913Y31102D02*
D03*
X161417Y35827D02*
D03*
X177165Y58661D02*
D03*
X173158Y59419D02*
D03*
X294488Y21260D02*
D03*
X28740Y30315D02*
D03*
X20866D02*
D03*
X22047Y68898D02*
D03*
X315354Y161417D02*
D03*
X302710Y102015D02*
D03*
X294049Y85480D02*
D03*
X172441Y36220D02*
D03*
X177286Y61329D02*
D03*
X173727Y52467D02*
D03*
X161417Y42520D02*
D03*
X155905Y37008D02*
D03*
X155892Y39700D02*
D03*
X161811Y167717D02*
D03*
X171260Y146063D02*
D03*
X161417Y151969D02*
D03*
X161024Y144882D02*
D03*
X174016Y161811D02*
D03*
X178530Y164983D02*
D03*
X178164Y167595D02*
D03*
X139370Y62992D02*
D03*
X142913Y58268D02*
D03*
X128268Y81594D02*
D03*
X199606Y116931D02*
D03*
X231496Y24016D02*
D03*
X187795Y5512D02*
D03*
X246850Y194882D02*
D03*
X220079Y117546D02*
D03*
X188808Y83465D02*
D03*
X143110Y122244D02*
D03*
X157874Y112992D02*
D03*
X106299Y87402D02*
D03*
X173228Y22835D02*
D03*
X139764Y5512D02*
D03*
X87402Y9843D02*
D03*
X194095Y140157D02*
D03*
X190157Y146063D02*
D03*
X189595Y192126D02*
D03*
X188583Y201575D02*
D03*
X121260Y138976D02*
D03*
X142913Y167717D02*
D03*
X106693Y197638D02*
D03*
X111811Y226378D02*
D03*
X118110Y26378D02*
D03*
X111417Y26772D02*
D03*
X120472Y29921D02*
D03*
X111417Y108150D02*
D03*
X132677Y25984D02*
D03*
X137402D02*
D03*
X145276Y38189D02*
D03*
Y42913D02*
D03*
X159449Y97638D02*
D03*
X87748Y118511D02*
D03*
X156693Y173228D02*
D03*
X127703Y191682D02*
D03*
X206693Y11811D02*
D03*
X188583Y51968D02*
D03*
Y56299D02*
D03*
X196063Y67716D02*
D03*
X200394D02*
D03*
X212598Y68898D02*
D03*
X223228Y64961D02*
D03*
X176772Y140328D02*
D03*
X188583Y166535D02*
D03*
Y161417D02*
D03*
X196457Y177953D02*
D03*
X201181D02*
D03*
X213386Y175197D02*
D03*
X215826Y178424D02*
D03*
X294882Y196850D02*
D03*
X297638Y200394D02*
D03*
X294882D02*
D03*
X300394Y196850D02*
D03*
X297638D02*
D03*
X303150D02*
D03*
X300394Y200394D02*
D03*
X126560Y78740D02*
D03*
X231340Y161239D02*
D03*
X231299Y163941D02*
D03*
X116543Y115285D02*
D03*
X291339Y216535D02*
D03*
X288583D02*
D03*
Y212598D02*
D03*
Y208661D02*
D03*
X217752Y77953D02*
D03*
X214992Y78320D02*
D03*
X226772Y115354D02*
D03*
X224803Y14785D02*
D03*
Y5335D02*
D03*
X280270Y102803D02*
D03*
X212598Y187795D02*
D03*
X215226Y188029D02*
D03*
X170079Y94488D02*
D03*
X206693Y178347D02*
D03*
X207874Y65748D02*
D03*
X120079Y82284D02*
D03*
X119276Y16877D02*
D03*
X146063Y50394D02*
D03*
X187402Y44094D02*
D03*
X202674Y125591D02*
D03*
X214173Y122047D02*
D03*
X149606Y100394D02*
D03*
X107874Y81496D02*
D03*
X73228Y68898D02*
D03*
X41732Y51181D02*
D03*
Y25984D02*
D03*
X66142Y79134D02*
D03*
X41339D02*
D03*
Y104331D02*
D03*
X296063Y116535D02*
D03*
X296240Y141732D02*
D03*
X102362Y39370D02*
D03*
X65748Y185433D02*
D03*
Y210630D02*
D03*
X60630Y129528D02*
D03*
X115354Y16535D02*
D03*
X36614Y11417D02*
D03*
Y8268D02*
D03*
X131496Y78957D02*
D03*
X129068Y77925D02*
D03*
X216535Y198819D02*
D03*
X237795Y17717D02*
D03*
X218875Y15726D02*
D03*
X215728Y11269D02*
D03*
X221619Y16159D02*
D03*
X237795Y13386D02*
D03*
X216535Y136221D02*
D03*
X215748Y26378D02*
D03*
X235827Y184646D02*
D03*
X240945Y194874D02*
D03*
X218504Y187795D02*
D03*
X116142Y68110D02*
D03*
X158661Y47638D02*
D03*
X98425Y17323D02*
D03*
X92901Y118511D02*
D03*
X98425Y127953D02*
D03*
X119242Y191402D02*
D03*
X269685Y209055D02*
D03*
Y233465D02*
D03*
X178094Y55703D02*
D03*
X155905Y34252D02*
D03*
D111*
X107874Y216161D02*
D03*
X112598D02*
D03*
X107874Y211437D02*
D03*
X112598D02*
D03*
X107874Y206713D02*
D03*
X112598D02*
D03*
X111811Y93701D02*
D03*
X107087D02*
D03*
X111811Y98425D02*
D03*
X107087D02*
D03*
X111811Y103150D02*
D03*
X107087D02*
D03*
X202362Y99744D02*
D03*
X197638D02*
D03*
X202362Y104469D02*
D03*
X197638D02*
D03*
X202362Y109193D02*
D03*
X197638D02*
D03*
X253543Y7874D02*
D03*
X248819D02*
D03*
X253543Y12598D02*
D03*
X248819D02*
D03*
X253543Y17323D02*
D03*
X248819D02*
D03*
M02*
