G04*
G04 #@! TF.GenerationSoftware,Altium Limited,Altium Designer,23.9.2 (47)*
G04*
G04 Layer_Color=8388736*
%FSLAX25Y25*%
%MOIN*%
G70*
G04*
G04 #@! TF.SameCoordinates,282F133A-872F-418E-B260-DD41B2CE053A*
G04*
G04*
G04 #@! TF.FilePolarity,Positive*
G04*
G01*
G75*
%ADD15C,0.00787*%
D15*
X263858Y28287D02*
Y79587D01*
Y28287D02*
X304646D01*
Y79587D01*
X263858D02*
X304646D01*
X33386Y13064D02*
X74173D01*
X33386D02*
Y64363D01*
X74173D01*
Y13064D02*
Y64363D01*
X33386Y66170D02*
X74173D01*
X33386D02*
Y117469D01*
X74173D01*
Y66170D02*
Y117469D01*
X263858Y154783D02*
X304646D01*
Y103484D02*
Y154783D01*
X263858Y103484D02*
X304646D01*
X263858D02*
Y154783D01*
X33386Y119276D02*
X74173D01*
X33386D02*
Y170575D01*
X74173D01*
Y119276D02*
Y170575D01*
X33386Y172382D02*
X74173D01*
X33386D02*
Y223681D01*
X74173D01*
Y172382D02*
Y223681D01*
X110433Y117913D02*
Y125394D01*
X101378D02*
X110433D01*
X101378Y117913D02*
Y125394D01*
Y117913D02*
X110433D01*
X223031Y188779D02*
Y196260D01*
Y188779D02*
X232087D01*
Y196260D01*
X223031D02*
X232087D01*
X222244Y78937D02*
Y86417D01*
Y78937D02*
X231299D01*
Y86417D01*
X222244D02*
X231299D01*
X110335Y6890D02*
Y14370D01*
X101279D02*
X110335D01*
X101279Y6890D02*
Y14370D01*
Y6890D02*
X110335D01*
M02*
