G04*
G04 #@! TF.GenerationSoftware,Altium Limited,Altium Designer,23.9.2 (47)*
G04*
G04 Layer_Color=32768*
%FSLAX25Y25*%
%MOIN*%
G70*
G04*
G04 #@! TF.SameCoordinates,282F133A-872F-418E-B260-DD41B2CE053A*
G04*
G04*
G04 #@! TF.FilePolarity,Positive*
G04*
G01*
G75*
%ADD12C,0.01000*%
%ADD13C,0.00700*%
%ADD16C,0.00500*%
%ADD21C,0.00669*%
%ADD127C,0.00197*%
D12*
X165836Y102500D02*
G03*
X165836Y102500I-100J0D01*
G01*
X220317Y59854D02*
G03*
X220317Y59854I-100J0D01*
G01*
X226466Y83996D02*
G03*
X226466Y83996I-100J0D01*
G01*
X112167Y35421D02*
G03*
X112167Y35421I-100J0D01*
G01*
X106805Y11280D02*
G03*
X106805Y11280I-100J0D01*
G01*
X222285Y169441D02*
G03*
X222285Y169441I-100J0D01*
G01*
X227254Y193445D02*
G03*
X227254Y193445I-100J0D01*
G01*
X112167Y144870D02*
G03*
X112167Y144870I-100J0D01*
G01*
X106805Y121122D02*
G03*
X106805Y121122I-100J0D01*
G01*
D13*
X278403Y117935D02*
G03*
X278403Y117935I-100J0D01*
G01*
X186671Y45494D02*
G03*
X186671Y45494I-100J0D01*
G01*
X153994Y51794D02*
G03*
X153994Y51794I-100J0D01*
G01*
X186739Y155731D02*
G03*
X186739Y155731I-100J0D01*
G01*
X153600Y161636D02*
G03*
X153600Y161636I-100J0D01*
G01*
X25253Y27384D02*
G03*
X25253Y27384I-100J0D01*
G01*
Y210849D02*
G03*
X25253Y210849I-100J0D01*
G01*
X25340Y208049D02*
G03*
X25340Y208049I-100J0D01*
G01*
X35096Y228172D02*
G03*
X35096Y228172I-100J0D01*
G01*
Y232109D02*
G03*
X35096Y232109I-100J0D01*
G01*
X58017Y184427D02*
G03*
X58017Y184427I-100J0D01*
G01*
Y24584D02*
G03*
X58017Y24584I-100J0D01*
G01*
X24947D02*
G03*
X24947Y24584I-100J0D01*
G01*
X34702Y13211D02*
G03*
X34702Y13211I-100J0D01*
G01*
Y9274D02*
G03*
X34702Y9274I-100J0D01*
G01*
X279978Y42739D02*
G03*
X279978Y42739I-100J0D01*
G01*
X58411Y77734D02*
G03*
X58411Y77734I-100J0D01*
G01*
X59592Y130884D02*
G03*
X59592Y130884I-100J0D01*
G01*
D16*
X270303Y114035D02*
Y119035D01*
Y114035D02*
X279303D01*
Y119035D01*
X270303D02*
X279303D01*
X178571Y41594D02*
Y46595D01*
Y41594D02*
X187571D01*
Y46595D01*
X178571D02*
X187571D01*
X145894Y47894D02*
Y52894D01*
Y47894D02*
X154894D01*
Y52894D01*
X145894D02*
X154894D01*
X178639Y151831D02*
Y156831D01*
Y151831D02*
X187639D01*
Y156831D01*
X178639D02*
X187639D01*
X145500Y157736D02*
Y162736D01*
Y157736D02*
X154500D01*
Y162736D01*
X145500D02*
X154500D01*
X153736Y96500D02*
X166736D01*
X153736D02*
Y103500D01*
X166736Y96500D02*
Y103500D01*
X153736D02*
X166736D01*
X17154Y28484D02*
X26153D01*
Y23484D02*
Y28484D01*
X17154Y23484D02*
X26153D01*
X17154D02*
Y28484D01*
Y211949D02*
X26153D01*
Y206949D02*
Y211949D01*
X17154Y206949D02*
X26153D01*
X17154D02*
Y211949D01*
X24240Y206949D02*
X33240D01*
X24240D02*
Y211949D01*
X33240D01*
Y206949D02*
Y211949D01*
X26996Y229272D02*
X35996D01*
Y224272D02*
Y229272D01*
X26996Y224272D02*
X35996D01*
X26996D02*
Y229272D01*
Y233209D02*
X35996D01*
Y228209D02*
Y233209D01*
X26996Y228209D02*
X35996D01*
X26996D02*
Y233209D01*
X65917Y183327D02*
Y188327D01*
X56917D02*
X65917D01*
X56917Y183327D02*
Y188327D01*
Y183327D02*
X65917D01*
Y23484D02*
Y28484D01*
X56917D02*
X65917D01*
X56917Y23484D02*
Y28484D01*
Y23484D02*
X65917D01*
X32847D02*
Y28484D01*
X23846D02*
X32847D01*
X23846Y23484D02*
Y28484D01*
Y23484D02*
X32847D01*
X26602Y9311D02*
Y14311D01*
Y9311D02*
X35602D01*
Y14311D01*
X26602D02*
X35602D01*
X26602Y10374D02*
X35602D01*
Y5374D02*
Y10374D01*
X26602Y5374D02*
X35602D01*
X26602D02*
Y10374D01*
X214216Y58854D02*
Y71854D01*
X221217D01*
Y58854D02*
Y71854D01*
X214216Y58854D02*
X221217D01*
X214366Y77996D02*
X227366D01*
X214366D02*
Y84996D01*
X227366D01*
Y77996D02*
Y84996D01*
X111067Y36421D02*
X118067D01*
X111067Y23421D02*
Y36421D01*
Y23421D02*
X118067D01*
Y36421D01*
X105705Y17279D02*
X118705D01*
Y10279D02*
Y17279D01*
X105705Y10279D02*
X118705D01*
X105705D02*
Y17279D01*
X271878Y43839D02*
X280878D01*
Y38839D02*
Y43839D01*
X271878Y38839D02*
X280878D01*
X271878D02*
Y43839D01*
X66311Y76634D02*
Y81634D01*
X57311D02*
X66311D01*
X57311Y76634D02*
Y81634D01*
Y76634D02*
X66311D01*
X216185Y168441D02*
X223185D01*
Y181441D01*
X216185D02*
X223185D01*
X216185Y168441D02*
Y181441D01*
X228153Y187445D02*
Y194445D01*
X215154D02*
X228153D01*
X215154Y187445D02*
Y194445D01*
Y187445D02*
X228153D01*
X67492Y129783D02*
Y134783D01*
X58492D02*
X67492D01*
X58492Y129783D02*
Y134783D01*
Y129783D02*
X67492D01*
X111067Y145870D02*
X118067D01*
X111067Y132870D02*
Y145870D01*
Y132870D02*
X118067D01*
Y145870D01*
X105705Y120122D02*
Y127122D01*
Y120122D02*
X118705D01*
Y127122D01*
X105705D02*
X118705D01*
D21*
X220460Y58169D02*
X231508D01*
Y64665D01*
X220460D02*
X231508D01*
X220460Y58169D02*
Y64665D01*
X238964Y30020D02*
X250012D01*
X238964Y23524D02*
Y30020D01*
Y23524D02*
X250012D01*
Y30020D01*
X231878Y78248D02*
X242926D01*
Y84744D01*
X231878D02*
X242926D01*
X231878Y78248D02*
Y84744D01*
X222035Y168799D02*
Y175295D01*
X233083D01*
Y168799D02*
Y175295D01*
X222035Y168799D02*
X233083D01*
X249225Y129035D02*
Y135531D01*
X238177Y129035D02*
X249225D01*
X238177D02*
Y135531D01*
X249225D01*
X232412Y185091D02*
Y191587D01*
X243460D01*
Y185091D02*
Y191587D01*
X232412Y185091D02*
X243460D01*
X83059Y64075D02*
Y70571D01*
X94107D01*
Y64075D02*
Y70571D01*
X83059Y64075D02*
X94107D01*
X112217Y29429D02*
Y35925D01*
X101169Y29429D02*
X112217D01*
X101169D02*
Y35925D01*
X112217D01*
X101193Y10138D02*
Y16634D01*
X90145Y10138D02*
X101193D01*
X90145D02*
Y16634D01*
X101193D01*
X112217Y140453D02*
Y146949D01*
X101169Y140453D02*
X112217D01*
X101169D02*
Y146949D01*
X112217D01*
X82665Y173524D02*
Y180020D01*
X93713D01*
Y173524D02*
Y180020D01*
X82665Y173524D02*
X93713D01*
X90145Y127264D02*
X101193D01*
X90145Y120768D02*
Y127264D01*
Y120768D02*
X101193D01*
Y127264D01*
X305610Y182665D02*
Y193713D01*
X299114D02*
X305610D01*
X299114Y182665D02*
Y193713D01*
Y182665D02*
X305610D01*
D127*
X271457Y139764D02*
Y143701D01*
X278937Y139764D02*
Y143701D01*
X271457Y139764D02*
X278937D01*
X271457Y143701D02*
X278937D01*
X272244Y64567D02*
Y68504D01*
X279724Y64567D02*
Y68504D01*
X272244Y64567D02*
X279724D01*
X272244Y68504D02*
X279724D01*
X139370Y197835D02*
Y209252D01*
X144882Y197835D02*
Y209252D01*
X139370D02*
X144882D01*
X139370Y197835D02*
X144882D01*
X154331Y97047D02*
X166142D01*
X154331Y91142D02*
X166142D01*
Y97047D01*
X154331Y91142D02*
Y97047D01*
X49213Y77362D02*
Y80905D01*
X42126Y77362D02*
Y80905D01*
X49213D01*
X42126Y77362D02*
X49213D01*
Y102559D02*
Y106102D01*
X42126Y102559D02*
Y106102D01*
X49213D01*
X42126Y102559D02*
X49213D01*
X288189Y143504D02*
X295276D01*
X288189Y139961D02*
X295276D01*
Y143504D01*
X288189Y139961D02*
Y143504D01*
Y118307D02*
X295276D01*
X288189Y114764D02*
X295276D01*
Y118307D01*
X288189Y114764D02*
Y118307D01*
X58858Y155512D02*
X66339D01*
X58858Y159449D02*
X66339D01*
X58858Y155512D02*
Y159449D01*
X66339Y155512D02*
Y159449D01*
X49213Y208858D02*
Y212402D01*
X42126Y208858D02*
Y212402D01*
X49213D01*
X42126Y208858D02*
X49213D01*
X62992Y212402D02*
Y221457D01*
X44882Y212402D02*
Y221457D01*
X62992D01*
X44882Y212402D02*
X62992D01*
X49213Y184055D02*
Y187598D01*
X42126Y184055D02*
Y187598D01*
X49213D01*
X42126Y184055D02*
X49213D01*
X57677Y208661D02*
X65158D01*
X57677Y212598D02*
X65158D01*
X57677Y208661D02*
Y212598D01*
X65158Y208661D02*
Y212598D01*
X49213Y24213D02*
Y27756D01*
X42126Y24213D02*
Y27756D01*
X49213D01*
X42126Y24213D02*
X49213D01*
Y49409D02*
Y52953D01*
X42126Y49409D02*
Y52953D01*
X49213D01*
X42126Y49409D02*
X49213D01*
X62598Y52953D02*
Y62008D01*
X44488Y52953D02*
Y62008D01*
X62598D01*
X44488Y52953D02*
X62598D01*
X57677Y49311D02*
X65158D01*
X57677Y53248D02*
X65158D01*
X57677Y49311D02*
Y53248D01*
X65158Y49311D02*
Y53248D01*
X201772Y6299D02*
X205315D01*
X201772Y13386D02*
X205315D01*
Y6299D02*
Y13386D01*
X201772Y6299D02*
Y13386D01*
X214764Y6299D02*
Y13386D01*
X211221Y6299D02*
Y13386D01*
Y6299D02*
X214764D01*
X211221Y13386D02*
X214764D01*
X250000Y67126D02*
Y73032D01*
X238189Y67126D02*
Y73032D01*
X250000D01*
X238189Y67126D02*
X250000D01*
X197835Y123622D02*
X201378D01*
X197835Y116535D02*
X201378D01*
X197835D02*
Y123622D01*
X201378Y116535D02*
Y123622D01*
X200984Y116535D02*
X204528D01*
X200984Y123622D02*
X204528D01*
Y116535D02*
Y123622D01*
X200984Y116535D02*
Y123622D01*
X206890D02*
X210433D01*
X206890Y116535D02*
X210433D01*
X206890D02*
Y123622D01*
X210433Y116535D02*
Y123622D01*
X123031Y79823D02*
Y86910D01*
X126575Y79823D02*
Y86910D01*
X123031D02*
X126575D01*
X123031Y79823D02*
X126575D01*
X132874Y79921D02*
Y87008D01*
X129331Y79921D02*
Y87008D01*
Y79921D02*
X132874D01*
X129331Y87008D02*
X132874D01*
X132480Y79921D02*
Y87008D01*
X136024Y79921D02*
Y87008D01*
X132480D02*
X136024D01*
X132480Y79921D02*
X136024D01*
X127953Y167913D02*
Y176969D01*
X146063Y167913D02*
Y176969D01*
X127953Y167913D02*
X146063D01*
X127953Y176969D02*
X146063D01*
X139961Y152362D02*
X147441D01*
X139961Y148425D02*
X147441D01*
Y152362D01*
X139961Y148425D02*
Y152362D01*
X132087Y189764D02*
X135630D01*
X132087Y196850D02*
X135630D01*
Y189764D02*
Y196850D01*
X132087Y189764D02*
Y196850D01*
X128937D02*
X132480D01*
X128937Y189764D02*
X132480D01*
X128937D02*
Y196850D01*
X132480Y189764D02*
Y196850D01*
X122638Y189764D02*
X126181D01*
X122638Y196850D02*
X126181D01*
Y189764D02*
Y196850D01*
X122638Y189764D02*
Y196850D01*
X100787Y146653D02*
X112598D01*
X100787Y152559D02*
X112598D01*
X100787Y146653D02*
Y152559D01*
X112598Y146653D02*
Y152559D01*
X312598Y173819D02*
X318110D01*
X312598Y162402D02*
X318110D01*
X312598D02*
Y173819D01*
X318110Y162402D02*
Y173819D01*
X306102Y172835D02*
X315158D01*
X306102Y190945D02*
X315158D01*
Y172835D02*
Y190945D01*
X306102Y172835D02*
Y190945D01*
X287008Y187598D02*
Y193504D01*
X298819Y187598D02*
Y193504D01*
X287008Y187598D02*
X298819D01*
X287008Y193504D02*
X298819D01*
X148031Y98228D02*
Y109646D01*
X142520Y98228D02*
Y109646D01*
Y98228D02*
X148031D01*
X142520Y109646D02*
X148031D01*
X247441Y142913D02*
Y146850D01*
X239961Y142913D02*
Y146850D01*
X247441D01*
X239961Y142913D02*
X247441D01*
X251378Y86221D02*
Y98032D01*
X257283Y86221D02*
Y98032D01*
X251378D02*
X257283D01*
X251378Y86221D02*
X257283D01*
X245866D02*
Y98032D01*
X251772Y86221D02*
Y98032D01*
X245866D02*
X251772D01*
X245866Y86221D02*
X251772D01*
X204331Y26575D02*
Y35630D01*
X186221Y26575D02*
Y35630D01*
X204331D01*
X186221Y26575D02*
X204331D01*
X196063Y62008D02*
Y69488D01*
X200000Y62008D02*
Y69488D01*
X196063D02*
X200000D01*
X196063Y62008D02*
X200000D01*
X211417Y60039D02*
Y67520D01*
X215354Y60039D02*
Y67520D01*
X211417D02*
X215354D01*
X211417Y60039D02*
X215354D01*
X204528Y70866D02*
X212008D01*
X204528Y66929D02*
X212008D01*
Y70866D01*
X204528Y66929D02*
Y70866D01*
X216732Y83858D02*
X224213D01*
X216732Y87795D02*
X224213D01*
X216732Y83858D02*
Y87795D01*
X224213Y83858D02*
Y87795D01*
X240354Y34252D02*
X247835D01*
X240354Y38189D02*
X247835D01*
X240354Y34252D02*
Y38189D01*
X247835Y34252D02*
Y38189D01*
X212402Y86221D02*
X215945D01*
X212402Y79134D02*
X215945D01*
X212402D02*
Y86221D01*
X215945Y79134D02*
Y86221D01*
X186811Y51968D02*
X194291D01*
X186811Y55905D02*
X194291D01*
X186811Y51968D02*
Y55905D01*
X194291Y51968D02*
Y55905D01*
X213976Y33858D02*
X217520D01*
X213976Y26772D02*
X217520D01*
X213976D02*
Y33858D01*
X217520Y26772D02*
Y33858D01*
X238189Y73032D02*
X250000D01*
X238189Y78937D02*
X250000D01*
X238189Y73032D02*
Y78937D01*
X250000Y73032D02*
Y78937D01*
X220079Y58858D02*
X231890D01*
X220079Y52953D02*
X231890D01*
Y58858D01*
X220079Y52953D02*
Y58858D01*
X222441Y50197D02*
Y53740D01*
X229528Y50197D02*
Y53740D01*
X222441Y50197D02*
X229528D01*
X222441Y53740D02*
X229528D01*
X238583Y29331D02*
X250394D01*
X238583Y35236D02*
X250394D01*
X238583Y29331D02*
Y35236D01*
X250394Y29331D02*
Y35236D01*
X139567Y38583D02*
Y42520D01*
X147047Y38583D02*
Y42520D01*
X139567Y38583D02*
X147047D01*
X139567Y42520D02*
X147047D01*
X133071Y31693D02*
X137008D01*
X133071Y24213D02*
X137008D01*
X133071D02*
Y31693D01*
X137008Y24213D02*
Y31693D01*
X112598Y35630D02*
Y41535D01*
X100787Y35630D02*
Y41535D01*
X112598D01*
X100787Y35630D02*
X112598D01*
X116535Y35236D02*
X120473D01*
X116535Y27756D02*
X120473D01*
X116535D02*
Y35236D01*
X120473Y27756D02*
Y35236D01*
X116732Y62598D02*
Y69685D01*
X120276Y62598D02*
Y69685D01*
X116732D02*
X120276D01*
X116732Y62598D02*
X120276D01*
X117520Y5906D02*
Y12992D01*
X121063Y5906D02*
Y12992D01*
X117520D02*
X121063D01*
X117520Y5906D02*
X121063D01*
X103150Y40748D02*
X110236D01*
X103150Y44291D02*
X110236D01*
X103150Y40748D02*
Y44291D01*
X110236Y40748D02*
Y44291D01*
X125787Y24409D02*
Y28346D01*
X118307Y24409D02*
Y28346D01*
X125787D01*
X118307Y24409D02*
X125787D01*
X82677Y58858D02*
Y64764D01*
X94488Y58858D02*
Y64764D01*
X82677Y58858D02*
X94488D01*
X82677Y64764D02*
X94488D01*
X127953Y67520D02*
X146063D01*
X127953Y58465D02*
X146063D01*
Y67520D01*
X127953Y58465D02*
Y67520D01*
X84842Y55905D02*
Y59842D01*
X92323Y55905D02*
Y59842D01*
X84842Y55905D02*
X92323D01*
X84842Y59842D02*
X92323D01*
X84252Y20669D02*
Y26575D01*
X96063Y20669D02*
Y26575D01*
X84252Y20669D02*
X96063D01*
X84252Y26575D02*
X96063D01*
X84252Y16339D02*
Y22244D01*
X96063Y16339D02*
Y22244D01*
X84252Y16339D02*
X96063D01*
X84252Y22244D02*
X96063D01*
X108858Y7087D02*
Y11024D01*
X116339Y7087D02*
Y11024D01*
X108858Y7087D02*
X116339D01*
X108858Y11024D02*
X116339D01*
X274803Y68307D02*
Y77362D01*
X292913Y68307D02*
Y77362D01*
X274803Y68307D02*
X292913D01*
X274803Y77362D02*
X292913D01*
X287887Y39798D02*
Y43341D01*
X294973Y39798D02*
Y43341D01*
X287887Y39798D02*
X294973D01*
X287887Y43341D02*
X294973D01*
X287887Y64601D02*
Y68144D01*
X294973Y64601D02*
Y68144D01*
X287887Y64601D02*
X294973D01*
X287887Y68144D02*
X294973D01*
X65551Y102264D02*
Y106201D01*
X58071Y102264D02*
Y106201D01*
X65551D01*
X58071Y102264D02*
X65551D01*
X44882Y106102D02*
X62992D01*
X44882Y115157D02*
X62992D01*
X44882Y106102D02*
Y115157D01*
X62992Y106102D02*
Y115157D01*
X168701Y73228D02*
X172244D01*
X168701Y80315D02*
X172244D01*
Y73228D02*
Y80315D01*
X168701Y73228D02*
Y80315D01*
X172244Y73228D02*
X175787D01*
X172244Y80315D02*
X175787D01*
Y73228D02*
Y80315D01*
X172244Y73228D02*
Y80315D01*
X165157D02*
X168701D01*
X165157Y73228D02*
X168701D01*
X165157D02*
Y80315D01*
X168701Y73228D02*
Y80315D01*
X158465Y16929D02*
Y24016D01*
X154921Y16929D02*
Y24016D01*
Y16929D02*
X158465D01*
X154921Y24016D02*
X158465D01*
X162008Y16929D02*
Y24016D01*
X158465Y16929D02*
Y24016D01*
Y16929D02*
X162008D01*
X158465Y24016D02*
X162008D01*
X162008Y16929D02*
Y24016D01*
X165551Y16929D02*
Y24016D01*
X162008D02*
X165551D01*
X162008Y16929D02*
X165551D01*
X215551Y188976D02*
Y196063D01*
X212008Y188976D02*
Y196063D01*
Y188976D02*
X215551D01*
X212008Y196063D02*
X215551D01*
X273622Y153347D02*
X291732D01*
X273622Y144291D02*
X291732D01*
Y153347D01*
X273622Y144291D02*
Y153347D01*
X223622Y163583D02*
X230709D01*
X223622Y160039D02*
X230709D01*
Y163583D01*
X223622Y160039D02*
Y163583D01*
X221260Y168701D02*
X233071D01*
X221260Y162795D02*
X233071D01*
Y168701D01*
X221260Y162795D02*
Y168701D01*
X218307Y136614D02*
Y143701D01*
X214764Y136614D02*
Y143701D01*
Y136614D02*
X218307D01*
X214764Y143701D02*
X218307D01*
X207677Y176378D02*
Y180315D01*
X215158Y176378D02*
Y180315D01*
X207677Y176378D02*
X215158D01*
X207677Y180315D02*
X215158D01*
X213635Y169617D02*
X217572D01*
X213635Y177097D02*
X217572D01*
Y169617D02*
Y177097D01*
X213635Y169617D02*
Y177097D01*
X250394Y179724D02*
Y185630D01*
X238583Y179724D02*
Y185630D01*
X250394D01*
X238583Y179724D02*
X250394D01*
Y175000D02*
Y180905D01*
X238583Y175000D02*
Y180905D01*
X250394D01*
X238583Y175000D02*
X250394D01*
X225394Y193307D02*
Y197244D01*
X217913Y193307D02*
Y197244D01*
X225394D01*
X217913Y193307D02*
X225394D01*
X194291Y161811D02*
Y165748D01*
X186811Y161811D02*
Y165748D01*
X194291D01*
X186811Y161811D02*
X194291D01*
X187008Y136811D02*
X205118D01*
X187008Y145866D02*
X205118D01*
X187008Y136811D02*
Y145866D01*
X205118Y136811D02*
Y145866D01*
X196850Y172244D02*
X200787D01*
X196850Y179724D02*
X200787D01*
Y172244D02*
Y179724D01*
X196850Y172244D02*
Y179724D01*
X247441Y139764D02*
Y143701D01*
X239961Y139764D02*
Y143701D01*
X247441D01*
X239961Y139764D02*
X247441D01*
X249606Y134843D02*
Y140748D01*
X237795Y134843D02*
Y140748D01*
X249606D01*
X237795Y134843D02*
X249606D01*
X173425Y180315D02*
X176969D01*
X173425Y187402D02*
X176969D01*
Y180315D02*
Y187402D01*
X173425Y180315D02*
Y187402D01*
X170276Y180315D02*
X173819D01*
X170276Y187402D02*
X173819D01*
Y180315D02*
Y187402D01*
X170276Y180315D02*
Y187402D01*
X167126Y187402D02*
X170669D01*
X167126Y180315D02*
X170669D01*
X167126D02*
Y187402D01*
X170669Y180315D02*
Y187402D01*
X156496Y133858D02*
X160039D01*
X156496Y126772D02*
X160039D01*
X156496D02*
Y133858D01*
X160039Y126772D02*
Y133858D01*
X160039D02*
X163583D01*
X160039Y126772D02*
X163583D01*
X160039D02*
Y133858D01*
X163583Y126772D02*
Y133858D01*
X163583Y126772D02*
X167126D01*
X163583Y133858D02*
X167126D01*
Y126772D02*
Y133858D01*
X163583Y126772D02*
Y133858D01*
X233268Y104724D02*
X239173D01*
X233268Y116535D02*
X239173D01*
Y104724D02*
Y116535D01*
X233268Y104724D02*
Y116535D01*
X238779Y104724D02*
X244685D01*
X238779Y116535D02*
X244685D01*
Y104724D02*
Y116535D01*
X238779Y104724D02*
Y116535D01*
X41732Y155315D02*
X48819D01*
X41732Y158858D02*
X48819D01*
X41732Y155315D02*
Y158858D01*
X48819Y155315D02*
Y158858D01*
X41732Y130512D02*
X48819D01*
X41732Y134055D02*
X48819D01*
X41732Y130512D02*
Y134055D01*
X48819Y130512D02*
Y134055D01*
X44882Y158858D02*
X62992D01*
X44882Y167913D02*
X62992D01*
X44882Y158858D02*
Y167913D01*
X62992Y158858D02*
Y167913D01*
X115945Y172835D02*
Y179921D01*
X119488Y172835D02*
Y179921D01*
X115945D02*
X119488D01*
X115945Y172835D02*
X119488D01*
X103150Y151772D02*
X110236D01*
X103150Y155315D02*
X110236D01*
X103150Y151772D02*
Y155315D01*
X110236Y151772D02*
Y155315D01*
X117520Y116142D02*
Y123228D01*
X121063Y116142D02*
Y123228D01*
X117520D02*
X121063D01*
X117520Y116142D02*
X121063D01*
X116535Y144685D02*
X120473D01*
X116535Y137205D02*
X120473D01*
X116535D02*
Y144685D01*
X120473Y137205D02*
Y144685D01*
X126575Y133858D02*
Y137795D01*
X119095Y133858D02*
Y137795D01*
X126575D01*
X119095Y133858D02*
X126575D01*
X133071Y141929D02*
X137008D01*
X133071Y134449D02*
X137008D01*
X133071D02*
Y141929D01*
X137008Y134449D02*
Y141929D01*
X83465Y131693D02*
Y137598D01*
X95276Y131693D02*
Y137598D01*
X83465Y131693D02*
X95276D01*
X83465Y137598D02*
X95276D01*
X83465Y126969D02*
Y132874D01*
X95276Y126969D02*
Y132874D01*
X83465Y126969D02*
X95276D01*
X83465Y132874D02*
X95276D01*
X109646Y116929D02*
Y120866D01*
X117126Y116929D02*
Y120866D01*
X109646Y116929D02*
X117126D01*
X109646Y120866D02*
X117126D01*
X84449Y165354D02*
Y169291D01*
X91929Y165354D02*
Y169291D01*
X84449Y165354D02*
X91929D01*
X84449Y169291D02*
X91929D01*
X82284Y168307D02*
Y174213D01*
X94095Y168307D02*
Y174213D01*
X82284Y168307D02*
X94095D01*
X82284Y174213D02*
X94095D01*
M02*
