G04*
G04 #@! TF.GenerationSoftware,Altium Limited,Altium Designer,24.2.2 (26)*
G04*
G04 Layer_Color=16711935*
%FSLAX25Y25*%
%MOIN*%
G70*
G04*
G04 #@! TF.SameCoordinates,B220CE68-074A-4F46-869C-E968B1748748*
G04*
G04*
G04 #@! TF.FilePolarity,Positive*
G04*
G01*
G75*
%ADD14C,0.00394*%
%ADD15C,0.00787*%
%ADD16C,0.00500*%
D14*
X88189Y41929D02*
Y43898D01*
X92126Y41929D02*
Y43898D01*
X88189D02*
X92126D01*
X88189Y41929D02*
X92126D01*
X253150Y156496D02*
Y158465D01*
X249213Y156496D02*
Y158465D01*
Y156496D02*
X253150D01*
X249213Y158465D02*
X253150D01*
Y153478D02*
Y155446D01*
X249213Y153478D02*
Y155446D01*
Y153478D02*
X253150D01*
X249213Y155446D02*
X253150D01*
Y150459D02*
Y152428D01*
X249213Y150459D02*
Y152428D01*
Y150459D02*
X253150D01*
X249213Y152428D02*
X253150D01*
X253150Y147441D02*
Y149409D01*
X249213Y147441D02*
Y149409D01*
Y147441D02*
X253150D01*
X249213Y149409D02*
X253150D01*
X245472Y128347D02*
Y132283D01*
X243504Y128347D02*
Y132283D01*
X245472D01*
X243504Y128347D02*
X245472D01*
X240354Y128347D02*
Y132283D01*
X242323Y128347D02*
Y132283D01*
X240354Y128347D02*
X242323D01*
X240354Y132283D02*
X242323D01*
X251181Y133268D02*
Y135236D01*
X247244Y133268D02*
Y135236D01*
Y133268D02*
X251181D01*
X247244Y135236D02*
X251181D01*
X247244Y142717D02*
X251181D01*
X247244Y144685D02*
X251181D01*
Y142717D02*
Y144685D01*
X247244Y142717D02*
Y144685D01*
X247244Y139567D02*
Y141535D01*
X251181Y139567D02*
Y141535D01*
X247244D02*
X251181D01*
X247244Y139567D02*
X251181D01*
X247244Y136417D02*
Y138386D01*
X251181Y136417D02*
Y138386D01*
X247244D02*
X251181D01*
X247244Y136417D02*
X251181D01*
X256368Y103740D02*
Y105709D01*
X260305Y103740D02*
Y105709D01*
X256368D02*
X260305D01*
X256368Y103740D02*
X260305D01*
X256368Y119882D02*
Y121850D01*
X260305Y119882D02*
Y121850D01*
X256368D02*
X260305D01*
X256368Y119882D02*
X260305D01*
X256368Y151378D02*
Y153347D01*
X260305Y151378D02*
Y153347D01*
X256368D02*
X260305D01*
X256368Y151378D02*
X260305D01*
X256368Y137992D02*
Y139961D01*
X260305Y137992D02*
Y139961D01*
X256368D02*
X260305D01*
X256368Y137992D02*
X260305D01*
X246850Y50197D02*
X250787D01*
X246850Y48228D02*
X250787D01*
X246850D02*
Y50197D01*
X250787Y48228D02*
Y50197D01*
X246850Y46654D02*
X250787D01*
X246850Y44685D02*
X250787D01*
X246850D02*
Y46654D01*
X250787Y44685D02*
Y46654D01*
X252953Y42913D02*
X254921D01*
X252953Y38976D02*
X254921D01*
Y42913D01*
X252953Y38976D02*
Y42913D01*
X246850Y40354D02*
X250787D01*
X246850Y38386D02*
X250787D01*
X246850D02*
Y40354D01*
X250787Y38386D02*
Y40354D01*
X246850Y43504D02*
X250787D01*
X246850Y41535D02*
X250787D01*
X246850D02*
Y43504D01*
X250787Y41535D02*
Y43504D01*
X80709Y134055D02*
Y136024D01*
X76772Y134055D02*
Y136024D01*
Y134055D02*
X80709D01*
X76772Y136024D02*
X80709D01*
X76772Y71063D02*
X80709D01*
X76772Y69095D02*
X80709D01*
X76772D02*
Y71063D01*
X80709Y69095D02*
Y71063D01*
Y13976D02*
Y15945D01*
X76772Y13976D02*
Y15945D01*
Y13976D02*
X80709D01*
X76772Y15945D02*
X80709D01*
Y27362D02*
Y29331D01*
X76772Y27362D02*
Y29331D01*
Y27362D02*
X80709D01*
X76772Y29331D02*
X80709D01*
X17913Y212205D02*
X19882D01*
X17913Y216142D02*
X19882D01*
X17913Y212205D02*
Y216142D01*
X19882Y212205D02*
Y216142D01*
X80709Y153347D02*
Y155315D01*
X76772Y153347D02*
Y155315D01*
Y153347D02*
X80709D01*
X76772Y155315D02*
X80709D01*
X76772Y208071D02*
X80709D01*
X76772Y206102D02*
X80709D01*
X76772D02*
Y208071D01*
X80709Y206102D02*
Y208071D01*
X162205Y158465D02*
Y160433D01*
X158268Y158465D02*
Y160433D01*
Y158465D02*
X162205D01*
X158268Y160433D02*
X162205D01*
X107480Y109646D02*
X111417D01*
X107480Y111614D02*
X111417D01*
Y109646D02*
Y111614D01*
X107480Y109646D02*
Y111614D01*
X329941Y172047D02*
Y178347D01*
X326752Y172047D02*
Y178347D01*
X329941D01*
X326752Y172047D02*
X329941D01*
X302953Y157382D02*
Y199311D01*
X264961Y157382D02*
Y199311D01*
Y157382D02*
X302953D01*
X264961Y199311D02*
X302953D01*
X17520Y25984D02*
X19488D01*
X17520Y22047D02*
X19488D01*
Y25984D01*
X17520Y22047D02*
Y25984D01*
X90158Y62795D02*
Y64764D01*
X86221Y62795D02*
Y64764D01*
Y62795D02*
X90158D01*
X86221Y64764D02*
X90158D01*
X86221Y61614D02*
X90158D01*
X86221Y59646D02*
X90158D01*
X86221D02*
Y61614D01*
X90158Y59646D02*
Y61614D01*
X86221Y58465D02*
X90158D01*
X86221Y56496D02*
X90158D01*
X86221D02*
Y58465D01*
X90158Y56496D02*
Y58465D01*
X81102Y59252D02*
Y61221D01*
X77165Y59252D02*
Y61221D01*
Y59252D02*
X81102D01*
X77165Y61221D02*
X81102D01*
X80709Y219882D02*
Y221850D01*
X76772Y219882D02*
Y221850D01*
Y219882D02*
X80709D01*
X76772Y221850D02*
X80709D01*
Y187205D02*
Y189173D01*
X76772Y187205D02*
Y189173D01*
Y187205D02*
X80709D01*
X76772Y189173D02*
X80709D01*
Y173425D02*
Y175394D01*
X76772Y173425D02*
Y175394D01*
Y173425D02*
X80709D01*
X76772Y175394D02*
X80709D01*
X81102Y46654D02*
Y48622D01*
X77165Y46654D02*
Y48622D01*
Y46654D02*
X81102D01*
X77165Y48622D02*
X81102D01*
X231496Y2953D02*
Y4921D01*
X235433Y2953D02*
Y4921D01*
X231496D02*
X235433D01*
X231496Y2953D02*
X235433D01*
X202559Y11811D02*
X204528D01*
X202559Y7874D02*
X204528D01*
Y11811D01*
X202559Y7874D02*
Y11811D01*
X235433Y20669D02*
Y22638D01*
X231496Y20669D02*
Y22638D01*
Y20669D02*
X235433D01*
X231496Y22638D02*
X235433D01*
X212008Y7874D02*
X213976D01*
X212008Y11811D02*
X213976D01*
X212008Y7874D02*
Y11811D01*
X213976Y7874D02*
Y11811D01*
X208071Y7874D02*
X210039D01*
X208071Y11811D02*
X210039D01*
X208071Y7874D02*
Y11811D01*
X210039Y7874D02*
Y11811D01*
X248819Y34055D02*
X252756D01*
X248819Y36024D02*
X252756D01*
Y34055D02*
Y36024D01*
X248819Y34055D02*
Y36024D01*
Y27756D02*
X252756D01*
X248819Y29724D02*
X252756D01*
Y27756D02*
Y29724D01*
X248819Y27756D02*
Y29724D01*
X242323Y24409D02*
X244291D01*
X242323Y28346D02*
X244291D01*
X242323Y24409D02*
Y28346D01*
X244291Y24409D02*
Y28346D01*
X244094Y54528D02*
Y56496D01*
X240158Y54528D02*
Y56496D01*
Y54528D02*
X244094D01*
X240158Y56496D02*
X244094D01*
X244016Y50591D02*
Y52559D01*
X240079Y50591D02*
Y52559D01*
Y50591D02*
X244016D01*
X240079Y52559D02*
X244016D01*
X244882Y69488D02*
Y71457D01*
X240945Y69488D02*
Y71457D01*
Y69488D02*
X244882D01*
X240945Y71457D02*
X244882D01*
X247244Y73209D02*
Y76398D01*
X240945Y73209D02*
Y76398D01*
Y73209D02*
X247244D01*
X240945Y76398D02*
X247244D01*
X173228Y26969D02*
Y28937D01*
X177165Y26969D02*
Y28937D01*
X173228D02*
X177165D01*
X173228Y26969D02*
X177165D01*
X169685Y43110D02*
Y45079D01*
X173622Y43110D02*
Y45079D01*
X169685D02*
X173622D01*
X169685Y43110D02*
X173622D01*
X240551Y186240D02*
X246850D01*
X240551Y183051D02*
X246850D01*
X240551D02*
Y186240D01*
X246850Y183051D02*
Y186240D01*
X241732Y178937D02*
X245669D01*
X241732Y176969D02*
X245669D01*
X241732D02*
Y178937D01*
X245669Y176969D02*
Y178937D01*
X242520Y162008D02*
X246457D01*
X242520Y160039D02*
X246457D01*
X242520D02*
Y162008D01*
X246457Y160039D02*
Y162008D01*
X242520Y165945D02*
X246457D01*
X242520Y163976D02*
X246457D01*
X242520D02*
Y165945D01*
X246457Y163976D02*
Y165945D01*
X209646Y118110D02*
Y122047D01*
X207677Y118110D02*
Y122047D01*
X209646D01*
X207677Y118110D02*
X209646D01*
X213189D02*
Y122047D01*
X211221Y118110D02*
Y122047D01*
X213189D01*
X211221Y118110D02*
X213189D01*
X234842D02*
Y122047D01*
X232874Y118110D02*
Y122047D01*
X234842D01*
X232874Y118110D02*
X234842D01*
X172835Y137205D02*
X176772D01*
X172835Y139173D02*
X176772D01*
Y137205D02*
Y139173D01*
X172835Y137205D02*
Y139173D01*
X171653Y153740D02*
X175591D01*
X171653Y155709D02*
X175591D01*
Y153740D02*
Y155709D01*
X171653Y153740D02*
Y155709D01*
X125000Y81496D02*
Y85433D01*
X126969Y81496D02*
Y85433D01*
X125000Y81496D02*
X126969D01*
X125000Y85433D02*
X126969D01*
X121457Y81496D02*
Y85433D01*
X123425Y81496D02*
Y85433D01*
X121457Y81496D02*
X123425D01*
X121457Y85433D02*
X123425D01*
X158661Y50984D02*
X162598D01*
X158661Y49016D02*
X162598D01*
X158661D02*
Y50984D01*
X162598Y49016D02*
Y50984D01*
X155512Y67126D02*
X159449D01*
X155512Y65158D02*
X159449D01*
X155512D02*
Y67126D01*
X159449Y65158D02*
Y67126D01*
X87008Y17697D02*
X93307D01*
X87008Y20886D02*
X93307D01*
Y17697D02*
Y20886D01*
X87008Y17697D02*
Y20886D01*
X88189Y22244D02*
X92126D01*
X88189Y24213D02*
X92126D01*
Y22244D02*
Y24213D01*
X88189Y22244D02*
Y24213D01*
X99016Y85433D02*
X100984D01*
X99016Y81496D02*
X100984D01*
Y85433D01*
X99016Y81496D02*
Y85433D01*
X88189Y37992D02*
X92126D01*
X88189Y39961D02*
X92126D01*
Y37992D02*
Y39961D01*
X88189Y37992D02*
Y39961D01*
X87795Y152559D02*
X91732D01*
X87795Y154528D02*
X91732D01*
Y152559D02*
Y154528D01*
X87795Y152559D02*
Y154528D01*
X87874Y147835D02*
X91811D01*
X87874Y149803D02*
X91811D01*
Y147835D02*
Y149803D01*
X87874Y147835D02*
Y149803D01*
X159173Y128740D02*
Y132677D01*
X157205Y128740D02*
Y132677D01*
X159173D01*
X157205Y128740D02*
X159173D01*
X160564Y132677D02*
X162533D01*
X160564Y128740D02*
X162533D01*
Y132677D01*
X160564Y128740D02*
Y132677D01*
X163924D02*
X165892D01*
X163924Y128740D02*
X165892D01*
Y132677D01*
X163924Y128740D02*
Y132677D01*
X156299Y176575D02*
X160236D01*
X156299Y174606D02*
X160236D01*
X156299D02*
Y176575D01*
X160236Y174606D02*
Y176575D01*
X156299Y166732D02*
X160236D01*
X156299Y168701D02*
X160236D01*
Y166732D02*
Y168701D01*
X156299Y166732D02*
Y168701D01*
X105709Y191339D02*
X107677D01*
X105709Y195276D02*
X107677D01*
X105709Y191339D02*
Y195276D01*
X107677Y191339D02*
Y195276D01*
X115157Y195276D02*
X117126D01*
X115157Y191339D02*
X117126D01*
Y195276D01*
X115157Y191339D02*
Y195276D01*
X113583Y191339D02*
Y195276D01*
X111614Y191339D02*
Y195276D01*
X113583D01*
X111614Y191339D02*
X113583D01*
X124606D02*
Y195276D01*
X126575Y191339D02*
Y195276D01*
X124606Y191339D02*
X126575D01*
X124606Y195276D02*
X126575D01*
X120669Y191339D02*
Y195276D01*
X122638Y191339D02*
Y195276D01*
X120669Y191339D02*
X122638D01*
X120669Y195276D02*
X122638D01*
X132874Y191437D02*
X134843D01*
X132874Y195374D02*
X134843D01*
X132874Y191437D02*
Y195374D01*
X134843Y191437D02*
Y195374D01*
X135914Y191437D02*
X137882D01*
X135914Y195374D02*
X137882D01*
X135914Y191437D02*
Y195374D01*
X137882Y191437D02*
Y195374D01*
X138953Y191437D02*
X140922D01*
X138953Y195374D02*
X140922D01*
X138953Y191437D02*
Y195374D01*
X140922Y191437D02*
Y195374D01*
X141993Y191437D02*
X143961D01*
X141993Y195374D02*
X143961D01*
X141993Y191437D02*
Y195374D01*
X143961Y191437D02*
Y195374D01*
X145033Y191437D02*
X147001D01*
X145033Y195374D02*
X147001D01*
X145033Y191437D02*
Y195374D01*
X147001Y191437D02*
Y195374D01*
X99016Y191339D02*
Y195276D01*
X100984Y191339D02*
Y195276D01*
X99016Y191339D02*
X100984D01*
X99016Y195276D02*
X100984D01*
X88583Y132480D02*
X92520D01*
X88583Y134449D02*
X92520D01*
Y132480D02*
Y134449D01*
X88583Y132480D02*
Y134449D01*
X87402Y127146D02*
X93701D01*
X87402Y130335D02*
X93701D01*
Y127146D02*
Y130335D01*
X87402Y127146D02*
Y130335D01*
X86221Y180905D02*
X90158D01*
X86221Y178937D02*
X90158D01*
X86221D02*
Y180905D01*
X90158Y178937D02*
Y180905D01*
X86221Y175787D02*
Y177756D01*
X90158Y175787D02*
Y177756D01*
X86221D02*
X90158D01*
X86221Y175787D02*
X90158D01*
X86221Y184055D02*
X90158D01*
X86221Y182087D02*
X90158D01*
X86221D02*
Y184055D01*
X90158Y182087D02*
Y184055D01*
X257087Y206673D02*
Y209862D01*
X263386Y206673D02*
Y209862D01*
X257087D02*
X263386D01*
X257087Y206673D02*
X263386D01*
X256299Y62795D02*
Y64764D01*
X260236Y62795D02*
Y64764D01*
X256299D02*
X260236D01*
X256299Y62795D02*
X260236D01*
X239173Y24409D02*
Y28346D01*
X241142Y24409D02*
Y28346D01*
X239173Y24409D02*
X241142D01*
X239173Y28346D02*
X241142D01*
X252756Y24606D02*
Y26575D01*
X248819Y24606D02*
Y26575D01*
Y24606D02*
X252756D01*
X248819Y26575D02*
X252756D01*
X88484Y109646D02*
X92421D01*
X88484Y107677D02*
X92421D01*
X88484D02*
Y109646D01*
X92421Y107677D02*
Y109646D01*
X88484Y102559D02*
X92421D01*
X88484Y100591D02*
X92421D01*
X88484D02*
Y102559D01*
X92421Y100591D02*
Y102559D01*
X125591Y103347D02*
X129528D01*
X125591Y105315D02*
X129528D01*
Y103347D02*
Y105315D01*
X125591Y103347D02*
Y105315D01*
X88484Y95472D02*
X92421D01*
X88484Y93504D02*
X92421D01*
X88484D02*
Y95472D01*
X92421Y93504D02*
Y95472D01*
X169291Y65158D02*
Y67126D01*
X173228Y65158D02*
Y67126D01*
X169291D02*
X173228D01*
X169291Y65158D02*
X173228D01*
X169233Y58435D02*
Y60404D01*
X173170Y58435D02*
Y60404D01*
X169233D02*
X173170D01*
X169233Y58435D02*
X173170D01*
X169233Y51511D02*
Y53479D01*
X173170Y51511D02*
Y53479D01*
X169233D02*
X173170D01*
X169233Y51511D02*
X173170D01*
X184252Y82480D02*
Y84449D01*
X188189Y82480D02*
Y84449D01*
X184252D02*
X188189D01*
X184252Y82480D02*
X188189D01*
X184252Y90354D02*
Y92323D01*
X188189Y90354D02*
Y92323D01*
X184252D02*
X188189D01*
X184252Y90354D02*
X188189D01*
X166535Y41535D02*
Y43504D01*
X162598Y41535D02*
Y43504D01*
Y41535D02*
X166535D01*
X162598Y43504D02*
X166535D01*
Y34449D02*
Y36417D01*
X162598Y34449D02*
Y36417D01*
Y34449D02*
X166535D01*
X162598Y36417D02*
X166535D01*
X166634Y27362D02*
Y29331D01*
X162697Y27362D02*
Y29331D01*
Y27362D02*
X166634D01*
X162697Y29331D02*
X166634D01*
X148425Y11159D02*
Y13127D01*
X144488Y11159D02*
Y13127D01*
Y11159D02*
X148425D01*
X144488Y13127D02*
X148425D01*
Y4134D02*
Y6102D01*
X144488Y4134D02*
Y6102D01*
Y4134D02*
X148425D01*
X144488Y6102D02*
X148425D01*
X182303Y85433D02*
Y91732D01*
X179114Y85433D02*
Y91732D01*
X182303D01*
X179114Y85433D02*
X182303D01*
X153563Y3937D02*
Y10236D01*
X150374Y3937D02*
Y10236D01*
X153563D01*
X150374Y3937D02*
X153563D01*
X179114Y73228D02*
Y79528D01*
X182303Y73228D02*
Y79528D01*
X179114Y73228D02*
X182303D01*
X179114Y79528D02*
X182303D01*
X150374Y15748D02*
Y22047D01*
X153563Y15748D02*
Y22047D01*
X150374Y15748D02*
X153563D01*
X150374Y22047D02*
X153563D01*
X287750Y84496D02*
Y86464D01*
X291687Y84496D02*
Y86464D01*
X287750D02*
X291687D01*
X287750Y84496D02*
X291687D01*
X76772Y122638D02*
X80709D01*
X76772Y120669D02*
X80709D01*
X76772D02*
Y122638D01*
X80709Y120669D02*
Y122638D01*
X109055Y114154D02*
Y117342D01*
X102756Y114154D02*
Y117342D01*
Y114154D02*
X109055D01*
X102756Y117342D02*
X109055D01*
X76772Y168701D02*
X80709D01*
X76772Y166732D02*
X80709D01*
X76772D02*
Y168701D01*
X80709Y166732D02*
Y168701D01*
X86221Y171457D02*
X90158D01*
X86221Y169488D02*
X90158D01*
X86221D02*
Y171457D01*
X90158Y169488D02*
Y171457D01*
X86221Y174606D02*
X90158D01*
X86221Y172638D02*
X90158D01*
X86221D02*
Y174606D01*
X90158Y172638D02*
Y174606D01*
X86221Y168307D02*
X90158D01*
X86221Y166339D02*
X90158D01*
X86221D02*
Y168307D01*
X90158Y166339D02*
Y168307D01*
X92986Y225000D02*
Y226969D01*
X89049Y225000D02*
Y226969D01*
Y225000D02*
X92986D01*
X89049Y226969D02*
X92986D01*
Y217126D02*
Y219094D01*
X89049Y217126D02*
Y219094D01*
Y217126D02*
X92986D01*
X89049Y219094D02*
X92986D01*
Y204134D02*
Y206102D01*
X89049Y204134D02*
Y206102D01*
Y204134D02*
X92986D01*
X89049Y206102D02*
X92986D01*
X102559Y191339D02*
X104528D01*
X102559Y195276D02*
X104528D01*
X102559Y191339D02*
Y195276D01*
X104528Y191339D02*
Y195276D01*
X189173Y118110D02*
Y122047D01*
X191142Y118110D02*
Y122047D01*
X189173Y118110D02*
X191142D01*
X189173Y122047D02*
X191142D01*
X192323Y118110D02*
Y122047D01*
X194291Y118110D02*
Y122047D01*
X192323Y118110D02*
X194291D01*
X192323Y122047D02*
X194291D01*
X195472Y118110D02*
Y122047D01*
X197441Y118110D02*
Y122047D01*
X195472Y118110D02*
X197441D01*
X195472Y122047D02*
X197441D01*
X198622Y118110D02*
Y122047D01*
X200590Y118110D02*
Y122047D01*
X198622Y118110D02*
X200590D01*
X198622Y122047D02*
X200590D01*
X151555Y131890D02*
X154744D01*
X151555Y125591D02*
X154744D01*
Y131890D01*
X151555Y125591D02*
Y131890D01*
X219094Y118110D02*
X221063D01*
X219094Y122047D02*
X221063D01*
X219094Y118110D02*
Y122047D01*
X221063Y118110D02*
Y122047D01*
X217913Y118110D02*
Y122047D01*
X215945Y118110D02*
Y122047D01*
X217913D01*
X215945Y118110D02*
X217913D01*
X151555Y112205D02*
X154744D01*
X151555Y118504D02*
X154744D01*
X151555Y112205D02*
Y118504D01*
X154744Y112205D02*
Y118504D01*
X186024Y118110D02*
Y122047D01*
X187992Y118110D02*
Y122047D01*
X186024Y118110D02*
X187992D01*
X186024Y122047D02*
X187992D01*
X166142Y136811D02*
Y138779D01*
X162205Y136811D02*
Y138779D01*
Y136811D02*
X166142D01*
X162205Y138779D02*
X166142D01*
X166142Y143898D02*
Y145866D01*
X162205Y143898D02*
Y145866D01*
Y143898D02*
X166142D01*
X162205Y145866D02*
X166142D01*
Y150984D02*
Y152953D01*
X162205Y150984D02*
Y152953D01*
Y150984D02*
X166142D01*
X162205Y152953D02*
X166142D01*
X156299Y178150D02*
Y180118D01*
X160236Y178150D02*
Y180118D01*
X156299D02*
X160236D01*
X156299Y178150D02*
X160236D01*
X125984Y217913D02*
Y219882D01*
X129921Y217913D02*
Y219882D01*
X125984D02*
X129921D01*
X125984Y217913D02*
X129921D01*
X107874Y223031D02*
X111811D01*
X107874Y225000D02*
X111811D01*
Y223031D02*
Y225000D01*
X107874Y223031D02*
Y225000D01*
X176772Y133268D02*
Y135236D01*
X172835Y133268D02*
Y135236D01*
Y133268D02*
X176772D01*
X172835Y135236D02*
X176772D01*
X172441Y145079D02*
Y147047D01*
X176378Y145079D02*
Y147047D01*
X172441D02*
X176378D01*
X172441Y145079D02*
X176378D01*
X168898Y161221D02*
Y163189D01*
X172835Y161221D02*
Y163189D01*
X168898D02*
X172835D01*
X168898Y161221D02*
X172835D01*
X168898Y168307D02*
Y170276D01*
X172835Y168307D02*
Y170276D01*
X168898D02*
X172835D01*
X168898Y168307D02*
X172835D01*
X168889Y175228D02*
Y177197D01*
X172826Y175228D02*
Y177197D01*
X168889D02*
X172826D01*
X168889Y175228D02*
X172826D01*
X171417Y181893D02*
X173385D01*
X171417Y185830D02*
X173385D01*
X171417Y181893D02*
Y185830D01*
X173385Y181893D02*
Y185830D01*
X168267Y181893D02*
X170236D01*
X168267Y185830D02*
X170236D01*
X168267Y181893D02*
Y185830D01*
X170236Y181893D02*
Y185830D01*
X174566Y185830D02*
X176535D01*
X174566Y181893D02*
X176535D01*
Y185830D01*
X174566Y181893D02*
Y185830D01*
X179114Y188583D02*
X182303D01*
X179114Y182283D02*
X182303D01*
Y188583D01*
X179114Y182283D02*
Y188583D01*
X184646Y191142D02*
Y193110D01*
X188583Y191142D02*
Y193110D01*
X184646D02*
X188583D01*
X184646Y191142D02*
X188583D01*
X179114Y195669D02*
X182303D01*
X179114Y201969D02*
X182303D01*
X179114Y195669D02*
Y201969D01*
X182303Y195669D02*
Y201969D01*
X184646Y198228D02*
Y200197D01*
X188583Y198228D02*
Y200197D01*
X184646D02*
X188583D01*
X184646Y198228D02*
X188583D01*
X194685Y190945D02*
Y194882D01*
X192717Y190945D02*
Y194882D01*
X194685D01*
X192717Y190945D02*
X194685D01*
X202165Y190945D02*
Y194882D01*
X204134Y190945D02*
Y194882D01*
X202165Y190945D02*
X204134D01*
X202165Y194882D02*
X204134D01*
X197835Y190945D02*
Y194882D01*
X195866Y190945D02*
Y194882D01*
X197835D01*
X195866Y190945D02*
X197835D01*
X210433D02*
Y194882D01*
X208465Y190945D02*
Y194882D01*
X210433D01*
X208465Y190945D02*
X210433D01*
X207283D02*
Y194882D01*
X205315Y190945D02*
Y194882D01*
X207283D01*
X205315Y190945D02*
X207283D01*
X199016Y190945D02*
Y194882D01*
X200984Y190945D02*
Y194882D01*
X199016Y190945D02*
X200984D01*
X199016Y194882D02*
X200984D01*
X225787Y118110D02*
Y122047D01*
X227756Y118110D02*
Y122047D01*
X225787Y118110D02*
X227756D01*
X225787Y122047D02*
X227756D01*
X229331D02*
X231299D01*
X229331Y118110D02*
X231299D01*
Y122047D01*
X229331Y118110D02*
Y122047D01*
X224409Y198012D02*
Y201201D01*
X230709Y198012D02*
Y201201D01*
X224409D02*
X230709D01*
X224409Y198012D02*
X230709D01*
X123348Y114888D02*
Y118825D01*
X125317Y114888D02*
Y118825D01*
X123348Y114888D02*
X125317D01*
X123348Y118825D02*
X125317D01*
X148819Y113976D02*
Y115945D01*
X144882Y113976D02*
Y115945D01*
Y113976D02*
X148819D01*
X144882Y115945D02*
X148819D01*
X131647Y114888D02*
Y118825D01*
X129678Y114888D02*
Y118825D01*
X131647D01*
X129678Y114888D02*
X131647D01*
X134812D02*
Y118825D01*
X132843Y114888D02*
Y118825D01*
X134812D01*
X132843Y114888D02*
X134812D01*
X126513Y114888D02*
Y118825D01*
X128482Y114888D02*
Y118825D01*
X126513Y114888D02*
X128482D01*
X126513Y118825D02*
X128482D01*
X139173Y114888D02*
Y118825D01*
X141142Y114888D02*
Y118825D01*
X139173Y114888D02*
X141142D01*
X139173Y118825D02*
X141142D01*
X136008Y114888D02*
Y118825D01*
X137977Y114888D02*
Y118825D01*
X136008Y114888D02*
X137977D01*
X136008Y118825D02*
X137977D01*
X148819Y121063D02*
Y123031D01*
X144882Y121063D02*
Y123031D01*
Y121063D02*
X148819D01*
X144882Y123031D02*
X148819D01*
X108661Y3130D02*
Y6319D01*
X102362Y3130D02*
Y6319D01*
Y3130D02*
X108661D01*
X102362Y6319D02*
X108661D01*
X173031Y74803D02*
Y78740D01*
X175000Y74803D02*
Y78740D01*
X173031Y74803D02*
X175000D01*
X173031Y78740D02*
X175000D01*
X219488Y7874D02*
Y11811D01*
X217520Y7874D02*
Y11811D01*
X219488D01*
X217520Y7874D02*
X219488D01*
X257087Y27362D02*
X261024D01*
X257087Y29331D02*
X261024D01*
Y27362D02*
Y29331D01*
X257087Y27362D02*
Y29331D01*
X257212Y43770D02*
X261149D01*
X257212Y45738D02*
X261149D01*
Y43770D02*
Y45738D01*
X257212Y43770D02*
Y45738D01*
X197126Y82382D02*
Y86319D01*
X195158Y82382D02*
Y86319D01*
X197126D01*
X195158Y82382D02*
X197126D01*
X198386Y82382D02*
Y86319D01*
X200354Y82382D02*
Y86319D01*
X198386Y82382D02*
X200354D01*
X198386Y86319D02*
X200354D01*
X223819Y7874D02*
Y11811D01*
X225787Y7874D02*
Y11811D01*
X223819Y7874D02*
X225787D01*
X223819Y11811D02*
X225787D01*
X201614Y82382D02*
Y86319D01*
X203583Y82382D02*
Y86319D01*
X201614Y82382D02*
X203583D01*
X201614Y86319D02*
X203583D01*
X206811Y82382D02*
Y86319D01*
X204842Y82382D02*
Y86319D01*
X206811D01*
X204842Y82382D02*
X206811D01*
X210039D02*
Y86319D01*
X208071Y82382D02*
Y86319D01*
X210039D01*
X208071Y82382D02*
X210039D01*
X193898D02*
Y86319D01*
X191929Y82382D02*
Y86319D01*
X193898D01*
X191929Y82382D02*
X193898D01*
X248819Y30906D02*
X252756D01*
X248819Y32874D02*
X252756D01*
Y30906D02*
Y32874D01*
X248819Y30906D02*
Y32874D01*
X167913Y74803D02*
Y78740D01*
X165945Y74803D02*
Y78740D01*
X167913D01*
X165945Y74803D02*
X167913D01*
X193110Y7874D02*
Y11811D01*
X195079Y7874D02*
Y11811D01*
X193110Y7874D02*
X195079D01*
X193110Y11811D02*
X195079D01*
X173228Y25787D02*
X177165D01*
X173228Y23819D02*
X177165D01*
X173228D02*
Y25787D01*
X177165Y23819D02*
Y25787D01*
X189961Y7874D02*
Y11811D01*
X191929Y7874D02*
Y11811D01*
X189961Y7874D02*
X191929D01*
X189961Y11811D02*
X191929D01*
X171457Y74803D02*
Y78740D01*
X169488Y74803D02*
Y78740D01*
X171457D01*
X169488Y74803D02*
X171457D01*
X288189Y20276D02*
Y22244D01*
X292126Y20276D02*
Y22244D01*
X288189D02*
X292126D01*
X288189Y20276D02*
X292126D01*
X186811Y7874D02*
Y11811D01*
X188779Y7874D02*
Y11811D01*
X186811Y7874D02*
X188779D01*
X186811Y11811D02*
X188779D01*
X199409Y7874D02*
Y11811D01*
X201378Y7874D02*
Y11811D01*
X199409Y7874D02*
X201378D01*
X199409Y11811D02*
X201378D01*
X196260Y7874D02*
Y11811D01*
X198228Y7874D02*
Y11811D01*
X196260Y7874D02*
X198228D01*
X196260Y11811D02*
X198228D01*
X267717Y7677D02*
X271654D01*
X267717Y9646D02*
X271654D01*
Y7677D02*
Y9646D01*
X267717Y7677D02*
Y9646D01*
X256299Y77756D02*
X260236D01*
X256299Y79724D02*
X260236D01*
Y77756D02*
Y79724D01*
X256299Y77756D02*
Y79724D01*
X267717Y14764D02*
X271654D01*
X267717Y16732D02*
X271654D01*
Y14764D02*
Y16732D01*
X267717Y14764D02*
Y16732D01*
Y21457D02*
X271654D01*
X267717Y23425D02*
X271654D01*
Y21457D02*
Y23425D01*
X267717Y21457D02*
Y23425D01*
X231496Y8465D02*
X235433D01*
X231496Y6496D02*
X235433D01*
X231496D02*
Y8465D01*
X235433Y6496D02*
Y8465D01*
X223622Y88169D02*
Y91358D01*
X229921Y88169D02*
Y91358D01*
X223622D02*
X229921D01*
X223622Y88169D02*
X229921D01*
X107283Y81496D02*
Y85433D01*
X105315Y81496D02*
Y85433D01*
X107283D01*
X105315Y81496D02*
X107283D01*
X260630Y212185D02*
X266929D01*
X260630Y215374D02*
X266929D01*
Y212185D02*
Y215374D01*
X260630Y212185D02*
Y215374D01*
X261398Y223228D02*
Y229528D01*
X264587Y223228D02*
Y229528D01*
X261398Y223228D02*
X264587D01*
X261398Y229528D02*
X264587D01*
X278346Y207854D02*
X284646D01*
X278346Y211043D02*
X284646D01*
Y207854D02*
Y211043D01*
X278346Y207854D02*
Y211043D01*
Y212579D02*
X284646D01*
X278346Y215768D02*
X284646D01*
Y212579D02*
Y215768D01*
X278346Y212579D02*
Y215768D01*
X232697Y218898D02*
Y225197D01*
X229508Y218898D02*
Y225197D01*
X232697D01*
X229508Y218898D02*
X232697D01*
X223248D02*
Y225197D01*
X220059Y218898D02*
Y225197D01*
X223248D01*
X220059Y218898D02*
X223248D01*
X227972D02*
Y225197D01*
X224783Y218898D02*
Y225197D01*
X227972D01*
X224783Y218898D02*
X227972D01*
X211811Y212598D02*
X218110D01*
X211811Y225197D02*
X218110D01*
X211811Y212598D02*
Y225197D01*
X218110Y212598D02*
Y225197D01*
X295276Y216161D02*
X301575D01*
X295276Y212972D02*
X301575D01*
X295276D02*
Y216161D01*
X301575Y212972D02*
Y216161D01*
X295276Y211437D02*
X301575D01*
X295276Y208248D02*
X301575D01*
X295276D02*
Y211437D01*
X301575Y208248D02*
Y211437D01*
X262992Y220492D02*
X269291D01*
X262992Y217303D02*
X269291D01*
X262992D02*
Y220492D01*
X269291Y217303D02*
Y220492D01*
X278346Y203130D02*
X284646D01*
X278346Y206319D02*
X284646D01*
Y203130D02*
Y206319D01*
X278346Y203130D02*
Y206319D01*
X159468Y103102D02*
Y109401D01*
X156280Y103102D02*
Y109401D01*
X159468D01*
X156280Y103102D02*
X159468D01*
X170079Y115728D02*
X176378D01*
X170079Y118917D02*
X176378D01*
Y115728D02*
Y118917D01*
X170079Y115728D02*
Y118917D01*
X123031Y11417D02*
X125000D01*
X123031Y7480D02*
X125000D01*
Y11417D01*
X123031Y7480D02*
Y11417D01*
X126181D02*
X128150D01*
X126181Y7480D02*
X128150D01*
Y11417D01*
X126181Y7480D02*
Y11417D01*
X135630D02*
X137598D01*
X135630Y7480D02*
X137598D01*
Y11417D01*
X135630Y7480D02*
Y11417D01*
X138779D02*
X140748D01*
X138779Y7480D02*
X140748D01*
Y11417D01*
X138779Y7480D02*
Y11417D01*
X162795Y24016D02*
X164764D01*
X162795Y20079D02*
X164764D01*
Y24016D01*
X162795Y20079D02*
Y24016D01*
X155512Y68701D02*
Y70669D01*
X159449Y68701D02*
Y70669D01*
X155512D02*
X159449D01*
X155512Y68701D02*
X159449D01*
X146223Y81437D02*
X148191D01*
X146223Y85374D02*
X148191D01*
X146223Y81437D02*
Y85374D01*
X148191Y81437D02*
Y85374D01*
X139766Y81437D02*
X141735D01*
X139766Y85374D02*
X141735D01*
X139766Y81437D02*
Y85374D01*
X141735Y81437D02*
Y85374D01*
X136538Y81437D02*
X138506D01*
X136538Y85374D02*
X138506D01*
X136538Y81437D02*
Y85374D01*
X138506Y81437D02*
Y85374D01*
X133309Y81437D02*
X135278D01*
X133309Y85374D02*
X135278D01*
X133309Y81437D02*
Y85374D01*
X135278Y81437D02*
Y85374D01*
X159252Y24016D02*
X161221D01*
X159252Y20079D02*
X161221D01*
Y24016D01*
X159252Y20079D02*
Y24016D01*
X142994Y81437D02*
X144963D01*
X142994Y85374D02*
X144963D01*
X142994Y81437D02*
Y85374D01*
X144963Y81437D02*
Y85374D01*
X155709Y20079D02*
X157677D01*
X155709Y24016D02*
X157677D01*
X155709Y20079D02*
Y24016D01*
X157677Y20079D02*
Y24016D01*
X132480Y7480D02*
X134449D01*
X132480Y11417D02*
X134449D01*
X132480Y7480D02*
Y11417D01*
X134449Y7480D02*
Y11417D01*
X129331Y7480D02*
X131299D01*
X129331Y11417D02*
X131299D01*
X129331Y7480D02*
Y11417D01*
X131299Y7480D02*
Y11417D01*
X86417Y75984D02*
X88386D01*
X86417Y72047D02*
X88386D01*
Y75984D01*
X86417Y72047D02*
Y75984D01*
X115945Y85433D02*
X117913D01*
X115945Y81496D02*
X117913D01*
Y85433D01*
X115945Y81496D02*
Y85433D01*
X80709Y81299D02*
Y83268D01*
X76772Y81299D02*
Y83268D01*
Y81299D02*
X80709D01*
X76772Y83268D02*
X80709D01*
X80709Y100197D02*
Y102165D01*
X76772Y100197D02*
Y102165D01*
Y100197D02*
X80709D01*
X76772Y102165D02*
X80709D01*
Y113907D02*
Y115875D01*
X76772Y113907D02*
Y115875D01*
Y113907D02*
X80709D01*
X76772Y115875D02*
X80709D01*
X216535Y106890D02*
Y108858D01*
X220472Y106890D02*
Y108858D01*
X216535D02*
X220472D01*
X216535Y106890D02*
X220472D01*
X216535Y99803D02*
Y101772D01*
X220472Y99803D02*
Y101772D01*
X216535D02*
X220472D01*
X216535Y99803D02*
X220472D01*
X216535Y92716D02*
Y94685D01*
X220472Y92716D02*
Y94685D01*
X216535D02*
X220472D01*
X216535Y92716D02*
X220472D01*
X184646Y97835D02*
Y99803D01*
X180709Y97835D02*
Y99803D01*
Y97835D02*
X184646D01*
X180709Y99803D02*
X184646D01*
X198425Y93110D02*
X202362D01*
X198425Y91142D02*
X202362D01*
X198425D02*
Y93110D01*
X202362Y91142D02*
Y93110D01*
X226969Y11811D02*
X228937D01*
X226969Y7874D02*
X228937D01*
Y11811D01*
X226969Y7874D02*
Y11811D01*
X102165Y81496D02*
X104134D01*
X102165Y85433D02*
X104134D01*
X102165Y81496D02*
Y85433D01*
X104134Y81496D02*
Y85433D01*
X92716Y72047D02*
X94685D01*
X92716Y75984D02*
X94685D01*
X92716Y72047D02*
Y75984D01*
X94685Y72047D02*
Y75984D01*
X89567Y72047D02*
X91535D01*
X89567Y75984D02*
X91535D01*
X89567Y72047D02*
Y75984D01*
X91535Y72047D02*
Y75984D01*
X155905Y56890D02*
Y58858D01*
X159843Y56890D02*
Y58858D01*
X155905D02*
X159843D01*
X155905Y56890D02*
X159843D01*
X173622Y35236D02*
Y37205D01*
X177559Y35236D02*
Y37205D01*
X173622D02*
X177559D01*
X173622Y35236D02*
X177559D01*
X112795Y81496D02*
X114764D01*
X112795Y85433D02*
X114764D01*
X112795Y81496D02*
Y85433D01*
X114764Y81496D02*
Y85433D01*
X220669Y7874D02*
X222638D01*
X220669Y11811D02*
X222638D01*
X220669Y7874D02*
Y11811D01*
X222638Y7874D02*
Y11811D01*
D15*
X20276Y208059D02*
Y221863D01*
X32480D01*
Y208059D02*
Y221863D01*
X20276Y208059D02*
X32480D01*
X133268Y211122D02*
X172244D01*
X133268D02*
Y233957D01*
X172244D01*
Y211122D02*
Y233957D01*
X151181Y84646D02*
Y99410D01*
Y84646D02*
X168504D01*
Y99410D01*
X151181D02*
X168504D01*
X32480Y15145D02*
Y28949D01*
X20276Y15145D02*
X32480D01*
X20276D02*
Y28949D01*
X32480D01*
X84633Y10531D02*
Y17028D01*
Y10531D02*
X95682D01*
Y17028D01*
X84633D02*
X95682D01*
X86221Y11319D02*
Y16240D01*
Y11319D02*
X94095D01*
Y16240D01*
X86221D02*
X94095D01*
X85027Y119587D02*
Y126083D01*
Y119587D02*
X96075D01*
Y126083D01*
X85027D02*
X96075D01*
X86614Y120374D02*
Y125295D01*
Y120374D02*
X94488D01*
Y125295D01*
X86614D02*
X94488D01*
X282816Y99850D02*
X296620D01*
Y87645D02*
Y99850D01*
X282816Y87645D02*
X296620D01*
X282816D02*
Y99850D01*
X249225Y77067D02*
Y83563D01*
X238177D02*
X249225D01*
X238177Y77067D02*
Y83563D01*
Y77067D02*
X249225D01*
X247638Y77854D02*
Y82776D01*
X239764D02*
X247638D01*
X239764Y77854D02*
Y82776D01*
Y77854D02*
X247638D01*
X271516Y233268D02*
X288445D01*
Y216339D02*
Y233268D01*
X271516Y216339D02*
X288445D01*
X271516D02*
Y233268D01*
X288976Y223721D02*
X296850D01*
Y218799D02*
Y223721D01*
X288976Y218799D02*
X296850D01*
X288976D02*
Y223721D01*
X287389Y224508D02*
X298437D01*
Y218012D02*
Y224508D01*
X287389Y218012D02*
X298437D01*
X287389D02*
Y224508D01*
X283256Y7283D02*
Y19488D01*
Y7283D02*
X297059D01*
Y19488D01*
X283256D02*
X297059D01*
X239764Y188091D02*
X247638D01*
X239764D02*
Y193012D01*
X247638D01*
Y188091D02*
Y193012D01*
X238177Y187303D02*
X249225D01*
X238177D02*
Y193799D01*
X249225D01*
Y187303D02*
Y193799D01*
D16*
X240551Y227636D02*
X252362D01*
X240551Y211734D02*
X252362D01*
X240551D02*
Y227636D01*
X252362Y211734D02*
Y227636D01*
M02*
