G04*
G04 #@! TF.GenerationSoftware,Altium Limited,Altium Designer,24.2.2 (26)*
G04*
G04 Layer_Physical_Order=3*
G04 Layer_Color=16440176*
%FSLAX25Y25*%
%MOIN*%
G70*
G04*
G04 #@! TF.SameCoordinates,B220CE68-074A-4F46-869C-E968B1748748*
G04*
G04*
G04 #@! TF.FilePolarity,Positive*
G04*
G01*
G75*
%ADD12C,0.01000*%
%ADD13C,0.00700*%
%ADD21C,0.00669*%
%ADD106C,0.15748*%
%ADD107C,0.02600*%
%ADD108C,0.01968*%
%ADD109C,0.02598*%
%ADD110C,0.01181*%
%ADD111C,0.01299*%
G36*
X77756Y215622D02*
X77764Y215528D01*
X77778Y215438D01*
X77799Y215351D01*
X77828Y215266D01*
X77863Y215186D01*
X77904Y215108D01*
X77953Y215034D01*
X78009Y214963D01*
X78072Y214895D01*
X77589Y214431D01*
X77522Y214493D01*
X77451Y214549D01*
X77377Y214599D01*
X77299Y214642D01*
X77218Y214678D01*
X77134Y214708D01*
X77046Y214732D01*
X76955Y214749D01*
X76861Y214760D01*
X76763Y214764D01*
X77755Y215720D01*
X77756Y215622D01*
D02*
G37*
G36*
X77763Y211837D02*
X77784Y211742D01*
X77810Y211651D01*
X77840Y211563D01*
X77876Y211479D01*
X77917Y211399D01*
X77963Y211322D01*
X78015Y211249D01*
X78071Y211179D01*
X78133Y211113D01*
X77729Y210570D01*
X77660Y210634D01*
X77588Y210689D01*
X77514Y210736D01*
X77437Y210775D01*
X77357Y210806D01*
X77274Y210828D01*
X77189Y210843D01*
X77101Y210849D01*
X77009Y210847D01*
X76916Y210837D01*
X77748Y211936D01*
X77763Y211837D01*
D02*
G37*
G36*
X82565Y203714D02*
X82494Y203782D01*
X82421Y203842D01*
X82346Y203895D01*
X82268Y203941D01*
X82188Y203980D01*
X82105Y204012D01*
X82020Y204037D01*
X81933Y204054D01*
X81844Y204065D01*
X81752Y204068D01*
Y204738D01*
X81844Y204741D01*
X81933Y204752D01*
X82020Y204770D01*
X82105Y204795D01*
X82188Y204826D01*
X82268Y204865D01*
X82346Y204911D01*
X82421Y204964D01*
X82494Y205025D01*
X82565Y205092D01*
Y203714D01*
D02*
G37*
G36*
X76570Y205025D02*
X76643Y204964D01*
X76718Y204911D01*
X76796Y204865D01*
X76876Y204826D01*
X76959Y204795D01*
X77043Y204770D01*
X77131Y204752D01*
X77220Y204741D01*
X77312Y204738D01*
Y204068D01*
X77220Y204065D01*
X77131Y204054D01*
X77043Y204037D01*
X76959Y204012D01*
X76876Y203980D01*
X76796Y203941D01*
X76718Y203895D01*
X76643Y203842D01*
X76570Y203782D01*
X76499Y203714D01*
Y205092D01*
X76570Y205025D01*
D02*
G37*
G36*
X76577Y201070D02*
X76644Y201006D01*
X76713Y200950D01*
X76787Y200901D01*
X76863Y200859D01*
X76943Y200825D01*
X77026Y200799D01*
X77112Y200780D01*
X77202Y200768D01*
X77295Y200765D01*
X77229Y200095D01*
X77138Y200092D01*
X77049Y200082D01*
X76961Y200066D01*
X76875Y200043D01*
X76790Y200014D01*
X76706Y199978D01*
X76624Y199936D01*
X76544Y199887D01*
X76465Y199832D01*
X76387Y199770D01*
X76514Y201142D01*
X76577Y201070D01*
D02*
G37*
G36*
X76740Y194860D02*
X76749Y194766D01*
X76765Y194675D01*
X76787Y194587D01*
X76816Y194503D01*
X76852Y194422D01*
X76895Y194344D01*
X76944Y194270D01*
X77000Y194199D01*
X77062Y194132D01*
X76589Y193658D01*
X76521Y193721D01*
X76451Y193777D01*
X76376Y193826D01*
X76299Y193869D01*
X76218Y193904D01*
X76134Y193933D01*
X76046Y193956D01*
X75955Y193972D01*
X75861Y193981D01*
X75763Y193983D01*
X76738Y194957D01*
X76740Y194860D01*
D02*
G37*
G36*
X82565Y190299D02*
X82494Y190367D01*
X82421Y190427D01*
X82346Y190480D01*
X82268Y190526D01*
X82188Y190565D01*
X82105Y190597D01*
X82020Y190622D01*
X81933Y190639D01*
X81844Y190650D01*
X81752Y190654D01*
Y191323D01*
X81844Y191326D01*
X81933Y191337D01*
X82020Y191355D01*
X82105Y191380D01*
X82188Y191411D01*
X82268Y191450D01*
X82346Y191497D01*
X82421Y191550D01*
X82494Y191610D01*
X82565Y191677D01*
Y190299D01*
D02*
G37*
G36*
X76527Y191610D02*
X76600Y191550D01*
X76676Y191497D01*
X76753Y191450D01*
X76833Y191411D01*
X76916Y191380D01*
X77001Y191355D01*
X77088Y191337D01*
X77178Y191326D01*
X77270Y191323D01*
Y190654D01*
X77178Y190650D01*
X77088Y190639D01*
X77001Y190622D01*
X76916Y190597D01*
X76833Y190565D01*
X76753Y190526D01*
X76676Y190480D01*
X76600Y190427D01*
X76527Y190367D01*
X76456Y190299D01*
Y191677D01*
X76527Y191610D01*
D02*
G37*
G36*
X127147Y187847D02*
X127080Y187784D01*
X127020Y187716D01*
X126967Y187646D01*
X126921Y187572D01*
X126882Y187494D01*
X126850Y187414D01*
X126825Y187330D01*
X126808Y187242D01*
X126797Y187151D01*
X126794Y187057D01*
X126094Y187097D01*
X126091Y187190D01*
X126081Y187281D01*
X126065Y187369D01*
X126042Y187455D01*
X126013Y187539D01*
X125977Y187620D01*
X125935Y187699D01*
X125887Y187775D01*
X125832Y187849D01*
X125771Y187921D01*
X127147Y187847D01*
D02*
G37*
G36*
X208009Y179167D02*
X207945Y179098D01*
X207888Y179027D01*
X207838Y178953D01*
X207794Y178876D01*
X207758Y178796D01*
X207728Y178714D01*
X207705Y178629D01*
X207689Y178541D01*
X207680Y178450D01*
X207677Y178356D01*
X206703Y179331D01*
X206796Y179333D01*
X206887Y179342D01*
X206975Y179358D01*
X207060Y179381D01*
X207143Y179411D01*
X207222Y179448D01*
X207299Y179491D01*
X207373Y179541D01*
X207445Y179598D01*
X207513Y179662D01*
X208009Y179167D01*
D02*
G37*
G36*
X250939Y171966D02*
X250969Y171922D01*
X251005Y171884D01*
X251048Y171851D01*
X251097Y171823D01*
X251153Y171800D01*
X251215Y171782D01*
X251284Y171769D01*
X251359Y171762D01*
X251440Y171759D01*
X251397Y171090D01*
X251291Y171088D01*
X251100Y171074D01*
X251014Y171062D01*
X250937Y171047D01*
X250866Y171028D01*
X250802Y171006D01*
X250746Y170980D01*
X250696Y170950D01*
X250654Y170918D01*
X250916Y172014D01*
X250939Y171966D01*
D02*
G37*
G36*
X88018Y163010D02*
X87977Y162968D01*
X87843Y162813D01*
X87831Y162793D01*
X87824Y162777D01*
X87822Y162764D01*
X87824Y162755D01*
X87209Y163168D01*
X87215Y163171D01*
X87228Y163180D01*
X87246Y163195D01*
X87338Y163280D01*
X87545Y163483D01*
X88018Y163010D01*
D02*
G37*
G36*
X89958Y161948D02*
X89384Y161593D01*
X89383Y161596D01*
X89378Y161602D01*
X89369Y161613D01*
X89295Y161692D01*
X89198Y161789D01*
X89671Y162263D01*
X89958Y161948D01*
D02*
G37*
G36*
X146262Y160133D02*
X146272Y160042D01*
X146288Y159954D01*
X146310Y159869D01*
X146340Y159786D01*
X146377Y159707D01*
X146420Y159630D01*
X146470Y159556D01*
X146527Y159484D01*
X146591Y159416D01*
X146096Y158921D01*
X146028Y158984D01*
X145956Y159042D01*
X145882Y159092D01*
X145805Y159135D01*
X145725Y159172D01*
X145643Y159201D01*
X145558Y159224D01*
X145470Y159240D01*
X145379Y159250D01*
X145285Y159252D01*
X146260Y160226D01*
X146262Y160133D01*
D02*
G37*
G36*
X241706Y158904D02*
X241780Y158845D01*
X241857Y158793D01*
X241936Y158747D01*
X242017Y158709D01*
X242100Y158678D01*
X242185Y158653D01*
X242272Y158636D01*
X242362Y158625D01*
X242454Y158622D01*
X242468Y157953D01*
X242376Y157949D01*
X242286Y157938D01*
X242199Y157920D01*
X242114Y157895D01*
X242033Y157863D01*
X241953Y157823D01*
X241876Y157776D01*
X241802Y157722D01*
X241730Y157661D01*
X241661Y157593D01*
X241634Y158971D01*
X241706Y158904D01*
D02*
G37*
G36*
X87631Y158646D02*
X87803Y158557D01*
X87889Y158521D01*
X87976Y158490D01*
X88063Y158465D01*
X88151Y158446D01*
X88239Y158432D01*
X88328Y158424D01*
X88417Y158421D01*
X88575Y157752D01*
X88481Y157748D01*
X88391Y157736D01*
X88306Y157716D01*
X88226Y157688D01*
X88150Y157652D01*
X88079Y157608D01*
X88013Y157556D01*
X87952Y157496D01*
X87895Y157429D01*
X87843Y157353D01*
X87546Y158698D01*
X87631Y158646D01*
D02*
G37*
G36*
X244093Y156906D02*
X244164Y156844D01*
X244238Y156790D01*
X244315Y156744D01*
X244395Y156704D01*
X244477Y156672D01*
X244561Y156647D01*
X244648Y156629D01*
X244738Y156618D01*
X244830Y156614D01*
X244816Y155945D01*
X244724Y155941D01*
X244635Y155931D01*
X244547Y155913D01*
X244462Y155889D01*
X244379Y155858D01*
X244298Y155819D01*
X244219Y155774D01*
X244143Y155722D01*
X244068Y155663D01*
X243996Y155596D01*
X244024Y156974D01*
X244093Y156906D01*
D02*
G37*
G36*
X187043Y155582D02*
X187115Y155526D01*
X187189Y155475D01*
X187266Y155432D01*
X187345Y155395D01*
X187428Y155366D01*
X187513Y155343D01*
X187601Y155327D01*
X187692Y155317D01*
X187785Y155315D01*
X186811Y154341D01*
X186809Y154434D01*
X186799Y154525D01*
X186783Y154613D01*
X186760Y154698D01*
X186731Y154780D01*
X186694Y154860D01*
X186651Y154937D01*
X186600Y155011D01*
X186544Y155083D01*
X186480Y155151D01*
X186975Y155646D01*
X187043Y155582D01*
D02*
G37*
G36*
X82987Y150844D02*
X82914Y150910D01*
X82840Y150969D01*
X82763Y151021D01*
X82684Y151066D01*
X82603Y151104D01*
X82520Y151136D01*
X82435Y151160D01*
X82347Y151178D01*
X82258Y151188D01*
X82166Y151191D01*
X82150Y151861D01*
X82243Y151864D01*
X82332Y151875D01*
X82419Y151893D01*
X82504Y151918D01*
X82586Y151951D01*
X82665Y151990D01*
X82741Y152037D01*
X82816Y152091D01*
X82887Y152153D01*
X82956Y152221D01*
X82987Y150844D01*
D02*
G37*
G36*
X76931Y152126D02*
X77004Y152066D01*
X77079Y152012D01*
X77157Y151966D01*
X77237Y151927D01*
X77319Y151895D01*
X77404Y151871D01*
X77492Y151853D01*
X77581Y151842D01*
X77673Y151839D01*
Y151169D01*
X77581Y151166D01*
X77492Y151155D01*
X77404Y151137D01*
X77319Y151113D01*
X77237Y151081D01*
X77157Y151042D01*
X77079Y150996D01*
X77004Y150943D01*
X76931Y150882D01*
X76860Y150815D01*
Y152193D01*
X76931Y152126D01*
D02*
G37*
G36*
X82971Y147298D02*
X82901Y147366D01*
X82828Y147426D01*
X82752Y147479D01*
X82674Y147525D01*
X82594Y147564D01*
X82512Y147596D01*
X82427Y147621D01*
X82340Y147638D01*
X82250Y147649D01*
X82158Y147653D01*
Y148322D01*
X82250Y148326D01*
X82340Y148336D01*
X82427Y148354D01*
X82512Y148379D01*
X82594Y148411D01*
X82674Y148450D01*
X82752Y148496D01*
X82828Y148549D01*
X82901Y148609D01*
X82971Y148676D01*
Y147298D01*
D02*
G37*
G36*
X76895Y148582D02*
X76969Y148523D01*
X77046Y148470D01*
X77125Y148425D01*
X77206Y148387D01*
X77289Y148356D01*
X77374Y148331D01*
X77462Y148314D01*
X77551Y148303D01*
X77643Y148300D01*
X77659Y147631D01*
X77567Y147627D01*
X77477Y147616D01*
X77390Y147598D01*
X77305Y147573D01*
X77223Y147541D01*
X77144Y147501D01*
X77068Y147454D01*
X76994Y147400D01*
X76922Y147339D01*
X76853Y147270D01*
X76822Y148648D01*
X76895Y148582D01*
D02*
G37*
G36*
X261221Y147512D02*
X261228Y147418D01*
X261243Y147328D01*
X261264Y147240D01*
X261292Y147156D01*
X261327Y147075D01*
X261369Y146998D01*
X261418Y146923D01*
X261474Y146852D01*
X261536Y146785D01*
X261054Y146321D01*
X260986Y146383D01*
X260916Y146439D01*
X260841Y146489D01*
X260764Y146532D01*
X260683Y146568D01*
X260599Y146598D01*
X260511Y146622D01*
X260420Y146639D01*
X260325Y146650D01*
X260228Y146654D01*
X261220Y147609D01*
X261221Y147512D01*
D02*
G37*
G36*
X88139Y145837D02*
X88342Y145662D01*
X88410Y145610D01*
X88619Y145474D01*
X88689Y145435D01*
X88760Y145399D01*
X87470Y144984D01*
X87506Y145057D01*
X87530Y145130D01*
X87545Y145202D01*
X87549Y145273D01*
X87542Y145342D01*
X87525Y145411D01*
X87498Y145479D01*
X87459Y145545D01*
X87411Y145611D01*
X87352Y145676D01*
X88073Y145901D01*
X88139Y145837D01*
D02*
G37*
G36*
X261536Y144554D02*
X261474Y144486D01*
X261418Y144415D01*
X261369Y144341D01*
X261327Y144263D01*
X261292Y144182D01*
X261264Y144098D01*
X261243Y144011D01*
X261228Y143920D01*
X261221Y143826D01*
X261220Y143729D01*
X260228Y144685D01*
X260325Y144689D01*
X260420Y144700D01*
X260511Y144717D01*
X260599Y144740D01*
X260683Y144770D01*
X260764Y144807D01*
X260841Y144850D01*
X260916Y144899D01*
X260986Y144955D01*
X261054Y145018D01*
X261536Y144554D01*
D02*
G37*
G36*
X76887Y142894D02*
X76960Y142834D01*
X77035Y142781D01*
X77113Y142735D01*
X77193Y142696D01*
X77276Y142664D01*
X77360Y142639D01*
X77448Y142622D01*
X77537Y142611D01*
X77629Y142607D01*
Y141938D01*
X77537Y141935D01*
X77448Y141924D01*
X77360Y141906D01*
X77276Y141881D01*
X77193Y141850D01*
X77113Y141811D01*
X77035Y141764D01*
X76960Y141711D01*
X76887Y141651D01*
X76816Y141584D01*
Y142962D01*
X76887Y142894D01*
D02*
G37*
G36*
X83536Y137232D02*
X83442Y137241D01*
X83350Y137241D01*
X83261Y137233D01*
X83175Y137218D01*
X83092Y137194D01*
X83012Y137163D01*
X82935Y137123D01*
X82860Y137076D01*
X82789Y137021D01*
X82720Y136957D01*
X82307Y137490D01*
X82368Y137557D01*
X82425Y137626D01*
X82476Y137700D01*
X82521Y137777D01*
X82562Y137857D01*
X82597Y137941D01*
X82626Y138029D01*
X82651Y138121D01*
X82669Y138216D01*
X82683Y138314D01*
X83536Y137232D01*
D02*
G37*
G36*
X77149Y138215D02*
X77168Y138120D01*
X77192Y138029D01*
X77222Y137941D01*
X77257Y137857D01*
X77298Y137776D01*
X77343Y137699D01*
X77394Y137626D01*
X77451Y137556D01*
X77512Y137490D01*
X77099Y136956D01*
X77031Y137020D01*
X76959Y137075D01*
X76885Y137122D01*
X76807Y137162D01*
X76727Y137193D01*
X76644Y137216D01*
X76559Y137232D01*
X76470Y137239D01*
X76378Y137239D01*
X76284Y137230D01*
X77135Y138314D01*
X77149Y138215D01*
D02*
G37*
G36*
X261330Y135681D02*
X261258Y135748D01*
X261184Y135807D01*
X261108Y135860D01*
X261030Y135905D01*
X260949Y135944D01*
X260866Y135976D01*
X260781Y136000D01*
X260694Y136018D01*
X260604Y136028D01*
X260512Y136032D01*
X260504Y136701D01*
X260596Y136705D01*
X260686Y136715D01*
X260773Y136733D01*
X260858Y136758D01*
X260940Y136791D01*
X261020Y136830D01*
X261097Y136876D01*
X261172Y136930D01*
X261244Y136991D01*
X261314Y137059D01*
X261330Y135681D01*
D02*
G37*
G36*
X255295Y136975D02*
X255369Y136915D01*
X255445Y136862D01*
X255523Y136816D01*
X255604Y136778D01*
X255687Y136746D01*
X255772Y136722D01*
X255859Y136704D01*
X255949Y136693D01*
X256041Y136690D01*
X256047Y136021D01*
X255955Y136017D01*
X255865Y136006D01*
X255778Y135988D01*
X255694Y135963D01*
X255611Y135931D01*
X255531Y135892D01*
X255454Y135846D01*
X255379Y135792D01*
X255307Y135731D01*
X255237Y135664D01*
X255224Y137041D01*
X255295Y136975D01*
D02*
G37*
G36*
X255237Y133576D02*
X255310Y133516D01*
X255386Y133463D01*
X255463Y133417D01*
X255544Y133378D01*
X255626Y133346D01*
X255711Y133321D01*
X255798Y133303D01*
X255888Y133293D01*
X255980Y133289D01*
Y132620D01*
X255888Y132616D01*
X255798Y132606D01*
X255711Y132588D01*
X255626Y132563D01*
X255544Y132531D01*
X255463Y132492D01*
X255386Y132446D01*
X255310Y132393D01*
X255237Y132333D01*
X255167Y132266D01*
Y133644D01*
X255237Y133576D01*
D02*
G37*
G36*
X263249Y133036D02*
X263258Y132942D01*
X263274Y132851D01*
X263296Y132764D01*
X263325Y132679D01*
X263361Y132598D01*
X263404Y132521D01*
X263453Y132447D01*
X263509Y132376D01*
X263571Y132308D01*
X263098Y131835D01*
X263030Y131897D01*
X262960Y131953D01*
X262885Y132002D01*
X262808Y132045D01*
X262727Y132081D01*
X262643Y132110D01*
X262555Y132132D01*
X262464Y132148D01*
X262370Y132157D01*
X262272Y132159D01*
X263247Y133134D01*
X263249Y133036D01*
D02*
G37*
G36*
X253722Y127965D02*
X253842Y127867D01*
X253898Y127829D01*
X253952Y127799D01*
X254003Y127776D01*
X254052Y127761D01*
X254098Y127754D01*
X254142Y127755D01*
X254184Y127763D01*
X253496Y127001D01*
X253500Y127043D01*
X253496Y127088D01*
X253484Y127136D01*
X253465Y127187D01*
X253438Y127240D01*
X253403Y127297D01*
X253360Y127357D01*
X253309Y127419D01*
X253185Y127553D01*
X253659Y128026D01*
X253722Y127965D01*
D02*
G37*
G36*
X261191Y128108D02*
X261264Y128048D01*
X261338Y127996D01*
X261413Y127952D01*
X261488Y127915D01*
X261565Y127886D01*
X261643Y127865D01*
X261722Y127852D01*
X261802Y127846D01*
X261883Y127848D01*
X260973Y126938D01*
X260975Y127019D01*
X260969Y127099D01*
X260956Y127178D01*
X260935Y127256D01*
X260906Y127333D01*
X260869Y127409D01*
X260825Y127484D01*
X260773Y127558D01*
X260713Y127630D01*
X260646Y127702D01*
X261119Y128175D01*
X261191Y128108D01*
D02*
G37*
G36*
X207043Y126925D02*
X207046Y126831D01*
X207056Y126740D01*
X207073Y126652D01*
X207097Y126567D01*
X207127Y126485D01*
X207164Y126405D01*
X207207Y126328D01*
X207258Y126253D01*
X207315Y126182D01*
X207378Y126113D01*
X206000Y126130D01*
X206066Y126197D01*
X206124Y126267D01*
X206175Y126340D01*
X206220Y126416D01*
X206257Y126495D01*
X206288Y126577D01*
X206312Y126662D01*
X206329Y126749D01*
X206340Y126840D01*
X206343Y126934D01*
X207043Y126925D01*
D02*
G37*
G36*
X124478Y124235D02*
X124454Y124236D01*
X124425Y124229D01*
X124392Y124215D01*
X124353Y124193D01*
X124310Y124164D01*
X124262Y124128D01*
X124152Y124033D01*
X124023Y123909D01*
X123528Y124404D01*
X123582Y124460D01*
X123670Y124561D01*
X123704Y124607D01*
X123732Y124648D01*
X123752Y124687D01*
X123766Y124722D01*
X123773Y124753D01*
X123773Y124781D01*
X123766Y124806D01*
X124478Y124235D01*
D02*
G37*
G36*
X255261Y124278D02*
X255334Y124218D01*
X255409Y124165D01*
X255487Y124119D01*
X255567Y124080D01*
X255650Y124048D01*
X255735Y124023D01*
X255822Y124005D01*
X255912Y123995D01*
X256004Y123991D01*
Y123322D01*
X255912Y123318D01*
X255822Y123308D01*
X255735Y123290D01*
X255650Y123265D01*
X255567Y123233D01*
X255487Y123194D01*
X255409Y123148D01*
X255334Y123095D01*
X255261Y123035D01*
X255190Y122968D01*
Y124345D01*
X255261Y124278D01*
D02*
G37*
G36*
X261338Y122952D02*
X261269Y123020D01*
X261196Y123081D01*
X261122Y123135D01*
X261045Y123181D01*
X260965Y123221D01*
X260883Y123253D01*
X260798Y123278D01*
X260711Y123296D01*
X260621Y123306D01*
X260529Y123310D01*
X260538Y123979D01*
X260630Y123983D01*
X260719Y123993D01*
X260807Y124011D01*
X260892Y124035D01*
X260975Y124067D01*
X261055Y124106D01*
X261134Y124151D01*
X261210Y124204D01*
X261283Y124263D01*
X261355Y124330D01*
X261338Y122952D01*
D02*
G37*
G36*
X237151Y116872D02*
X237064Y116922D01*
X236890Y117005D01*
X236802Y117039D01*
X236714Y117068D01*
X236627Y117092D01*
X236539Y117110D01*
X236451Y117123D01*
X236362Y117131D01*
X236274Y117133D01*
X236086Y117803D01*
X236181Y117807D01*
X236271Y117819D01*
X236355Y117839D01*
X236435Y117867D01*
X236509Y117903D01*
X236578Y117948D01*
X236642Y118000D01*
X236701Y118061D01*
X236755Y118129D01*
X236803Y118206D01*
X237151Y116872D01*
D02*
G37*
G36*
X240408Y116739D02*
X240310Y116725D01*
X240215Y116705D01*
X240124Y116680D01*
X240036Y116650D01*
X239952Y116615D01*
X239871Y116574D01*
X239794Y116528D01*
X239721Y116477D01*
X239651Y116421D01*
X239585Y116359D01*
X239048Y116769D01*
X239112Y116838D01*
X239167Y116909D01*
X239214Y116984D01*
X239253Y117061D01*
X239285Y117141D01*
X239308Y117224D01*
X239323Y117310D01*
X239330Y117398D01*
X239329Y117490D01*
X239320Y117584D01*
X240408Y116739D01*
D02*
G37*
G36*
X260764Y114519D02*
X260751Y114496D01*
X260740Y114465D01*
X260731Y114426D01*
X260722Y114378D01*
X260711Y114258D01*
X260704Y114104D01*
X260704Y114014D01*
X260034D01*
X260033Y114085D01*
X260018Y114257D01*
X260009Y114301D01*
X259998Y114338D01*
X259985Y114368D01*
X259970Y114391D01*
X259953Y114408D01*
X259934Y114418D01*
X260778Y114533D01*
X260764Y114519D01*
D02*
G37*
G36*
X260704Y111487D02*
X260722Y111212D01*
X260731Y111164D01*
X260740Y111125D01*
X260751Y111094D01*
X260764Y111072D01*
X260778Y111058D01*
X259934Y111173D01*
X259953Y111183D01*
X259970Y111199D01*
X259985Y111223D01*
X259998Y111253D01*
X260009Y111290D01*
X260018Y111334D01*
X260026Y111384D01*
X260033Y111506D01*
X260034Y111576D01*
X260704D01*
X260704Y111487D01*
D02*
G37*
G36*
X77756Y110111D02*
X77764Y110017D01*
X77778Y109926D01*
X77799Y109839D01*
X77828Y109755D01*
X77863Y109674D01*
X77904Y109596D01*
X77953Y109522D01*
X78009Y109451D01*
X78072Y109383D01*
X77589Y108919D01*
X77522Y108982D01*
X77451Y109038D01*
X77377Y109087D01*
X77299Y109130D01*
X77218Y109167D01*
X77134Y109197D01*
X77046Y109220D01*
X76955Y109237D01*
X76861Y109248D01*
X76763Y109252D01*
X77755Y110208D01*
X77756Y110111D01*
D02*
G37*
G36*
X77550Y106913D02*
X77610Y106865D01*
X77674Y106822D01*
X77744Y106785D01*
X77819Y106754D01*
X77899Y106729D01*
X77984Y106709D01*
X78074Y106695D01*
X78168Y106686D01*
X78268Y106684D01*
X78294Y106014D01*
X78196Y106011D01*
X78103Y106002D01*
X78016Y105987D01*
X77934Y105965D01*
X77858Y105938D01*
X77787Y105904D01*
X77722Y105864D01*
X77662Y105818D01*
X77608Y105767D01*
X77559Y105709D01*
X77495Y106966D01*
X77550Y106913D01*
D02*
G37*
G36*
X145311Y105208D02*
X145382Y105151D01*
X145457Y105101D01*
X145534Y105058D01*
X145613Y105021D01*
X145696Y104992D01*
X145781Y104969D01*
X145869Y104953D01*
X145960Y104943D01*
X146053Y104941D01*
X145079Y103966D01*
X145076Y104060D01*
X145067Y104151D01*
X145051Y104239D01*
X145028Y104324D01*
X144998Y104406D01*
X144962Y104486D01*
X144918Y104563D01*
X144868Y104637D01*
X144811Y104709D01*
X144747Y104777D01*
X145242Y105272D01*
X145311Y105208D01*
D02*
G37*
G36*
X124130Y105901D02*
X124145Y105797D01*
X124170Y105717D01*
X124205Y105660D01*
X124249Y105628D01*
X124304Y105619D01*
X124368Y105635D01*
X124442Y105674D01*
X124527Y105737D01*
X124620Y105824D01*
Y104834D01*
X124527Y104733D01*
X124442Y104628D01*
X124368Y104519D01*
X124304Y104405D01*
X124249Y104288D01*
X124205Y104166D01*
X124170Y104041D01*
X124145Y103911D01*
X124130Y103777D01*
X124126Y103639D01*
X123425Y104484D01*
X124126Y106029D01*
X124130Y105901D01*
D02*
G37*
G36*
X240351Y101399D02*
X240342Y101397D01*
X240327Y101388D01*
X240307Y101373D01*
X240280Y101351D01*
X240117Y101199D01*
X240000Y101084D01*
X239527Y101557D01*
X239570Y101601D01*
X239689Y101738D01*
X239707Y101763D01*
X239719Y101785D01*
X239725Y101803D01*
X239727Y101818D01*
X239724Y101829D01*
X240351Y101399D01*
D02*
G37*
G36*
X251122Y101443D02*
X251123Y101287D01*
X251161Y100647D01*
X251175Y100548D01*
X251210Y100378D01*
X251231Y100307D01*
X250050Y100953D01*
X250127Y100978D01*
X250195Y101011D01*
X250255Y101051D01*
X250308Y101100D01*
X250352Y101157D01*
X250388Y101222D01*
X250416Y101295D01*
X250437Y101376D01*
X250449Y101465D01*
X250453Y101562D01*
X251122Y101443D01*
D02*
G37*
G36*
X252780Y101465D02*
X252792Y101376D01*
X252812Y101295D01*
X252840Y101222D01*
X252876Y101157D01*
X252921Y101100D01*
X252973Y101051D01*
X253033Y101011D01*
X253102Y100978D01*
X253178Y100953D01*
X251998Y100307D01*
X252018Y100378D01*
X252037Y100458D01*
X252067Y100647D01*
X252089Y100874D01*
X252105Y101287D01*
X252106Y101443D01*
X252776Y101562D01*
X252780Y101465D01*
D02*
G37*
G36*
X82932Y97560D02*
X82862Y97627D01*
X82789Y97688D01*
X82713Y97741D01*
X82635Y97787D01*
X82555Y97826D01*
X82473Y97858D01*
X82388Y97882D01*
X82301Y97900D01*
X82211Y97911D01*
X82119Y97914D01*
Y98584D01*
X82211Y98587D01*
X82301Y98598D01*
X82388Y98615D01*
X82473Y98640D01*
X82555Y98672D01*
X82635Y98711D01*
X82713Y98757D01*
X82789Y98810D01*
X82862Y98871D01*
X82932Y98938D01*
Y97560D01*
D02*
G37*
G36*
X76985Y98871D02*
X77058Y98810D01*
X77134Y98757D01*
X77211Y98711D01*
X77292Y98672D01*
X77374Y98640D01*
X77459Y98615D01*
X77546Y98598D01*
X77636Y98587D01*
X77728Y98584D01*
Y97914D01*
X77636Y97911D01*
X77546Y97900D01*
X77459Y97882D01*
X77374Y97858D01*
X77292Y97826D01*
X77211Y97787D01*
X77134Y97741D01*
X77058Y97688D01*
X76985Y97627D01*
X76915Y97560D01*
Y98938D01*
X76985Y98871D01*
D02*
G37*
G36*
X77045Y95073D02*
X77107Y95007D01*
X77173Y94949D01*
X77242Y94898D01*
X77316Y94855D01*
X77394Y94820D01*
X77476Y94793D01*
X77561Y94773D01*
X77651Y94762D01*
X77745Y94758D01*
X77634Y94089D01*
X77544Y94086D01*
X77455Y94076D01*
X77367Y94061D01*
X77280Y94040D01*
X77194Y94013D01*
X77109Y93979D01*
X77024Y93940D01*
X76941Y93894D01*
X76858Y93843D01*
X76776Y93785D01*
X76987Y95147D01*
X77045Y95073D01*
D02*
G37*
G36*
X171067Y94567D02*
X171091Y94477D01*
X171120Y94389D01*
X171154Y94305D01*
X171192Y94224D01*
X171236Y94145D01*
X171284Y94070D01*
X171337Y93997D01*
X171395Y93928D01*
X171458Y93861D01*
X171063Y93266D01*
X170993Y93331D01*
X170921Y93387D01*
X170846Y93434D01*
X170770Y93473D01*
X170692Y93503D01*
X170612Y93524D01*
X170529Y93537D01*
X170445Y93541D01*
X170359Y93536D01*
X170270Y93523D01*
X171048Y94660D01*
X171067Y94567D01*
D02*
G37*
G36*
X208094Y93701D02*
X207394Y92156D01*
X207389Y92284D01*
X207374Y92388D01*
X207349Y92468D01*
X207315Y92525D01*
X207270Y92557D01*
X207216Y92566D01*
X207151Y92550D01*
X207077Y92511D01*
X206993Y92448D01*
X206899Y92361D01*
Y93351D01*
X206993Y93452D01*
X207077Y93557D01*
X207151Y93666D01*
X207216Y93780D01*
X207270Y93897D01*
X207315Y94019D01*
X207349Y94144D01*
X207374Y94274D01*
X207389Y94408D01*
X207394Y94546D01*
X208094Y93701D01*
D02*
G37*
G36*
X76935Y89435D02*
X77010Y89375D01*
X77086Y89323D01*
X77165Y89277D01*
X77245Y89239D01*
X77328Y89208D01*
X77413Y89183D01*
X77501Y89166D01*
X77591Y89155D01*
X77682Y89152D01*
X77695Y88482D01*
X77602Y88479D01*
X77513Y88468D01*
X77426Y88450D01*
X77341Y88425D01*
X77259Y88393D01*
X77180Y88353D01*
X77103Y88306D01*
X77028Y88253D01*
X76956Y88191D01*
X76887Y88123D01*
X76863Y89501D01*
X76935Y89435D01*
D02*
G37*
G36*
X76946Y85943D02*
X77019Y85883D01*
X77095Y85830D01*
X77172Y85784D01*
X77252Y85745D01*
X77335Y85713D01*
X77420Y85688D01*
X77507Y85671D01*
X77597Y85660D01*
X77689Y85656D01*
Y84987D01*
X77597Y84983D01*
X77507Y84973D01*
X77420Y84955D01*
X77335Y84930D01*
X77252Y84898D01*
X77172Y84859D01*
X77095Y84813D01*
X77019Y84760D01*
X76946Y84700D01*
X76875Y84633D01*
Y86011D01*
X76946Y85943D01*
D02*
G37*
G36*
X82829Y84354D02*
X82779Y84430D01*
X82724Y84498D01*
X82664Y84558D01*
X82599Y84611D01*
X82529Y84655D01*
X82454Y84691D01*
X82374Y84719D01*
X82289Y84739D01*
X82200Y84751D01*
X82105Y84755D01*
X82279Y85424D01*
X82368Y85427D01*
X82456Y85435D01*
X82545Y85448D01*
X82632Y85467D01*
X82720Y85492D01*
X82807Y85521D01*
X82894Y85556D01*
X82981Y85596D01*
X83154Y85693D01*
X82829Y84354D01*
D02*
G37*
G36*
X252949Y84076D02*
X252638Y83761D01*
X252165Y84234D01*
X252204Y84273D01*
X252344Y84430D01*
X252352Y84444D01*
X252355Y84453D01*
X252354Y84460D01*
X252949Y84076D01*
D02*
G37*
G36*
X250794Y84453D02*
X250798Y84444D01*
X250806Y84430D01*
X250818Y84413D01*
X250856Y84368D01*
X250946Y84273D01*
X250985Y84234D01*
X250511Y83761D01*
X250200Y84076D01*
X250795Y84460D01*
X250794Y84453D01*
D02*
G37*
G36*
X78173Y77620D02*
X78113Y77557D01*
X78002Y77421D01*
X77950Y77348D01*
X77856Y77192D01*
X77813Y77109D01*
X77735Y76933D01*
X77701Y76840D01*
X77115Y78088D01*
X77199Y78061D01*
X77281Y78045D01*
X77362Y78039D01*
X77441Y78043D01*
X77519Y78057D01*
X77595Y78081D01*
X77670Y78115D01*
X77743Y78160D01*
X77815Y78214D01*
X77885Y78279D01*
X78173Y77620D01*
D02*
G37*
G36*
X127234Y78017D02*
X127217Y77983D01*
X127202Y77939D01*
X127189Y77885D01*
X127178Y77822D01*
X127162Y77667D01*
X127154Y77475D01*
X127153Y77364D01*
X126453Y77358D01*
X126451Y77432D01*
X126437Y77560D01*
X126426Y77614D01*
X126410Y77661D01*
X126392Y77702D01*
X126370Y77735D01*
X126345Y77762D01*
X126316Y77782D01*
X126284Y77795D01*
X127254Y78042D01*
X127234Y78017D01*
D02*
G37*
G36*
X78097Y75206D02*
X78035Y75139D01*
X77979Y75068D01*
X77929Y74994D01*
X77886Y74917D01*
X77849Y74836D01*
X77817Y74752D01*
X77793Y74664D01*
X77774Y74573D01*
X77762Y74478D01*
X77755Y74380D01*
X76821Y75393D01*
X76918Y75391D01*
X77011Y75397D01*
X77101Y75410D01*
X77189Y75430D01*
X77273Y75457D01*
X77353Y75491D01*
X77431Y75533D01*
X77505Y75581D01*
X77577Y75637D01*
X77644Y75700D01*
X78097Y75206D01*
D02*
G37*
G36*
X260684Y72785D02*
X260608Y72736D01*
X260539Y72682D01*
X260478Y72623D01*
X260426Y72559D01*
X260382Y72490D01*
X260346Y72416D01*
X260317Y72336D01*
X260297Y72252D01*
X260285Y72162D01*
X260281Y72068D01*
X259612Y72255D01*
X259609Y72344D01*
X259601Y72432D01*
X259588Y72520D01*
X259570Y72608D01*
X259546Y72696D01*
X259518Y72783D01*
X259484Y72871D01*
X259400Y73045D01*
X259351Y73133D01*
X260684Y72785D01*
D02*
G37*
G36*
X259914Y67954D02*
X259832Y67975D01*
X259751Y67986D01*
X259672Y67989D01*
X259596Y67982D01*
X259521Y67967D01*
X259448Y67943D01*
X259377Y67909D01*
X259308Y67867D01*
X259241Y67816D01*
X259175Y67756D01*
X258804Y68332D01*
X258868Y68399D01*
X258927Y68468D01*
X258981Y68540D01*
X259031Y68615D01*
X259076Y68691D01*
X259117Y68771D01*
X259153Y68853D01*
X259185Y68937D01*
X259212Y69024D01*
X259235Y69113D01*
X259914Y67954D01*
D02*
G37*
G36*
X208098Y67203D02*
X208109Y67112D01*
X208127Y67026D01*
X208153Y66943D01*
X208186Y66865D01*
X208227Y66791D01*
X208275Y66721D01*
X208331Y66655D01*
X208394Y66593D01*
X208464Y66536D01*
X207098Y66354D01*
X207154Y66430D01*
X207205Y66509D01*
X207249Y66589D01*
X207287Y66671D01*
X207320Y66754D01*
X207347Y66839D01*
X207367Y66926D01*
X207382Y67015D01*
X207391Y67106D01*
X207394Y67198D01*
X208094Y67298D01*
X208098Y67203D01*
D02*
G37*
G36*
X254984Y61467D02*
X255047Y61402D01*
X255114Y61344D01*
X255184Y61293D01*
X255259Y61251D01*
X255337Y61216D01*
X255419Y61189D01*
X255505Y61170D01*
X255595Y61158D01*
X255688Y61154D01*
X255588Y60485D01*
X255498Y60482D01*
X255409Y60473D01*
X255321Y60457D01*
X255234Y60435D01*
X255148Y60408D01*
X255063Y60374D01*
X254979Y60334D01*
X254896Y60287D01*
X254815Y60235D01*
X254734Y60176D01*
X254925Y61541D01*
X254984Y61467D01*
D02*
G37*
G36*
X260881Y59994D02*
X260810Y60061D01*
X260737Y60122D01*
X260662Y60175D01*
X260584Y60221D01*
X260504Y60260D01*
X260421Y60292D01*
X260337Y60316D01*
X260249Y60334D01*
X260160Y60345D01*
X260068Y60348D01*
Y61018D01*
X260160Y61021D01*
X260249Y61032D01*
X260337Y61050D01*
X260421Y61074D01*
X260504Y61106D01*
X260584Y61145D01*
X260662Y61191D01*
X260737Y61244D01*
X260810Y61305D01*
X260881Y61372D01*
Y59994D01*
D02*
G37*
G36*
X260979Y56413D02*
X260902Y56474D01*
X260823Y56529D01*
X260742Y56578D01*
X260660Y56620D01*
X260577Y56656D01*
X260492Y56685D01*
X260405Y56708D01*
X260317Y56724D01*
X260228Y56734D01*
X260137Y56737D01*
X260070Y57407D01*
X260163Y57411D01*
X260253Y57422D01*
X260339Y57441D01*
X260422Y57467D01*
X260502Y57501D01*
X260578Y57543D01*
X260651Y57592D01*
X260721Y57648D01*
X260787Y57713D01*
X260850Y57784D01*
X260979Y56413D01*
D02*
G37*
G36*
X77116Y54135D02*
X77019Y54137D01*
X76926Y54131D01*
X76836Y54118D01*
X76748Y54098D01*
X76664Y54071D01*
X76584Y54036D01*
X76506Y53995D01*
X76432Y53946D01*
X76360Y53891D01*
X76293Y53828D01*
X75840Y54321D01*
X75902Y54388D01*
X75958Y54459D01*
X76008Y54533D01*
X76051Y54611D01*
X76089Y54691D01*
X76120Y54776D01*
X76144Y54864D01*
X76163Y54955D01*
X76175Y55050D01*
X76182Y55148D01*
X77116Y54135D01*
D02*
G37*
G36*
X92962Y52516D02*
X92984Y52504D01*
X93014Y52493D01*
X93053Y52483D01*
X93101Y52475D01*
X93221Y52464D01*
X93375Y52458D01*
X93465Y52457D01*
Y51788D01*
X93394Y51787D01*
X93223Y51772D01*
X93180Y51763D01*
X93143Y51752D01*
X93113Y51740D01*
X93090Y51725D01*
X93073Y51708D01*
X93064Y51689D01*
X92948Y52530D01*
X92962Y52516D01*
D02*
G37*
G36*
X90335Y51034D02*
X90353Y51007D01*
X90377Y50984D01*
X90408Y50963D01*
X90446Y50946D01*
X90489Y50932D01*
X90540Y50921D01*
X90597Y50913D01*
X90660Y50908D01*
X90731Y50907D01*
Y50237D01*
X90624Y50236D01*
X90290Y50214D01*
X90230Y50203D01*
X90180Y50191D01*
X90138Y50177D01*
X90106Y50160D01*
X90083Y50142D01*
X90324Y51064D01*
X90335Y51034D01*
D02*
G37*
G36*
X147050Y50290D02*
X147059Y50200D01*
X147075Y50112D01*
X147098Y50026D01*
X147128Y49944D01*
X147164Y49864D01*
X147208Y49787D01*
X147258Y49713D01*
X147315Y49642D01*
X147379Y49573D01*
X146884Y49078D01*
X146815Y49142D01*
X146744Y49199D01*
X146669Y49249D01*
X146592Y49292D01*
X146513Y49329D01*
X146430Y49359D01*
X146345Y49382D01*
X146257Y49398D01*
X146166Y49407D01*
X146073Y49409D01*
X147047Y50384D01*
X147050Y50290D01*
D02*
G37*
G36*
X244682Y47991D02*
X244679Y47990D01*
X244673Y47985D01*
X244663Y47976D01*
X244489Y47806D01*
X244015Y48279D01*
X244330Y48564D01*
X244682Y47991D01*
D02*
G37*
G36*
X255066Y48606D02*
X255097Y48560D01*
X255134Y48519D01*
X255177Y48484D01*
X255227Y48454D01*
X255283Y48430D01*
X255346Y48411D01*
X255415Y48397D01*
X255490Y48389D01*
X255572Y48386D01*
X255508Y47717D01*
X255403Y47715D01*
X255212Y47701D01*
X255126Y47689D01*
X255047Y47673D01*
X254975Y47654D01*
X254909Y47631D01*
X254849Y47604D01*
X254797Y47574D01*
X254750Y47541D01*
X255042Y48658D01*
X255066Y48606D01*
D02*
G37*
G36*
X260912Y47250D02*
X260841Y47318D01*
X260768Y47378D01*
X260693Y47431D01*
X260615Y47477D01*
X260535Y47516D01*
X260452Y47548D01*
X260367Y47573D01*
X260280Y47591D01*
X260190Y47601D01*
X260098Y47605D01*
Y48274D01*
X260190Y48278D01*
X260280Y48288D01*
X260367Y48306D01*
X260452Y48331D01*
X260535Y48362D01*
X260615Y48401D01*
X260693Y48448D01*
X260768Y48501D01*
X260841Y48561D01*
X260912Y48628D01*
Y47250D01*
D02*
G37*
G36*
X92567Y48233D02*
X92633Y48169D01*
X92701Y48111D01*
X92773Y48062D01*
X92849Y48020D01*
X92928Y47986D01*
X93011Y47959D01*
X93097Y47940D01*
X93187Y47929D01*
X93280Y47925D01*
X93203Y47256D01*
X93112Y47252D01*
X93023Y47243D01*
X92935Y47227D01*
X92848Y47204D01*
X92763Y47176D01*
X92679Y47140D01*
X92596Y47099D01*
X92515Y47051D01*
X92435Y46997D01*
X92356Y46936D01*
X92506Y48306D01*
X92567Y48233D01*
D02*
G37*
G36*
X244664Y46441D02*
X244312Y45868D01*
X243997Y46152D01*
X244471Y46626D01*
X244664Y46441D01*
D02*
G37*
G36*
X89525Y46375D02*
X89570Y46305D01*
X89621Y46244D01*
X89679Y46191D01*
X89742Y46146D01*
X89813Y46109D01*
X89889Y46080D01*
X89972Y46060D01*
X90062Y46047D01*
X90157Y46043D01*
X90092Y45374D01*
X89964Y45372D01*
X89605Y45341D01*
X89493Y45322D01*
X89280Y45273D01*
X89180Y45242D01*
X88990Y45167D01*
X89486Y46453D01*
X89525Y46375D01*
D02*
G37*
G36*
X82959Y44193D02*
X82888Y44260D01*
X82815Y44320D01*
X82740Y44374D01*
X82662Y44420D01*
X82582Y44459D01*
X82499Y44491D01*
X82414Y44515D01*
X82327Y44533D01*
X82237Y44544D01*
X82145Y44547D01*
Y45217D01*
X82237Y45220D01*
X82327Y45231D01*
X82414Y45248D01*
X82499Y45273D01*
X82582Y45305D01*
X82662Y45344D01*
X82740Y45390D01*
X82815Y45443D01*
X82888Y45504D01*
X82959Y45571D01*
Y44193D01*
D02*
G37*
G36*
X76955Y45504D02*
X77028Y45443D01*
X77103Y45390D01*
X77181Y45344D01*
X77261Y45305D01*
X77343Y45273D01*
X77428Y45248D01*
X77516Y45231D01*
X77605Y45220D01*
X77697Y45217D01*
Y44547D01*
X77605Y44544D01*
X77516Y44533D01*
X77428Y44515D01*
X77343Y44491D01*
X77261Y44459D01*
X77181Y44420D01*
X77103Y44374D01*
X77028Y44320D01*
X76955Y44260D01*
X76884Y44193D01*
Y45571D01*
X76955Y45504D01*
D02*
G37*
G36*
X186650Y45346D02*
X186721Y45289D01*
X186795Y45239D01*
X186872Y45196D01*
X186952Y45159D01*
X187034Y45129D01*
X187119Y45107D01*
X187207Y45090D01*
X187298Y45081D01*
X187392Y45079D01*
X186417Y44104D01*
X186415Y44198D01*
X186406Y44289D01*
X186390Y44377D01*
X186367Y44462D01*
X186337Y44544D01*
X186300Y44624D01*
X186257Y44701D01*
X186207Y44775D01*
X186150Y44846D01*
X186086Y44915D01*
X186581Y45410D01*
X186650Y45346D01*
D02*
G37*
G36*
X244957Y41982D02*
X244920Y41991D01*
X244881Y41991D01*
X244839Y41985D01*
X244795Y41971D01*
X244747Y41950D01*
X244697Y41921D01*
X244645Y41885D01*
X244589Y41841D01*
X244531Y41790D01*
X244471Y41732D01*
X243997Y42205D01*
X244063Y42273D01*
X244171Y42397D01*
X244213Y42455D01*
X244248Y42509D01*
X244276Y42559D01*
X244295Y42606D01*
X244308Y42650D01*
X244312Y42690D01*
X244309Y42727D01*
X244957Y41982D01*
D02*
G37*
G36*
X76955Y42354D02*
X77028Y42294D01*
X77103Y42241D01*
X77181Y42195D01*
X77261Y42156D01*
X77343Y42124D01*
X77428Y42099D01*
X77516Y42081D01*
X77605Y42070D01*
X77697Y42067D01*
Y41398D01*
X77605Y41394D01*
X77516Y41383D01*
X77428Y41366D01*
X77343Y41341D01*
X77261Y41309D01*
X77181Y41270D01*
X77103Y41224D01*
X77028Y41171D01*
X76955Y41111D01*
X76884Y41043D01*
Y42421D01*
X76955Y42354D01*
D02*
G37*
G36*
X244531Y40493D02*
X244645Y40399D01*
X244697Y40363D01*
X244747Y40334D01*
X244795Y40312D01*
X244839Y40299D01*
X244881Y40292D01*
X244920Y40293D01*
X244957Y40301D01*
X244309Y39557D01*
X244312Y39594D01*
X244308Y39634D01*
X244295Y39678D01*
X244276Y39724D01*
X244248Y39775D01*
X244213Y39829D01*
X244171Y39886D01*
X244063Y40011D01*
X243997Y40078D01*
X244471Y40552D01*
X244531Y40493D01*
D02*
G37*
G36*
X261645Y38596D02*
X261585Y38524D01*
X261532Y38448D01*
X261486Y38370D01*
X261447Y38290D01*
X261415Y38208D01*
X261390Y38123D01*
X261372Y38036D01*
X261362Y37946D01*
X261358Y37854D01*
X260689D01*
X260685Y37946D01*
X260675Y38036D01*
X260657Y38123D01*
X260632Y38208D01*
X260600Y38290D01*
X260561Y38370D01*
X260515Y38448D01*
X260462Y38524D01*
X260402Y38596D01*
X260335Y38667D01*
X261713D01*
X261645Y38596D01*
D02*
G37*
G36*
X77490Y36662D02*
X77427Y36595D01*
X77371Y36524D01*
X77322Y36450D01*
X77280Y36372D01*
X77244Y36291D01*
X77215Y36207D01*
X77192Y36119D01*
X77177Y36028D01*
X77168Y35934D01*
X77165Y35837D01*
X76191Y36811D01*
X76288Y36813D01*
X76383Y36822D01*
X76474Y36838D01*
X76561Y36860D01*
X76645Y36890D01*
X76726Y36925D01*
X76804Y36968D01*
X76878Y37017D01*
X76949Y37073D01*
X77017Y37135D01*
X77490Y36662D01*
D02*
G37*
G36*
X84638Y35969D02*
X84647Y35965D01*
X84662Y35961D01*
X84683Y35958D01*
X84740Y35954D01*
X84924Y35951D01*
Y35281D01*
X84484Y35287D01*
X84635Y35973D01*
X84638Y35969D01*
D02*
G37*
G36*
X89854Y35295D02*
X89866Y35206D01*
X89886Y35121D01*
X89914Y35042D01*
X89951Y34968D01*
X89995Y34898D01*
X90047Y34835D01*
X90108Y34776D01*
X90176Y34722D01*
X90253Y34673D01*
X88920Y34325D01*
X88969Y34412D01*
X89053Y34587D01*
X89087Y34674D01*
X89115Y34762D01*
X89139Y34850D01*
X89157Y34938D01*
X89170Y35026D01*
X89178Y35114D01*
X89180Y35202D01*
X89850Y35390D01*
X89854Y35295D01*
D02*
G37*
G36*
X261362Y34889D02*
X261372Y34799D01*
X261390Y34712D01*
X261415Y34627D01*
X261447Y34544D01*
X261486Y34464D01*
X261532Y34387D01*
X261585Y34311D01*
X261645Y34238D01*
X261713Y34168D01*
X260335D01*
X260402Y34238D01*
X260462Y34311D01*
X260515Y34387D01*
X260561Y34464D01*
X260600Y34544D01*
X260632Y34627D01*
X260657Y34712D01*
X260675Y34799D01*
X260685Y34889D01*
X260689Y34981D01*
X261358D01*
X261362Y34889D01*
D02*
G37*
G36*
X82959Y31080D02*
X82888Y31148D01*
X82815Y31208D01*
X82740Y31261D01*
X82662Y31307D01*
X82582Y31346D01*
X82499Y31378D01*
X82414Y31403D01*
X82327Y31420D01*
X82237Y31431D01*
X82145Y31435D01*
Y32104D01*
X82237Y32107D01*
X82327Y32118D01*
X82414Y32136D01*
X82499Y32160D01*
X82582Y32192D01*
X82662Y32231D01*
X82740Y32277D01*
X82815Y32331D01*
X82888Y32391D01*
X82959Y32458D01*
Y31080D01*
D02*
G37*
G36*
X76955Y32391D02*
X77028Y32331D01*
X77103Y32277D01*
X77181Y32231D01*
X77261Y32192D01*
X77343Y32160D01*
X77428Y32136D01*
X77516Y32118D01*
X77605Y32107D01*
X77697Y32104D01*
Y31435D01*
X77605Y31431D01*
X77516Y31420D01*
X77428Y31403D01*
X77343Y31378D01*
X77261Y31346D01*
X77181Y31307D01*
X77103Y31261D01*
X77028Y31208D01*
X76955Y31148D01*
X76884Y31080D01*
Y32458D01*
X76955Y32391D01*
D02*
G37*
G36*
X90878Y31007D02*
X90829Y31084D01*
X90776Y31152D01*
X90717Y31212D01*
X90653Y31265D01*
X90583Y31309D01*
X90509Y31345D01*
X90430Y31374D01*
X90346Y31394D01*
X90256Y31406D01*
X90161Y31410D01*
X90349Y32079D01*
X90437Y32082D01*
X90526Y32090D01*
X90614Y32103D01*
X90701Y32121D01*
X90789Y32144D01*
X90877Y32173D01*
X90964Y32207D01*
X91139Y32291D01*
X91226Y32340D01*
X90878Y31007D01*
D02*
G37*
G36*
X76133Y24441D02*
X76257Y24333D01*
X76314Y24291D01*
X76368Y24256D01*
X76418Y24228D01*
X76465Y24209D01*
X76508Y24196D01*
X76548Y24192D01*
X76585Y24195D01*
X75841Y23550D01*
X75850Y23586D01*
X75851Y23625D01*
X75844Y23666D01*
X75830Y23711D01*
X75809Y23758D01*
X75780Y23807D01*
X75744Y23860D01*
X75701Y23915D01*
X75650Y23973D01*
X75592Y24033D01*
X76065Y24507D01*
X76133Y24441D01*
D02*
G37*
G36*
X76004Y20931D02*
X76075Y20875D01*
X76149Y20826D01*
X76226Y20784D01*
X76307Y20748D01*
X76392Y20719D01*
X76479Y20696D01*
X76570Y20681D01*
X76664Y20672D01*
X76762Y20669D01*
X75788Y19695D01*
X75785Y19792D01*
X75776Y19887D01*
X75760Y19978D01*
X75738Y20065D01*
X75709Y20149D01*
X75673Y20230D01*
X75630Y20308D01*
X75581Y20382D01*
X75525Y20453D01*
X75463Y20520D01*
X75936Y20994D01*
X76004Y20931D01*
D02*
G37*
G36*
X205092Y17814D02*
X205163Y17756D01*
X205236Y17705D01*
X205313Y17660D01*
X205393Y17621D01*
X205475Y17588D01*
X205560Y17562D01*
X205649Y17541D01*
X205740Y17526D01*
X205834Y17518D01*
X204799Y16609D01*
X204802Y16702D01*
X204798Y16791D01*
X204786Y16879D01*
X204767Y16963D01*
X204740Y17045D01*
X204706Y17125D01*
X204664Y17201D01*
X204615Y17276D01*
X204558Y17348D01*
X204494Y17417D01*
X205024Y17877D01*
X205092Y17814D01*
D02*
G37*
G36*
X125574Y16766D02*
X125645Y16709D01*
X125718Y16658D01*
X125795Y16614D01*
X125874Y16577D01*
X125956Y16546D01*
X126041Y16522D01*
X126129Y16505D01*
X126220Y16495D01*
X126314Y16492D01*
Y15792D01*
X126220Y15788D01*
X126129Y15778D01*
X126041Y15761D01*
X125956Y15737D01*
X125874Y15707D01*
X125795Y15670D01*
X125718Y15626D01*
X125645Y15575D01*
X125574Y15517D01*
X125506Y15453D01*
Y16831D01*
X125574Y16766D01*
D02*
G37*
D12*
X80640Y126309D02*
X80709Y126378D01*
X82607Y111741D02*
X82677Y111811D01*
X86614Y98032D02*
Y98249D01*
D13*
X80315Y120079D02*
Y120114D01*
X82677Y82284D02*
X82739D01*
X206693Y178347D02*
X209055Y180709D01*
X217408D02*
X224016Y174101D01*
X209055Y180709D02*
X217408D01*
X224016Y126378D02*
Y174101D01*
X207744Y110106D02*
X224016Y126378D01*
X126444Y188534D02*
X126496Y188586D01*
X126444Y186548D02*
Y188534D01*
Y186548D02*
X129134Y183858D01*
X175949Y178382D02*
X183465Y170866D01*
Y158661D02*
Y170866D01*
Y158661D02*
X187795Y154331D01*
X170472Y183858D02*
X175949Y178382D01*
X175949D01*
X129134Y183858D02*
X170472D01*
X124803Y16142D02*
X134646D01*
X123775Y73075D02*
Y104484D01*
Y73075D02*
X140945Y55905D01*
X134646Y16142D02*
X140945Y22441D01*
Y55905D01*
X123775Y104484D02*
Y124156D01*
X124668Y125049D01*
Y125201D01*
X123775Y104484D02*
X126378Y107087D01*
X142933D01*
X146063Y103957D01*
X150394Y143307D02*
X164560Y129141D01*
X205125D01*
X145276Y160236D02*
X150394Y155118D01*
Y143307D02*
Y155118D01*
X174143Y90681D02*
X204724D01*
X207744Y65878D02*
Y93701D01*
X204724Y90681D02*
X207744Y93701D01*
Y110106D01*
X170336Y94488D02*
X174143Y90681D01*
X170079Y94488D02*
X170336D01*
X134904Y69256D02*
X174051D01*
X183858Y47638D02*
Y59449D01*
X174051Y69256D02*
X183858Y59449D01*
X150787Y33071D02*
Y45669D01*
X163027Y20831D02*
X201575D01*
X150787Y33071D02*
X163027Y20831D01*
X146063Y50394D02*
X150787Y45669D01*
X226784Y123584D02*
X226797Y123597D01*
X226772Y115354D02*
X226784Y115367D01*
X206681Y125419D02*
X206693Y125431D01*
Y127573D01*
X205125Y129141D02*
X206693Y127573D01*
X205780Y16535D02*
Y16626D01*
X201575Y20831D02*
X205780Y16626D01*
X126803Y77358D02*
X134904Y69256D01*
X183858Y47638D02*
X187402Y44094D01*
X126560Y78740D02*
X126803Y78497D01*
X207744Y65878D02*
X207874Y65748D01*
X126803Y77358D02*
Y78497D01*
D21*
X73130Y160564D02*
X74614Y162047D01*
X74783Y158232D02*
X76937Y156079D01*
X74783Y159879D02*
X75299Y160394D01*
X74783Y158232D02*
Y159879D01*
X76772Y159055D02*
Y159407D01*
X75853Y160394D02*
X76245Y160002D01*
Y159933D02*
X76772Y159407D01*
X73130Y157547D02*
Y160564D01*
X75299Y160394D02*
X75853D01*
X74614Y162047D02*
X75853D01*
X73130Y157547D02*
X76252Y154425D01*
X76245Y159933D02*
Y160002D01*
Y162439D02*
Y162508D01*
X76937Y156079D02*
X77821D01*
X75853Y162047D02*
X76245Y162439D01*
X76772Y163034D02*
Y163386D01*
X77136Y154425D02*
X79089Y152473D01*
X76245Y162508D02*
X76772Y163034D01*
X77821Y156079D02*
X80742Y153157D01*
X76252Y154425D02*
X77136D01*
X75754Y194967D02*
X77634Y193087D01*
X85830D01*
X84223Y194827D02*
X84309Y194741D01*
X85830Y193087D02*
X89291Y189626D01*
X83268Y195076D02*
X83516Y194827D01*
X84223D01*
X86515Y194741D02*
X90945Y190311D01*
X84309Y194741D02*
X86515D01*
X80730Y190988D02*
X83268D01*
X80337Y190596D02*
X80730Y190988D01*
X80337Y186711D02*
Y190596D01*
X78245Y182126D02*
X78760Y182641D01*
X76772Y179134D02*
Y179485D01*
X77298Y180080D02*
X77690Y180473D01*
X78760Y182641D02*
Y185950D01*
X76772Y179485D02*
X77298Y180012D01*
Y180080D01*
X77690Y182126D02*
X78245D01*
X77298Y182518D02*
Y182586D01*
X78930Y180473D02*
X80413Y181956D01*
X76772Y183113D02*
Y183465D01*
X77690Y180473D02*
X78930D01*
X76772Y183113D02*
X77298Y182586D01*
X80413Y181956D02*
Y186635D01*
X77298Y182518D02*
X77690Y182126D01*
X78684Y186026D02*
X78760Y185950D01*
X78684Y186026D02*
Y190596D01*
X75796Y204403D02*
X77603D01*
X76962Y211811D02*
X77995Y210777D01*
X80041Y204403D02*
X83268D01*
X77887Y214606D02*
X77887D01*
X79649Y204795D02*
Y212845D01*
X77887Y214606D02*
X79649Y212845D01*
X76772Y211811D02*
X76962D01*
X77995Y204795D02*
Y210777D01*
X79649Y204795D02*
X80041Y204403D01*
X77603D02*
X77995Y204795D01*
X76772Y215722D02*
X77887Y214606D01*
X76772Y215722D02*
Y215748D01*
X79097Y98641D02*
Y105547D01*
X78294Y106349D02*
X79097Y105547D01*
X76821Y106349D02*
X78294D01*
X76772Y106299D02*
X76821Y106349D01*
X76772Y110210D02*
X80750Y106231D01*
Y98641D02*
Y106231D01*
X76772Y110210D02*
Y110236D01*
X79097Y79017D02*
Y84698D01*
X76828Y74410D02*
X80751Y78332D01*
X77020Y77414D02*
X77494D01*
X79097Y79017D01*
X76772Y77165D02*
X77020Y77414D01*
X80751Y78332D02*
Y84698D01*
X75828Y24270D02*
X76772Y23327D01*
X75828Y24825D02*
X81142Y30138D01*
X75828Y24270D02*
Y24825D01*
X74175Y22282D02*
X76772Y19685D01*
X74175Y22282D02*
Y25509D01*
X76772Y19685D02*
X76772D01*
X74175Y25509D02*
X79488Y30823D01*
X76772Y23228D02*
Y23327D01*
X76495Y50766D02*
Y51341D01*
Y50766D02*
X80748Y46513D01*
X74842Y50081D02*
Y52850D01*
X76814Y54822D02*
Y55118D01*
X76495Y51341D02*
X77165Y52011D01*
X74842Y50081D02*
X79094Y45828D01*
X77165Y52011D02*
Y52362D01*
X74842Y52850D02*
X76814Y54822D01*
X78702Y44882D02*
X79094Y45274D01*
X76181Y44882D02*
X78702D01*
X80748Y45274D02*
Y46513D01*
X79094Y45274D02*
Y45828D01*
X80748Y45274D02*
X81140Y44882D01*
X83661D01*
X89026Y31745D02*
X91484D01*
X87697Y33074D02*
X89026Y31745D01*
X88341Y30091D02*
X88651D01*
X86043Y32389D02*
Y34496D01*
Y32389D02*
X88341Y30091D01*
X91484Y31745D02*
X91732Y31496D01*
X85570Y34970D02*
X85570D01*
X84924Y35616D02*
X85570Y34970D01*
X84224Y35616D02*
X84924D01*
X84055Y35785D02*
X84224Y35616D01*
X85570Y34970D02*
X86043Y34496D01*
X84617Y41503D02*
X84703Y41417D01*
X81079Y39764D02*
X85827D01*
X89515Y36075D01*
X79110Y41732D02*
X81079Y39764D01*
X83661Y41752D02*
X83910Y41503D01*
X84703Y41417D02*
X86512D01*
X83910Y41503D02*
X84617D01*
X86512Y41417D02*
X91169Y36760D01*
X89515Y34067D02*
Y36075D01*
X91169Y36702D02*
X91732Y36139D01*
Y35787D02*
Y36139D01*
X91169Y36702D02*
Y36760D01*
X236929Y60450D02*
Y78953D01*
X238583Y61135D02*
Y78268D01*
X243271Y56446D02*
X245796D01*
X236929Y60450D02*
X242586Y54793D01*
X251260Y36323D02*
Y50982D01*
X245796Y56446D02*
X251260Y50982D01*
X238583Y61135D02*
X243271Y56446D01*
X242586Y54793D02*
X245111D01*
X249606Y50297D01*
Y37008D02*
Y50297D01*
X244234Y46389D02*
X244954Y45669D01*
X240540Y48043D02*
X244252D01*
X244972Y48763D01*
X244954Y45669D02*
X245276D01*
X244972Y48763D02*
X245294D01*
X239855Y46389D02*
X244234D01*
X254537Y136355D02*
X257046D01*
X254528Y136346D02*
X254537Y136355D01*
X236529Y88473D02*
Y97922D01*
X229823Y81768D02*
X236529Y88473D01*
X229823Y57972D02*
Y81768D01*
X231476Y81083D02*
X238182Y87788D01*
X231476Y58657D02*
Y81083D01*
X238182Y87788D02*
Y97237D01*
X239764Y98819D01*
X236529Y97922D02*
X238110Y99504D01*
X237402Y102029D02*
X238110Y101321D01*
X239764Y98819D02*
Y101321D01*
X237402Y102029D02*
Y102362D01*
X239764Y101321D02*
X240551Y102108D01*
X238110Y99504D02*
Y101321D01*
X240551Y102108D02*
Y102362D01*
X80337Y186711D02*
X80413Y186635D01*
X87781Y163246D02*
Y176434D01*
X87008Y162205D02*
Y162473D01*
X89291Y177944D02*
Y189626D01*
X87008Y162473D02*
X87781Y163246D01*
Y176434D02*
X89291Y177944D01*
X80736Y135809D02*
X81812Y136884D01*
X82174D01*
X77646Y136883D02*
X78008D01*
X79083Y135809D01*
X80736Y129523D02*
Y135809D01*
X79083Y130208D02*
Y135809D01*
X76157Y138207D02*
X76322D01*
X78930Y127717D02*
X80736Y129523D01*
X76322Y138207D02*
X77646Y136883D01*
X83498Y138208D02*
X83661D01*
X82174Y136884D02*
X83498Y138208D01*
X80474Y88817D02*
X82445Y86846D01*
X76173Y88800D02*
X76190Y88817D01*
X85183Y88499D02*
X87317Y86366D01*
X83924Y88586D02*
X84631D01*
X82445Y86846D02*
X84498D01*
X84631Y88586D02*
X84717Y88499D01*
X84498Y86846D02*
X85663Y85681D01*
X76190Y88817D02*
X80474D01*
X84717Y88499D02*
X85183D01*
X81142Y98249D02*
X83635D01*
X76575Y35827D02*
Y36220D01*
X78169Y37815D01*
X85063D01*
X87697Y33074D02*
Y35181D01*
X85063Y37815D02*
X87697Y35181D01*
X76575Y41732D02*
X79110D01*
X76814Y55118D02*
X77165D01*
X99705Y195209D02*
Y195209D01*
X101673Y161146D02*
Y193241D01*
X99705Y195209D02*
X101673Y193241D01*
X98051Y194524D02*
Y194524D01*
X100020Y161831D02*
Y192556D01*
X98051Y194524D02*
X100020Y192556D01*
X92499Y202415D02*
X99705Y195209D01*
X80980Y202415D02*
X92499D01*
X84309Y200761D02*
X91814D01*
X98051Y194524D01*
X76772Y74410D02*
X76828D01*
X91669Y94607D02*
X101969Y84308D01*
X92354Y96261D02*
X103622Y84993D01*
Y49315D02*
Y84993D01*
X82481Y96261D02*
X92354D01*
X101969Y50000D02*
Y84308D01*
X84701Y94607D02*
X91669D01*
X100244Y45937D02*
X103622Y49315D01*
X91839Y47590D02*
X99559D01*
X101969Y50000D01*
X92784Y45937D02*
X100244D01*
X77298Y127256D02*
Y127324D01*
X78245Y129370D02*
X79083Y130208D01*
X77298Y129762D02*
Y129831D01*
X77690Y129370D02*
X78245D01*
X77298Y127324D02*
X77690Y127717D01*
X76772Y130357D02*
X77298Y129831D01*
X76772Y126378D02*
Y126730D01*
X77298Y127256D01*
X77690Y127717D02*
X78930D01*
X77298Y129762D02*
X77690Y129370D01*
X76772Y130357D02*
Y130709D01*
X242681Y34567D02*
X249504D01*
X241321Y35928D02*
X242681Y34567D01*
X242974Y39880D02*
X243409Y40315D01*
X242974Y36612D02*
X243366Y36220D01*
X242974Y36612D02*
Y39880D01*
X241321Y40565D02*
X242724Y41969D01*
X241321Y35928D02*
Y40565D01*
X243366Y36220D02*
X248819D01*
X85663Y81017D02*
Y85681D01*
X94410Y53067D02*
Y72271D01*
X93465Y52123D02*
X94410Y53067D01*
X85663Y81017D02*
X94410Y72271D01*
X92260Y52123D02*
X93465D01*
X92126Y51988D02*
X92260Y52123D01*
X87317Y81702D02*
Y86366D01*
Y81702D02*
X96063Y72956D01*
Y52382D02*
Y72956D01*
X89370Y50821D02*
X89619Y50572D01*
X83675Y88834D02*
X83924Y88586D01*
X93915Y50235D02*
X96063Y52382D01*
X93717Y50235D02*
X93915D01*
X89619Y50572D02*
X90731D01*
X91302Y50000D01*
X93483D02*
X93717Y50235D01*
X91302Y50000D02*
X93483D01*
X88934Y46063D02*
X89289Y45709D01*
X88583Y46063D02*
X88934D01*
X92556Y45709D02*
X92784Y45937D01*
X91732Y47697D02*
X91839Y47590D01*
X89289Y45709D02*
X92556D01*
X80644Y94423D02*
X82481Y96261D01*
X76338Y94423D02*
X80644D01*
X76187Y94574D02*
X76338Y94423D01*
X84615Y94521D02*
X84701Y94607D01*
X83908Y94521D02*
X84615D01*
X83659Y94273D02*
X83908Y94521D01*
X81142Y85090D02*
X83443D01*
X83675Y84858D01*
X76212Y98249D02*
X78705D01*
X79097Y98641D01*
X80750D02*
X81142Y98249D01*
X78473Y85322D02*
X79097Y84698D01*
X76173Y85322D02*
X78473D01*
X80751Y84698D02*
X81142Y85090D01*
X245179Y42913D02*
X245276D01*
X244234Y40315D02*
X245179Y39370D01*
X244234Y41969D02*
X245179Y42913D01*
X245179Y39370D02*
X245276D01*
X242724Y41969D02*
X244234D01*
X243409Y40315D02*
X244234D01*
X245130Y65603D02*
X245930D01*
X247099Y64434D02*
X247857Y65191D01*
X247172Y66845D02*
X249096D01*
X246850Y63386D02*
X247099Y63634D01*
X250538Y61249D02*
X251563Y60224D01*
X250538Y61249D02*
Y65403D01*
X249096Y66845D02*
X250538Y65403D01*
X248884Y60565D02*
Y64718D01*
X247099Y63634D02*
Y64434D01*
X248411Y65191D02*
X248884Y64718D01*
X244882Y65354D02*
X245130Y65603D01*
X245930D02*
X247172Y66845D01*
X248884Y60565D02*
X252134Y57314D01*
X247857Y65191D02*
X248411D01*
X254487Y123656D02*
X257038D01*
X250787Y100844D02*
Y112598D01*
X252933Y100000D02*
Y100352D01*
X250295Y100000D02*
Y100352D01*
X252441Y100844D02*
Y113283D01*
Y100844D02*
X252933Y100352D01*
X250295D02*
X250787Y100844D01*
X245669Y117717D02*
X250787Y112598D01*
X242901Y122823D02*
X252441Y113283D01*
X254373Y48052D02*
X255572D01*
X254125Y48300D02*
X254373Y48052D01*
X255572D02*
X257184Y46440D01*
X259516Y47939D02*
X261614D01*
X258837Y46707D02*
X264665Y40878D01*
X258837Y47261D02*
X259516Y47939D01*
X257184Y46022D02*
X263012Y40194D01*
X257184Y46022D02*
Y46440D01*
X258837Y46707D02*
Y47261D01*
X263012Y38286D02*
Y40194D01*
X264665Y37601D02*
Y40878D01*
X256553Y68623D02*
X259946Y72016D01*
Y73390D01*
X260195Y73639D01*
X256553Y65652D02*
Y68623D01*
X259843Y68898D02*
X260195D01*
X258939Y67993D02*
X259843Y68898D01*
X258207Y67601D02*
X258599Y67993D01*
X258939D01*
X258207Y66337D02*
Y67601D01*
X257038Y123656D02*
X257442Y123252D01*
Y120960D02*
Y123252D01*
X262224Y114531D02*
Y116178D01*
X257442Y120960D02*
X262224Y116178D01*
X261316Y113622D02*
X262224Y114531D01*
X260761Y113622D02*
X261316D01*
X260236Y115354D02*
X260369Y115221D01*
Y114014D02*
X260761Y113622D01*
X260369Y114014D02*
Y115221D01*
X262038Y123645D02*
X262050Y123633D01*
X263878Y113846D02*
Y116863D01*
X262001Y111969D02*
X263878Y113846D01*
X260761Y111969D02*
X262001D01*
X259487Y123645D02*
X262038D01*
X260369Y111576D02*
X260761Y111969D01*
X260369Y110369D02*
Y111576D01*
X260236Y110236D02*
X260369Y110369D01*
X259095Y123252D02*
X259487Y123645D01*
X259095Y121645D02*
Y123252D01*
Y121645D02*
X263878Y116863D01*
X260869Y127953D02*
X260869D01*
X261954Y126867D01*
X259378Y129443D02*
X260869Y127953D01*
X253234Y129443D02*
X259378D01*
X253228Y147347D02*
Y163271D01*
X250382Y144500D02*
X253228Y147347D01*
X247886Y168613D02*
X253228Y163271D01*
X250382Y132295D02*
X253234Y129443D01*
X250382Y132295D02*
Y144500D01*
X235288Y117468D02*
X237409D01*
X237657Y117717D01*
X240295Y117543D02*
Y117717D01*
X234689Y115728D02*
X238481D01*
X240295Y117543D01*
X232362Y120394D02*
X235288Y117468D01*
X232362Y120394D02*
Y147716D01*
X230709Y119709D02*
Y148401D01*
Y119709D02*
X234689Y115728D01*
X242665Y151632D02*
X242913Y151383D01*
X235595Y153287D02*
X239944D01*
X241874Y151632D02*
X242665D01*
X240593Y153937D02*
X240945D01*
X230709Y148401D02*
X235595Y153287D01*
X239944D02*
X240593Y153937D01*
X242205Y123520D02*
X242901Y122823D01*
X242205Y143906D02*
X247323Y149024D01*
X242205Y123520D02*
Y143906D01*
X247323Y149024D02*
Y156590D01*
X240965Y158287D02*
X245626D01*
X247323Y156590D01*
X240945Y158268D02*
X240965Y158287D01*
X242901Y122823D02*
X242901D01*
X240551Y122835D02*
X245669Y117717D01*
X245669D01*
X240551Y122835D02*
Y144591D01*
X245669Y149709D01*
Y155887D01*
X243327Y156280D02*
X245277D01*
X243307Y156299D02*
X243327Y156280D01*
X245277D02*
X245669Y155887D01*
X253404Y172980D02*
X264792D01*
X271339Y132386D02*
Y166433D01*
X264792Y172980D02*
X271339Y166433D01*
X262358Y130236D02*
X269189D01*
X259640Y132955D02*
X262358Y130236D01*
X254464Y132955D02*
X259640D01*
X269189Y130236D02*
X271339Y132386D01*
X250229Y171425D02*
X251440D01*
X251539Y171326D01*
X250000Y171653D02*
X250229Y171425D01*
X251539Y171326D02*
X264107D01*
X269685Y133071D02*
Y165748D01*
X264107Y171326D02*
X269685Y165748D01*
X263516Y131890D02*
X268504D01*
X262263Y133144D02*
X263516Y131890D01*
X268504D02*
X269685Y133071D01*
X246299Y167862D02*
X251575Y162586D01*
X254392Y126819D02*
X254464D01*
X253422Y127790D02*
X254392Y126819D01*
X252549Y127790D02*
X253422D01*
X248728Y131610D02*
X252549Y127790D01*
X248728Y131610D02*
Y145185D01*
X251575Y148031D01*
Y162586D01*
X257046Y136355D02*
X257449Y136758D01*
X260236Y143727D02*
X261352Y144843D01*
X261906D01*
X260236Y147612D02*
X261352Y146496D01*
X257449Y138102D02*
X262298Y142951D01*
X257449Y136758D02*
Y138102D01*
X262591Y146496D02*
X263952Y145135D01*
X261906Y144843D02*
X262298Y144450D01*
X259103Y137417D02*
X263952Y142266D01*
Y145135D01*
X259103Y136758D02*
X259495Y136366D01*
X259103Y136758D02*
Y137417D01*
X261352Y146496D02*
X262591D01*
X262298Y142951D02*
Y144450D01*
X259495Y136366D02*
X262013D01*
X260236Y147612D02*
Y147638D01*
X262013Y136366D02*
X262024Y136378D01*
X260236Y143701D02*
Y143727D01*
X232362Y147716D02*
X236280Y151634D01*
X239944D01*
X241872D01*
X241874Y151632D01*
X262655Y35591D02*
X264665Y37601D01*
X261416Y35591D02*
X262655D01*
X261024Y35199D02*
X261416Y35591D01*
X261024Y33465D02*
Y35199D01*
X261970Y37244D02*
X263012Y38286D01*
X261416Y37244D02*
X261970D01*
X261024Y37636D02*
X261416Y37244D01*
X261024Y37636D02*
Y39370D01*
X249504Y34567D02*
X251260Y36323D01*
X234953Y51291D02*
X239855Y46389D01*
X236606Y51976D02*
X240540Y48043D01*
X253175Y57228D02*
X253882D01*
X261522Y57072D02*
X261614Y57164D01*
X253882Y57228D02*
X254130Y56980D01*
X256446Y58968D02*
X258342Y57072D01*
X253089Y57314D02*
X253175Y57228D01*
X258342Y57072D02*
X261522D01*
X252819Y58968D02*
X256446D01*
X251563Y60224D02*
X252819Y58968D01*
X252134Y57314D02*
X253089D01*
X248819Y36220D02*
X249606Y37008D01*
X239473Y81496D02*
X249193D01*
X252402Y82366D02*
Y83998D01*
X249193Y81496D02*
X250748Y83051D01*
Y83998D01*
X252402D02*
X253150Y84746D01*
X250000Y84746D02*
X250748Y83998D01*
X253150Y84746D02*
Y85039D01*
X250000Y84746D02*
Y85039D01*
X240158Y79843D02*
X249878D01*
X252402Y82366D01*
X236929Y78953D02*
X239473Y81496D01*
X238583Y78268D02*
X240158Y79843D01*
X231878Y58256D02*
X234634Y55500D01*
Y55500D02*
X236606Y53527D01*
X229823Y57972D02*
X234953Y52842D01*
X231476Y58657D02*
X231878Y58256D01*
X231878D01*
X234634Y55500D02*
Y55500D01*
X236606Y51976D02*
Y53527D01*
X234953Y51291D02*
Y52842D01*
X259214Y60683D02*
X261584D01*
X258685Y61212D02*
X259214Y60683D01*
X258685Y61212D02*
Y65858D01*
X258207Y66337D02*
X258685Y65858D01*
X254134Y60956D02*
X254270Y60820D01*
X257032Y61212D02*
Y65173D01*
X256640Y60820D02*
X257032Y61212D01*
X254270Y60820D02*
X256640D01*
X256553Y65652D02*
X257032Y65173D01*
X84136Y200588D02*
X84309Y200761D01*
X83268Y200339D02*
X83516Y200588D01*
X84136D01*
X97870Y157343D02*
X101673Y161146D01*
X91552Y157343D02*
X97870D01*
X89856Y158996D02*
X97185D01*
X100020Y161831D01*
X90551Y156693D02*
X90903D01*
X88947Y158086D02*
X89856Y158996D01*
X90903Y156693D02*
X91552Y157343D01*
X87220Y158086D02*
X88947D01*
X87008Y157874D02*
X87220Y158086D01*
X75841Y200430D02*
X78995D01*
X80980Y202415D01*
X75751Y200521D02*
X75841Y200430D01*
X75754Y190988D02*
X78292D01*
X78684Y190596D01*
X90945Y177260D02*
Y190311D01*
X89435Y175749D02*
X90945Y177260D01*
X89435Y162026D02*
Y175749D01*
X90158Y160984D02*
Y161303D01*
X89435Y162026D02*
X90158Y161303D01*
X84498Y145999D02*
X86064Y147566D01*
X81751Y145999D02*
X84498D01*
X88274Y147566D02*
X89921Y145918D01*
X86064Y147566D02*
X88274D01*
X88334Y144512D02*
Y145167D01*
X87589Y145912D02*
X88334Y145167D01*
X85182Y144346D02*
X86749Y145912D01*
X87589D01*
X81066Y144346D02*
X85182D01*
X89921Y145918D02*
X90696D01*
X85943Y140197D02*
X86616Y140870D01*
X87495D01*
X88288Y140784D02*
X88537Y140536D01*
X81382Y140197D02*
X85943D01*
X87495Y140870D02*
X87581Y140784D01*
X76113Y142273D02*
X79306D01*
X90685Y141378D02*
X91036D01*
X85931Y142524D02*
X89360D01*
X89993Y141890D01*
X90172D01*
X90685Y141378D01*
X79306Y142273D02*
X81382Y140197D01*
X84617Y141936D02*
X84703Y141850D01*
X85258D01*
X85931Y142524D01*
X87581Y140784D02*
X88288D01*
X83661Y142185D02*
X83910Y141936D01*
X84617D01*
X79078Y146334D02*
X81066Y144346D01*
X80731Y147019D02*
X81751Y145999D01*
X76157Y147965D02*
X78686D01*
X79078Y146334D02*
Y147573D01*
X78686Y147965D02*
X79078Y147573D01*
X80731Y147019D02*
Y147573D01*
X81145Y147987D01*
X83674D01*
X90696Y145918D02*
X90945Y145669D01*
X76135Y147943D02*
X76157Y147965D01*
X78675Y151504D02*
X79089Y151918D01*
X81134Y151526D02*
X83652D01*
X80742Y151918D02*
Y153157D01*
X83652Y151526D02*
X83674Y151548D01*
X79089Y151918D02*
Y152473D01*
X76157Y151504D02*
X78675D01*
X80742Y151918D02*
X81134Y151526D01*
X89515Y34067D02*
X89764Y33819D01*
X81142Y31377D02*
X81534Y31769D01*
X83661D01*
X76575D02*
X79096D01*
X81142Y30138D02*
Y31377D01*
X83661Y31769D02*
X84055D01*
X79096D02*
X79488Y31377D01*
Y30823D02*
Y31377D01*
D106*
X322835Y11811D02*
D03*
X11811D02*
D03*
Y224410D02*
D03*
X322835D02*
D03*
D107*
X16265Y228864D02*
D03*
X18110Y224410D02*
D03*
X11811Y230709D02*
D03*
X5512Y224410D02*
D03*
X11811Y218110D02*
D03*
X7357Y228864D02*
D03*
Y219955D02*
D03*
X16265D02*
D03*
X327289D02*
D03*
X318380D02*
D03*
Y228864D02*
D03*
X322835Y218110D02*
D03*
X316535Y224410D02*
D03*
X322835Y230709D02*
D03*
X329134Y224410D02*
D03*
X327289Y228864D02*
D03*
Y7357D02*
D03*
X318380D02*
D03*
Y16265D02*
D03*
X322835Y5512D02*
D03*
X316535Y11811D02*
D03*
X322835Y18110D02*
D03*
X329134Y11811D02*
D03*
X327289Y16265D02*
D03*
X16265Y7357D02*
D03*
X7357D02*
D03*
Y16265D02*
D03*
X11811Y5512D02*
D03*
X5512Y11811D02*
D03*
X11811Y18110D02*
D03*
X18110Y11811D02*
D03*
X16265Y16265D02*
D03*
D108*
X324803Y183661D02*
D03*
Y186221D02*
D03*
Y188779D02*
D03*
X325197Y191732D02*
D03*
Y194488D02*
D03*
X328150D02*
D03*
Y191732D02*
D03*
X331102D02*
D03*
Y194488D02*
D03*
X76772Y159055D02*
D03*
X179251Y169999D02*
D03*
X83268Y195076D02*
D03*
Y190988D02*
D03*
X76772Y183465D02*
D03*
X89693Y29757D02*
D03*
X83661Y41752D02*
D03*
X245294Y48763D02*
D03*
X254528Y136346D02*
D03*
X291339Y208661D02*
D03*
Y212598D02*
D03*
X245276Y168110D02*
D03*
X247638Y169685D02*
D03*
X213779Y90551D02*
D03*
X237402Y102362D02*
D03*
X205385Y119454D02*
D03*
X76772Y179134D02*
D03*
X83635Y98249D02*
D03*
X83661Y35827D02*
D03*
Y44882D02*
D03*
X77165Y52362D02*
D03*
Y55118D02*
D03*
X76181Y44882D02*
D03*
X272047Y41339D02*
D03*
X271969Y66220D02*
D03*
X76173Y88800D02*
D03*
X83675Y88834D02*
D03*
X91732Y47697D02*
D03*
X92126Y51988D02*
D03*
X89370Y50821D02*
D03*
X76187Y94574D02*
D03*
X83659Y94273D02*
D03*
X88583Y46063D02*
D03*
X83675Y84858D02*
D03*
X41563Y157256D02*
D03*
X41339Y132283D02*
D03*
X82677Y220866D02*
D03*
X254487Y123656D02*
D03*
X252933Y100000D02*
D03*
X250295D02*
D03*
X254125Y48300D02*
D03*
X242126Y60492D02*
D03*
X260236Y115354D02*
D03*
X262050Y123633D02*
D03*
X260236Y110236D02*
D03*
X261954Y126867D02*
D03*
X237657Y117717D02*
D03*
X242913Y151383D02*
D03*
X254464Y132955D02*
D03*
X262263Y133144D02*
D03*
X252362Y173314D02*
D03*
X254464Y126819D02*
D03*
X250000Y171653D02*
D03*
X260236Y143701D02*
D03*
Y147638D02*
D03*
X262024Y136378D02*
D03*
X243307Y156299D02*
D03*
X240945Y158268D02*
D03*
Y153937D02*
D03*
X240295Y117717D02*
D03*
X245276Y39370D02*
D03*
Y42913D02*
D03*
Y45669D02*
D03*
X244882Y65354D02*
D03*
X246850Y63386D02*
D03*
X244094Y58434D02*
D03*
X261024Y39370D02*
D03*
Y33465D02*
D03*
X260195Y73639D02*
D03*
Y68898D02*
D03*
X261614Y57164D02*
D03*
X261584Y60683D02*
D03*
X254134Y60956D02*
D03*
X254130Y56980D02*
D03*
X254134Y51427D02*
D03*
X261599Y51611D02*
D03*
X261614Y47939D02*
D03*
X253150Y85039D02*
D03*
X240551Y102362D02*
D03*
X250000Y85039D02*
D03*
X296063Y41732D02*
D03*
X295669Y66535D02*
D03*
X83268Y200339D02*
D03*
X75754Y190988D02*
D03*
Y194967D02*
D03*
X90158Y160984D02*
D03*
X87008Y157874D02*
D03*
X90551Y156693D02*
D03*
X87008Y162205D02*
D03*
X76772Y211811D02*
D03*
X75751Y200521D02*
D03*
X75796Y204403D02*
D03*
X83268D02*
D03*
X83661Y138208D02*
D03*
X88334Y144512D02*
D03*
X76113Y142273D02*
D03*
X83661Y142185D02*
D03*
X83674Y147987D02*
D03*
X76157Y151504D02*
D03*
X83674Y151548D02*
D03*
X91036Y141378D02*
D03*
X88537Y140536D02*
D03*
X90945Y145669D02*
D03*
X76772Y130709D02*
D03*
X76157Y138207D02*
D03*
X76135Y147943D02*
D03*
X76772Y215748D02*
D03*
Y163386D02*
D03*
Y126378D02*
D03*
X66142Y157480D02*
D03*
X66393Y132426D02*
D03*
X28839Y206004D02*
D03*
X31890Y173228D02*
D03*
X65748Y174838D02*
D03*
X106693Y189764D02*
D03*
X115748Y178347D02*
D03*
X126496Y188586D02*
D03*
X187795Y154331D02*
D03*
X129134Y188583D02*
D03*
X131772D02*
D03*
X154839Y160078D02*
D03*
X155673Y149344D02*
D03*
X155896Y146716D02*
D03*
X155870Y144078D02*
D03*
X124803Y16142D02*
D03*
X124668Y125201D02*
D03*
X146063Y103957D02*
D03*
X21260Y205906D02*
D03*
X22308Y116780D02*
D03*
X119291Y125984D02*
D03*
X115354D02*
D03*
X76173Y85322D02*
D03*
X76212Y98249D02*
D03*
X76772Y77165D02*
D03*
Y74410D02*
D03*
Y106299D02*
D03*
Y110236D02*
D03*
X66142Y104331D02*
D03*
X89764Y33819D02*
D03*
X76772Y23228D02*
D03*
X83661Y31769D02*
D03*
X91732Y31496D02*
D03*
X76181Y35827D02*
D03*
Y31769D02*
D03*
X76772Y19685D02*
D03*
X91732Y35787D02*
D03*
X76181Y41732D02*
D03*
X65748Y51181D02*
D03*
Y25984D02*
D03*
X322835Y212924D02*
D03*
Y23297D02*
D03*
X36614Y230709D02*
D03*
Y226772D02*
D03*
X11811Y23228D02*
D03*
Y212924D02*
D03*
X155512Y50394D02*
D03*
X177953Y44094D02*
D03*
X174596Y46389D02*
D03*
X175554Y157381D02*
D03*
X178740Y154331D02*
D03*
X145276Y160236D02*
D03*
X158268Y157087D02*
D03*
X140551Y213779D02*
D03*
X146850Y200394D02*
D03*
X217056Y88673D02*
D03*
X41732Y210630D02*
D03*
Y185827D02*
D03*
X280315Y22835D02*
D03*
X282677Y80315D02*
D03*
X304724Y172835D02*
D03*
X301181Y172933D02*
D03*
Y163779D02*
D03*
Y166831D02*
D03*
Y160728D02*
D03*
Y169882D02*
D03*
X304724Y169783D02*
D03*
Y160630D02*
D03*
Y166732D02*
D03*
Y163681D02*
D03*
X206681Y125419D02*
D03*
X205780Y16535D02*
D03*
X204245Y14390D02*
D03*
X115818Y4802D02*
D03*
X118098Y3182D02*
D03*
X280315Y5118D02*
D03*
X177165Y58661D02*
D03*
X28740Y30315D02*
D03*
X20866D02*
D03*
X22047Y68898D02*
D03*
X315354Y161417D02*
D03*
X177286Y61329D02*
D03*
X155905Y37008D02*
D03*
X155892Y39700D02*
D03*
X178530Y164983D02*
D03*
X178164Y167595D02*
D03*
X126560Y78740D02*
D03*
X231340Y161239D02*
D03*
X231299Y163941D02*
D03*
X116543Y115285D02*
D03*
X291339Y216535D02*
D03*
X288583D02*
D03*
Y212598D02*
D03*
Y208661D02*
D03*
X217752Y77953D02*
D03*
X214992Y78320D02*
D03*
X224803Y14785D02*
D03*
Y5335D02*
D03*
X280270Y102803D02*
D03*
X212598Y187795D02*
D03*
X215226Y188029D02*
D03*
X170079Y94488D02*
D03*
X206693Y178347D02*
D03*
X207874Y65748D02*
D03*
X120079Y82284D02*
D03*
X119276Y16877D02*
D03*
X146063Y50394D02*
D03*
X187402Y44094D02*
D03*
X202674Y125591D02*
D03*
X214173Y122047D02*
D03*
X149606Y100394D02*
D03*
X107874Y81496D02*
D03*
X73228Y68898D02*
D03*
X41732Y51181D02*
D03*
Y25984D02*
D03*
X66142Y79134D02*
D03*
X41339D02*
D03*
Y104331D02*
D03*
X296063Y116535D02*
D03*
X296240Y141732D02*
D03*
X65748Y185433D02*
D03*
Y210630D02*
D03*
X115354Y16535D02*
D03*
X36614Y11417D02*
D03*
Y8268D02*
D03*
X131496Y78957D02*
D03*
X129068Y77925D02*
D03*
X216535Y198819D02*
D03*
X237795Y17717D02*
D03*
X218875Y15726D02*
D03*
X215728Y11269D02*
D03*
X221619Y16159D02*
D03*
X237795Y13386D02*
D03*
X216535Y136221D02*
D03*
X215748Y26378D02*
D03*
X235827Y184646D02*
D03*
X218504Y187795D02*
D03*
X116142Y68110D02*
D03*
X158661Y47638D02*
D03*
X98425Y17323D02*
D03*
Y127953D02*
D03*
X119242Y191402D02*
D03*
X269685Y209055D02*
D03*
Y233465D02*
D03*
X178094Y55703D02*
D03*
X155905Y34252D02*
D03*
D109*
X107874Y216161D02*
D03*
X112598D02*
D03*
X107874Y211437D02*
D03*
X112598D02*
D03*
X107874Y206713D02*
D03*
X112598D02*
D03*
X111811Y93701D02*
D03*
X107087D02*
D03*
X111811Y98425D02*
D03*
X107087D02*
D03*
X111811Y103150D02*
D03*
X107087D02*
D03*
X202362Y99744D02*
D03*
X197638D02*
D03*
X202362Y104469D02*
D03*
X197638D02*
D03*
X202362Y109193D02*
D03*
X197638D02*
D03*
X253543Y7874D02*
D03*
X248819D02*
D03*
X253543Y12598D02*
D03*
X248819D02*
D03*
X253543Y17323D02*
D03*
X248819D02*
D03*
D110*
X249213Y211811D02*
D03*
X244094D02*
D03*
X244882Y224016D02*
D03*
X248031Y224016D02*
D03*
Y218307D02*
D03*
Y215551D02*
D03*
X244882Y221260D02*
D03*
X248031Y221260D02*
D03*
X244882Y218307D02*
D03*
Y215551D02*
D03*
X248425Y228740D02*
D03*
X244488D02*
D03*
X248425Y232283D02*
D03*
X244488D02*
D03*
X250000Y75984D02*
D03*
X250394Y185827D02*
D03*
X250000Y177953D02*
D03*
X82122Y167634D02*
D03*
X174126Y169291D02*
D03*
X89370Y40945D02*
D03*
X272441Y209449D02*
D03*
Y204331D02*
D03*
X274803D02*
D03*
Y209449D02*
D03*
Y214567D02*
D03*
X272441D02*
D03*
X154331Y205118D02*
D03*
Y208661D02*
D03*
X150394Y205118D02*
D03*
Y208661D02*
D03*
X146063Y205118D02*
D03*
Y208661D02*
D03*
X153937Y220079D02*
D03*
X150000D02*
D03*
X146063D02*
D03*
X153937Y223622D02*
D03*
X150000D02*
D03*
X146063D02*
D03*
X317447Y42493D02*
D03*
X317717Y57087D02*
D03*
Y116535D02*
D03*
X318012Y131201D02*
D03*
X322835Y27097D02*
D03*
X325984Y38583D02*
D03*
X326378Y70866D02*
D03*
Y112598D02*
D03*
Y144882D02*
D03*
X285827Y21260D02*
D03*
X273838Y5118D02*
D03*
X273622Y12205D02*
D03*
Y19291D02*
D03*
X323228Y136221D02*
D03*
Y126378D02*
D03*
Y116535D02*
D03*
Y67323D02*
D03*
Y57480D02*
D03*
Y47638D02*
D03*
X313386Y146063D02*
D03*
Y106693D02*
D03*
Y96850D02*
D03*
Y87008D02*
D03*
Y77165D02*
D03*
Y37795D02*
D03*
X303543Y106693D02*
D03*
Y77165D02*
D03*
X293701Y146063D02*
D03*
Y136221D02*
D03*
Y126378D02*
D03*
Y106693D02*
D03*
Y77165D02*
D03*
Y57480D02*
D03*
Y47638D02*
D03*
Y37795D02*
D03*
X283858Y106693D02*
D03*
Y87008D02*
D03*
X274016Y106693D02*
D03*
Y96850D02*
D03*
Y77165D02*
D03*
Y37795D02*
D03*
X264173Y106693D02*
D03*
Y96850D02*
D03*
Y77165D02*
D03*
X262205Y21654D02*
D03*
X245388Y51704D02*
D03*
X257480Y39370D02*
D03*
X257874Y51575D02*
D03*
X256311Y72863D02*
D03*
X278346Y77559D02*
D03*
X285827Y85433D02*
D03*
X277165Y153543D02*
D03*
X256445Y110512D02*
D03*
X258268Y127165D02*
D03*
X254442Y138982D02*
D03*
X256476Y143858D02*
D03*
X305906Y176772D02*
D03*
X300394D02*
D03*
X303150D02*
D03*
Y179921D02*
D03*
X300394D02*
D03*
X305906D02*
D03*
X287402Y190551D02*
D03*
X322835Y207087D02*
D03*
X304331Y209842D02*
D03*
X246378Y162992D02*
D03*
X232677Y212205D02*
D03*
Y207087D02*
D03*
X227559Y212205D02*
D03*
Y207087D02*
D03*
X222441Y212205D02*
D03*
Y207087D02*
D03*
X217323D02*
D03*
X212205D02*
D03*
X222441Y187795D02*
D03*
X230315Y188189D02*
D03*
X221318Y198014D02*
D03*
X212992Y196850D02*
D03*
X230315Y112992D02*
D03*
X230296Y115630D02*
D03*
X221654Y77953D02*
D03*
X233051Y88583D02*
D03*
X232909Y91732D02*
D03*
X228524Y93736D02*
D03*
X240551Y86221D02*
D03*
X234252Y77165D02*
D03*
X226772Y87008D02*
D03*
X211024Y88583D02*
D03*
X222835Y97244D02*
D03*
Y104331D02*
D03*
X213770Y111821D02*
D03*
X222835Y111417D02*
D03*
X205502Y116720D02*
D03*
X205540Y122095D02*
D03*
X181102Y118110D02*
D03*
X255643Y26084D02*
D03*
X271529Y23938D02*
D03*
X235433Y24803D02*
D03*
X230683Y10191D02*
D03*
X229528Y3937D02*
D03*
X209055Y5906D02*
D03*
X184252Y5512D02*
D03*
X177953Y73228D02*
D03*
X173228Y30315D02*
D03*
X149213Y22047D02*
D03*
X154724Y3937D02*
D03*
X164567Y50000D02*
D03*
X169685Y46063D02*
D03*
X159449Y64173D02*
D03*
X150394Y93701D02*
D03*
X149143Y107874D02*
D03*
X153150Y134646D02*
D03*
X177953Y201969D02*
D03*
X183465Y182283D02*
D03*
X172835Y140157D02*
D03*
X169690Y154729D02*
D03*
X164173Y159449D02*
D03*
X160236Y173228D02*
D03*
X179921Y102362D02*
D03*
X120472Y112205D02*
D03*
X112184Y117112D02*
D03*
X111417Y126772D02*
D03*
X103248Y126279D02*
D03*
X131496Y100787D02*
D03*
X127874Y85354D02*
D03*
X153543Y194882D02*
D03*
X125619Y197748D02*
D03*
X132283Y214567D02*
D03*
X100787Y197638D02*
D03*
X107874Y226378D02*
D03*
X87008Y222047D02*
D03*
Y214173D02*
D03*
X85433Y133465D02*
D03*
X84118Y163447D02*
D03*
X82677Y185039D02*
D03*
X79528Y195276D02*
D03*
X82677Y217323D02*
D03*
X16142Y214173D02*
D03*
Y211024D02*
D03*
X10630Y201575D02*
D03*
X11811Y205512D02*
D03*
Y30709D02*
D03*
X10630Y34646D02*
D03*
X11811Y209124D02*
D03*
X10630Y170472D02*
D03*
Y156299D02*
D03*
Y126772D02*
D03*
Y109449D02*
D03*
Y79528D02*
D03*
Y66535D02*
D03*
X19291Y198031D02*
D03*
Y183465D02*
D03*
Y153150D02*
D03*
Y138189D02*
D03*
Y107874D02*
D03*
Y62992D02*
D03*
Y93307D02*
D03*
X19008Y48142D02*
D03*
X59625Y221558D02*
D03*
X59842Y168110D02*
D03*
X80709Y159055D02*
D03*
X88189Y151181D02*
D03*
X79921Y138189D02*
D03*
X80640Y126309D02*
D03*
X82607Y111741D02*
D03*
X80709Y74803D02*
D03*
X59758Y115317D02*
D03*
X79921Y90945D02*
D03*
X86614Y98249D02*
D03*
X86614Y105118D02*
D03*
X88583Y88583D02*
D03*
X96929Y85354D02*
D03*
X85039Y19291D02*
D03*
X92520Y40945D02*
D03*
X59270Y62053D02*
D03*
X85433Y52362D02*
D03*
X81102Y61811D02*
D03*
X82677Y47638D02*
D03*
X79921Y35827D02*
D03*
X80709Y19685D02*
D03*
X11811Y27097D02*
D03*
X15655Y23990D02*
D03*
X15748Y26772D02*
D03*
X120472Y5118D02*
D03*
X103150Y15354D02*
D03*
X111811Y5906D02*
D03*
X111417Y16535D02*
D03*
X98425Y191339D02*
D03*
X85921Y92619D02*
D03*
X91738Y151181D02*
D03*
X80581Y172220D02*
D03*
X239333Y40315D02*
D03*
X272835Y118110D02*
D03*
X273327Y139764D02*
D03*
X248031Y128347D02*
D03*
X82894Y135031D02*
D03*
X83071Y207087D02*
D03*
X82677Y188189D02*
D03*
Y154724D02*
D03*
X80315Y120114D02*
D03*
X82607Y114891D02*
D03*
X82926Y101036D02*
D03*
X82739Y82284D02*
D03*
X79528Y67716D02*
D03*
X82319Y67323D02*
D03*
X254331Y78740D02*
D03*
X253937Y64173D02*
D03*
X256466Y155309D02*
D03*
X254724Y120866D02*
D03*
X256693Y101969D02*
D03*
X276772Y113386D02*
D03*
X253937Y45669D02*
D03*
X223228Y178347D02*
D03*
X224803Y175591D02*
D03*
X235827Y122047D02*
D03*
X240356Y149646D02*
D03*
X242520Y164996D02*
D03*
X239920Y53363D02*
D03*
X246457Y84252D02*
D03*
X230639Y53219D02*
D03*
X228346Y50000D02*
D03*
X250000Y22835D02*
D03*
X278346Y38976D02*
D03*
X91968Y165068D02*
D03*
X84252Y175197D02*
D03*
X59449Y183071D02*
D03*
X102362Y150000D02*
D03*
X102756Y153543D02*
D03*
X138976Y173622D02*
D03*
X145634Y148031D02*
D03*
X132677Y136221D02*
D03*
X118110Y135827D02*
D03*
X111417D02*
D03*
X91827Y54942D02*
D03*
X102362Y42520D02*
D03*
X93701Y79134D02*
D03*
X59842Y76378D02*
D03*
X82284Y14961D02*
D03*
Y28346D02*
D03*
X161811Y126772D02*
D03*
X166929Y185827D02*
D03*
X29134Y5217D02*
D03*
X143847Y12795D02*
D03*
X160236Y180709D02*
D03*
X188189Y93307D02*
D03*
X108661Y139764D02*
D03*
X298819Y6693D02*
D03*
X226797Y123597D02*
D03*
X159449Y71260D02*
D03*
X156114Y64011D02*
D03*
X303150Y200394D02*
D03*
X92775Y9456D02*
D03*
X176378Y30315D02*
D03*
X172835Y132283D02*
D03*
X220654Y68685D02*
D03*
X244488Y4724D02*
D03*
X166929Y23228D02*
D03*
X174016Y80315D02*
D03*
X137402Y136221D02*
D03*
X210630Y65748D02*
D03*
X29921Y224016D02*
D03*
X145634Y152756D02*
D03*
X88583Y110630D02*
D03*
X88976Y228346D02*
D03*
X189370Y35827D02*
D03*
X192913Y31102D02*
D03*
X161417Y35827D02*
D03*
X173158Y59419D02*
D03*
X294488Y21260D02*
D03*
X302710Y102015D02*
D03*
X294049Y85480D02*
D03*
X172441Y36220D02*
D03*
X173727Y52467D02*
D03*
X161417Y42520D02*
D03*
X161811Y167717D02*
D03*
X171260Y146063D02*
D03*
X161417Y151969D02*
D03*
X161024Y144882D02*
D03*
X174016Y161811D02*
D03*
X139370Y62992D02*
D03*
X142913Y58268D02*
D03*
X128268Y81594D02*
D03*
X199606Y116931D02*
D03*
X231496Y24016D02*
D03*
X187795Y5512D02*
D03*
X246850Y194882D02*
D03*
X220079Y117546D02*
D03*
X188808Y83465D02*
D03*
X143110Y122244D02*
D03*
X157874Y112992D02*
D03*
X106299Y87402D02*
D03*
X173228Y22835D02*
D03*
X139764Y5512D02*
D03*
X87402Y9843D02*
D03*
X194095Y140157D02*
D03*
X190157Y146063D02*
D03*
X189595Y192126D02*
D03*
X188583Y201575D02*
D03*
X121260Y138976D02*
D03*
X142913Y167717D02*
D03*
X106693Y197638D02*
D03*
X111811Y226378D02*
D03*
X118110Y26378D02*
D03*
X111417Y26772D02*
D03*
X120472Y29921D02*
D03*
X111417Y108150D02*
D03*
X132677Y25984D02*
D03*
X137402D02*
D03*
X145276Y38189D02*
D03*
Y42913D02*
D03*
X159449Y97638D02*
D03*
X87748Y118511D02*
D03*
X156693Y173228D02*
D03*
X127703Y191682D02*
D03*
X206693Y11811D02*
D03*
X188583Y51968D02*
D03*
Y56299D02*
D03*
X196063Y67716D02*
D03*
X200394D02*
D03*
X212598Y68898D02*
D03*
X223228Y64961D02*
D03*
X176772Y140328D02*
D03*
X188583Y166535D02*
D03*
Y161417D02*
D03*
X196457Y177953D02*
D03*
X201181D02*
D03*
X213386Y175197D02*
D03*
X215826Y178424D02*
D03*
X294882Y196850D02*
D03*
X297638Y200394D02*
D03*
X294882D02*
D03*
X300394Y196850D02*
D03*
X297638D02*
D03*
X303150D02*
D03*
X300394Y200394D02*
D03*
X226772Y115354D02*
D03*
X102362Y39370D02*
D03*
X60630Y129528D02*
D03*
X240945Y194874D02*
D03*
X92901Y118511D02*
D03*
D111*
X114764Y51968D02*
D03*
Y56693D02*
D03*
X119488Y51968D02*
D03*
X119488Y56693D02*
D03*
X114764Y42520D02*
D03*
Y37795D02*
D03*
X119488Y42520D02*
D03*
X119488Y37795D02*
D03*
X128937Y42520D02*
D03*
Y37795D02*
D03*
X133661Y42520D02*
D03*
Y37795D02*
D03*
Y51968D02*
D03*
Y56693D02*
D03*
X128937Y51968D02*
D03*
Y56693D02*
D03*
X124213D02*
D03*
Y51968D02*
D03*
Y37795D02*
D03*
Y42520D02*
D03*
X114764Y47244D02*
D03*
X119488D02*
D03*
X133661D02*
D03*
X124213D02*
D03*
X128937D02*
D03*
X204134D02*
D03*
X208858D02*
D03*
X199409D02*
D03*
X213583D02*
D03*
X218307D02*
D03*
X208858Y51968D02*
D03*
Y56693D02*
D03*
Y42520D02*
D03*
Y37795D02*
D03*
X204134D02*
D03*
Y42520D02*
D03*
X199409Y37795D02*
D03*
Y42520D02*
D03*
Y56693D02*
D03*
Y51968D02*
D03*
X204134Y56693D02*
D03*
Y51968D02*
D03*
X213583Y56693D02*
D03*
X213583Y51968D02*
D03*
X218307Y56693D02*
D03*
Y51968D02*
D03*
X213583Y37795D02*
D03*
X213583Y42520D02*
D03*
X218307Y37795D02*
D03*
Y42520D02*
D03*
X204874Y157087D02*
D03*
X209598D02*
D03*
X200150D02*
D03*
X214323D02*
D03*
X219047D02*
D03*
X209598Y161811D02*
D03*
Y166535D02*
D03*
Y152362D02*
D03*
Y147638D02*
D03*
X204874D02*
D03*
Y152362D02*
D03*
X200150Y147638D02*
D03*
Y152362D02*
D03*
Y166535D02*
D03*
Y161811D02*
D03*
X204874Y166535D02*
D03*
Y161811D02*
D03*
X214323Y166535D02*
D03*
X214323Y161811D02*
D03*
X219047Y166535D02*
D03*
Y161811D02*
D03*
X214323Y147638D02*
D03*
X214323Y152362D02*
D03*
X219047Y147638D02*
D03*
Y152362D02*
D03*
X114764Y161811D02*
D03*
Y166535D02*
D03*
X119488Y161811D02*
D03*
X119488Y166535D02*
D03*
X114764Y152362D02*
D03*
Y147638D02*
D03*
X119488Y152362D02*
D03*
X119488Y147638D02*
D03*
X128937Y152362D02*
D03*
Y147638D02*
D03*
X133661Y152362D02*
D03*
Y147638D02*
D03*
Y161811D02*
D03*
Y166535D02*
D03*
X128937Y161811D02*
D03*
Y166535D02*
D03*
X124213D02*
D03*
Y161811D02*
D03*
Y147638D02*
D03*
Y152362D02*
D03*
X114764Y157087D02*
D03*
X119488D02*
D03*
X133661D02*
D03*
X124213D02*
D03*
X128937D02*
D03*
M02*
