G04*
G04 #@! TF.GenerationSoftware,Altium Limited,Altium Designer,24.2.2 (26)*
G04*
G04 Layer_Color=255*
%FSLAX25Y25*%
%MOIN*%
G70*
G04*
G04 #@! TF.SameCoordinates,B220CE68-074A-4F46-869C-E968B1748748*
G04*
G04*
G04 #@! TF.FilePolarity,Positive*
G04*
G01*
G75*
G04:AMPARAMS|DCode=25|XSize=25.2mil|YSize=23.62mil|CornerRadius=4.72mil|HoleSize=0mil|Usage=FLASHONLY|Rotation=90.000|XOffset=0mil|YOffset=0mil|HoleType=Round|Shape=RoundedRectangle|*
%AMROUNDEDRECTD25*
21,1,0.02520,0.01417,0,0,90.0*
21,1,0.01575,0.02362,0,0,90.0*
1,1,0.00945,0.00709,0.00787*
1,1,0.00945,0.00709,-0.00787*
1,1,0.00945,-0.00709,-0.00787*
1,1,0.00945,-0.00709,0.00787*
%
%ADD25ROUNDEDRECTD25*%
G04:AMPARAMS|DCode=26|XSize=21.65mil|YSize=19.68mil|CornerRadius=3.94mil|HoleSize=0mil|Usage=FLASHONLY|Rotation=270.000|XOffset=0mil|YOffset=0mil|HoleType=Round|Shape=RoundedRectangle|*
%AMROUNDEDRECTD26*
21,1,0.02165,0.01181,0,0,270.0*
21,1,0.01378,0.01968,0,0,270.0*
1,1,0.00787,-0.00591,-0.00689*
1,1,0.00787,-0.00591,0.00689*
1,1,0.00787,0.00591,0.00689*
1,1,0.00787,0.00591,-0.00689*
%
%ADD26ROUNDEDRECTD26*%
G04:AMPARAMS|DCode=27|XSize=21.65mil|YSize=19.68mil|CornerRadius=3.94mil|HoleSize=0mil|Usage=FLASHONLY|Rotation=180.000|XOffset=0mil|YOffset=0mil|HoleType=Round|Shape=RoundedRectangle|*
%AMROUNDEDRECTD27*
21,1,0.02165,0.01181,0,0,180.0*
21,1,0.01378,0.01968,0,0,180.0*
1,1,0.00787,-0.00689,0.00591*
1,1,0.00787,0.00689,0.00591*
1,1,0.00787,0.00689,-0.00591*
1,1,0.00787,-0.00689,-0.00591*
%
%ADD27ROUNDEDRECTD27*%
G04:AMPARAMS|DCode=29|XSize=25.2mil|YSize=23.62mil|CornerRadius=4.72mil|HoleSize=0mil|Usage=FLASHONLY|Rotation=0.000|XOffset=0mil|YOffset=0mil|HoleType=Round|Shape=RoundedRectangle|*
%AMROUNDEDRECTD29*
21,1,0.02520,0.01417,0,0,0.0*
21,1,0.01575,0.02362,0,0,0.0*
1,1,0.00945,0.00787,-0.00709*
1,1,0.00945,-0.00787,-0.00709*
1,1,0.00945,-0.00787,0.00709*
1,1,0.00945,0.00787,0.00709*
%
%ADD29ROUNDEDRECTD29*%
G04:AMPARAMS|DCode=30|XSize=64.96mil|YSize=29.92mil|CornerRadius=7.48mil|HoleSize=0mil|Usage=FLASHONLY|Rotation=0.000|XOffset=0mil|YOffset=0mil|HoleType=Round|Shape=RoundedRectangle|*
%AMROUNDEDRECTD30*
21,1,0.06496,0.01496,0,0,0.0*
21,1,0.05000,0.02992,0,0,0.0*
1,1,0.01496,0.02500,-0.00748*
1,1,0.01496,-0.02500,-0.00748*
1,1,0.01496,-0.02500,0.00748*
1,1,0.01496,0.02500,0.00748*
%
%ADD30ROUNDEDRECTD30*%
G04:AMPARAMS|DCode=31|XSize=47.45mil|YSize=20.86mil|CornerRadius=4.17mil|HoleSize=0mil|Usage=FLASHONLY|Rotation=90.000|XOffset=0mil|YOffset=0mil|HoleType=Round|Shape=RoundedRectangle|*
%AMROUNDEDRECTD31*
21,1,0.04745,0.01252,0,0,90.0*
21,1,0.03911,0.02086,0,0,90.0*
1,1,0.00834,0.00626,0.01955*
1,1,0.00834,0.00626,-0.01955*
1,1,0.00834,-0.00626,-0.01955*
1,1,0.00834,-0.00626,0.01955*
%
%ADD31ROUNDEDRECTD31*%
G04:AMPARAMS|DCode=32|XSize=47.45mil|YSize=20.86mil|CornerRadius=10.43mil|HoleSize=0mil|Usage=FLASHONLY|Rotation=90.000|XOffset=0mil|YOffset=0mil|HoleType=Round|Shape=RoundedRectangle|*
%AMROUNDEDRECTD32*
21,1,0.04745,0.00000,0,0,90.0*
21,1,0.02659,0.02086,0,0,90.0*
1,1,0.02086,0.00000,0.01330*
1,1,0.02086,0.00000,-0.01330*
1,1,0.02086,0.00000,-0.01330*
1,1,0.02086,0.00000,0.01330*
%
%ADD32ROUNDEDRECTD32*%
%ADD33O,0.04331X0.01772*%
G04:AMPARAMS|DCode=34|XSize=94.49mil|YSize=161.42mil|CornerRadius=18.9mil|HoleSize=0mil|Usage=FLASHONLY|Rotation=0.000|XOffset=0mil|YOffset=0mil|HoleType=Round|Shape=RoundedRectangle|*
%AMROUNDEDRECTD34*
21,1,0.09449,0.12362,0,0,0.0*
21,1,0.05669,0.16142,0,0,0.0*
1,1,0.03780,0.02835,-0.06181*
1,1,0.03780,-0.02835,-0.06181*
1,1,0.03780,-0.02835,0.06181*
1,1,0.03780,0.02835,0.06181*
%
%ADD34ROUNDEDRECTD34*%
G04:AMPARAMS|DCode=37|XSize=23.62mil|YSize=66.93mil|CornerRadius=4.72mil|HoleSize=0mil|Usage=FLASHONLY|Rotation=180.000|XOffset=0mil|YOffset=0mil|HoleType=Round|Shape=RoundedRectangle|*
%AMROUNDEDRECTD37*
21,1,0.02362,0.05748,0,0,180.0*
21,1,0.01417,0.06693,0,0,180.0*
1,1,0.00945,-0.00709,0.02874*
1,1,0.00945,0.00709,0.02874*
1,1,0.00945,0.00709,-0.02874*
1,1,0.00945,-0.00709,-0.02874*
%
%ADD37ROUNDEDRECTD37*%
G04:AMPARAMS|DCode=38|XSize=39.37mil|YSize=110.24mil|CornerRadius=7.87mil|HoleSize=0mil|Usage=FLASHONLY|Rotation=180.000|XOffset=0mil|YOffset=0mil|HoleType=Round|Shape=RoundedRectangle|*
%AMROUNDEDRECTD38*
21,1,0.03937,0.09449,0,0,180.0*
21,1,0.02362,0.11024,0,0,180.0*
1,1,0.01575,-0.01181,0.04724*
1,1,0.01575,0.01181,0.04724*
1,1,0.01575,0.01181,-0.04724*
1,1,0.01575,-0.01181,-0.04724*
%
%ADD38ROUNDEDRECTD38*%
G04:AMPARAMS|DCode=39|XSize=110.24mil|YSize=39.37mil|CornerRadius=7.87mil|HoleSize=0mil|Usage=FLASHONLY|Rotation=180.000|XOffset=0mil|YOffset=0mil|HoleType=Round|Shape=RoundedRectangle|*
%AMROUNDEDRECTD39*
21,1,0.11024,0.02362,0,0,180.0*
21,1,0.09449,0.03937,0,0,180.0*
1,1,0.01575,-0.04724,0.01181*
1,1,0.01575,0.04724,0.01181*
1,1,0.01575,0.04724,-0.01181*
1,1,0.01575,-0.04724,-0.01181*
%
%ADD39ROUNDEDRECTD39*%
G04:AMPARAMS|DCode=40|XSize=47.45mil|YSize=20.86mil|CornerRadius=10.43mil|HoleSize=0mil|Usage=FLASHONLY|Rotation=0.000|XOffset=0mil|YOffset=0mil|HoleType=Round|Shape=RoundedRectangle|*
%AMROUNDEDRECTD40*
21,1,0.04745,0.00000,0,0,0.0*
21,1,0.02659,0.02086,0,0,0.0*
1,1,0.02086,0.01330,0.00000*
1,1,0.02086,-0.01330,0.00000*
1,1,0.02086,-0.01330,0.00000*
1,1,0.02086,0.01330,0.00000*
%
%ADD40ROUNDEDRECTD40*%
G04:AMPARAMS|DCode=41|XSize=57.09mil|YSize=11.02mil|CornerRadius=1.38mil|HoleSize=0mil|Usage=FLASHONLY|Rotation=0.000|XOffset=0mil|YOffset=0mil|HoleType=Round|Shape=RoundedRectangle|*
%AMROUNDEDRECTD41*
21,1,0.05709,0.00827,0,0,0.0*
21,1,0.05433,0.01102,0,0,0.0*
1,1,0.00276,0.02717,-0.00413*
1,1,0.00276,-0.02717,-0.00413*
1,1,0.00276,-0.02717,0.00413*
1,1,0.00276,0.02717,0.00413*
%
%ADD41ROUNDEDRECTD41*%
G04:AMPARAMS|DCode=42|XSize=37.4mil|YSize=29.53mil|CornerRadius=5.91mil|HoleSize=0mil|Usage=FLASHONLY|Rotation=180.000|XOffset=0mil|YOffset=0mil|HoleType=Round|Shape=RoundedRectangle|*
%AMROUNDEDRECTD42*
21,1,0.03740,0.01772,0,0,180.0*
21,1,0.02559,0.02953,0,0,180.0*
1,1,0.01181,-0.01280,0.00886*
1,1,0.01181,0.01280,0.00886*
1,1,0.01181,0.01280,-0.00886*
1,1,0.01181,-0.01280,-0.00886*
%
%ADD42ROUNDEDRECTD42*%
G04:AMPARAMS|DCode=43|XSize=35.43mil|YSize=29.53mil|CornerRadius=5.91mil|HoleSize=0mil|Usage=FLASHONLY|Rotation=180.000|XOffset=0mil|YOffset=0mil|HoleType=Round|Shape=RoundedRectangle|*
%AMROUNDEDRECTD43*
21,1,0.03543,0.01772,0,0,180.0*
21,1,0.02362,0.02953,0,0,180.0*
1,1,0.01181,-0.01181,0.00886*
1,1,0.01181,0.01181,0.00886*
1,1,0.01181,0.01181,-0.00886*
1,1,0.01181,-0.01181,-0.00886*
%
%ADD43ROUNDEDRECTD43*%
G04:AMPARAMS|DCode=44|XSize=43.31mil|YSize=161.42mil|CornerRadius=8.66mil|HoleSize=0mil|Usage=FLASHONLY|Rotation=270.000|XOffset=0mil|YOffset=0mil|HoleType=Round|Shape=RoundedRectangle|*
%AMROUNDEDRECTD44*
21,1,0.04331,0.14410,0,0,270.0*
21,1,0.02598,0.16142,0,0,270.0*
1,1,0.01732,-0.07205,-0.01299*
1,1,0.01732,-0.07205,0.01299*
1,1,0.01732,0.07205,0.01299*
1,1,0.01732,0.07205,-0.01299*
%
%ADD44ROUNDEDRECTD44*%
G04:AMPARAMS|DCode=45|XSize=421.26mil|YSize=342.52mil|CornerRadius=34.25mil|HoleSize=0mil|Usage=FLASHONLY|Rotation=270.000|XOffset=0mil|YOffset=0mil|HoleType=Round|Shape=RoundedRectangle|*
%AMROUNDEDRECTD45*
21,1,0.42126,0.27402,0,0,270.0*
21,1,0.35276,0.34252,0,0,270.0*
1,1,0.06850,-0.13701,-0.17638*
1,1,0.06850,-0.13701,0.17638*
1,1,0.06850,0.13701,0.17638*
1,1,0.06850,0.13701,-0.17638*
%
%ADD45ROUNDEDRECTD45*%
G04:AMPARAMS|DCode=46|XSize=13.78mil|YSize=27.56mil|CornerRadius=2.76mil|HoleSize=0mil|Usage=FLASHONLY|Rotation=180.000|XOffset=0mil|YOffset=0mil|HoleType=Round|Shape=RoundedRectangle|*
%AMROUNDEDRECTD46*
21,1,0.01378,0.02205,0,0,180.0*
21,1,0.00827,0.02756,0,0,180.0*
1,1,0.00551,-0.00413,0.01102*
1,1,0.00551,0.00413,0.01102*
1,1,0.00551,0.00413,-0.01102*
1,1,0.00551,-0.00413,-0.01102*
%
%ADD46ROUNDEDRECTD46*%
G04:AMPARAMS|DCode=47|XSize=31.5mil|YSize=43.31mil|CornerRadius=6.3mil|HoleSize=0mil|Usage=FLASHONLY|Rotation=0.000|XOffset=0mil|YOffset=0mil|HoleType=Round|Shape=RoundedRectangle|*
%AMROUNDEDRECTD47*
21,1,0.03150,0.03071,0,0,0.0*
21,1,0.01890,0.04331,0,0,0.0*
1,1,0.01260,0.00945,-0.01535*
1,1,0.01260,-0.00945,-0.01535*
1,1,0.01260,-0.00945,0.01535*
1,1,0.01260,0.00945,0.01535*
%
%ADD47ROUNDEDRECTD47*%
G04:AMPARAMS|DCode=48|XSize=31.5mil|YSize=66.93mil|CornerRadius=6.3mil|HoleSize=0mil|Usage=FLASHONLY|Rotation=0.000|XOffset=0mil|YOffset=0mil|HoleType=Round|Shape=RoundedRectangle|*
%AMROUNDEDRECTD48*
21,1,0.03150,0.05433,0,0,0.0*
21,1,0.01890,0.06693,0,0,0.0*
1,1,0.01260,0.00945,-0.02717*
1,1,0.01260,-0.00945,-0.02717*
1,1,0.01260,-0.00945,0.02717*
1,1,0.01260,0.00945,0.02717*
%
%ADD48ROUNDEDRECTD48*%
G04:AMPARAMS|DCode=49|XSize=163.39mil|YSize=188.98mil|CornerRadius=32.68mil|HoleSize=0mil|Usage=FLASHONLY|Rotation=270.000|XOffset=0mil|YOffset=0mil|HoleType=Round|Shape=RoundedRectangle|*
%AMROUNDEDRECTD49*
21,1,0.16339,0.12362,0,0,270.0*
21,1,0.09803,0.18898,0,0,270.0*
1,1,0.06535,-0.06181,-0.04902*
1,1,0.06535,-0.06181,0.04902*
1,1,0.06535,0.06181,0.04902*
1,1,0.06535,0.06181,-0.04902*
%
%ADD49ROUNDEDRECTD49*%
G04:AMPARAMS|DCode=50|XSize=59.06mil|YSize=51.18mil|CornerRadius=10.24mil|HoleSize=0mil|Usage=FLASHONLY|Rotation=90.000|XOffset=0mil|YOffset=0mil|HoleType=Round|Shape=RoundedRectangle|*
%AMROUNDEDRECTD50*
21,1,0.05906,0.03071,0,0,90.0*
21,1,0.03858,0.05118,0,0,90.0*
1,1,0.02047,0.01535,0.01929*
1,1,0.02047,0.01535,-0.01929*
1,1,0.02047,-0.01535,-0.01929*
1,1,0.02047,-0.01535,0.01929*
%
%ADD50ROUNDEDRECTD50*%
G04:AMPARAMS|DCode=51|XSize=19.68mil|YSize=37.4mil|CornerRadius=3.94mil|HoleSize=0mil|Usage=FLASHONLY|Rotation=270.000|XOffset=0mil|YOffset=0mil|HoleType=Round|Shape=RoundedRectangle|*
%AMROUNDEDRECTD51*
21,1,0.01968,0.02953,0,0,270.0*
21,1,0.01181,0.03740,0,0,270.0*
1,1,0.00787,-0.01476,-0.00591*
1,1,0.00787,-0.01476,0.00591*
1,1,0.00787,0.01476,0.00591*
1,1,0.00787,0.01476,-0.00591*
%
%ADD51ROUNDEDRECTD51*%
G04:AMPARAMS|DCode=52|XSize=66.93mil|YSize=23.62mil|CornerRadius=4.72mil|HoleSize=0mil|Usage=FLASHONLY|Rotation=180.000|XOffset=0mil|YOffset=0mil|HoleType=Round|Shape=RoundedRectangle|*
%AMROUNDEDRECTD52*
21,1,0.06693,0.01417,0,0,180.0*
21,1,0.05748,0.02362,0,0,180.0*
1,1,0.00945,-0.02874,0.00709*
1,1,0.00945,0.02874,0.00709*
1,1,0.00945,0.02874,-0.00709*
1,1,0.00945,-0.02874,-0.00709*
%
%ADD52ROUNDEDRECTD52*%
G04:AMPARAMS|DCode=53|XSize=33.47mil|YSize=25.59mil|CornerRadius=5.12mil|HoleSize=0mil|Usage=FLASHONLY|Rotation=0.000|XOffset=0mil|YOffset=0mil|HoleType=Round|Shape=RoundedRectangle|*
%AMROUNDEDRECTD53*
21,1,0.03347,0.01535,0,0,0.0*
21,1,0.02323,0.02559,0,0,0.0*
1,1,0.01024,0.01161,-0.00768*
1,1,0.01024,-0.01161,-0.00768*
1,1,0.01024,-0.01161,0.00768*
1,1,0.01024,0.01161,0.00768*
%
%ADD53ROUNDEDRECTD53*%
G04:AMPARAMS|DCode=54|XSize=37.4mil|YSize=33.47mil|CornerRadius=6.69mil|HoleSize=0mil|Usage=FLASHONLY|Rotation=270.000|XOffset=0mil|YOffset=0mil|HoleType=Round|Shape=RoundedRectangle|*
%AMROUNDEDRECTD54*
21,1,0.03740,0.02008,0,0,270.0*
21,1,0.02402,0.03347,0,0,270.0*
1,1,0.01339,-0.01004,-0.01201*
1,1,0.01339,-0.01004,0.01201*
1,1,0.01339,0.01004,0.01201*
1,1,0.01339,0.01004,-0.01201*
%
%ADD54ROUNDEDRECTD54*%
G04:AMPARAMS|DCode=55|XSize=45.45mil|YSize=53.39mil|CornerRadius=9.09mil|HoleSize=0mil|Usage=FLASHONLY|Rotation=0.000|XOffset=0mil|YOffset=0mil|HoleType=Round|Shape=RoundedRectangle|*
%AMROUNDEDRECTD55*
21,1,0.04545,0.03521,0,0,0.0*
21,1,0.02727,0.05339,0,0,0.0*
1,1,0.01818,0.01364,-0.01761*
1,1,0.01818,-0.01364,-0.01761*
1,1,0.01818,-0.01364,0.01761*
1,1,0.01818,0.01364,0.01761*
%
%ADD55ROUNDEDRECTD55*%
G04:AMPARAMS|DCode=56|XSize=35.43mil|YSize=29.53mil|CornerRadius=5.91mil|HoleSize=0mil|Usage=FLASHONLY|Rotation=90.000|XOffset=0mil|YOffset=0mil|HoleType=Round|Shape=RoundedRectangle|*
%AMROUNDEDRECTD56*
21,1,0.03543,0.01772,0,0,90.0*
21,1,0.02362,0.02953,0,0,90.0*
1,1,0.01181,0.00886,0.01181*
1,1,0.01181,0.00886,-0.01181*
1,1,0.01181,-0.00886,-0.01181*
1,1,0.01181,-0.00886,0.01181*
%
%ADD56ROUNDEDRECTD56*%
G04:AMPARAMS|DCode=57|XSize=47.45mil|YSize=20.86mil|CornerRadius=4.17mil|HoleSize=0mil|Usage=FLASHONLY|Rotation=0.000|XOffset=0mil|YOffset=0mil|HoleType=Round|Shape=RoundedRectangle|*
%AMROUNDEDRECTD57*
21,1,0.04745,0.01252,0,0,0.0*
21,1,0.03911,0.02086,0,0,0.0*
1,1,0.00834,0.01955,-0.00626*
1,1,0.00834,-0.01955,-0.00626*
1,1,0.00834,-0.01955,0.00626*
1,1,0.00834,0.01955,0.00626*
%
%ADD57ROUNDEDRECTD57*%
G04:AMPARAMS|DCode=58|XSize=58.07mil|YSize=11.81mil|CornerRadius=2.36mil|HoleSize=0mil|Usage=FLASHONLY|Rotation=180.000|XOffset=0mil|YOffset=0mil|HoleType=Round|Shape=RoundedRectangle|*
%AMROUNDEDRECTD58*
21,1,0.05807,0.00709,0,0,180.0*
21,1,0.05335,0.01181,0,0,180.0*
1,1,0.00472,-0.02667,0.00354*
1,1,0.00472,0.02667,0.00354*
1,1,0.00472,0.02667,-0.00354*
1,1,0.00472,-0.02667,-0.00354*
%
%ADD58ROUNDEDRECTD58*%
G04:AMPARAMS|DCode=59|XSize=58.07mil|YSize=11.81mil|CornerRadius=2.36mil|HoleSize=0mil|Usage=FLASHONLY|Rotation=90.000|XOffset=0mil|YOffset=0mil|HoleType=Round|Shape=RoundedRectangle|*
%AMROUNDEDRECTD59*
21,1,0.05807,0.00709,0,0,90.0*
21,1,0.05335,0.01181,0,0,90.0*
1,1,0.00472,0.00354,0.02667*
1,1,0.00472,0.00354,-0.02667*
1,1,0.00472,-0.00354,-0.02667*
1,1,0.00472,-0.00354,0.02667*
%
%ADD59ROUNDEDRECTD59*%
G04:AMPARAMS|DCode=60|XSize=29.53mil|YSize=27.56mil|CornerRadius=5.51mil|HoleSize=0mil|Usage=FLASHONLY|Rotation=180.000|XOffset=0mil|YOffset=0mil|HoleType=Round|Shape=RoundedRectangle|*
%AMROUNDEDRECTD60*
21,1,0.02953,0.01654,0,0,180.0*
21,1,0.01850,0.02756,0,0,180.0*
1,1,0.01102,-0.00925,0.00827*
1,1,0.01102,0.00925,0.00827*
1,1,0.01102,0.00925,-0.00827*
1,1,0.01102,-0.00925,-0.00827*
%
%ADD60ROUNDEDRECTD60*%
G04:AMPARAMS|DCode=61|XSize=38.58mil|YSize=133.86mil|CornerRadius=7.72mil|HoleSize=0mil|Usage=FLASHONLY|Rotation=0.000|XOffset=0mil|YOffset=0mil|HoleType=Round|Shape=RoundedRectangle|*
%AMROUNDEDRECTD61*
21,1,0.03858,0.11843,0,0,0.0*
21,1,0.02315,0.13386,0,0,0.0*
1,1,0.01543,0.01158,-0.05921*
1,1,0.01543,-0.01158,-0.05921*
1,1,0.01543,-0.01158,0.05921*
1,1,0.01543,0.01158,0.05921*
%
%ADD61ROUNDEDRECTD61*%
G04:AMPARAMS|DCode=62|XSize=37.4mil|YSize=33.47mil|CornerRadius=6.69mil|HoleSize=0mil|Usage=FLASHONLY|Rotation=0.000|XOffset=0mil|YOffset=0mil|HoleType=Round|Shape=RoundedRectangle|*
%AMROUNDEDRECTD62*
21,1,0.03740,0.02008,0,0,0.0*
21,1,0.02402,0.03347,0,0,0.0*
1,1,0.01339,0.01201,-0.01004*
1,1,0.01339,-0.01201,-0.01004*
1,1,0.01339,-0.01201,0.01004*
1,1,0.01339,0.01201,0.01004*
%
%ADD62ROUNDEDRECTD62*%
G04:AMPARAMS|DCode=63|XSize=37.4mil|YSize=29.53mil|CornerRadius=5.91mil|HoleSize=0mil|Usage=FLASHONLY|Rotation=270.000|XOffset=0mil|YOffset=0mil|HoleType=Round|Shape=RoundedRectangle|*
%AMROUNDEDRECTD63*
21,1,0.03740,0.01772,0,0,270.0*
21,1,0.02559,0.02953,0,0,270.0*
1,1,0.01181,-0.00886,-0.01280*
1,1,0.01181,-0.00886,0.01280*
1,1,0.01181,0.00886,0.01280*
1,1,0.01181,0.00886,-0.01280*
%
%ADD63ROUNDEDRECTD63*%
G04:AMPARAMS|DCode=64|XSize=68.9mil|YSize=47.24mil|CornerRadius=9.45mil|HoleSize=0mil|Usage=FLASHONLY|Rotation=180.000|XOffset=0mil|YOffset=0mil|HoleType=Round|Shape=RoundedRectangle|*
%AMROUNDEDRECTD64*
21,1,0.06890,0.02835,0,0,180.0*
21,1,0.05000,0.04724,0,0,180.0*
1,1,0.01890,-0.02500,0.01417*
1,1,0.01890,0.02500,0.01417*
1,1,0.01890,0.02500,-0.01417*
1,1,0.01890,-0.02500,-0.01417*
%
%ADD64ROUNDEDRECTD64*%
G04:AMPARAMS|DCode=66|XSize=31.5mil|YSize=21.65mil|CornerRadius=5.41mil|HoleSize=0mil|Usage=FLASHONLY|Rotation=90.000|XOffset=0mil|YOffset=0mil|HoleType=Round|Shape=RoundedRectangle|*
%AMROUNDEDRECTD66*
21,1,0.03150,0.01083,0,0,90.0*
21,1,0.02067,0.02165,0,0,90.0*
1,1,0.01083,0.00541,0.01034*
1,1,0.01083,0.00541,-0.01034*
1,1,0.01083,-0.00541,-0.01034*
1,1,0.01083,-0.00541,0.01034*
%
%ADD66ROUNDEDRECTD66*%
G04:AMPARAMS|DCode=98|XSize=26mil|YSize=23mil|CornerRadius=4.6mil|HoleSize=0mil|Usage=FLASHONLY|Rotation=90.000|XOffset=0mil|YOffset=0mil|HoleType=Round|Shape=RoundedRectangle|*
%AMROUNDEDRECTD98*
21,1,0.02600,0.01380,0,0,90.0*
21,1,0.01680,0.02300,0,0,90.0*
1,1,0.00920,0.00690,0.00840*
1,1,0.00920,0.00690,-0.00840*
1,1,0.00920,-0.00690,-0.00840*
1,1,0.00920,-0.00690,0.00840*
%
%ADD98ROUNDEDRECTD98*%
G04:AMPARAMS|DCode=99|XSize=26mil|YSize=23mil|CornerRadius=4.6mil|HoleSize=0mil|Usage=FLASHONLY|Rotation=180.000|XOffset=0mil|YOffset=0mil|HoleType=Round|Shape=RoundedRectangle|*
%AMROUNDEDRECTD99*
21,1,0.02600,0.01380,0,0,180.0*
21,1,0.01680,0.02300,0,0,180.0*
1,1,0.00920,-0.00840,0.00690*
1,1,0.00920,0.00840,0.00690*
1,1,0.00920,0.00840,-0.00690*
1,1,0.00920,-0.00840,-0.00690*
%
%ADD99ROUNDEDRECTD99*%
%ADD100C,0.03937*%
%ADD101C,0.06000*%
G04:AMPARAMS|DCode=102|XSize=236.22mil|YSize=236.22mil|CornerRadius=23.62mil|HoleSize=0mil|Usage=FLASHONLY|Rotation=0.000|XOffset=0mil|YOffset=0mil|HoleType=Round|Shape=RoundedRectangle|*
%AMROUNDEDRECTD102*
21,1,0.23622,0.18898,0,0,0.0*
21,1,0.18898,0.23622,0,0,0.0*
1,1,0.04724,0.09449,-0.09449*
1,1,0.04724,-0.09449,-0.09449*
1,1,0.04724,-0.09449,0.09449*
1,1,0.04724,0.09449,0.09449*
%
%ADD102ROUNDEDRECTD102*%
G04:AMPARAMS|DCode=103|XSize=65mil|YSize=112.01mil|CornerRadius=13mil|HoleSize=0mil|Usage=FLASHONLY|Rotation=0.000|XOffset=0mil|YOffset=0mil|HoleType=Round|Shape=RoundedRectangle|*
%AMROUNDEDRECTD103*
21,1,0.06500,0.08601,0,0,0.0*
21,1,0.03900,0.11201,0,0,0.0*
1,1,0.02600,0.01950,-0.04300*
1,1,0.02600,-0.01950,-0.04300*
1,1,0.02600,-0.01950,0.04300*
1,1,0.02600,0.01950,0.04300*
%
%ADD103ROUNDEDRECTD103*%
%ADD106C,0.15748*%
%ADD107C,0.02600*%
D25*
X88268Y42913D02*
D03*
X92047D02*
D03*
X162126Y159449D02*
D03*
X158346D02*
D03*
X111339Y110630D02*
D03*
X107559D02*
D03*
X231575Y3937D02*
D03*
X235354D02*
D03*
X235354Y21654D02*
D03*
X231575D02*
D03*
X244016Y55512D02*
D03*
X240236D02*
D03*
X243937Y51575D02*
D03*
X240158D02*
D03*
X244803Y70472D02*
D03*
X241024D02*
D03*
X173307Y27953D02*
D03*
X177087D02*
D03*
X169764Y44094D02*
D03*
X173543D02*
D03*
X241811Y177953D02*
D03*
X245590D02*
D03*
X242598Y161024D02*
D03*
X246378D02*
D03*
X242598Y164961D02*
D03*
X246378D02*
D03*
X176693Y138189D02*
D03*
X172913D02*
D03*
X175512Y154724D02*
D03*
X171732D02*
D03*
X158740Y50000D02*
D03*
X162520D02*
D03*
X155590Y66142D02*
D03*
X159370D02*
D03*
X92047Y23228D02*
D03*
X88268D02*
D03*
X92047Y38976D02*
D03*
X88268D02*
D03*
X91654Y153543D02*
D03*
X87874D02*
D03*
X91732Y148819D02*
D03*
X87953D02*
D03*
X156378Y175591D02*
D03*
X160158D02*
D03*
X92441Y133465D02*
D03*
X88661D02*
D03*
X287829Y85480D02*
D03*
X291608D02*
D03*
X111732Y224016D02*
D03*
X107953D02*
D03*
X288268Y21260D02*
D03*
X292047D02*
D03*
X198504Y92126D02*
D03*
X202284D02*
D03*
D26*
X253051Y157480D02*
D03*
X249311D02*
D03*
X253051Y154462D02*
D03*
X249311D02*
D03*
X253051Y151444D02*
D03*
X249311D02*
D03*
X253051Y148425D02*
D03*
X249311D02*
D03*
X251083Y134252D02*
D03*
X247342D02*
D03*
X251083Y143701D02*
D03*
X247342D02*
D03*
X247342Y140551D02*
D03*
X251083D02*
D03*
X247342Y137402D02*
D03*
X251083D02*
D03*
X256466Y104724D02*
D03*
X260206D02*
D03*
X256466Y120866D02*
D03*
X260206D02*
D03*
X256466Y152362D02*
D03*
X260206D02*
D03*
X256466Y138976D02*
D03*
X260206D02*
D03*
X246949Y49213D02*
D03*
X250689D02*
D03*
X246949Y45669D02*
D03*
X250689D02*
D03*
X246949Y39370D02*
D03*
X250689D02*
D03*
X246949Y42520D02*
D03*
X250689D02*
D03*
X80610Y135039D02*
D03*
X76870D02*
D03*
X76870Y70079D02*
D03*
X80610D02*
D03*
Y14961D02*
D03*
X76870D02*
D03*
X80610Y28346D02*
D03*
X76870D02*
D03*
X80610Y154331D02*
D03*
X76870D02*
D03*
Y207087D02*
D03*
X80610D02*
D03*
X90059Y63779D02*
D03*
X86319D02*
D03*
Y60630D02*
D03*
X90059D02*
D03*
X86319Y57480D02*
D03*
X90059D02*
D03*
X81004Y60236D02*
D03*
X77264D02*
D03*
X80610Y220866D02*
D03*
X76870D02*
D03*
X80610Y188189D02*
D03*
X76870D02*
D03*
X80610Y174409D02*
D03*
X76870D02*
D03*
X81004Y47638D02*
D03*
X77264D02*
D03*
X252658Y35039D02*
D03*
X248917D02*
D03*
X252658Y28740D02*
D03*
X248917D02*
D03*
X160138Y167717D02*
D03*
X156398D02*
D03*
X86319Y179921D02*
D03*
X90059D02*
D03*
X86319Y176772D02*
D03*
X90059D02*
D03*
X86319Y183071D02*
D03*
X90059D02*
D03*
X256398Y63779D02*
D03*
X260138D02*
D03*
X252658Y25591D02*
D03*
X248917D02*
D03*
X88583Y108661D02*
D03*
X92323D02*
D03*
X88583Y101575D02*
D03*
X92323D02*
D03*
X129429Y104331D02*
D03*
X125689D02*
D03*
X88583Y94488D02*
D03*
X92323D02*
D03*
X169390Y66142D02*
D03*
X173130D02*
D03*
X169331Y59419D02*
D03*
X173071D02*
D03*
X169331Y52495D02*
D03*
X173071D02*
D03*
X184350Y83465D02*
D03*
X188091D02*
D03*
X184350Y91339D02*
D03*
X188091D02*
D03*
X166437Y42520D02*
D03*
X162697D02*
D03*
X166437Y35433D02*
D03*
X162697D02*
D03*
X166535Y28346D02*
D03*
X162795D02*
D03*
X148327Y12143D02*
D03*
X144587D02*
D03*
X148327Y5118D02*
D03*
X144587D02*
D03*
X76870Y121653D02*
D03*
X80610D02*
D03*
X76870Y167717D02*
D03*
X80610D02*
D03*
X86319Y170473D02*
D03*
X90059D02*
D03*
X86319Y173622D02*
D03*
X90059D02*
D03*
X86319Y167323D02*
D03*
X90059D02*
D03*
X92888Y225984D02*
D03*
X89148D02*
D03*
X92888Y218110D02*
D03*
X89148D02*
D03*
X92888Y205118D02*
D03*
X89148D02*
D03*
X166043Y137795D02*
D03*
X162303D02*
D03*
X166043Y144882D02*
D03*
X162303D02*
D03*
X166043Y151969D02*
D03*
X162303D02*
D03*
X156398Y179134D02*
D03*
X160138D02*
D03*
X126083Y218898D02*
D03*
X129823D02*
D03*
X176673Y134252D02*
D03*
X172933D02*
D03*
X172539Y146063D02*
D03*
X176279D02*
D03*
X168996Y162205D02*
D03*
X172736D02*
D03*
X168996Y169291D02*
D03*
X172736D02*
D03*
X168987Y176212D02*
D03*
X172727D02*
D03*
X184744Y192126D02*
D03*
X188484D02*
D03*
X184744Y199213D02*
D03*
X188484D02*
D03*
X148721Y114961D02*
D03*
X144980D02*
D03*
X148721Y122047D02*
D03*
X144980D02*
D03*
X260925Y28346D02*
D03*
X257185D02*
D03*
X261051Y44754D02*
D03*
X257311D02*
D03*
X252658Y31890D02*
D03*
X248917D02*
D03*
X173327Y24803D02*
D03*
X177067D02*
D03*
X271555Y8661D02*
D03*
X267815D02*
D03*
X260138Y78740D02*
D03*
X256398D02*
D03*
X271555Y15748D02*
D03*
X267815D02*
D03*
X271555Y22441D02*
D03*
X267815D02*
D03*
X231594Y7480D02*
D03*
X235335D02*
D03*
X155610Y69685D02*
D03*
X159350D02*
D03*
X80610Y82284D02*
D03*
X76870D02*
D03*
X80610Y101181D02*
D03*
X76870D02*
D03*
X80610Y114891D02*
D03*
X76870D02*
D03*
X216634Y107874D02*
D03*
X220374D02*
D03*
X216634Y100787D02*
D03*
X220374D02*
D03*
X216634Y93701D02*
D03*
X220374D02*
D03*
X184547Y98819D02*
D03*
X180807D02*
D03*
X156004Y57874D02*
D03*
X159744D02*
D03*
X173721Y36220D02*
D03*
X177461D02*
D03*
D27*
X244488Y132185D02*
D03*
Y128445D02*
D03*
X241339D02*
D03*
Y132185D02*
D03*
X203543Y11713D02*
D03*
Y7972D02*
D03*
X243307Y24508D02*
D03*
Y28248D02*
D03*
X158189Y132579D02*
D03*
Y128839D02*
D03*
X161549Y132579D02*
D03*
Y128839D02*
D03*
X164908Y132579D02*
D03*
Y128839D02*
D03*
X106693Y191437D02*
D03*
Y195177D02*
D03*
X116142D02*
D03*
Y191437D02*
D03*
X112598Y195177D02*
D03*
Y191437D02*
D03*
X133858Y191535D02*
D03*
Y195276D02*
D03*
X136898Y191535D02*
D03*
Y195276D02*
D03*
X139937Y191535D02*
D03*
Y195276D02*
D03*
X142977Y191535D02*
D03*
Y195276D02*
D03*
X146017Y191535D02*
D03*
Y195276D02*
D03*
X240158Y24508D02*
D03*
Y28248D02*
D03*
X103543Y191437D02*
D03*
Y195177D02*
D03*
X190157Y118209D02*
D03*
Y121949D02*
D03*
X193307Y118209D02*
D03*
Y121949D02*
D03*
X196457Y118209D02*
D03*
Y121949D02*
D03*
X199606Y118209D02*
D03*
Y121949D02*
D03*
X220079Y118209D02*
D03*
Y121949D02*
D03*
X216929D02*
D03*
Y118209D02*
D03*
X187008D02*
D03*
Y121949D02*
D03*
X172401Y181991D02*
D03*
Y185731D02*
D03*
X169251Y181991D02*
D03*
Y185731D02*
D03*
X175550Y185731D02*
D03*
Y181991D02*
D03*
X193701Y194783D02*
D03*
Y191043D02*
D03*
X203150D02*
D03*
Y194783D02*
D03*
X196850D02*
D03*
Y191043D02*
D03*
X209449Y194783D02*
D03*
Y191043D02*
D03*
X206299Y194783D02*
D03*
Y191043D02*
D03*
X200000D02*
D03*
Y194783D02*
D03*
X226772Y118209D02*
D03*
Y121949D02*
D03*
X230315D02*
D03*
Y118209D02*
D03*
X124332Y114986D02*
D03*
Y118726D02*
D03*
X130662Y118726D02*
D03*
Y114986D02*
D03*
X133827Y118726D02*
D03*
Y114986D02*
D03*
X127497Y114986D02*
D03*
Y118726D02*
D03*
X140157Y114986D02*
D03*
Y118726D02*
D03*
X136993Y114986D02*
D03*
Y118726D02*
D03*
X174016Y74902D02*
D03*
Y78642D02*
D03*
X218504Y11713D02*
D03*
Y7972D02*
D03*
X196142Y86221D02*
D03*
Y82480D02*
D03*
X199370D02*
D03*
Y86221D02*
D03*
X224803Y7972D02*
D03*
Y11713D02*
D03*
X202598Y82480D02*
D03*
Y86221D02*
D03*
X205827D02*
D03*
Y82480D02*
D03*
X209055Y86221D02*
D03*
Y82480D02*
D03*
X192913Y86221D02*
D03*
Y82480D02*
D03*
X166929Y78642D02*
D03*
Y74902D02*
D03*
X194095Y7972D02*
D03*
Y11713D02*
D03*
X190945Y7972D02*
D03*
Y11713D02*
D03*
X170472Y78642D02*
D03*
Y74902D02*
D03*
X187795Y7972D02*
D03*
Y11713D02*
D03*
X200394Y7972D02*
D03*
Y11713D02*
D03*
X197244Y7972D02*
D03*
Y11713D02*
D03*
X106299Y85335D02*
D03*
Y81595D02*
D03*
X124016Y11319D02*
D03*
Y7579D02*
D03*
X127165Y11319D02*
D03*
Y7579D02*
D03*
X136614Y11319D02*
D03*
Y7579D02*
D03*
X139764Y11319D02*
D03*
Y7579D02*
D03*
X163779Y23917D02*
D03*
Y20177D02*
D03*
X147207Y81535D02*
D03*
Y85275D02*
D03*
X140750Y81535D02*
D03*
Y85275D02*
D03*
X137522Y81535D02*
D03*
Y85275D02*
D03*
X134294Y81535D02*
D03*
Y85275D02*
D03*
X160236Y23917D02*
D03*
Y20177D02*
D03*
X143979Y81535D02*
D03*
Y85275D02*
D03*
X156693Y20177D02*
D03*
Y23917D02*
D03*
X133465Y7579D02*
D03*
Y11319D02*
D03*
X130315Y7579D02*
D03*
Y11319D02*
D03*
X87402Y75886D02*
D03*
Y72146D02*
D03*
X116929Y85335D02*
D03*
Y81595D02*
D03*
X227953Y11713D02*
D03*
Y7972D02*
D03*
X103150Y81595D02*
D03*
Y85335D02*
D03*
X93701Y72146D02*
D03*
Y75886D02*
D03*
X90551Y72146D02*
D03*
Y75886D02*
D03*
X113779Y81595D02*
D03*
Y85335D02*
D03*
X221654Y7972D02*
D03*
Y11713D02*
D03*
D29*
X253937Y42835D02*
D03*
Y39055D02*
D03*
X18898Y212283D02*
D03*
Y216063D02*
D03*
X18504Y25905D02*
D03*
Y22126D02*
D03*
X212992Y7953D02*
D03*
Y11732D02*
D03*
X209055Y7953D02*
D03*
Y11732D02*
D03*
X208661Y121968D02*
D03*
Y118189D02*
D03*
X212205Y121968D02*
D03*
Y118189D02*
D03*
X233858Y121968D02*
D03*
Y118189D02*
D03*
X125984Y81575D02*
D03*
Y85354D02*
D03*
X122441Y81575D02*
D03*
Y85354D02*
D03*
X100000D02*
D03*
Y81575D02*
D03*
X125591Y191417D02*
D03*
Y195197D02*
D03*
X121653Y191417D02*
D03*
Y195197D02*
D03*
X100000Y191417D02*
D03*
Y195197D02*
D03*
D30*
X301004Y71437D02*
D03*
Y66437D02*
D03*
Y61437D02*
D03*
Y56437D02*
D03*
Y51437D02*
D03*
Y46437D02*
D03*
Y41437D02*
D03*
Y36437D02*
D03*
X267500D02*
D03*
Y41437D02*
D03*
Y46437D02*
D03*
Y51437D02*
D03*
Y56437D02*
D03*
Y61437D02*
D03*
Y66437D02*
D03*
Y71437D02*
D03*
X70531Y21214D02*
D03*
Y26214D02*
D03*
Y31214D02*
D03*
Y36214D02*
D03*
Y41214D02*
D03*
Y46214D02*
D03*
Y51214D02*
D03*
Y56214D02*
D03*
X37028D02*
D03*
Y51214D02*
D03*
Y46214D02*
D03*
Y41214D02*
D03*
Y36214D02*
D03*
Y31214D02*
D03*
Y26214D02*
D03*
Y21214D02*
D03*
X70531Y74320D02*
D03*
Y79320D02*
D03*
Y84320D02*
D03*
Y89320D02*
D03*
Y94320D02*
D03*
Y99320D02*
D03*
Y104320D02*
D03*
Y109320D02*
D03*
X37028D02*
D03*
Y104320D02*
D03*
Y99320D02*
D03*
Y94320D02*
D03*
Y89320D02*
D03*
Y84320D02*
D03*
Y79320D02*
D03*
Y74320D02*
D03*
X267500Y146634D02*
D03*
Y141634D02*
D03*
Y136634D02*
D03*
Y131634D02*
D03*
Y126634D02*
D03*
Y121634D02*
D03*
Y116634D02*
D03*
Y111634D02*
D03*
X301004D02*
D03*
Y116634D02*
D03*
Y121634D02*
D03*
Y126634D02*
D03*
Y131634D02*
D03*
Y136634D02*
D03*
Y141634D02*
D03*
Y146634D02*
D03*
X70531Y127426D02*
D03*
Y132426D02*
D03*
Y137426D02*
D03*
Y142426D02*
D03*
Y147426D02*
D03*
Y152426D02*
D03*
Y157426D02*
D03*
Y162426D02*
D03*
X37028D02*
D03*
Y157426D02*
D03*
Y152426D02*
D03*
Y147426D02*
D03*
Y142426D02*
D03*
Y137426D02*
D03*
Y132426D02*
D03*
Y127426D02*
D03*
X70531Y180531D02*
D03*
Y185531D02*
D03*
Y190531D02*
D03*
Y195531D02*
D03*
Y200531D02*
D03*
Y205531D02*
D03*
Y210531D02*
D03*
Y215531D02*
D03*
X37028D02*
D03*
Y210531D02*
D03*
Y205531D02*
D03*
Y200531D02*
D03*
Y195531D02*
D03*
Y190531D02*
D03*
Y185531D02*
D03*
Y180531D02*
D03*
D31*
X22638Y210825D02*
D03*
X30118Y26183D02*
D03*
D32*
X22638Y219096D02*
D03*
X26378D02*
D03*
X30118D02*
D03*
Y210825D02*
D03*
X26378D02*
D03*
X30118Y17911D02*
D03*
X26378D02*
D03*
X22638D02*
D03*
Y26183D02*
D03*
X26378D02*
D03*
D33*
X99213Y218937D02*
D03*
Y213937D02*
D03*
Y208937D02*
D03*
Y203937D02*
D03*
X121260D02*
D03*
Y208937D02*
D03*
Y213937D02*
D03*
Y218937D02*
D03*
X120472Y105925D02*
D03*
Y100925D02*
D03*
Y95925D02*
D03*
Y90925D02*
D03*
X98425D02*
D03*
Y95925D02*
D03*
Y100925D02*
D03*
Y105925D02*
D03*
X211024Y96969D02*
D03*
Y101969D02*
D03*
Y106968D02*
D03*
Y111969D02*
D03*
X188976D02*
D03*
Y106968D02*
D03*
Y101969D02*
D03*
Y96969D02*
D03*
X262205Y5098D02*
D03*
Y10098D02*
D03*
Y15098D02*
D03*
Y20098D02*
D03*
X240158D02*
D03*
Y15098D02*
D03*
Y10098D02*
D03*
Y5098D02*
D03*
D34*
X110236Y211437D02*
D03*
X109449Y98425D02*
D03*
X200000Y104469D02*
D03*
X251181Y12598D02*
D03*
D37*
X142913Y214862D02*
D03*
X147835D02*
D03*
X152756D02*
D03*
X157677D02*
D03*
X162598D02*
D03*
D38*
X169882Y228051D02*
D03*
X135630D02*
D03*
D39*
X10630Y70189D02*
D03*
Y76059D02*
D03*
Y115232D02*
D03*
X325984Y148327D02*
D03*
Y109153D02*
D03*
X10630Y31016D02*
D03*
Y205315D02*
D03*
Y166142D02*
D03*
Y160273D02*
D03*
Y121100D02*
D03*
X325984Y35138D02*
D03*
Y74311D02*
D03*
D40*
X286022Y13386D02*
D03*
Y9646D02*
D03*
X294293D02*
D03*
Y13386D02*
D03*
Y17126D02*
D03*
X293854Y97488D02*
D03*
Y93748D02*
D03*
Y90008D02*
D03*
X285583D02*
D03*
Y93748D02*
D03*
D41*
X254961Y212795D02*
D03*
X237953D02*
D03*
Y214764D02*
D03*
Y216732D02*
D03*
Y218701D02*
D03*
Y220669D02*
D03*
Y222638D02*
D03*
Y224606D02*
D03*
Y226575D02*
D03*
X254961D02*
D03*
Y224606D02*
D03*
Y222638D02*
D03*
Y220669D02*
D03*
Y218701D02*
D03*
Y216732D02*
D03*
Y214764D02*
D03*
D42*
X328346Y182087D02*
D03*
Y188779D02*
D03*
X174409Y109646D02*
D03*
Y102953D02*
D03*
D43*
X328346Y178347D02*
D03*
Y172047D02*
D03*
X180709Y91732D02*
D03*
Y85433D02*
D03*
X151969Y10236D02*
D03*
Y3937D02*
D03*
X180709Y73228D02*
D03*
Y79528D02*
D03*
X151969Y15748D02*
D03*
Y22047D02*
D03*
X153150Y131890D02*
D03*
Y125591D02*
D03*
Y112205D02*
D03*
Y118504D02*
D03*
X180709Y188583D02*
D03*
Y182283D02*
D03*
Y195669D02*
D03*
Y201969D02*
D03*
X231102Y225197D02*
D03*
Y218898D02*
D03*
D44*
X315158Y164961D02*
D03*
Y171653D02*
D03*
Y178347D02*
D03*
Y185039D02*
D03*
Y191732D02*
D03*
D45*
X274213Y178347D02*
D03*
D46*
X163976Y102953D02*
D03*
X166535D02*
D03*
X169095D02*
D03*
Y110433D02*
D03*
X163976D02*
D03*
D47*
X159843Y87205D02*
D03*
D48*
X166535Y93701D02*
D03*
X153150D02*
D03*
D49*
X200000Y218898D02*
D03*
D50*
X184449Y215020D02*
D03*
Y222776D02*
D03*
D51*
X143012Y104331D02*
D03*
X153051Y108071D02*
D03*
Y100591D02*
D03*
D52*
X23819Y107949D02*
D03*
Y103028D02*
D03*
Y83342D02*
D03*
Y88264D02*
D03*
Y93185D02*
D03*
Y98106D02*
D03*
X312795Y116437D02*
D03*
Y121358D02*
D03*
Y141043D02*
D03*
Y136122D02*
D03*
Y131201D02*
D03*
Y126279D02*
D03*
X23819Y62906D02*
D03*
Y57984D02*
D03*
Y38299D02*
D03*
Y43220D02*
D03*
Y48142D02*
D03*
Y53063D02*
D03*
Y188189D02*
D03*
Y183268D02*
D03*
Y178346D02*
D03*
Y173425D02*
D03*
Y193110D02*
D03*
Y198031D02*
D03*
Y143147D02*
D03*
Y138226D02*
D03*
Y133304D02*
D03*
Y128383D02*
D03*
Y148068D02*
D03*
Y152989D02*
D03*
X312795Y52264D02*
D03*
Y57185D02*
D03*
Y62106D02*
D03*
Y67028D02*
D03*
Y47343D02*
D03*
Y42421D02*
D03*
D53*
X33976Y8150D02*
D03*
Y11535D02*
D03*
X28228Y8150D02*
D03*
Y11535D02*
D03*
X306490Y92173D02*
D03*
Y95559D02*
D03*
X300742Y92173D02*
D03*
Y95559D02*
D03*
X33976Y227047D02*
D03*
Y230433D02*
D03*
X28228Y227047D02*
D03*
Y230433D02*
D03*
X307205Y11693D02*
D03*
Y15079D02*
D03*
X301457Y11693D02*
D03*
Y15079D02*
D03*
D54*
X247244Y74803D02*
D03*
X240945D02*
D03*
X240551Y184646D02*
D03*
X246850D02*
D03*
X93307Y19291D02*
D03*
X87008D02*
D03*
X93701Y128740D02*
D03*
X87402D02*
D03*
X284646Y209449D02*
D03*
X278346D02*
D03*
X284646Y214173D02*
D03*
X278346D02*
D03*
X295276Y214567D02*
D03*
X301575D02*
D03*
X262992Y218898D02*
D03*
X269291D02*
D03*
X284646Y204724D02*
D03*
X278346D02*
D03*
D55*
X93015Y13780D02*
D03*
X87300D02*
D03*
X93409Y122835D02*
D03*
X87693D02*
D03*
X240843Y80315D02*
D03*
X246559D02*
D03*
X290056Y221260D02*
D03*
X295771D02*
D03*
X246559Y190551D02*
D03*
X240843D02*
D03*
D56*
X257087Y208268D02*
D03*
X263386D02*
D03*
X109055Y115748D02*
D03*
X102756D02*
D03*
X224409Y199606D02*
D03*
X230709D02*
D03*
X108661Y4724D02*
D03*
X102362D02*
D03*
X223622Y89764D02*
D03*
X229921D02*
D03*
X266929Y213779D02*
D03*
X260630D02*
D03*
X295276Y209842D02*
D03*
X301575D02*
D03*
X176378Y117323D02*
D03*
X170079D02*
D03*
D57*
X285583Y97488D02*
D03*
X286022Y17126D02*
D03*
D58*
X97685Y28543D02*
D03*
Y30512D02*
D03*
Y32480D02*
D03*
Y34449D02*
D03*
Y36417D02*
D03*
Y38386D02*
D03*
Y40354D02*
D03*
Y42323D02*
D03*
Y44291D02*
D03*
Y46260D02*
D03*
Y48228D02*
D03*
Y50197D02*
D03*
Y52165D02*
D03*
Y54134D02*
D03*
Y56102D02*
D03*
Y58071D02*
D03*
Y60039D02*
D03*
Y62008D02*
D03*
Y63976D02*
D03*
Y65945D02*
D03*
X150740D02*
D03*
Y63976D02*
D03*
Y62008D02*
D03*
Y60039D02*
D03*
Y58071D02*
D03*
Y56102D02*
D03*
Y54134D02*
D03*
Y52165D02*
D03*
Y50197D02*
D03*
Y48228D02*
D03*
Y46260D02*
D03*
Y44291D02*
D03*
Y42323D02*
D03*
Y40354D02*
D03*
Y38386D02*
D03*
Y36417D02*
D03*
Y34449D02*
D03*
Y32480D02*
D03*
Y30512D02*
D03*
Y28543D02*
D03*
X182331Y65945D02*
D03*
Y63976D02*
D03*
Y62008D02*
D03*
Y60039D02*
D03*
Y58071D02*
D03*
Y56102D02*
D03*
Y54134D02*
D03*
Y52165D02*
D03*
Y50197D02*
D03*
Y48228D02*
D03*
Y46260D02*
D03*
Y44291D02*
D03*
Y42323D02*
D03*
Y40354D02*
D03*
Y38386D02*
D03*
Y36417D02*
D03*
Y34449D02*
D03*
Y32480D02*
D03*
Y30512D02*
D03*
Y28543D02*
D03*
X235386D02*
D03*
Y30512D02*
D03*
Y32480D02*
D03*
Y34449D02*
D03*
Y36417D02*
D03*
Y38386D02*
D03*
Y40354D02*
D03*
Y42323D02*
D03*
Y44291D02*
D03*
Y46260D02*
D03*
Y48228D02*
D03*
Y50197D02*
D03*
Y52165D02*
D03*
Y54134D02*
D03*
Y56102D02*
D03*
Y58071D02*
D03*
Y60039D02*
D03*
Y62008D02*
D03*
Y63976D02*
D03*
Y65945D02*
D03*
X183071Y175787D02*
D03*
Y173819D02*
D03*
Y171850D02*
D03*
Y169882D02*
D03*
Y167913D02*
D03*
Y165945D02*
D03*
Y163976D02*
D03*
Y162008D02*
D03*
Y160039D02*
D03*
Y158071D02*
D03*
Y156102D02*
D03*
Y154134D02*
D03*
Y152165D02*
D03*
Y150197D02*
D03*
Y148228D02*
D03*
Y146260D02*
D03*
Y144291D02*
D03*
Y142323D02*
D03*
Y140354D02*
D03*
Y138386D02*
D03*
X236126D02*
D03*
Y140354D02*
D03*
Y142323D02*
D03*
Y144291D02*
D03*
Y146260D02*
D03*
Y148228D02*
D03*
Y150197D02*
D03*
Y152165D02*
D03*
Y154134D02*
D03*
Y156102D02*
D03*
Y158071D02*
D03*
Y160039D02*
D03*
Y162008D02*
D03*
Y163976D02*
D03*
Y165945D02*
D03*
Y167913D02*
D03*
Y169882D02*
D03*
Y171850D02*
D03*
Y173819D02*
D03*
Y175787D02*
D03*
X97685Y138386D02*
D03*
Y140354D02*
D03*
Y142323D02*
D03*
Y144291D02*
D03*
Y146260D02*
D03*
Y148228D02*
D03*
Y150197D02*
D03*
Y152165D02*
D03*
Y154134D02*
D03*
Y156102D02*
D03*
Y158071D02*
D03*
Y160039D02*
D03*
Y162008D02*
D03*
Y163976D02*
D03*
Y165945D02*
D03*
Y167913D02*
D03*
Y169882D02*
D03*
Y171850D02*
D03*
Y173819D02*
D03*
Y175787D02*
D03*
X150740D02*
D03*
Y173819D02*
D03*
Y171850D02*
D03*
Y169882D02*
D03*
Y167913D02*
D03*
Y165945D02*
D03*
Y163976D02*
D03*
Y162008D02*
D03*
Y160039D02*
D03*
Y158071D02*
D03*
Y156102D02*
D03*
Y154134D02*
D03*
Y152165D02*
D03*
Y150197D02*
D03*
Y148228D02*
D03*
Y146260D02*
D03*
Y144291D02*
D03*
Y142323D02*
D03*
Y140354D02*
D03*
Y138386D02*
D03*
D59*
X105512Y73772D02*
D03*
X107480D02*
D03*
X109449D02*
D03*
X111417D02*
D03*
X113386D02*
D03*
X115354D02*
D03*
X117323D02*
D03*
X119291D02*
D03*
X121260D02*
D03*
X123228D02*
D03*
X125197D02*
D03*
X127165D02*
D03*
X129134D02*
D03*
X131102D02*
D03*
X133071D02*
D03*
X135039D02*
D03*
X137008D02*
D03*
X138976D02*
D03*
X140945D02*
D03*
X142913D02*
D03*
Y20717D02*
D03*
X140945D02*
D03*
X138976D02*
D03*
X137008D02*
D03*
X135039D02*
D03*
X133071D02*
D03*
X131102D02*
D03*
X129134D02*
D03*
X127165D02*
D03*
X125197D02*
D03*
X123228D02*
D03*
X121260D02*
D03*
X119291D02*
D03*
X117323D02*
D03*
X115354D02*
D03*
X113386D02*
D03*
X111417D02*
D03*
X109449D02*
D03*
X107480D02*
D03*
X105512D02*
D03*
X227559Y73772D02*
D03*
X225590D02*
D03*
X223622D02*
D03*
X221654D02*
D03*
X219685D02*
D03*
X217717D02*
D03*
X215748D02*
D03*
X213779D02*
D03*
X211811D02*
D03*
X209842D02*
D03*
X207874D02*
D03*
X205906D02*
D03*
X203937D02*
D03*
X201969D02*
D03*
X200000D02*
D03*
X198031D02*
D03*
X196063D02*
D03*
X194095D02*
D03*
X192126D02*
D03*
X190157D02*
D03*
Y20717D02*
D03*
X192126D02*
D03*
X194095D02*
D03*
X196063D02*
D03*
X198031D02*
D03*
X200000D02*
D03*
X201969D02*
D03*
X203937D02*
D03*
X205906D02*
D03*
X207874D02*
D03*
X209842D02*
D03*
X211811D02*
D03*
X213779D02*
D03*
X215748D02*
D03*
X217717D02*
D03*
X219685D02*
D03*
X221654D02*
D03*
X223622D02*
D03*
X225590D02*
D03*
X227559D02*
D03*
X228299Y183614D02*
D03*
X226331D02*
D03*
X224362D02*
D03*
X222394D02*
D03*
X220425D02*
D03*
X218457D02*
D03*
X216488D02*
D03*
X214520D02*
D03*
X212551D02*
D03*
X210583D02*
D03*
X208614D02*
D03*
X206646D02*
D03*
X204677D02*
D03*
X202709D02*
D03*
X200740D02*
D03*
X198772D02*
D03*
X196803D02*
D03*
X194835D02*
D03*
X192866D02*
D03*
X190898D02*
D03*
Y130559D02*
D03*
X192866D02*
D03*
X194835D02*
D03*
X196803D02*
D03*
X198772D02*
D03*
X200740D02*
D03*
X202709D02*
D03*
X204677D02*
D03*
X206646D02*
D03*
X208614D02*
D03*
X210583D02*
D03*
X212551D02*
D03*
X214520D02*
D03*
X216488D02*
D03*
X218457D02*
D03*
X220425D02*
D03*
X222394D02*
D03*
X224362D02*
D03*
X226331D02*
D03*
X228299D02*
D03*
X105512Y183614D02*
D03*
X107480D02*
D03*
X109449D02*
D03*
X111417D02*
D03*
X113386D02*
D03*
X115354D02*
D03*
X117323D02*
D03*
X119291D02*
D03*
X121260D02*
D03*
X123228D02*
D03*
X125197D02*
D03*
X127165D02*
D03*
X129134D02*
D03*
X131102D02*
D03*
X133071D02*
D03*
X135039D02*
D03*
X137008D02*
D03*
X138976D02*
D03*
X140945D02*
D03*
X142913D02*
D03*
Y130559D02*
D03*
X140945D02*
D03*
X138976D02*
D03*
X137008D02*
D03*
X135039D02*
D03*
X133071D02*
D03*
X131102D02*
D03*
X129134D02*
D03*
X127165D02*
D03*
X125197D02*
D03*
X123228D02*
D03*
X121260D02*
D03*
X119291D02*
D03*
X117323D02*
D03*
X115354D02*
D03*
X113386D02*
D03*
X111417D02*
D03*
X109449D02*
D03*
X107480D02*
D03*
X105512D02*
D03*
D60*
X108563Y119685D02*
D03*
X103248D02*
D03*
Y123622D02*
D03*
X108563D02*
D03*
X224902Y194488D02*
D03*
X230217D02*
D03*
Y190551D02*
D03*
X224902D02*
D03*
X224114Y84646D02*
D03*
X229429D02*
D03*
Y80709D02*
D03*
X224114D02*
D03*
X108465Y8661D02*
D03*
X103150D02*
D03*
Y12598D02*
D03*
X108465D02*
D03*
D61*
X275315Y224803D02*
D03*
X284646D02*
D03*
D62*
X262992Y223228D02*
D03*
Y229528D02*
D03*
X221654Y225197D02*
D03*
Y218898D02*
D03*
X226378Y225197D02*
D03*
Y218898D02*
D03*
X157874Y109401D02*
D03*
Y103102D02*
D03*
D63*
X295269Y204680D02*
D03*
X288576D02*
D03*
D64*
X214961Y213189D02*
D03*
Y224606D02*
D03*
D66*
X254528Y134646D02*
D03*
X258268D02*
D03*
X262008D02*
D03*
Y125197D02*
D03*
X258268D02*
D03*
X254528D02*
D03*
X254134Y59055D02*
D03*
X257874D02*
D03*
X261614D02*
D03*
Y49606D02*
D03*
X257874D02*
D03*
X254134D02*
D03*
X75787Y192913D02*
D03*
X79527D02*
D03*
X83268D02*
D03*
Y202362D02*
D03*
X79527D02*
D03*
X75787D02*
D03*
X76181Y140157D02*
D03*
X79921D02*
D03*
X83661D02*
D03*
Y149606D02*
D03*
X79921D02*
D03*
X76181D02*
D03*
Y96457D02*
D03*
X79921D02*
D03*
X83661D02*
D03*
Y87008D02*
D03*
X79921D02*
D03*
X76181D02*
D03*
Y43307D02*
D03*
X79921D02*
D03*
X83661D02*
D03*
Y33858D02*
D03*
X79921D02*
D03*
X76181D02*
D03*
D98*
X260236Y108661D02*
D03*
X256436D02*
D03*
X260236Y117323D02*
D03*
X256436D02*
D03*
X260236Y149213D02*
D03*
X256436D02*
D03*
X260236Y142126D02*
D03*
X256436D02*
D03*
X76840Y177559D02*
D03*
X80640D02*
D03*
Y73228D02*
D03*
X76840D02*
D03*
Y18110D02*
D03*
X80640D02*
D03*
X76772Y25197D02*
D03*
X80572D02*
D03*
X76840Y210236D02*
D03*
X80640D02*
D03*
X180777Y111811D02*
D03*
X184577D02*
D03*
X81102Y56693D02*
D03*
X77302D02*
D03*
X80640Y217323D02*
D03*
X76840D02*
D03*
Y185039D02*
D03*
X80640D02*
D03*
X81034Y50787D02*
D03*
X77234D02*
D03*
X235407Y14648D02*
D03*
X231607D02*
D03*
X235433Y18110D02*
D03*
X231633D02*
D03*
X271585Y5118D02*
D03*
X267785D02*
D03*
X92353Y105118D02*
D03*
X88553D02*
D03*
X129459Y96063D02*
D03*
X125659D02*
D03*
X129459Y90945D02*
D03*
X125659D02*
D03*
Y100787D02*
D03*
X129459D02*
D03*
X92353Y90945D02*
D03*
X88553D02*
D03*
X92353Y98032D02*
D03*
X88553D02*
D03*
X173033Y55992D02*
D03*
X169233D02*
D03*
X173101Y49183D02*
D03*
X169301D02*
D03*
X302779Y99653D02*
D03*
X306579D02*
D03*
X302779Y87842D02*
D03*
X306579D02*
D03*
X80640Y131890D02*
D03*
X76840D02*
D03*
X80640Y124971D02*
D03*
X76840D02*
D03*
X80640Y164567D02*
D03*
X76840D02*
D03*
Y157480D02*
D03*
X80640D02*
D03*
X89118Y209449D02*
D03*
X92918D02*
D03*
X89118Y214173D02*
D03*
X92918D02*
D03*
X89118Y222047D02*
D03*
X92918D02*
D03*
X166073Y141339D02*
D03*
X162273D02*
D03*
X166005Y148425D02*
D03*
X162205D02*
D03*
X166073Y155512D02*
D03*
X162273D02*
D03*
X126053Y204331D02*
D03*
X129853D02*
D03*
X126053Y209449D02*
D03*
X129853D02*
D03*
Y214567D02*
D03*
X126053D02*
D03*
X172766Y158661D02*
D03*
X168966D02*
D03*
X172766Y165748D02*
D03*
X168966D02*
D03*
X172766Y172835D02*
D03*
X168966D02*
D03*
X188514Y188583D02*
D03*
X184714D02*
D03*
X188514Y195669D02*
D03*
X184714D02*
D03*
X144950Y118504D02*
D03*
X148750D02*
D03*
Y125591D02*
D03*
X144950D02*
D03*
X257224Y41339D02*
D03*
X261024D02*
D03*
X257155Y31890D02*
D03*
X260955D02*
D03*
X256311Y75364D02*
D03*
X260111D02*
D03*
X256368Y66929D02*
D03*
X260168D02*
D03*
X235365Y11024D02*
D03*
X231565D02*
D03*
X267677Y19124D02*
D03*
X271477D02*
D03*
X267677Y12057D02*
D03*
X271477D02*
D03*
X302037Y19291D02*
D03*
X305837D02*
D03*
X302037Y7087D02*
D03*
X305837D02*
D03*
X239901Y209055D02*
D03*
X243701D02*
D03*
X249430Y209034D02*
D03*
X253230D02*
D03*
X76840Y78740D02*
D03*
X80640D02*
D03*
X76840Y104724D02*
D03*
X80640D02*
D03*
X76840Y111741D02*
D03*
X80640D02*
D03*
X184577Y107087D02*
D03*
X180777D02*
D03*
X220404Y111417D02*
D03*
X216604D02*
D03*
X220404Y104331D02*
D03*
X216604D02*
D03*
X220404Y97244D02*
D03*
X216604D02*
D03*
X180777Y102362D02*
D03*
X184577D02*
D03*
X144557Y8661D02*
D03*
X148357D02*
D03*
X144557Y15748D02*
D03*
X148357D02*
D03*
X162598Y31890D02*
D03*
X166398D02*
D03*
X162598Y38976D02*
D03*
X166398D02*
D03*
X162667Y46063D02*
D03*
X166467D02*
D03*
X169301Y62963D02*
D03*
X173101D02*
D03*
X184320Y87402D02*
D03*
X188120D02*
D03*
X184320Y79528D02*
D03*
X188120D02*
D03*
D99*
X149936Y191185D02*
D03*
Y194985D02*
D03*
X212598Y82450D02*
D03*
Y86250D02*
D03*
X279876Y99191D02*
D03*
Y95391D02*
D03*
Y88698D02*
D03*
Y92498D02*
D03*
X98032Y123554D02*
D03*
Y119754D02*
D03*
X183465Y118179D02*
D03*
Y121979D02*
D03*
X212992Y194882D02*
D03*
Y191082D02*
D03*
X220472Y194420D02*
D03*
Y190620D02*
D03*
X234646D02*
D03*
Y194420D02*
D03*
X120866Y115029D02*
D03*
Y118829D02*
D03*
X112992Y119754D02*
D03*
Y123554D02*
D03*
X234252Y80777D02*
D03*
Y84577D02*
D03*
X219685D02*
D03*
Y80777D02*
D03*
X280315Y18435D02*
D03*
Y14635D02*
D03*
Y7942D02*
D03*
Y11743D02*
D03*
X266929Y205187D02*
D03*
Y208987D02*
D03*
X322835Y27097D02*
D03*
Y23297D02*
D03*
Y209124D02*
D03*
Y212924D02*
D03*
X11811Y209124D02*
D03*
Y212924D02*
D03*
Y27097D02*
D03*
Y23297D02*
D03*
X120472Y11349D02*
D03*
Y7549D02*
D03*
X98327Y8730D02*
D03*
Y12530D02*
D03*
X112894D02*
D03*
Y8730D02*
D03*
X150750Y81603D02*
D03*
Y85403D02*
D03*
X184252Y7942D02*
D03*
Y11743D02*
D03*
D100*
X295669Y230315D02*
D03*
D101*
X322835Y91732D02*
D03*
X167323Y198819D02*
D03*
Y8661D02*
D03*
D102*
X124213Y47244D02*
D03*
X208858D02*
D03*
X209598Y157087D02*
D03*
X124213Y157087D02*
D03*
D103*
X246457Y219685D02*
D03*
D106*
X322835Y11811D02*
D03*
X11811D02*
D03*
Y224410D02*
D03*
X322835D02*
D03*
D107*
X16265Y228864D02*
D03*
X18110Y224410D02*
D03*
X11811Y230709D02*
D03*
X5512Y224410D02*
D03*
X11811Y218110D02*
D03*
X7357Y228864D02*
D03*
Y219955D02*
D03*
X16265D02*
D03*
X327289D02*
D03*
X318380D02*
D03*
Y228864D02*
D03*
X322835Y218110D02*
D03*
X316535Y224410D02*
D03*
X322835Y230709D02*
D03*
X329134Y224410D02*
D03*
X327289Y228864D02*
D03*
Y7357D02*
D03*
X318380D02*
D03*
Y16265D02*
D03*
X322835Y5512D02*
D03*
X316535Y11811D02*
D03*
X322835Y18110D02*
D03*
X329134Y11811D02*
D03*
X327289Y16265D02*
D03*
X16265Y7357D02*
D03*
X7357D02*
D03*
Y16265D02*
D03*
X11811Y5512D02*
D03*
X5512Y11811D02*
D03*
X11811Y18110D02*
D03*
X18110Y11811D02*
D03*
X16265Y16265D02*
D03*
M02*
