G04*
G04 #@! TF.GenerationSoftware,Altium Limited,Altium Designer,24.2.2 (26)*
G04*
G04 Layer_Color=32896*
%FSLAX25Y25*%
%MOIN*%
G70*
G04*
G04 #@! TF.SameCoordinates,B220CE68-074A-4F46-869C-E968B1748748*
G04*
G04*
G04 #@! TF.FilePolarity,Positive*
G04*
G01*
G75*
%ADD14C,0.00394*%
D14*
X274803Y114567D02*
Y118504D01*
X272835Y116535D02*
X276772D01*
X274213Y141732D02*
X276181D01*
X275197Y140748D02*
Y142717D01*
X275000Y66535D02*
X276969D01*
X275984Y65551D02*
Y67520D01*
X183071Y42126D02*
Y46063D01*
X181102Y44094D02*
X185039D01*
X150394Y48425D02*
Y52362D01*
X148425Y50394D02*
X152362D01*
X183139Y152362D02*
Y156299D01*
X181171Y154331D02*
X185108D01*
X150000Y158268D02*
Y162205D01*
X148031Y160236D02*
X151969D01*
X140157Y203543D02*
X144095D01*
X142126Y201575D02*
Y205512D01*
X158268Y100000D02*
X162205D01*
X160236Y98032D02*
Y101969D01*
Y92126D02*
Y96063D01*
X158268Y94095D02*
X162205D01*
X305906Y9843D02*
Y13780D01*
X303937Y11811D02*
X307874D01*
X303937Y224410D02*
X307874D01*
X305906Y222441D02*
Y226378D01*
X11811Y116142D02*
Y120079D01*
X9843Y118110D02*
X13780D01*
X19685Y25984D02*
X23622D01*
X21654Y24016D02*
Y27953D01*
X19685Y209449D02*
X23622D01*
X21654Y207480D02*
Y211417D01*
X26772Y209449D02*
X30709D01*
X28740Y207480D02*
Y211417D01*
X29528Y226772D02*
X33465D01*
X31496Y224803D02*
Y228740D01*
X29528Y230709D02*
X33465D01*
X31496Y228740D02*
Y232677D01*
X43701Y79134D02*
X47638D01*
X45669Y77165D02*
Y81102D01*
X43701Y104331D02*
X47638D01*
X45669Y102362D02*
Y106299D01*
X291732Y139764D02*
Y143701D01*
X289764Y141732D02*
X293701D01*
X291732Y114567D02*
Y118504D01*
X289764Y116535D02*
X293701D01*
X62598Y156496D02*
Y158465D01*
X61614Y157480D02*
X63583D01*
X43701Y210630D02*
X47638D01*
X45669Y208661D02*
Y212598D01*
X53937Y214961D02*
Y218898D01*
X51968Y216929D02*
X55905D01*
X61417Y183858D02*
Y187795D01*
X59449Y185827D02*
X63386D01*
X43701D02*
X47638D01*
X45669Y183858D02*
Y187795D01*
X61417Y209646D02*
Y211614D01*
X60433Y210630D02*
X62402D01*
X43701Y25984D02*
X47638D01*
X45669Y24016D02*
Y27953D01*
X43701Y51181D02*
X47638D01*
X45669Y49213D02*
Y53150D01*
X53543Y55512D02*
Y59449D01*
X51575Y57480D02*
X55512D01*
X61417Y24016D02*
Y27953D01*
X59449Y25984D02*
X63386D01*
X61417Y50295D02*
Y52264D01*
X60433Y51279D02*
X62402D01*
X28346Y24016D02*
Y27953D01*
X26378Y25984D02*
X30315D01*
X31102Y9843D02*
Y13780D01*
X29134Y11811D02*
X33071D01*
X29134Y7874D02*
X33071D01*
X31102Y5906D02*
Y9843D01*
X203543Y7874D02*
Y11811D01*
X201575Y9843D02*
X205512D01*
X211024D02*
X214961D01*
X212992Y7874D02*
Y11811D01*
X224016Y61417D02*
X227953D01*
X225984Y59449D02*
Y63386D01*
X242520Y26772D02*
X246457D01*
X244488Y24803D02*
Y28740D01*
X242126Y70079D02*
X246063D01*
X244094Y68110D02*
Y72047D01*
X235433Y81496D02*
X239370D01*
X237402Y79528D02*
Y83465D01*
X227559Y170079D02*
Y174016D01*
X225591Y172047D02*
X229528D01*
X243701Y130315D02*
Y134252D01*
X241732Y132283D02*
X245669D01*
X237936Y186371D02*
Y190308D01*
X235967Y188339D02*
X239904D01*
X199606Y118110D02*
Y122047D01*
X197638Y120079D02*
X201575D01*
X202756Y118110D02*
Y122047D01*
X200787Y120079D02*
X204724D01*
X208661Y118110D02*
Y122047D01*
X206693Y120079D02*
X210630D01*
X122835Y83366D02*
X126772D01*
X124803Y81398D02*
Y85335D01*
X129134Y83465D02*
X133071D01*
X131102Y81496D02*
Y85433D01*
X132283Y83465D02*
X136221D01*
X134252Y81496D02*
Y85433D01*
X88583Y65354D02*
Y69291D01*
X86614Y67323D02*
X90551D01*
X106693Y30709D02*
Y34646D01*
X104724Y32677D02*
X108661D01*
X95669Y11417D02*
Y15354D01*
X93701Y13386D02*
X97638D01*
X137008Y170472D02*
Y174409D01*
X135039Y172441D02*
X138976D01*
X143701Y149409D02*
Y151378D01*
X142717Y150394D02*
X144685D01*
X133858Y191339D02*
Y195276D01*
X131890Y193307D02*
X135827D01*
X130709Y191339D02*
Y195276D01*
X128740Y193307D02*
X132677D01*
X124409Y191339D02*
Y195276D01*
X122441Y193307D02*
X126378D01*
X106693Y147638D02*
Y151575D01*
X104724Y149606D02*
X108661D01*
X106693Y141732D02*
Y145669D01*
X104724Y143701D02*
X108661D01*
X88189Y174803D02*
Y178740D01*
X86221Y176772D02*
X90158D01*
X93701Y124016D02*
X97638D01*
X95669Y122047D02*
Y125984D01*
X315354Y166142D02*
Y170079D01*
X313386Y168110D02*
X317323D01*
X302362Y186221D02*
Y190157D01*
X300394Y188189D02*
X304331D01*
X308661Y181890D02*
X312598D01*
X310630Y179921D02*
Y183858D01*
X290945Y190551D02*
X294882D01*
X292913Y188583D02*
Y192520D01*
X143307Y103937D02*
X147244D01*
X145276Y101969D02*
Y105905D01*
X242717Y144882D02*
X244685D01*
X243701Y143898D02*
Y145866D01*
X252362Y92126D02*
X256299D01*
X254331Y90158D02*
Y94095D01*
X246850Y92126D02*
X250787D01*
X248819Y90158D02*
Y94095D01*
X195276Y29134D02*
Y33071D01*
X193307Y31102D02*
X197244D01*
X197047Y65748D02*
X199016D01*
X198031Y64764D02*
Y66732D01*
X212402Y63779D02*
X214370D01*
X213386Y62795D02*
Y64764D01*
X208268Y67913D02*
Y69882D01*
X207283Y68898D02*
X209252D01*
X220472Y84842D02*
Y86811D01*
X219488Y85827D02*
X221457D01*
X244094Y35236D02*
Y37205D01*
X243110Y36220D02*
X245079D01*
X214173Y80709D02*
Y84646D01*
X212205Y82677D02*
X216142D01*
X190551Y52953D02*
Y54921D01*
X189567Y53937D02*
X191535D01*
X215748Y28346D02*
Y32283D01*
X213779Y30315D02*
X217717D01*
X215748Y65354D02*
X219685D01*
X217717Y63386D02*
Y67323D01*
X220866Y79527D02*
Y83465D01*
X218898Y81496D02*
X222835D01*
X244094Y74016D02*
Y77953D01*
X242126Y75984D02*
X246063D01*
X225984Y53937D02*
Y57874D01*
X224016Y55905D02*
X227953D01*
X224016Y51968D02*
X227953D01*
X225984Y50000D02*
Y53937D01*
X244488Y30315D02*
Y34252D01*
X242520Y32283D02*
X246457D01*
X142323Y40551D02*
X144291D01*
X143307Y39567D02*
Y41535D01*
X135039Y26969D02*
Y28937D01*
X134055Y27953D02*
X136024D01*
X104724Y38583D02*
X108661D01*
X106693Y36614D02*
Y40551D01*
X114567Y27953D02*
Y31890D01*
X112598Y29921D02*
X116535D01*
X118504Y30512D02*
Y32480D01*
X117520Y31496D02*
X119488D01*
X116535Y66142D02*
X120472D01*
X118504Y64173D02*
Y68110D01*
X117323Y9449D02*
X121260D01*
X119291Y7480D02*
Y11417D01*
X106693Y40551D02*
Y44488D01*
X104724Y42520D02*
X108661D01*
X121063Y26378D02*
X123031D01*
X122047Y25394D02*
Y27362D01*
X86614Y61811D02*
X90551D01*
X88583Y59842D02*
Y63779D01*
X135039Y62992D02*
X138976D01*
X137008Y61024D02*
Y64961D01*
X87598Y57874D02*
X89567D01*
X88583Y56890D02*
Y58858D01*
X88189Y23622D02*
X92126D01*
X90158Y21654D02*
Y25591D01*
X88189Y19291D02*
X92126D01*
X90158Y17323D02*
Y21260D01*
X112205Y11811D02*
Y15748D01*
X110236Y13780D02*
X114173D01*
X111614Y9055D02*
X113583D01*
X112598Y8071D02*
Y10039D01*
X274410Y41339D02*
X278346D01*
X276378Y39370D02*
Y43307D01*
X283858Y70866D02*
Y74803D01*
X281890Y72835D02*
X285827D01*
X289462Y41569D02*
X293399D01*
X291430Y39601D02*
Y43538D01*
X289462Y66373D02*
X293399D01*
X291430Y64404D02*
Y68341D01*
X60827Y104232D02*
X62795D01*
X61811Y103248D02*
Y105217D01*
Y77165D02*
Y81102D01*
X59842Y79134D02*
X63779D01*
X51968Y110630D02*
X55905D01*
X53937Y108661D02*
Y112598D01*
X170472Y74803D02*
Y78740D01*
X168504Y76772D02*
X172441D01*
X174016Y74803D02*
Y78740D01*
X172047Y76772D02*
X175984D01*
X166929Y74803D02*
Y78740D01*
X164961Y76772D02*
X168898D01*
X154724Y20472D02*
X158661D01*
X156693Y18504D02*
Y22441D01*
X158268Y20472D02*
X162205D01*
X160236Y18504D02*
Y22441D01*
X161811Y20472D02*
X165748D01*
X163779Y18504D02*
Y22441D01*
X211811Y192520D02*
X215748D01*
X213779Y190551D02*
Y194488D01*
X280709Y148819D02*
X284646D01*
X282677Y146850D02*
Y150787D01*
X227165Y159843D02*
Y163779D01*
X225197Y161811D02*
X229134D01*
X227165Y163779D02*
Y167717D01*
X225197Y165748D02*
X229134D01*
X214567Y140157D02*
X218504D01*
X216535Y138189D02*
Y142126D01*
X210433Y178347D02*
X212402D01*
X211417Y177362D02*
Y179331D01*
X219685Y172972D02*
Y176909D01*
X217717Y174941D02*
X221654D01*
X215604Y172373D02*
Y174341D01*
X214619Y173357D02*
X216588D01*
X242520Y182677D02*
X246457D01*
X244488Y180709D02*
Y184646D01*
X242520Y177953D02*
X246457D01*
X244488Y175984D02*
Y179921D01*
X220669Y195276D02*
X222638D01*
X221654Y194291D02*
Y196260D01*
X189567Y163779D02*
X191535D01*
X190551Y162795D02*
Y164764D01*
X194095Y141339D02*
X198031D01*
X196063Y139370D02*
Y143307D01*
X198819Y175000D02*
Y176969D01*
X197835Y175984D02*
X199803D01*
X242717Y141732D02*
X244685D01*
X243701Y140748D02*
Y142717D01*
X241732Y137795D02*
X245669D01*
X243701Y135827D02*
Y139764D01*
X175197Y181890D02*
Y185827D01*
X173228Y183858D02*
X177165D01*
X172047Y181890D02*
Y185827D01*
X170079Y183858D02*
X174016D01*
X168898Y181890D02*
Y185827D01*
X166929Y183858D02*
X170866D01*
X158268Y128347D02*
Y132283D01*
X156299Y130315D02*
X160236D01*
X161811Y128347D02*
Y132283D01*
X159843Y130315D02*
X163779D01*
X165354Y128347D02*
Y132283D01*
X163386Y130315D02*
X167323D01*
X219685Y190945D02*
X223622D01*
X221654Y188976D02*
Y192913D01*
X62992Y130315D02*
Y134252D01*
X61024Y132283D02*
X64961D01*
X236221Y108661D02*
Y112598D01*
X234252Y110630D02*
X238189D01*
X241732Y108661D02*
Y112598D01*
X239764Y110630D02*
X243701D01*
X45276Y155118D02*
Y159055D01*
X43307Y157087D02*
X47244D01*
X45276Y130315D02*
Y134252D01*
X43307Y132283D02*
X47244D01*
X51968Y163386D02*
X55905D01*
X53937Y161417D02*
Y165354D01*
X115748Y176378D02*
X119685D01*
X117717Y174409D02*
Y178347D01*
X106693Y151575D02*
Y155512D01*
X104724Y153543D02*
X108661D01*
X117323Y119685D02*
X121260D01*
X119291Y117717D02*
Y121653D01*
X118504Y139961D02*
Y141929D01*
X117520Y140945D02*
X119488D01*
X114567Y137402D02*
Y141339D01*
X112598Y139370D02*
X116535D01*
X121850Y135827D02*
X123819D01*
X122835Y134843D02*
Y136811D01*
X135039Y137205D02*
Y139173D01*
X134055Y138189D02*
X136024D01*
X87402Y134646D02*
X91339D01*
X89370Y132677D02*
Y136614D01*
X87402Y129921D02*
X91339D01*
X89370Y127953D02*
Y131890D01*
X112402Y118898D02*
X114370D01*
X113386Y117913D02*
Y119882D01*
X110236Y123622D02*
X114173D01*
X112205Y121653D02*
Y125591D01*
X87205Y167323D02*
X89173D01*
X88189Y166339D02*
Y168307D01*
X86221Y171260D02*
X90158D01*
X88189Y169291D02*
Y173228D01*
M02*
