G04*
G04 #@! TF.GenerationSoftware,Altium Limited,Altium Designer,24.2.2 (26)*
G04*
G04 Layer_Color=16711935*
%FSLAX25Y25*%
%MOIN*%
G70*
G04*
G04 #@! TF.SameCoordinates,B220CE68-074A-4F46-869C-E968B1748748*
G04*
G04*
G04 #@! TF.FilePolarity,Positive*
G04*
G01*
G75*
%ADD14C,0.00394*%
%ADD15C,0.00787*%
%ADD16C,0.00500*%
D14*
X103937Y217736D02*
G03*
X103937Y217736I-1969J0D01*
G01*
X103150Y104724D02*
G03*
X103150Y104724I-1969J0D01*
G01*
X210236Y98169D02*
G03*
X210236Y98169I-1969J0D01*
G01*
X261417Y6299D02*
G03*
X261417Y6299I-1969J0D01*
G01*
X98228Y201398D02*
Y221476D01*
X122244Y201398D02*
Y221476D01*
X98228D02*
X122244D01*
X98228Y201398D02*
X122244D01*
X326772Y182283D02*
X329921D01*
X326772Y188583D02*
X329921D01*
X326772Y182283D02*
Y188583D01*
X329921Y182283D02*
Y188583D01*
X162106Y104035D02*
X170965D01*
X162106Y109350D02*
X170965D01*
X162106Y104035D02*
Y109350D01*
X170965Y104035D02*
Y109350D01*
X144882Y110039D02*
X151181D01*
X144882Y98622D02*
X151181D01*
X144882D02*
Y110039D01*
X151181Y98622D02*
Y110039D01*
X97441Y88386D02*
X121457D01*
X97441Y108465D02*
X121457D01*
Y88386D02*
Y108465D01*
X97441Y88386D02*
Y108465D01*
X100591Y25591D02*
X102559Y23622D01*
X100591D02*
X147835D01*
Y70866D01*
X100591D02*
X147835D01*
X100591Y23622D02*
Y70866D01*
X232480Y23622D02*
Y70866D01*
X185236Y23622D02*
X232480D01*
X185236D02*
Y70866D01*
X232480D01*
X230512D02*
X232480Y68898D01*
X212008Y94429D02*
Y114508D01*
X187992Y94429D02*
Y114508D01*
Y94429D02*
X212008D01*
X187992Y114508D02*
X212008D01*
X233221Y133465D02*
Y180709D01*
X185976Y133465D02*
X233221D01*
X185976D02*
Y180709D01*
X233221D01*
X231252D02*
X233221Y178740D01*
X100591Y135433D02*
X102559Y133465D01*
X100591D02*
X147835D01*
Y180709D01*
X100591D02*
X147835D01*
X100591Y133465D02*
Y180709D01*
X263189Y2559D02*
Y22638D01*
X239173Y2559D02*
Y22638D01*
Y2559D02*
X263189D01*
X239173Y22638D02*
X263189D01*
X175984Y103150D02*
Y109449D01*
X172835Y103150D02*
Y109449D01*
X175984D01*
X172835Y103150D02*
X175984D01*
X295072Y203105D02*
Y206255D01*
X288773Y203105D02*
Y206255D01*
Y203105D02*
X295072D01*
X288773Y206255D02*
X295072D01*
D15*
X29921Y83342D02*
G03*
X29921Y83342I-394J0D01*
G01*
X307480Y141043D02*
G03*
X307480Y141043I-394J0D01*
G01*
X29921Y38299D02*
G03*
X29921Y38299I-394J0D01*
G01*
Y173425D02*
G03*
X29921Y173425I-394J0D01*
G01*
Y128383D02*
G03*
X29921Y128383I-394J0D01*
G01*
X307480Y67028D02*
G03*
X307480Y67028I-394J0D01*
G01*
X252165Y126575D02*
X264370D01*
Y133268D01*
X252165D02*
X264370D01*
X252165Y126575D02*
Y133268D01*
X251772Y50984D02*
X263976D01*
Y57677D01*
X251772D02*
X263976D01*
X251772Y50984D02*
Y57677D01*
X73425Y194291D02*
Y200984D01*
X85630D01*
Y194291D02*
Y200984D01*
X73425Y194291D02*
X85630D01*
X73819Y141535D02*
Y148228D01*
X86024D01*
Y141535D02*
Y148228D01*
X73819Y141535D02*
X86024D01*
X73819Y88386D02*
X86024D01*
Y95079D01*
X73819D02*
X86024D01*
X73819Y88386D02*
Y95079D01*
Y35236D02*
X86024D01*
Y41929D01*
X73819D02*
X86024D01*
X73819Y35236D02*
Y41929D01*
X20669Y211811D02*
Y218110D01*
X32087D01*
Y211811D02*
Y218110D01*
X20669Y211811D02*
X32087D01*
Y18898D02*
Y25197D01*
X20669Y18898D02*
X32087D01*
X20669D02*
Y25197D01*
X32087D01*
X286569Y99457D02*
X292868D01*
Y88039D02*
Y99457D01*
X286569Y88039D02*
X292868D01*
X286569D02*
Y99457D01*
X287008Y7677D02*
Y19094D01*
Y7677D02*
X293307D01*
Y19094D01*
X287008D02*
X293307D01*
D16*
X6299Y74484D02*
Y116807D01*
Y74484D02*
X23031D01*
Y116807D01*
X6299D02*
X23031D01*
X330315Y107579D02*
Y149902D01*
X313583D02*
X330315D01*
X313583Y107579D02*
Y149902D01*
Y107579D02*
X330315D01*
X6299Y29441D02*
Y71764D01*
Y29441D02*
X23031D01*
Y71764D01*
X6299D02*
X23031D01*
X6299Y206890D02*
X23031D01*
Y164567D02*
Y206890D01*
X6299Y164567D02*
X23031D01*
X6299D02*
Y206890D01*
Y161848D02*
X23031D01*
Y119525D02*
Y161848D01*
X6299Y119525D02*
X23031D01*
X6299D02*
Y161848D01*
X313583Y33563D02*
X330315D01*
X313583D02*
Y75886D01*
X330315D01*
Y33563D02*
Y75886D01*
M02*
